<?xml version="1.0" encoding="UTF-8"?><svg xmlns="http://www.w3.org/2000/svg" xmlns:xlink="http://www.w3.org/1999/xlink" viewBox="0 0 255 257"><defs><style>.u{opacity:.1;}.v{fill:#f8d452;}.w{fill:#f8ddc7;}.x{fill:#67b794;}.y{fill:#ecd0b7;}.a`{fill:#f6ca72;}.aa{fill:#e4aa57;}.ab{fill:#e7ae80;}.ac{fill:#eeb143;}.ad{fill:#eeb870;}.ae{fill:#f3c4a1;}.af,.ag{fill:#fff;}.ah{fill:#f5d2b7;}.ai{fill:#f1f8fd;}.aj{fill:#fae9d8;}.ak{fill:#e5e5e4;}.al{fill:#f0bc89;}.am{fill:#979747;}.an{fill:#83c3e4;}.ao{fill:#b65c67;}.ap{fill:#bb8160;}.aq{fill:#92cee5;}.ar{fill:#cf9666;}.as{fill:#aaa;}.at{fill:#b1495c;}.au{fill:#b26750;}.av{fill:#bf8964;}.aw{fill:#bd6e55;}.ax{fill:#be7c5d;}.ay{fill:#bf875b;}.b`{fill:#cda16f;}.ba{fill:#ccc;}.bb{fill:#c8936d;}.bc{fill:#ddbc9c;}.bd{fill:#dfa95e;}.be{fill:#dd6853;}.bf{fill:#e0ab7d;}.bg{fill:#d98c6b;}.bh{fill:#c89541;}.bi{fill:#d6976f;}.bj{fill:#242449;}.bk{fill:#454242;}.bl{fill:#70b8d3;}.bm{fill:#959595;}.bn{fill:#542e22;}.bo{fill:#56703c;}.bp{fill:#599eb8;}.bq{fill:#575757;}.br{fill:#3c502b;}.bs{fill:#828383;}.bt{fill:#5eab8f;}.bu{fill:#76bd9c;}.bv{opacity:.8;}.bw{opacity:.75;}.bx{fill:#cce8f6;opacity:.92;}.by{fill:#96c5d9;opacity:.78;}.ag{opacity:.23;}</style><symbol id="a" viewBox="0 0 30 30"><circle cx="15" cy="15" r="15" style="fill:#f3c4a1;"/></symbol><symbol id="b" viewBox="0 0 17 17"><circle cx="8.5" cy="8.5" r="8.5" style="fill:#f5d2b7;"/></symbol><symbol id="c" viewBox="0 0 14 14"><circle cx="7" cy="7" r="7" style="fill:#f1f8fd;"/></symbol><symbol id="d" viewBox="0 0 5 5"><circle cx="2.5" cy="2.5" r="2.5" style="fill:#fff;"/></symbol></defs><g id="e"/><g id="f"/><g id="g"/><g id="h"/><g id="i"/><g id="j"/><g id="k"/><g id="l"><rect width="255" height="257" style="fill:#ccc;"/></g><g id="m"><g><path d="M74.61,137.7h126.35c.06,0,.11,.05,.11,.11v118.27c0,.06-.05,.11-.11,.11H74.61c-.06,0-.11-.05-.11-.11v-118.27c0-.06,.05-.11,.11-.11Z" style="fill:#ddbc9c;"/><path d="M200.96,257H74.61c-.51,0-.92-.41-.92-.92v-118.27c0-.51,.41-.92,.92-.92h126.35c.51,0,.92,.41,.92,.92v118.27c0,.51-.41,.92-.92,.92Zm-125.65-1.63h124.94v-116.86H75.31v116.86Z"/></g><g><path d="M126.71,175.43c.35-1.06-2.53-.45-1.68-1.13,2.81-2.26,.56-5.08-.56-5.08-.94,0-3.18,.46-3.93,2.26-.79,1.89,.86,3.22,0,5.64-.48,1.33-1.49,2.36-1.68,2.26-.17-.09,.31-.93,.56-2.26,.54-2.88-.79-3.97,0-5.64,.73-1.56,2.38-1.66,2.25-2.26-1.68,.56-3.93,0-5.05,0s-1.68,2.26-1.4,1.97,.28-.85,1.12-.56,3.65-.28,2.53,.28-1.68,2.26-1.68,2.82c0,1.13-1.68,0-2.25,1.69-.06,.18,1.41-.58,2.25,0,.34,.23,1,1.13,.56,1.13-1.68,0-1.77,1.47-1.68,1.69,.08,.2,1.39-.38,1.68,0,.54,.68-2.83,3.71-2.25,4.51,.21,.28,.88,.28,1.12,0,.27-.31-.17-.78,0-1.13,.35-.74,2.81-1.13,5.62,0,.99,.4,0-1.13,3.93-1.69,1.35-.19,0-2.82,.56-4.51Zm-2.25,3.39c-.91,.98-3.21,.6-3.37,0-.12-.43,.99-.59,1.68-1.69,1.31-2.11-.8-4.62,.56-6.21,.3-.35,.82-.71,1.12-.56,.51,.24,.02,1.65,0,3.95-.03,2.87,.69,3.76,0,4.51Z" style="fill:#aaa;"/><path d="M116.02,183.08s-.03,0-.05,0c-.26-.01-.47-.1-.58-.25-.35-.48,.39-1.47,1.17-2.52,.57-.77,1.29-1.73,1.07-1.99-.14-.17-.67-.06-1.02,0-.39,.08-.62,.13-.68-.04-.05-.14-.06-.67,.26-1.14,.22-.32,.66-.69,1.52-.69,.03,0,.04,0,.04,0,.06-.1-.35-.72-.66-.94-.54-.37-1.39-.14-1.84-.02-.26,.07-.35,.1-.42,.03l-.04-.04,.02-.08c.33-.98,1.03-1.08,1.55-1.15,.47-.06,.69-.11,.69-.52,0-.61,.59-2.33,1.74-2.91,.05-.03,.09-.05,.12-.07-.18-.01-.52,0-.82,.02-.67,.04-1.43,.08-1.82-.05-.56-.18-.68,.02-.83,.27-.05,.09-.11,.19-.19,.27-.08,.08-.15,.05-.17,.04-.06-.04-.11-.12-.02-.48,.16-.59,.68-1.7,1.52-1.7,.33,0,.75,.05,1.24,.1,1.16,.13,2.61,.3,3.79-.1l.11-.04,.02,.11c.07,.33-.25,.52-.66,.77-.5,.3-1.19,.7-1.59,1.55-.38,.81-.25,1.48-.08,2.32,.16,.82,.36,1.85,.09,3.3-.12,.67-.31,1.21-.44,1.61-.07,.22-.15,.45-.15,.54,.21-.06,1.09-.98,1.52-2.2,.44-1.23,.21-2.16,0-3.06-.2-.85-.39-1.65,0-2.59,.8-1.9,3.18-2.32,4.02-2.32,.6,0,1.49,.71,1.86,1.78,.25,.73,.43,2.15-1.23,3.48-.11,.09-.12,.12-.12,.13,.04,.04,.36,.08,.57,.1,.48,.05,1.03,.11,1.23,.42,.08,.12,.09,.27,.03,.44h0c-.23,.7-.12,1.59-.03,2.38,.13,1.07,.26,2.08-.61,2.2-2.41,.35-2.94,1.06-3.22,1.44-.18,.25-.32,.43-.76,.25-2.87-1.15-5.18-.69-5.49-.05-.06,.13-.02,.29,.03,.46,.06,.23,.13,.48-.05,.69-.16,.18-.43,.24-.66,.24Zm1.31-5.06c.2,0,.37,.04,.47,.17,.31,.39-.33,1.25-1.07,2.24-.64,.86-1.43,1.92-1.17,2.28,.07,.09,.23,.16,.42,.17,.22,.02,.44-.06,.54-.17,.1-.12,.07-.27,0-.5-.05-.19-.11-.41-.02-.61,.38-.79,2.86-1.21,5.74-.05,.3,.12,.35,.06,.52-.18,.3-.41,.86-1.16,3.35-1.52,.64-.09,.59-.81,.44-1.98-.1-.81-.21-1.72,.04-2.47h0c.04-.11,.03-.2-.01-.27-.14-.22-.66-.28-1.08-.32-.42-.05-.7-.08-.75-.25-.04-.13,.09-.25,.19-.33,1.56-1.26,1.4-2.58,1.17-3.26-.34-.97-1.15-1.64-1.66-1.64-.81,0-3.08,.39-3.84,2.2-.37,.88-.19,1.65,0,2.47,.21,.88,.45,1.89,0,3.17-.41,1.16-1.26,2.16-1.64,2.31-.07,.03-.13,.03-.18,0-.16-.08-.09-.3,.08-.79,.13-.39,.31-.92,.43-1.58,.26-1.41,.08-2.38-.09-3.22-.17-.84-.31-1.57,.1-2.44,.43-.91,1.15-1.33,1.67-1.64,.3-.18,.5-.3,.56-.43-1.19,.35-2.59,.19-3.73,.06-.48-.05-.89-.1-1.21-.1-.29,0-.56,.17-.82,.5-.29,.37-.47,.85-.53,1.13,.01-.02,.02-.03,.03-.05,.16-.27,.36-.6,1.07-.36,.36,.12,1.13,.08,1.75,.04,.81-.05,1.06-.05,1.11,.11,.03,.12-.09,.21-.31,.32-1.06,.53-1.63,2.18-1.63,2.73,0,.6-.44,.66-.87,.72-.49,.06-1.04,.14-1.34,.88,.05-.01,.1-.03,.15-.04,.48-.13,1.39-.38,2.01,.05,.26,.18,.83,.86,.74,1.16-.01,.05-.06,.15-.23,.15-.62,0-1.08,.2-1.35,.61-.25,.37-.27,.8-.25,.93,.07,0,.29-.03,.46-.07,.25-.05,.52-.11,.75-.11Zm5.41,1.5c-.3,0-.6-.04-.87-.1-.49-.12-.81-.33-.87-.57-.07-.27,.19-.45,.52-.66,.35-.23,.82-.54,1.18-1.11,.64-1.03,.44-2.16,.24-3.25-.2-1.1-.38-2.15,.33-2.97,.29-.34,.86-.77,1.24-.59,.38,.17,.31,.78,.21,1.78-.06,.61-.14,1.37-.15,2.26-.01,1.21,.11,2.08,.2,2.71,.12,.88,.2,1.4-.23,1.87h0c-.41,.44-1.12,.63-1.8,.63Zm1.57-9.1c-.25,0-.63,.27-.89,.56-.65,.75-.47,1.75-.28,2.8,.2,1.13,.41,2.3-.27,3.39-.38,.61-.88,.93-1.24,1.17-.3,.2-.47,.31-.43,.44,.04,.16,.33,.33,.73,.43,.82,.21,1.93,.11,2.47-.47h0c.37-.4,.3-.83,.18-1.7-.09-.64-.22-1.52-.21-2.74,0-.9,.09-1.67,.15-2.28,.09-.88,.15-1.46-.09-1.58-.03-.02-.07-.02-.12-.02Z" style="fill:#828383;"/></g><g><path d="M133.16,173.6c0-.09-.06-.16-.15-.17-.47-.08-1.96-.4-2.66-1.1-.84,1.41-2.28,.91-2.25,1.13,.27,1.89,.28,3.59,.28,5.65,0,.27,.12,.27,.27,.29,1.51,.19,2.26,1.96,2.26,1.96,0,0,.5-1.51,2.22-1.92,.15-.03,.25-.17,.23-.32-.18-1.04-.2-4.73-.2-5.52Zm-1.97,5.21l-1.12-.56v-3.95l1.12,.56v3.95Z" style="fill:#aaa;"/><path d="M130.93,181.64l-.11-.24s-.75-1.71-2.18-1.9h-.03c-.14-.02-.33-.04-.33-.39,0-2.22-.02-3.81-.28-5.64,0-.04,0-.08,.03-.11,.06-.07,.16-.07,.35-.08,.46-.02,1.3-.05,1.88-1l.07-.11,.09,.09c.69,.69,2.17,1,2.61,1.08,.14,.02,.23,.14,.23,.27h0c0,1.04,.03,4.5,.2,5.5,.03,.2-.1,.39-.3,.44-1.64,.38-2.14,1.84-2.15,1.85l-.08,.25Zm-2.71-8.15c.25,1.82,.27,3.4,.28,5.61,0,.17,.02,.17,.15,.19h.03c1.25,.16,1.98,1.33,2.24,1.82,.21-.44,.83-1.45,2.2-1.77,.1-.02,.17-.11,.15-.2-.17-1.01-.2-4.49-.2-5.53h0s-.03-.06-.06-.07c-.43-.08-1.86-.37-2.62-1.05-.63,.95-1.53,.98-1.98,1-.06,0-.14,0-.18,.01Zm3.08,5.49l-1.33-.67v-4.18l1.33,.67v4.18Zm-1.12-.79l.92,.46v-3.72l-.92-.46v3.72Z" style="fill:#828383;"/></g><g><path d="M140.18,170.92c-1.12,0-1.12,1.13-.56,1.13-.75,.65-1.68,.56-3.37,0-.56,1.13-1.68,1.69-1.68,1.69v2.82c0-.56,1.12,.56,1.68,1.13,1-.46,3.93-4.51,4.49-5.08,.56-1.13-.33-1.69-.56-1.69Zm-3.37,5.08h-.56v-2.26l2.25,.56-1.68,1.69Z" style="fill:#aaa;"/><path d="M136.23,177.81l-.05-.05c-.86-.87-1.36-1.29-1.51-1.25,0,0,0,.02,0,.05h-.2v-2.88l.06-.03s1.1-.56,1.64-1.65l.04-.08,.08,.03c1.64,.55,2.47,.6,3.11,.14-.15-.08-.25-.25-.25-.47s.09-.4,.25-.55c.13-.12,.37-.26,.78-.26,.16,0,.48,.17,.67,.49,.16,.27,.29,.72-.02,1.35l-.02,.03c-.16,.16-.54,.64-1.01,1.24-1.17,1.49-2.78,3.52-3.51,3.86l-.06,.03Zm-1.56-1.5c.28,0,.79,.45,1.6,1.26,.72-.4,2.31-2.42,3.37-3.77,.47-.59,.84-1.07,1.02-1.25,.26-.54,.16-.92,.02-1.14-.17-.27-.43-.39-.5-.39-.27,0-.49,.07-.64,.21-.12,.11-.18,.25-.18,.4,0,.16,.08,.32,.27,.32h.27l-.21,.18c-.82,.7-1.82,.56-3.38,.05-.51,.97-1.4,1.5-1.63,1.63v2.51h0Zm2.18-.21h-.7v-2.49l2.54,.64-1.84,1.85Zm-.5-.2h.42l1.53-1.54-1.95-.49v2.03Z" style="fill:#828383;"/></g><g><g><path d="M140.88,176.5h0c0-.09,0-.07,0,0Z" style="fill:#aaa;"/><path d="M140.88,176.54v-.04h-.1v-.06s.01-.07,.05-.09l.05-.03,.05,.03s.05,.04,.05,.09h0v.06h-.1v.04Z" style="fill:#828383;"/></g><g><path d="M140.88,176.5c.01,.56-1.13-.54-1.71-1.1-.99,.48-3.84,4.59-4.39,5.16-.54,1.14,.37,1.69,.59,1.68,1.12-.02,1.1-1.15,.54-1.14,.74-.67,1.67-.6,3.37-.06,.54-1.14,1.65-1.72,1.65-1.72,0,0-.05-2.42-.05-2.82Zm-3.89,2.33l1.65-1.72h.56l.04,2.25-2.26-.52Z" style="fill:#aaa;"/><path d="M135.37,182.35c-.16,0-.48-.16-.68-.48-.17-.26-.31-.71,0-1.35l.02-.03c.16-.17,.53-.65,.99-1.26,1.15-1.51,2.71-3.58,3.43-3.92l.06-.03,.05,.05c.84,.81,1.35,1.23,1.51,1.23h.02s0-.02,0-.05h.2l.05,2.88-.05,.03s-1.09,.59-1.61,1.68l-.04,.08-.08-.03c-1.65-.52-2.48-.55-3.12-.08,.15,.08,.25,.25,.26,.46,0,.39-.31,.82-1.02,.83h0Zm-.51-1.73c-.25,.55-.14,.92,0,1.14,.17,.27,.44,.39,.51,.39h0c.57-.01,.82-.33,.82-.62,0-.16-.09-.31-.27-.31h-.28l.2-.18c.8-.72,1.81-.6,3.38-.11,.49-.97,1.37-1.53,1.6-1.66l-.05-2.5h-.01c-.28,0-.8-.44-1.62-1.23-.71,.41-2.26,2.46-3.3,3.83-.46,.6-.82,1.08-.99,1.27Zm4.49-1.14l-2.56-.59,1.81-1.88h.7l.05,2.47Zm-2.16-.71l1.96,.45-.04-2.03h-.42l-1.5,1.57Z" style="fill:#828383;"/></g></g><g><path d="M146.92,170.92c-1.12,0-1.12,1.13-.56,1.13-.75,.65-1.68,.56-3.37,0-.56,1.13-1.68,1.69-1.68,1.69v2.82c0-.56,1.12,.56,1.68,1.13,1-.46,3.93-4.51,4.49-5.08,.56-1.13-.33-1.69-.56-1.69Zm-3.37,5.08h-.56v-2.26l2.25,.56-1.68,1.69Z" style="fill:#aaa;"/><path d="M142.97,177.81l-.05-.05c-.83-.83-1.33-1.26-1.49-1.26h-.02s0,.02,0,.05h-.2v-2.88l.06-.03s1.1-.56,1.64-1.65l.04-.08,.08,.03c1.64,.55,2.47,.6,3.11,.14-.15-.08-.25-.25-.25-.47s.09-.4,.25-.55c.13-.12,.37-.26,.78-.26,.16,0,.48,.17,.67,.49,.16,.27,.29,.72-.02,1.35l-.02,.03c-.16,.16-.54,.64-1.01,1.24-1.17,1.49-2.78,3.52-3.51,3.86l-.06,.03Zm-1.56-1.5c.28,0,.79,.45,1.6,1.26,.72-.4,2.31-2.42,3.37-3.77,.47-.59,.84-1.07,1.02-1.25,.26-.54,.16-.92,.02-1.14-.17-.27-.43-.39-.5-.39-.27,0-.49,.07-.64,.21-.12,.11-.18,.25-.18,.4,0,.16,.08,.32,.27,.32h.27l-.21,.18c-.82,.7-1.82,.56-3.38,.05-.51,.97-1.4,1.5-1.63,1.63v2.51h0Zm2.18-.21h-.7v-2.49l2.54,.64-1.84,1.85Zm-.5-.2h.42l1.53-1.54-1.95-.49v2.03Z" style="fill:#828383;"/></g><g><g><path d="M147.62,176.5h0c0-.09,0-.07,0,0Z" style="fill:#aaa;"/><path d="M147.62,176.54v-.04h-.1v-.05s.01-.07,.05-.09l.05-.03,.05,.03s.05,.05,.05,.09h0v.06h-.1v.04Z" style="fill:#828383;"/></g><g><path d="M147.62,176.5c.01,.56-1.13-.54-1.71-1.1-.99,.48-3.84,4.59-4.39,5.16-.54,1.14,.37,1.69,.59,1.68,1.12-.02,1.1-1.15,.54-1.14,.74-.67,1.67-.6,3.37-.06,.54-1.14,1.65-1.72,1.65-1.72,0,0-.05-2.42-.05-2.82Zm-3.89,2.33l1.65-1.72h.56l.04,2.25-2.26-.52Z" style="fill:#aaa;"/><path d="M142.11,182.35c-.16,0-.48-.16-.68-.48-.17-.26-.31-.71,0-1.35l.02-.03c.16-.17,.53-.65,.99-1.26,1.15-1.51,2.71-3.58,3.43-3.92l.06-.03,.05,.05c.84,.81,1.35,1.23,1.51,1.23h.02s0-.02,0-.05h.2l.05,2.88-.05,.03s-1.09,.59-1.61,1.68l-.04,.08-.08-.03c-1.65-.52-2.48-.55-3.12-.08,.15,.08,.25,.25,.26,.46,0,.39-.31,.82-1.02,.83h0Zm-.51-1.73c-.25,.55-.14,.92,0,1.14,.17,.27,.44,.39,.51,.39h0c.57-.01,.82-.33,.82-.62,0-.16-.09-.31-.27-.31h-.28l.2-.18c.8-.72,1.81-.6,3.38-.11,.49-.97,1.37-1.53,1.6-1.66l-.05-2.5h-.01c-.28,0-.8-.44-1.62-1.23-.71,.41-2.26,2.46-3.3,3.83-.46,.6-.82,1.08-.99,1.27Zm4.49-1.14l-2.56-.59,1.81-1.88h.7l.05,2.47Zm-2.16-.71l1.96,.45-.04-2.03h-.42l-1.5,1.57Z" style="fill:#828383;"/></g></g><g><path d="M199.98,137.7h-47.55c.76,9.7,.43,21.48-2.73,34.42-4.12,16.88-11.48,29.35-16.86,36.98-5.5-7.09-15.44-21.86-19.52-43.29-2.01-10.53-2.1-20.08-1.38-28.11h-36.35c-.6,0-1.08,.49-1.08,1.09v116.31c0,.6,.48,1.09,1.08,1.09h43.63c3.89-3.02,6.54-6.14,7.21-9.41,1.25,3.47,3.89,6.56,7.41,9.41h66.14c.6,0,1.08-.49,1.08-1.09v-116.31c0-.6-.48-1.09-1.08-1.09Z" style="fill:#dd6853;"/><path d="M199.98,257h-66.43l-.22-.18c-3.16-2.56-5.4-5.12-6.79-7.79-1.13,2.55-3.39,5.12-6.83,7.79l-.22,.17h-43.91c-1.04,0-1.89-.85-1.89-1.9v-116.31c0-1.05,.85-1.9,1.89-1.9h37.23l-.08,.89c-.83,9.35-.37,18.73,1.37,27.89,3.63,19.03,12.03,33.26,18.69,42.07,7.56-10.94,12.97-22.98,16.11-35.8,2.71-11.1,3.62-22.59,2.71-34.16l-.07-.88h48.43c1.04,0,1.89,.85,1.89,1.9v116.31c0,1.05-.85,1.9-1.89,1.9Zm-65.86-1.63h65.86c.15,0,.27-.12,.27-.27v-116.31c0-.15-.12-.27-.27-.27h-46.68c.81,11.44-.14,22.81-2.82,33.8-3.27,13.37-8.98,25.91-16.99,37.26l-.63,.89-.67-.86c-6.87-8.87-15.87-23.64-19.68-43.63-1.72-9.02-2.21-18.25-1.47-27.45h-35.47c-.15,0-.27,.12-.27,.27v116.31c0,.15,.12,.27,.27,.27h43.35c3.93-3.09,6.12-5.96,6.7-8.76l.58-2.81,.98,2.7c1.1,3.04,3.37,5.94,6.94,8.87Z"/></g><path d="M127.01,219.67c-.17,0-.34-.05-.48-.16-.36-.27-.43-.78-.16-1.14,1.17-1.58,2.35-3.15,3.52-4.73,12.24-16.39,24.9-33.34,33.1-50.27,.2-.4,.68-.57,1.08-.38,.4,.2,.57,.68,.37,1.09-8.27,17.08-20.98,34.09-33.26,50.54-1.18,1.57-2.35,3.15-3.52,4.72-.16,.21-.4,.33-.65,.33Z"/><path d="M127.42,219.44c-.17,0-.34-.05-.49-.17-.35-.27-.42-.78-.15-1.14,1.19-1.56,2.38-3.12,3.58-4.68,12.44-16.24,25.3-33.03,33.72-49.87,.2-.4,.68-.56,1.09-.36,.4,.2,.56,.69,.36,1.09-8.48,16.97-21.39,33.83-33.88,50.13-1.19,1.56-2.39,3.12-3.58,4.67-.16,.21-.4,.32-.64,.32Z"/><path d="M164.29,164.2c-.2,0-.4-.08-.56-.23l-10.86-10.5c-.32-.31-.33-.83-.02-1.15,.31-.32,.82-.33,1.14-.02l10.86,10.5c.32,.31,.33,.83,.02,1.15-.16,.17-.37,.25-.58,.25Z"/><path d="M153.43,154.51c-.53,0-1.01-.35-1.17-.88-.18-.65,.19-1.32,.83-1.51l10.86-3.12c.64-.19,1.32,.19,1.5,.84,.18,.65-.19,1.32-.83,1.51l-10.86,3.12c-.11,.03-.22,.05-.33,.05Z"/><path d="M164.88,150.99c-.38,0-.72-.27-.8-.67-.73-4.05-2.27-8.16-4.56-12.22-.22-.39-.08-.89,.31-1.11,.39-.22,.88-.08,1.1,.31,2.38,4.22,3.98,8.5,4.75,12.73,.08,.44-.21,.87-.65,.95-.05,0-.1,.01-.15,.01Z"/><path d="M131.83,211.35c-.23,0-.46-.1-.62-.29-13.34-16.04-24.2-29.65-32.55-46.49-.2-.4-.04-.89,.36-1.09,.4-.2,.89-.04,1.09,.36,8.28,16.68,19.08,30.21,32.35,46.17,.29,.34,.24,.86-.1,1.15-.15,.13-.34,.19-.52,.19Z"/><path d="M99.38,164.6c-.22,0-.44-.09-.6-.27-.3-.33-.28-.85,.05-1.15l11.9-10.87c.33-.3,.84-.28,1.14,.05,.3,.33,.28,.85-.05,1.15l-11.9,10.87c-.15,.14-.35,.21-.54,.21Z"/><g><ellipse cx="131.83" cy="239.88" rx="1.08" ry="1.09" style="fill:#542e22;"/><path d="M131.83,241.78c-1.04,0-1.89-.85-1.89-1.9s.85-1.9,1.89-1.9,1.89,.85,1.89,1.9-.85,1.9-1.89,1.9Zm0-2.17c-.15,0-.27,.12-.27,.27s.12,.27,.27,.27,.27-.12,.27-.27-.12-.27-.27-.27Z"/></g><g><ellipse cx="131.83" cy="221.4" rx="1.08" ry="1.09" style="fill:#542e22;"/><path d="M131.83,223.3c-1.04,0-1.89-.85-1.89-1.9s.85-1.9,1.89-1.9,1.89,.85,1.89,1.9-.85,1.9-1.89,1.9Zm0-2.17c-.15,0-.27,.12-.27,.27s.12,.27,.27,.27,.27-.12,.27-.27-.12-.27-.27-.27Z"/></g><g><rect x="72.88" y="219.26" width="24.34" height="10.3" rx="1" ry="1"/><path d="M96.41,229.76h-22.72c-.56,0-1.01-.46-1.01-1.02v-8.67c0-.56,.45-1.02,1.01-1.02h22.72c.56,0,1.01,.46,1.01,1.02v8.67c0,.56-.45,1.02-1.01,1.02Zm-22.72-10.3c-.33,0-.61,.27-.61,.61v8.67c0,.34,.27,.61,.61,.61h22.72c.33,0,.61-.27,.61-.61v-8.67c0-.34-.27-.61-.61-.61h-22.72Z"/></g><g><rect x="73.52" y="218.61" width="23.06" height="10.3" rx="1" ry="1" style="fill:#dd6853;"/><path d="M95.77,229.11h-21.44c-.56,0-1.01-.46-1.01-1.02v-8.67c0-.56,.45-1.02,1.01-1.02h21.44c.56,0,1.01,.46,1.01,1.02v8.67c0,.56-.45,1.02-1.01,1.02Zm-21.44-10.3c-.33,0-.61,.27-.61,.61v8.67c0,.34,.27,.61,.61,.61h21.44c.33,0,.61-.27,.61-.61v-8.67c0-.34-.27-.61-.61-.61h-21.44Z"/></g><path d="M94.51,221.27h-10.82c-.22,0-.4-.18-.4-.41s.18-.41,.4-.41h10.82c.22,0,.4,.18,.4,.41s-.18,.41-.4,.41Z" style="fill:#fff; opacity:.23;"/><g><rect x="171.32" y="219.26" width="24.34" height="10.3" rx="1" ry="1"/><path d="M194.85,229.76h-22.72c-.56,0-1.01-.46-1.01-1.02v-8.67c0-.56,.45-1.02,1.01-1.02h22.72c.56,0,1.01,.46,1.01,1.02v8.67c0,.56-.45,1.02-1.01,1.02Zm-22.72-10.3c-.33,0-.61,.27-.61,.61v8.67c0,.34,.27,.61,.61,.61h22.72c.33,0,.61-.27,.61-.61v-8.67c0-.34-.27-.61-.61-.61h-22.72Z"/></g><g><rect x="171.96" y="218.61" width="23.06" height="10.3" rx="1" ry="1" style="fill:#dd6853;"/><path d="M194.21,229.11h-21.44c-.56,0-1.01-.46-1.01-1.02v-8.67c0-.56,.45-1.02,1.01-1.02h21.44c.56,0,1.01,.46,1.01,1.02v8.67c0,.56-.45,1.02-1.01,1.02Zm-21.44-10.3c-.33,0-.61,.27-.61,.61v8.67c0,.34,.27,.61,.61,.61h21.44c.33,0,.61-.27,.61-.61v-8.67c0-.34-.27-.61-.61-.61h-21.44Z"/></g><path d="M192.95,221.27h-10.82c-.22,0-.4-.18-.4-.41s.18-.41,.4-.41h10.82c.22,0,.4,.18,.4,.41s-.18,.41-.4,.41Z" style="fill:#fff; opacity:.23;"/><path d="M126.53,248.47h-.01c-.45,0-.8-.38-.8-.83l.43-28.59c0-.44,.37-.8,.81-.8h.01c.45,0,.8,.38,.8,.83l-.43,28.59c0,.44-.37,.8-.81,.8Z"/><g><g><path d="M128.59,159.27c10.82,0,28.32-11.96,48.68-11.96,4.45,0,8.79,.31,12.99,.87,.36,.05,.73,0,1.06-.16,10.38-4.91,17.32-13.86,17.32-24.08s-6.61-18.74-16.57-23.72c-.26-.13-.48-.32-.65-.55-10.01-13.73-29.06-23.01-50.92-23.01s-42.69,10.17-52.27,24.98c0,.01-.02,.02-.03,.03-11.52,6-19.09,16.18-19.09,27.72,0,7.15,2.91,13.76,7.85,19.2,.53,.58,1.37,.74,2.11,.46,4.64-1.81,9.67-2.8,14.92-2.8,13.6,0,23.8,13.04,34.62,13.04Z" style="fill:#ddbc9c;"/><path d="M128.59,160.08c-5.32,0-10.37-2.95-15.71-6.07-5.87-3.43-11.93-6.97-18.9-6.97-5.03,0-9.95,.93-14.63,2.75-1.07,.42-2.25,.16-3-.67-5.28-5.8-8.07-12.62-8.07-19.75,0-11.38,7.23-21.96,19.36-28.35,10.15-15.54,30.37-25.18,52.84-25.18,21.31,0,41.08,8.94,51.58,23.34,.09,.13,.22,.23,.36,.31,10.66,5.33,17.02,14.47,17.02,24.45s-6.65,19.54-17.79,24.82c-.47,.22-1,.3-1.51,.23-4.25-.57-8.58-.87-12.88-.87-11.63,0-22.16,3.89-31.44,7.32-6.73,2.49-12.53,4.63-17.24,4.63Zm-34.62-14.67c7.41,0,13.66,3.66,19.71,7.19,5.15,3.01,10.02,5.85,14.9,5.85,4.42,0,10.1-2.1,16.68-4.53,8.94-3.31,20.08-7.42,32-7.42,4.37,0,8.77,.3,13.09,.88,.21,.03,.42,0,.61-.09,10.56-5,16.86-13.73,16.86-23.35s-6.03-17.94-16.12-23c-.37-.19-.7-.46-.95-.8-10.2-13.99-29.46-22.67-50.27-22.67-22,0-41.77,9.43-51.59,24.61l-.11,.17-.2,.13c-11.71,6.1-18.68,16.19-18.68,27.01,0,6.71,2.64,13.16,7.64,18.65,.29,.32,.78,.42,1.22,.25,4.87-1.9,9.98-2.86,15.21-2.86Z"/></g><path d="M128.59,160.35c-3.34-.49-6.06-.39-15.85-6.11-5.83-3.41-11.87-6.93-18.76-6.93-5,0-9.89,.92-14.53,2.73-1.18,.46-2.47,.17-3.29-.74-5.32-5.85-8.14-12.74-8.14-19.93,0-11.46,7.26-22.12,19.44-28.56,10.21-15.58,30.51-25.25,53.03-25.25s41.24,8.99,51.8,23.45l.27,.23c10.75,5.38,17.17,14.61,17.17,24.7s-6.71,19.74-17.94,25.06c-.32,.15-1.2,.19-1.67,.26-6.68,.98-11.59,1.23-12.95,1.31-9.96,.62-21.94,4.79-23.8,5.44-6.23,2.17-8.46,3.62-14.06,4.35-5.5,.72-9.71,.15-10.71,0Zm-34.62-15.22c7.48,0,13.77,3.67,19.85,7.23,5.12,2.99,9.96,5.82,14.77,5.82,4.37,0,10.03-2.09,16.59-4.52,8.97-3.32,20.12-7.44,32.09-7.44,4.37,0,8.79,.3,13.13,.88,.16,.02,.32,0,.46-.07,10.45-4.95,16.7-13.59,16.7-23.1s-5.97-17.74-15.96-22.75c-.42-.21-.78-.51-1.06-.89-10.15-13.91-29.33-22.56-50.05-22.56-21.91,0-41.59,9.38-51.36,24.48l-.16,.25-.29,.16c-11.58,6.03-18.49,16.03-18.49,26.74,0,6.64,2.62,13.03,7.57,18.46,.21,.24,.58,.3,.91,.18,4.9-1.91,10.05-2.88,15.31-2.88Z"/></g><path d="M162.12,143.14c-17.31-9.78-55.17-7.61-59.5,1.09-19.47-6.52-31.37-60.87,11.9-39.13,43.27,21.74-12.98,22.83,32.45-2.17,45.43-25,41.11,32.61,15.14,40.22Z" style="fill:#fae9d8;"/><g><path d="M154.55,114.88c0,3.44,5.41,8.7,9.74,8.7,3.89,0,9.51-5.26,10.61-8.7h-20.35Z" style="fill:#f8d452;"/><path d="M164.29,123.77c-3.83,0-9.94-4.86-9.94-8.9v-.2h20.83l-.08,.27c-1.17,3.65-6.95,8.84-10.8,8.84Zm-9.53-8.7c.21,3.28,5.29,8.29,9.53,8.29,3.1,0,8.84-4.24,10.33-8.29h-19.85Z"/></g><path d="M175.31,110.03c6.28-3.85-.96-4.95-6.99-4.84-6.12,.11-13.11,1.94-14.85,9.69h9.74c5.79,0,6.56-1.44,12.11-4.84Z" style="fill:#959595;"/><path d="M173.62,104.08c-3.09,.02-5.94,.62-8.37,1.33,1.03-.13,2.06-.2,3.07-.22,6.03-.1,13.27,.99,6.99,4.84-5.55,3.41-6.44,4.84-12.23,4.84h-2.35c7.88,0,12.36,.67,17.62-1.09,9.74-3.26,9.74-4.62,17.31-6.52,4.33-1.09-10.82-3.26-22.04-3.19Z" style="fill:#979747;"/><path d="M158.95,114.88c1.01,2.17,2.35,3.26,4.8,3.26s3.79-2.17,4.87-3.26h-9.67Z"/><g><path d="M110.56,115.85c-.39,.07-.87,.11-1.44,.11-1.7-.06-9.14,.69-13.07,.4-.63,3.21,3.42,7.21,5.5,7.21,5.63,1.39,6.49-2.17,9.74-6.52,.55-.73,.39-1.07-.72-1.2Z" style="fill:#f8d452;"/><path d="M103.77,124.08c-.67,0-1.42-.1-2.27-.31h0c-1.07,0-2.73-1.08-4-2.63-1.33-1.63-1.93-3.38-1.65-4.82l.03-.18h.18c2.51,.2,6.51-.05,9.44-.23,1.68-.1,3.01-.18,3.63-.16,.52,0,.99-.04,1.4-.11h.06c.69,.08,1.04,.24,1.16,.53,.14,.33-.09,.7-.3,.99-.61,.81-1.12,1.58-1.62,2.33-1.72,2.58-3.05,4.58-6.06,4.58Zm-7.55-7.5c-.18,1.28,.39,2.84,1.59,4.31,1.18,1.44,2.75,2.48,3.74,2.48,4.48,1.1,5.86-.96,7.94-4.09,.5-.75,1.02-1.53,1.63-2.35,.28-.37,.28-.53,.25-.59-.03-.07-.18-.21-.81-.28-.42,.07-.91,.11-1.45,.11-.61-.02-1.92,.06-3.59,.16-2.87,.17-6.77,.41-9.31,.25Z"/></g><path d="M100.51,116.38c.21,1.6,1.55,2.84,3.2,2.84,1.79,0,4.3-1.45,4.32-3.24-1.71,.07-4.7,.3-7.53,.4Z"/><path d="M100.71,114.6c-4.16-.1-8.69-3.04-8.75-4.92,0-.1,.03-.21,.05-.31,.3-1.16,2.39-2.16,4.88-2.75,.19-.12,.36-.24,.53-.35-.16,.11-.34,.23-.53,.35,2.22-.52,4.74-.7,6.59-.37,1.58,.29,3.27,1.14,4.76,2.22-1.62-1.81-5.45-3.84-9.96-3.64h.01s-.01,0-.02,0c-3.27-.26-20.53-.83-20.53-.83,5.87,2.33,11.24,4.52,7.96,7.52h0c-1.84,1.33-4.62,2.56-10.13,3.35-6.45,.93,12.98-2.17,18.39,1.09,2.16,1.09,13.05-.07,15.14,0,3.25,0,3.35-1.3,3.36-1.76-.55,1.52-6.65,.53-11.77,.4Zm-2.88-8.62s.03-.02,.05-.03c-.01,.01-.03,.02-.05,.03Z" style="fill:#979747;"/><path d="M112.53,113.95c.05,1.89-6.44,.79-11.82,.66-4.16-.1-8.69-3.04-8.75-4.92-.06-2.34,7.41-4.17,11.53-3.42,4.12,.74,8.98,5.35,9.04,7.69Z" style="fill:#959595;"/><path d="M140.86,135.17c-.26-.13-.57-.06-.76,.15l-10.15,11.32c.05,.2,.09,.4,.14,.6,.44,1.98,.9,4.02,1.93,5.58,.32,.47,1.04,.36,1.18-.19,.78-3.01,3.19-10.6,8.07-13.28,2.08-1.14,4.42-1.43,6.97-.86,.11,.02,.22,.05,.32,.07-.3-.13-.61-.26-.91-.38-2.36-.99-4.71-2.01-6.79-3.01Z"/><g><path d="M129.25,156.45c-4.95-5.75-.63-19.88-12.53-18.79,7.57-3.26,10.82-10.87,10.82-10.87,0,0,2.19-5.3,3.8,.07,1.61,5.37,25.41,14.06,13.51,10.8-11.9-3.26-14.59,18.85-14.59,18.85-.26,.34-.79,.31-1.01-.07Z" style="fill:#3c502b;"/><path d="M129.78,157.16s-.04,0-.06,0c-.32-.02-.61-.19-.79-.46-1.85-2.17-2.44-5.44-3.02-8.6-.99-5.49-1.93-10.68-9.15-10.03l-2.54,.23,2.35-1.01c7.33-3.16,10.57-10.58,10.6-10.66,.11-.26,1.11-2.58,2.46-2.58,.02,0,.04,0,.06,0,.84,.04,1.51,.92,2.04,2.69,.85,2.82,8.82,6.95,13.1,9.17,3.53,1.83,3.91,2.05,3.71,2.57-.17,.43-.38,.52-3.8-.42-2.27-.62-4.35-.31-6.19,.93-6.19,4.18-7.87,17.45-7.89,17.58v.11l-.08,.09c-.19,.25-.49,.39-.8,.39Zm-11.21-19.95c6.25,.3,7.21,5.6,8.14,10.74,.55,3.07,1.13,6.24,2.85,8.24l.04,.06c.05,.08,.12,.1,.16,.1,.03,0,.07,0,.11-.02,.21-1.56,2.01-13.82,8.22-18.01,2.04-1.38,4.35-1.73,6.86-1.04,.59,.16,1.08,.29,1.47,.39-.58-.31-1.28-.67-1.96-1.03-6.36-3.29-12.64-6.75-13.51-9.65-.56-1.88-1.1-2.1-1.31-2.11h-.02c-.58,0-1.35,1.21-1.71,2.09-.13,.3-2.92,6.69-9.35,10.26Z"/></g><g><path d="M129.09,151.02c-2.05-9.36-1.49-18.52,1.1-26.35-1.34-1.05-2.65,2.12-2.65,2.12,0,0-3.25,7.61-10.82,10.87,11.9-1.09,7.57,13.04,12.53,18.79,.22,.37,.74,.41,1.01,.07,0,0,.03-.27,.11-.73-.49-1.55-.92-3.13-1.28-4.76Z" style="fill:#56703c;"/><path d="M129.78,157.16s-.04,0-.06,0c-.34-.02-.64-.21-.81-.5-1.83-2.11-2.42-5.39-2.99-8.57-.99-5.49-1.93-10.68-9.15-10.03l-2.54,.23,2.35-1.01c7.33-3.16,10.57-10.58,10.6-10.66,.09-.22,.95-2.22,2.13-2.54,.4-.1,.79-.02,1.14,.25l.23,.18-.09,.27c-2.68,8.1-3.06,17.13-1.09,26.14h0c.34,1.53,.76,3.12,1.27,4.72l.03,.09v.09c-.08,.45-.12,.72-.12,.72v.11l-.08,.09c-.19,.25-.49,.39-.8,.39Zm-11.21-19.95c6.25,.3,7.21,5.6,8.14,10.74,.55,3.07,1.13,6.24,2.85,8.24,.09,.14,.17,.16,.21,.16,.03,0,.07,0,.11-.02,.02-.11,.04-.28,.08-.51-.5-1.59-.92-3.17-1.26-4.7h0c-1.97-9.03-1.62-18.09,1.01-26.24-.08-.01-.14,0-.19,0-.6,.16-1.3,1.35-1.59,2.07-.13,.3-2.92,6.69-9.35,10.26Z"/></g><g style="opacity:.75;"><ellipse cx="100.46" cy="115.96" rx="16.23" ry="16.31" style="fill:#242449;"/><path d="M100.46,132.37c-9,0-16.33-7.36-16.33-16.41s7.32-16.41,16.33-16.41,16.33,7.36,16.33,16.41-7.32,16.41-16.33,16.41Zm0-32.61c-8.89,0-16.12,7.27-16.12,16.2s7.23,16.2,16.12,16.2,16.13-7.27,16.13-16.2-7.23-16.2-16.13-16.2Z"/></g><g style="opacity:.75;"><ellipse cx="165.37" cy="115.96" rx="16.23" ry="16.31" style="fill:#242449;"/><path d="M165.37,132.37c-9,0-16.33-7.36-16.33-16.41s7.32-16.41,16.33-16.41,16.33,7.36,16.33,16.41-7.32,16.41-16.33,16.41Zm0-32.61c-8.89,0-16.13,7.27-16.13,16.2s7.23,16.2,16.13,16.2,16.13-7.27,16.13-16.2-7.23-16.2-16.13-16.2Z"/></g><rect x="116.69" y="116.2" width="7.57" height=".71"/><path d="M124.26,125.51c-.22,0-.4-.16-.4-.36v-8.6c0-.2,.18-.36,.4-.36s.4,.16,.4,.36v8.6c0,.2-.18,.36-.4,.36Z"/><path d="M124.26,125.51c-.08,0-.16-.02-.22-.06-.19-.11-.24-.33-.11-.5,.08-.1,1.97-2.56,4.89-2.7,1.89-.08,3.74,.81,5.49,2.67,.14,.15,.12,.38-.05,.5-.17,.13-.43,.11-.57-.05-1.58-1.68-3.21-2.49-4.83-2.41-2.52,.12-4.24,2.36-4.26,2.38-.08,.1-.21,.16-.34,.16Z"/><path d="M134,126.15c-.22,0-.4-.18-.4-.41v-9.78c0-.22,.18-.41,.4-.41s.4,.18,.4,.41v9.78c0,.22-.18,.41-.4,.41Z"/><path d="M149.14,116.37h-15.14c-.22,0-.4-.18-.4-.41s.18-.41,.4-.41h15.14c.22,0,.4,.18,.4,.41s-.18,.41-.4,.41Z"/><path d="M181.59,116.37c-.14,0-.29-.08-.36-.22-.11-.2-.03-.44,.17-.55l18.39-9.78c.2-.1,.44-.03,.55,.17,.11,.2,.03,.44-.17,.55l-18.39,9.78c-.06,.03-.13,.05-.19,.05Z"/><path d="M84.24,115.28c-.12,0-.23-.05-.31-.15l-5.41-6.52c-.14-.17-.12-.43,.05-.57,.17-.14,.43-.12,.57,.05l5.41,6.52c.14,.17,.12,.43-.05,.57-.08,.06-.17,.09-.26,.09Z"/><g style="opacity:.1;"><line x1="93.97" y1="118.14" x2="89.65" y2="111.61" style="fill:#575757;"/><path d="M93.97,118.95c-.26,0-.52-.13-.67-.36l-4.33-6.52c-.25-.37-.15-.88,.22-1.13,.37-.25,.87-.15,1.12,.23l4.33,6.52c.25,.37,.15,.88-.22,1.13-.14,.09-.29,.14-.45,.14Z"/></g><g style="opacity:.1;"><line x1="93.97" y1="125.75" x2="89.65" y2="119.22" style="fill:#575757;"/><path d="M93.97,126.56c-.26,0-.52-.13-.67-.36l-4.33-6.52c-.25-.37-.15-.88,.22-1.13s.87-.15,1.12,.23l4.33,6.52c.25,.37,.15,.88-.22,1.13-.14,.09-.29,.14-.45,.14Z"/></g><g style="opacity:.1;"><line x1="159.96" y1="120.31" x2="155.63" y2="113.79" style="fill:#575757;"/><path d="M159.96,121.12c-.26,0-.52-.13-.67-.36l-4.33-6.52c-.25-.37-.15-.88,.22-1.13,.37-.25,.87-.15,1.12,.23l4.33,6.52c.25,.37,.15,.88-.22,1.13-.14,.09-.29,.14-.45,.14Z"/></g><g style="opacity:.1;"><line x1="159.96" y1="127.92" x2="155.63" y2="121.4" style="fill:#575757;"/><path d="M159.96,128.73c-.26,0-.52-.13-.67-.36l-4.33-6.52c-.25-.37-.15-.88,.22-1.13,.37-.25,.87-.15,1.12,.23l4.33,6.52c.25,.37,.15,.88-.22,1.13-.14,.09-.29,.14-.45,.14Z"/></g><g><g style="opacity:.8;"><path d="M110.93,103.29l-.24,.5c3.8,2.93,6.27,7.53,6.27,12.71,0,8.84-7.16,16.03-15.96,16.03-1.28,0-2.52-.17-3.71-.46l-.24,.5c1.27,.31,2.59,.5,3.95,.5,9.1,0,16.5-7.44,16.5-16.58,0-5.4-2.59-10.18-6.57-13.21Z"/><path d="M101,133.39c-1.31,0-2.66-.17-4.02-.51l-.36-.09,.5-1.06,.24,.06c1.23,.3,2.46,.45,3.64,.45,8.63,0,15.65-7.06,15.65-15.73,0-4.91-2.24-9.45-6.15-12.47l-.19-.15,.5-1.06,.3,.23c4.25,3.23,6.69,8.14,6.69,13.45,0,9.31-7.54,16.88-16.8,16.88Z"/></g><g style="opacity:.8;"><path d="M175.83,103.29l-.24,.5c3.8,2.93,6.27,7.53,6.27,12.71,0,8.84-7.16,16.03-15.96,16.03-1.28,0-2.52-.17-3.71-.46l-.24,.5c1.27,.31,2.59,.5,3.95,.5,9.1,0,16.5-7.44,16.5-16.58,0-5.4-2.59-10.18-6.57-13.21Z"/><path d="M165.91,133.39c-1.31,0-2.66-.17-4.02-.51l-.36-.09,.5-1.06,.24,.06c1.23,.3,2.46,.45,3.64,.45,8.63,0,15.65-7.06,15.65-15.73,0-4.91-2.24-9.45-6.15-12.47l-.19-.15,.5-1.06,.3,.23c4.25,3.23,6.69,8.14,6.69,13.45,0,9.31-7.54,16.88-16.8,16.88Z"/></g></g><g><path d="M135.62,55.73c-31.1,10.25-59.18,23.49-83.79,40.2-1.63,1.11-1.46,3.36,.3,4.28,26.91,14.17,138.56,13.42,174.27-.28,2.03-.78,2.3-3.27,.51-4.43-23.12-15-50.57-28.31-83.03-39.69-2.65-.93-5.6-.96-8.27-.08Z" style="fill:#c89541;"/><path d="M134.13,111.34c-30.61,0-67.77-2.72-82.37-10.41-1.1-.58-1.8-1.62-1.86-2.79-.06-1.14,.49-2.22,1.48-2.89,23.96-16.27,52.22-29.83,83.99-40.3,2.84-.94,5.96-.91,8.79,.08,31.58,11.07,59.58,24.45,83.2,39.77,1.1,.71,1.67,1.87,1.54,3.11-.13,1.25-.95,2.29-2.21,2.77-16.74,6.42-51.51,10.5-90.72,10.64-.61,0-1.23,0-1.84,0Zm1.48-55.61l.25,.77c-31.62,10.42-59.75,23.92-83.58,40.1-.52,.35-.8,.88-.77,1.45,.03,.6,.4,1.13,1,1.44,12.24,6.44,44.2,10.38,83.46,10.22,39.03-.14,73.57-4.18,90.15-10.54,.67-.26,1.11-.79,1.17-1.42,.06-.61-.24-1.2-.81-1.57-23.52-15.26-51.4-28.58-82.86-39.6-2.49-.88-5.25-.9-7.75-.07l-.25-.77Z"/></g><path d="M135.52,57.3c-23.91,8.42-46.36,18.45-66.65,30.84-7.14,4.36-5.17,14.38,3.23,16.16,30.57,6.49,87.84,6.04,124.6,1.04,8.27-1.12,10.46-10.97,3.31-14.9l-59.56-32.74c-1.48-.82-3.31-.97-4.93-.4Z" style="fill:#eeb143;"/><path d="M138.91,154.59c-.42-1.51-2.24-2.07-3.42-1.06-1.6,1.38-3.38,3.18-3.38,3.18-1.43,1.9-4.37,1.52-5.29-.67l-1.12-2.68c-.43-1.02-1.87-1-2.27,.03-4.08,10.55,1.12,25.02,5.65,46.04,.37,1.71,2.8,1.71,3.16,0,4.23-19.96,9.09-36.23,6.67-44.84Z"/><path d="M146.98,140.96c-1.3-1.64-2.93-2.86-4.31-3.59-2.9-.07-5.16,1.5-6.91,3.75,1.06,.29,2.43,.86,3.65,2.01,1.5,1.43,2.05,3.08,2.32,3.9,2.86,8.93,4.18,17.84,4.18,17.84,1.41,9.61,1.75,10.86,2.16,10.87,1.07,.02,1.98-8.1,2.16-9.78,.7-6.55,1.97-18.42-3.25-25Z"/><path d="M117.65,137.65c-1.26,.74-2.67,1.86-3.82,3.31-5.21,6.58-3.94,18.46-3.25,25,.18,1.68,1.1,9.8,2.16,9.78,.42,0,.75-1.26,2.16-10.87,0,0,1.31-8.91,4.18-17.84,.26-.81,.81-2.47,2.32-3.9,.98-.93,2.07-1.48,3.01-1.81-1.17-2.25-3.11-3.76-6.76-3.68Z"/><g><path d="M188.08,117.33l13.89,13.96c.6,.6,.6,1.58,0,2.18l-2.42,2.43c-.6,.6-1.57,.6-2.17,0l-13.89-13.96c-.6-.6-.6-1.58,0-2.18l2.42-2.43c.6-.6,1.57-.6,2.17,0Z" style="fill:#eeb870;"/><path d="M187,117.46c.6,0,1.16,.23,1.57,.65l12.63,12.69c.42,.42,.65,.98,.65,1.58s-.23,1.16-.65,1.58l-1.16,1.16c-.42,.42-.98,.65-1.57,.65s-1.16-.23-1.57-.65l-12.63-12.69c-.42-.42-.65-.98-.65-1.58s.23-1.16,.65-1.58l1.16-1.16c.42-.42,.98-.65,1.57-.65m0-.2c-.62,0-1.24,.24-1.72,.71l-1.16,1.16c-.94,.95-.94,2.5,0,3.45l12.63,12.69c.47,.47,1.09,.71,1.72,.71s1.24-.24,1.72-.71l1.16-1.16c.94-.95,.94-2.5,0-3.45l-12.63-12.69c-.47-.47-1.09-.71-1.72-.71h0Z" style="fill:#e5e5e4;"/></g><g><path d="M197.39,117.33l-13.89,13.96c-.6,.6-.6,1.58,0,2.18l2.42,2.43c.6,.6,1.57,.6,2.17,0l13.89-13.96c.6-.6,.6-1.58,0-2.18l-2.42-2.43c-.6-.6-1.57-.6-2.17,0Z" style="fill:#eeb870;"/><path d="M198.47,117.46c.6,0,1.16,.23,1.57,.65l1.16,1.16c.42,.42,.65,.98,.65,1.58s-.23,1.16-.65,1.58l-12.63,12.69c-.42,.42-.98,.65-1.57,.65s-1.16-.23-1.57-.65l-1.16-1.16c-.42-.42-.65-.98-.65-1.58s.23-1.16,.65-1.58l12.63-12.69c.42-.42,.98-.65,1.57-.65m0-.2c-.62,0-1.24,.24-1.72,.71l-12.63,12.69c-.94,.95-.94,2.5,0,3.45l1.16,1.16c.47,.47,1.09,.71,1.72,.71s1.24-.24,1.72-.71l12.63-12.69c.94-.95,.94-2.5,0-3.45l-1.16-1.16c-.47-.47-1.09-.71-1.72-.71h0Z" style="fill:#e5e5e4;"/></g><path d="M186.18,124.25c.09,.09,.18,.15,.27,.22l.37-.39c-.09-.07-.18-.13-.26-.21l-1.26-1.27c-.95-.95-.95-2.51,0-3.46,.47-.48,1.1-.71,1.72-.71s1.25,.24,1.72,.71l1.26,1.27s.08,.1,.12,.15l.37-.4s-.07-.1-.11-.14l-1.26-1.27c-1.16-1.17-3.05-1.17-4.21,0-1.16,1.17-1.16,3.06,0,4.23l1.26,1.27Z" style="fill:#cda16f;"/><path d="M199.29,124.25c-.09,.09-.18,.15-.27,.22l-.37-.39c.09-.07,.18-.13,.26-.21l1.26-1.27c.95-.95,.95-2.51,0-3.46-.47-.48-1.1-.71-1.72-.71s-1.25,.24-1.72,.71l-1.26,1.27s-.08,.1-.12,.15l-.37-.4s.07-.1,.11-.14l1.26-1.27c1.16-1.17,3.05-1.17,4.21,0s1.16,3.06,0,4.23l-1.26,1.27Z" style="fill:#cda16f;"/><path d="M186.18,128.98c.09-.09,.18-.15,.27-.22l.37,.39c-.09,.07-.18,.13-.26,.21l-1.26,1.27c-.95,.95-.95,2.51,0,3.46,.47,.48,1.1,.71,1.72,.71s1.25-.24,1.72-.71l1.26-1.27s.08-.1,.12-.15l.37,.4s-.07,.1-.11,.14l-1.26,1.27c-1.16,1.17-3.05,1.17-4.21,0s-1.16-3.06,0-4.23l1.26-1.27Z" style="fill:#cda16f;"/><path d="M199.29,128.98c-.09-.09-.18-.15-.27-.22l-.37,.39c.09,.07,.18,.13,.26,.21l1.26,1.27c.95,.95,.95,2.51,0,3.46-.47,.48-1.1,.71-1.72,.71s-1.25-.24-1.72-.71l-1.26-1.27s-.08-.1-.12-.15l-.37,.4s.07,.1,.11,.14l1.26,1.27c1.16,1.17,3.05,1.17,4.21,0s1.16-3.06,0-4.23l-1.26-1.27Z" style="fill:#cda16f;"/><circle cx="192.95" cy="126.29" r=".54" style="fill:#cda16f;"/><circle cx="191.87" cy="125.2" r=".54" style="fill:#cda16f;"/><circle cx="194.03" cy="127.38" r=".54" style="fill:#cda16f;"/><circle cx="191.87" cy="127.38" r=".54" style="fill:#cda16f;"/><circle cx="190.79" cy="126.29" r=".54" style="fill:#cda16f;"/><circle cx="192.95" cy="128.46" r=".54" style="fill:#cda16f;"/><circle cx="194.03" cy="125.2" r=".54" style="fill:#cda16f;"/><circle cx="192.95" cy="124.11" r=".54" style="fill:#cda16f;"/><circle cx="195.11" cy="126.29" r=".54" style="fill:#cda16f;"/><path d="M56.85,183.98l-.26-17.3c0-.6,.4-1.12,.98-1.25,.25-.06,.53-.12,.84-.21,1.27-.35,2.24-.61,3.23-1.29,.5-.35,1.92-1.32,2.42-3.02,.32-1.1,.21-2.7,.21-2.71l7.14,.25s.03,.66,.32,2.08c.23,1.13,.35,1.69,.72,2.17,.44,.56,1.12,.83,2.48,1.37,1.35,.53,1.75,.51,2.19,1,.55,.61,.63,1.77,.63,1.77l.32,10.84c1.97,4.71,.86,6.87,.44,7.52-2.39,3.76-11.2,3.91-21.69-1.22Z" style="fill:#cce8f6; opacity:.92;"/><path d="M71.43,158.44l-7.14-.25s0,.07,0,.18l7.35,1.63c-.2-1.06-.22-1.56-.22-1.56Z" style="fill:#96c5d9; opacity:.78;"/><path d="M71.68,158.52l-7.41-.15c-.5,0-.91-.41-.92-.91-.04-.99-.02-1.95,.07-2.85,.03-.33,.31-.58,.63-.58l8.04-.02c.24,0,.44,.19,.45,.42,.07,1.07,.09,2.14,.06,3.21-.02,.49-.42,.88-.92,.87Z" style="fill:#70b8d3;"/><path d="M78.08,180.8c-.09-3.9-.19-7.81-.28-11.71-.36-.01-.76-.02-1.22-.04-1.33-.06-1.8-.15-2.12-.22-1.07-.25-1.21-.5-2.57-.9-.83-.25-1.53-.45-2.42-.46-.81,0-1.35,.14-2.14,.35-1.32,.35-2.67,.53-4.01,.81-1.35,.28-3.3,.55-5.87,.48l-.27,12.84,21.37,.46c-.14-.5-.3-1.03-.48-1.59Z" style="fill:#92cee5;"/><path d="M56.91,183.66c1.83,1.12,4.82,.34,5.34-.78,.2-.43-.04-.76,.28-1.88,.25-.89,.59-1.38,.67-1.49,.38-.54,.8-.84,1.03-1,.32-.23,.93-.61,1.78-.79,.36-.08,.67-.1,1.26-.09,2.2,.02,2.89,.36,3.05,.08,.21-.37-.71-1.57-1.87-1.82-.22-.05-.47-.03-.98,0-.61,.04-1.38,.09-2.33,.39-.48,.15-1.18,.37-1.92,.91-.78,.57-1.35,1.42-1.35,1.42h-5.03l.08,5.06Z" style="fill:#83c3e4;"/><path d="M64.12,157.75s-.06-.02-.06-.06c-.1-1.11-.1-2.11,0-3.05,0-.03,.03-.06,.07-.05,.03,0,.06,.03,.05,.07-.1,.93-.1,1.92,0,3.02,0,.03-.02,.06-.06,.07h0Z" style="fill:#599eb8;"/><path d="M65.56,157.75s-.06-.02-.06-.06c-.1-1.11-.1-2.11,0-3.05,0-.03,.03-.06,.07-.05,.03,0,.06,.03,.05,.07-.1,.93-.1,1.92,0,3.02,0,.03-.02,.06-.06,.07h0Z" style="fill:#599eb8;"/><path d="M67.06,157.75s-.06-.02-.06-.06c-.1-1.11-.1-2.11,0-3.05,0-.03,.03-.06,.07-.05,.03,0,.06,.03,.05,.07-.1,.93-.1,1.92,0,3.02,0,.03-.02,.06-.06,.07h0Z" style="fill:#599eb8;"/><path d="M68.73,157.75s-.06-.02-.06-.06c-.1-1.11-.1-2.11,0-3.05,0-.03,.03-.06,.07-.05,.03,0,.06,.03,.05,.07-.1,.93-.1,1.92,0,3.02,0,.03-.02,.06-.06,.07h0Z" style="fill:#599eb8;"/><path d="M70.14,157.75s-.06-.02-.06-.06c-.1-1.11-.1-2.11,0-3.05,0-.03,.03-.06,.07-.05,.03,0,.06,.03,.05,.07-.1,.93-.1,1.92,0,3.02,0,.03-.02,.06-.06,.07h0Z" style="fill:#599eb8;"/><path d="M71.71,157.65s-.06-.02-.06-.06c-.1-1.11-.1-2.11,0-3.05,0-.03,.03-.06,.07-.05,.03,0,.06,.03,.05,.07-.1,.93-.1,1.92,0,3.02,0,.03-.02,.06-.06,.07h0Z" style="fill:#599eb8;"/><g><use width="14" height="14" transform="translate(60.5 176.4) scale(.02)" xlink:href="#c"/><use width="14" height="14" transform="translate(61.08 173.24) scale(.02)" xlink:href="#c"/><use width="14" height="14" transform="translate(61.08 173.01) scale(.02)" xlink:href="#c"/><use width="14" height="14" transform="translate(61.5 170.25) scale(.02)" xlink:href="#c"/><use width="14" height="14" transform="translate(65.06 168.11) scale(.02)" xlink:href="#c"/><use width="14" height="14" transform="translate(69.96 169.07) scale(.02)" xlink:href="#c"/><use width="14" height="14" transform="translate(71.24 174.98) scale(.02)" xlink:href="#c"/><use width="14" height="14" transform="translate(64.83 176.83) scale(.02)" xlink:href="#c"/><use width="14" height="14" transform="translate(64.33 172.75) scale(.02)" xlink:href="#c"/><use width="14" height="14" transform="translate(67.32 170.06) scale(.02)" xlink:href="#c"/><use width="14" height="14" transform="translate(69.86 170.03) scale(.02)" xlink:href="#c"/><use width="14" height="14" transform="translate(72.91 172.65) scale(.02)" xlink:href="#c"/><use width="14" height="14" transform="translate(73.14 176.92) scale(.02)" xlink:href="#c"/><use width="14" height="14" transform="translate(72.91 178.69) scale(.02)" xlink:href="#c"/><use width="14" height="14" transform="translate(75 175.12) scale(.02)" xlink:href="#c"/><use width="14" height="14" transform="translate(75 173.76) scale(.02)" xlink:href="#c"/><use width="14" height="14" transform="translate(74.67 170.56) scale(.02)" xlink:href="#c"/><use width="14" height="14" transform="translate(72.69 167.22) scale(.02)" xlink:href="#c"/><use width="14" height="14" transform="translate(68.02 166.16) scale(.02)" xlink:href="#c"/><use width="14" height="14" transform="translate(65.98 163.57) scale(.02)" xlink:href="#c"/><use width="14" height="14" transform="translate(66.68 160.82) scale(.02)" xlink:href="#c"/><use width="14" height="14" transform="translate(66.31 162.04) scale(.02)" xlink:href="#c"/><use width="14" height="14" transform="translate(62.74 166.89) scale(.02)" xlink:href="#c"/><use width="14" height="14" transform="translate(60.89 169.35) scale(.02)" xlink:href="#c"/><use width="14" height="14" transform="translate(64.69 181.38) scale(.02)" xlink:href="#c"/><use width="14" height="14" transform="translate(65.06 181.38) scale(.02)" xlink:href="#c"/><use width="14" height="14" transform="translate(68.61 181.37) scale(.02)" xlink:href="#c"/><use width="14" height="14" transform="translate(71.89 181.74) scale(.02)" xlink:href="#c"/><use width="14" height="14" transform="translate(71.71 184.16) scale(.02)" xlink:href="#c"/><use width="14" height="14" transform="translate(59.55 180.98) scale(.02)" xlink:href="#c"/><use width="14" height="14" transform="translate(59.45 180.74) scale(.02)" xlink:href="#c"/></g><g><use width="5" height="5" transform="translate(62.34 175.39) scale(.02)" xlink:href="#d"/><use width="5" height="5" transform="translate(59.35 173.61) scale(.02)" xlink:href="#d"/><use width="5" height="5" transform="translate(59.35 173.42) scale(.02)" xlink:href="#d"/><use width="5" height="5" transform="translate(59.55 169.84) scale(.02)" xlink:href="#d"/><use width="5" height="5" transform="translate(60.05 169.05) scale(.02)" xlink:href="#d"/><use width="5" height="5" transform="translate(64.45 168.53) scale(.02)" xlink:href="#d"/><use width="5" height="5" transform="translate(65.46 171.11) scale(.02)" xlink:href="#d"/><use width="5" height="5" transform="translate(60.75 171.14) scale(.02)" xlink:href="#d"/><use width="5" height="5" transform="translate(62 166.4) scale(.02)" xlink:href="#d"/><use width="5" height="5" transform="translate(66.93 166.07) scale(.02)" xlink:href="#d"/><use width="5" height="5" transform="translate(70.2 167.75) scale(.02)" xlink:href="#d"/><use width="5" height="5" transform="translate(72.86 171.4) scale(.02)" xlink:href="#d"/><use width="5" height="5" transform="translate(70.45 177.14) scale(.02)" xlink:href="#d"/><use width="5" height="5" transform="translate(69.06 178.53) scale(.02)" xlink:href="#d"/><use width="5" height="5" transform="translate(71.79 172.83) scale(.02)" xlink:href="#d"/><use width="5" height="5" transform="translate(73.91 168.45) scale(.02)" xlink:href="#d"/><use width="5" height="5" transform="translate(74.39 166.24) scale(.02)" xlink:href="#d"/><use width="5" height="5" transform="translate(74.43 165.49) scale(.02)" xlink:href="#d"/><use width="5" height="5" transform="translate(74.12 176.15) scale(.02)" xlink:href="#d"/><use width="5" height="5" transform="translate(74.64 183.56) scale(.02)" xlink:href="#d"/><use width="5" height="5" transform="translate(73.86 185) scale(.02)" xlink:href="#d"/><use width="5" height="5" transform="translate(70.52 183.85) scale(.02)" xlink:href="#d"/><use width="5" height="5" transform="translate(64.65 181.02) scale(.02)" xlink:href="#d"/><use width="5" height="5" transform="translate(62.85 180.57) scale(.02)" xlink:href="#d"/><use width="5" height="5" transform="translate(66.24 185.7) scale(.02)" xlink:href="#d"/><use width="5" height="5" transform="translate(66.24 184.91) scale(.02)" xlink:href="#d"/><use width="5" height="5" transform="translate(66.24 177.67) scale(.02)" xlink:href="#d"/><use width="5" height="5" transform="translate(66.24 172.79) scale(.02)" xlink:href="#d"/><use width="5" height="5" transform="translate(65.58 176.03) scale(.02)" xlink:href="#d"/><use width="5" height="5" transform="translate(66.73 173.94) scale(.02)" xlink:href="#d"/><use width="5" height="5" transform="translate(67.26 175.7) scale(.02)" xlink:href="#d"/><use width="5" height="5" transform="translate(64.86 181.37) scale(.02)" xlink:href="#d"/><use width="5" height="5" transform="translate(60.44 171.45) scale(.02)" xlink:href="#d"/><use width="5" height="5" transform="translate(69.7 168.12) scale(.02)" xlink:href="#d"/><use width="5" height="5" transform="translate(71.88 174.35) scale(.02)" xlink:href="#d"/><use width="5" height="5" transform="translate(68.25 176.36) scale(.02)" xlink:href="#d"/><use width="5" height="5" transform="translate(69.26 172.34) scale(.02)" xlink:href="#d"/><use width="5" height="5" transform="translate(69.63 171.35) scale(.02)" xlink:href="#d"/><use width="5" height="5" transform="translate(69.51 162.01) scale(.02)" xlink:href="#d"/><use width="5" height="5" transform="translate(69.49 162.11) scale(.02)" xlink:href="#d"/><use width="5" height="5" transform="translate(71.01 163.94) scale(.02)" xlink:href="#d"/><use width="5" height="5" transform="translate(75.87 165.66) scale(.02)" xlink:href="#d"/><use width="5" height="5" transform="translate(76.16 167.19) scale(.02)" xlink:href="#d"/></g><ellipse cx="58.55" cy="176.23" rx=".31" ry=".48" style="fill:#fff;"/><path d="M45.84,179.65c-.04-1.73,.13-3.15,.31-4.17,.57-3.29,1.79-5.64,2.47-6.92,.45-.86,1.02-1.76,1.44-2.38,.33-.49,.89-.78,1.48-.75l.79,.04s.55,.51,.81,1.12c.42,1,.61,1.97,.75,3.27,.15,1.48,.06,1.7,.26,2.8,.15,.83,.33,1.41,.48,1.89,.92,3.05,1.38,4.58,1.32,5.01-.36,2.41-6.21,3.47-8.71,3.84" style="fill:#f6ca72;"/><path d="M47.5,178.72c-.04-1.47,.19-2.52,.51-3.97,.31-1.42,.77-3.57,2.1-5.87,.43-.74,.82-1.28,1.21-2.33,.12-.32,.27-.72,.39-1.12h-.16c-.59-.03-1.15,.25-1.48,.75-.41,.62-.98,1.52-1.44,2.38-1.95,3.23-2.47,6.92-2.47,6.92,0,0-.75,3,.31,7.05l.78,.86c.06,0,.12-.02,.18-.03,.06-.07,.11-.14,.16-.22,.65-1.05-.04-2.04-.09-4.42Z" style="fill:#dfa95e;"/><path d="M51.3,177.78c-.05,.4,.06,.76-.09,.83-.16,.08-.34-.27-.78-.4-.33-.1-.5,0-1.12,.12-.68,.13-1.15,.22-1.59,.11-.68-.17-1.06-.72-1.16-.86-.46-.65-.42-1.44-.41-1.49,.02-.34,.11-.54-.02-.83-.08-.19-.2-.3-.51-.54-.85-.65-1.05-.62-1.32-.99-.13-.17-.4-.54-.31-.91,.04-.17,.14-.26,.21-.59,.04-.19,.06-.29,.03-.42-.04-.16-.14-.2-.44-.49-.36-.34-.41-.46-.43-.54-.01-.05-.06-.23,.02-.42,.07-.16,.16-.18,.29-.35,0,0,.14-.19,.2-.46,.08-.37-.12-.45-.11-.86,0-.09,.02-.42,.26-.72,.23-.28,.52-.38,.61-.4,.41-.11,.82,.02,1.09,.22,.25,.19,.21,.31,.49,.49,.23,.15,.45,.18,.66,.22,.56,.09,.63-.12,.98-.03,.56,.14,.87,.77,.94,.89,.17,.33,.1,.44,.29,.75,.21,.34,.48,.52,.61,.62,1.06,.77,.83,1.91,1.87,2.45,.59,.31,.84,.04,1.1,.35,.47,.57,.05,1.96-.55,2.83-.37,.53-.74,.8-.81,1.42Z" style="fill:#67b794;"/><path d="M82,168.05c.76-1.05,1.9-2.25,3.54-3.1,.79-.41,1.63-.83,2.79-.82,1.54,.02,2.64,.79,3.02,1.06,.45,.33,2.01,1.56,2.85,5.65,.3,1.46,.6,3.88-.29,9.87-.76,5.12-1.15,7.69-2.33,8.33-1.62,.89-3.35-.41-11.02-3.67-2.41-1.02-4.42-1.82-5.76-2.34" style="fill:#d6976f;"/><path d="M84.61,169.05c.46-.2,1.09-.44,1.87-.65,.81-.21,1.39-.28,2.07-.35,1.06-.12,1.89-.13,2.45,.23,.16,.1,.28,.22,.31,.37,.06,.32-.3,.64-.44,.77-.89,.79-5.93,.77-6.71,.77" style="fill:#be7c5d;"/><path d="M82.04,180.62c.58-.24,1.37-.52,2.34-.76,1.02-.25,1.74-.33,2.59-.42,1.33-.14,2.36-.15,3.07,.27,.2,.12,.35,.25,.38,.43,.08,.38-.37,.75-.56,.9-1.12,.92-7.43,.91-8.41,.9" style="fill:#be7c5d;"/><path d="M81.91,174.95c.66-.27,1.57-.6,2.69-.87,1.17-.28,2-.37,2.97-.48,1.53-.16,2.71-.17,3.53,.31,.22,.13,.4,.29,.44,.5,.09,.44-.43,.87-.64,1.04-1.29,1.06-8.52,1.04-9.65,1.04" style="fill:#be7c5d;"/><path d="M77.02,172.3c.16-.22,.37-.57,.49-1.03,.18-.71,.05-1.32-.12-2.08-.24-1.07-.46-1.15-.49-1.88-.02-.44-.04-.97,.29-1.49,.48-.75,1.34-.89,1.47-.91,.67-.1,1.2,.16,1.41,.28,.11,.06,.87,.5,1.04,1.22,.04,.16,.08,.49,.32,.83,.06,.09,.11,.15,.18,.22,.26,.22,.6,.17,1.12,.12,.73-.06,1.1-.09,1.43-.03,.3,.06,.61,.12,.84,.39,.31,.36,.26,.86,.23,1.09-.09,.76-.59,1.26-.78,1.45-.43,.41-.89,.59-1.27,.74-.72,.28-.85,.14-1.29,.4-.45,.27-.69,.64-.98,1.08-.29,.45-.48,.87-.6,1.22" style="fill:#f8ddc7;"/><path d="M64.31,182.2c.95-2.35,2.04-4.13,2.88-5.33,1.4-2,2.53-3,3.36-3.62,1.2-.9,1.98-1.17,2.39-1.28,.24-.07,1.28-.34,3.05-.05,.92,.15,3.89,.68,6.27,3.22,.6,.64,1.37,1.49,1.84,2.87,.57,1.68,.34,3.16,.18,3.88" style="fill:#bd6e55;"/><path d="M84.45,170.47c.19-.19,.7-.68,.78-1.45,.03-.24,.08-.73-.23-1.09-.23-.26-.54-.33-.84-.39-.25-.05-.52-.04-.95,0,.1,.08,.21,.18,.34,.3,.42,.4,.51,.56,.57,.71,.16,.45,0,.88-.05,.97-.16,.38-.44,.57-.81,.82-.65,.43-.83,.3-1.47,.72-.02,.01-.31,.24-.9,.71-.54,.43-.68,.53-.94,.6-.26,.07-.48,.05-.89,.02-.43-.03-.51-.09-.81-.11-.23-.01-.57,0-.99,.15l2.92,1.42c.06-.02,.13-.05,.19-.07,.12-.32,.29-.69,.55-1.08,.29-.44,.53-.81,.98-1.08,.44-.26,.56-.12,1.29-.4,.38-.15,.84-.33,1.27-.74Z" style="fill:#ecd0b7;"/><path d="M84.1,178.02c-.47-1.38-1.24-2.23-1.84-2.87-2.38-2.54-5.35-3.07-6.27-3.22-1.77-.29-2.81-.02-3.05,.05-.06,.02-.12,.03-.19,.05,.34,0,.71,.03,1.09,.11,1.46,.32,2.34,1.23,3.27,2.19,1.43,1.48,2.12,3.02,2.44,3.85,.4,1.07,.95,2.5,.88,3.77l3.86-.06c.16-.72,.38-2.2-.18-3.88Z" style="fill:#b26750;"/><g><path d="M70.96,174.55c-.14-.14-.36-.13-.41-.12-.46,.03-.78,.52-.9,.71-.5,.75-1.19,1.38-1.62,2.17-.69,1.27-1.62,2.98-2.71,5.07l.1-.19h.54l-.04,.05c.21-.36,.51-.86,.87-1.45,.9-1.49,1.36-2.24,1.47-2.39,1.09-1.39,2.66-2.45,2.81-3.28,.02-.11,.07-.4-.09-.57Z" style="fill:#d98c6b;"/><path d="M65.89,182.28h0Z" style="fill:#d98c6b;"/><path d="M65.86,182.33h0Z" style="fill:#d98c6b;"/></g><path d="M56.78,179.41c.81,1.21,.98,2.14,1.09,2.77,.55,0,1.1-.01,1.65-.02-.39-.7-1.24-1.99-2.74-2.75Z" style="fill:#b1495c;"/><path d="M78.06,169.22c-.05,.06-.17-.14-.2-.2-.35-.63-.41-1.85-.41-1.85-.03-.54-.01-.73,.08-.94,.06-.16,.2-.47,.48-.54,.03,0,.21-.05,.34,.06,.12,.1,.11,.27,.11,.29-.01,.19-.16,.24-.31,.51-.07,.12-.09,.22-.14,.37-.1,.36-.1,.65-.09,.83,.01,.47,.18,1.43,.15,1.46Z" style="fill:#fff;"/><path d="M46.46,171.1s-.02,0-.03,0c-.03-.02-.04-.05-.02-.08,.27-.46,.35-2.11,.39-2.11,.03,0,0,1.69-.28,2.17-.01,.02-.03,.03-.05,.03Z" style="fill:#5eab8f;"/><path d="M47.64,173.21s-.02,0-.03,0c-.03-.02-.04-.05-.02-.08,.27-.46,.35-2.11,.39-2.11,.03,0,0,1.69-.28,2.17-.01,.02-.03,.03-.05,.03Z" style="fill:#5eab8f;"/><path d="M48.85,174.95s-.02,0-.03,0c-.03-.02-.04-.05-.02-.08,.27-.46,.35-2.11,.39-2.11,.03,0,0,1.69-.28,2.17-.01,.02-.03,.03-.05,.03Z" style="fill:#5eab8f;"/><path d="M50.43,177.23s-.02,0-.03,0c-.03-.02-.04-.05-.02-.08,.27-.46,.35-2.11,.39-2.11,.03,0,0,1.69-.28,2.17-.01,.02-.03,.03-.05,.03Z" style="fill:#5eab8f;"/><path d="M45.86,171.15c-.56,0-1.92-.43-1.91-.46,.01-.03,1.75,.41,2.42,.3,.03,0,.06,.02,.07,.05,0,.03-.02,.06-.05,.07-.17,.03-.35,.04-.53,.04Z" style="fill:#5eab8f;"/><path d="M46.99,173.22c-.56,0-1.92-.43-1.91-.46,.01-.03,1.75,.41,2.42,.3,.03,0,.06,.02,.07,.05,0,.03-.02,.06-.05,.07-.17,.03-.35,.04-.53,.04Z" style="fill:#5eab8f;"/><path d="M55.74,177.16c-.4,.25-.64,.6-.82,.52-.19-.09,0-.51-.2-1-.15-.37-.37-.45-.92-.93-.61-.53-1.03-.89-1.25-1.38-.34-.74-.12-1.49-.06-1.69,.26-.89,1-1.43,1.05-1.46,.32-.23,.57-.3,.74-.62,.11-.21,.13-.4,.12-.85-.03-1.25-.2-1.4-.06-1.92,.06-.24,.2-.76,.6-.94,.18-.08,.34-.06,.68-.23,.2-.1,.31-.15,.4-.27,.11-.16,.08-.27,.12-.76,.05-.58,.12-.7,.18-.78,.03-.05,.16-.22,.39-.29,.19-.06,.28,.02,.53,0,0,0,.28,0,.56-.15,.39-.2,.32-.44,.7-.72,.09-.06,.4-.29,.84-.29,.42,0,.72,.2,.81,.27,.4,.29,.58,.76,.59,1.15,.01,.36-.13,.42-.09,.8,.03,.32,.16,.54,.28,.76,.33,.58,.56,.49,.74,.87,.28,.61-.06,1.35-.13,1.5-.18,.39-.33,.41-.47,.81-.16,.44-.12,.81-.11,1.01,.07,1.52-1.12,2.14-.86,3.48,.15,.76,.57,.8,.48,1.26-.17,.84-1.73,1.46-2.96,1.55-.75,.05-1.26-.1-1.87,.28Z" style="fill:#67b794;"/><path d="M56.53,172.88s-.01-.02-.01-.03c0-.04,.02-.08,.06-.08,.61-.09,2.16-1.2,2.19-1.17,.03,.03-1.53,1.22-2.17,1.32-.03,0-.05,0-.07-.03Z" style="fill:#5eab8f;"/><path d="M56.75,169.92c-.41-.51-1-2.06-.97-2.08,.04-.01,.9,1.89,1.48,2.43,.03,.03,.03,.07,0,.1-.03,.03-.07,.03-.1,0-.15-.14-.29-.29-.42-.45Z" style="fill:#5eab8f;"/><path d="M48.15,175.11c-.56,0-1.92-.43-1.91-.46,.01-.03,1.75,.41,2.42,.3,.03,0,.06,.02,.07,.05,0,.03-.02,.06-.05,.07-.17,.03-.35,.04-.53,.04Z" style="fill:#5eab8f;"/><path d="M54.72,175.08c-.63-.79-1.77-3.02-1.72-3.03,.04,0,1.59,2.76,2.44,3.64,.04,.04,.06,.1,.03,.13-.02,.03-.08,.02-.12-.02-.22-.22-.43-.46-.63-.72Z" style="fill:#5eab8f;"/><path d="M55.88,172.36c-.41-.51-1-2.06-.97-2.08,.04-.01,.9,1.89,1.48,2.43,.03,.03,.03,.07,0,.1-.03,.03-.07,.03-.1,0-.15-.14-.29-.29-.42-.45Z" style="fill:#5eab8f;"/><path d="M53.94,178.72c.92-1.08,1.66-3.52,2.52-6.34,.76-2.49,2.91-7.74,3-7.7,.05,.03-1.19,3.02-2.64,7.81-.7,2.31-2.05,7.03-2.54,6.93-.08-.02-.43-.6-.34-.69Z" style="fill:#5eab8f;"/><path d="M52.69,176.32c-.15,0-.37-.05-.55-.18-.15-.11-.19-.21-.29-.34-.19-.24-.39-.34-.67-.51-.71-.41-1.06-.61-1.36-.85-.34-.26-.84-.66-1.04-1.34-.07-.24-.2-.67-.02-1.08,.16-.36,.41-.36,.66-.86,.08-.16,.19-.38,.18-.68,0-.29-.12-.51-.25-.74-.18-.35-.3-.38-.43-.69-.08-.19-.14-.34-.14-.52,.02-.54,.62-.62,.81-1.28,.11-.37,.02-.71-.02-.86-.1-.41-.26-.43-.44-.89-.08-.2-.24-.66-.18-1.23,.03-.29,.07-.68,.35-.96,.18-.17,.3-.14,.52-.29,.33-.23,.41-.54,.58-.96,.28-.66,.59-1.38,1.2-1.69,.08-.04,.54-.28,.97-.11,.36,.14,.54,.51,.81,1.06,.26,.53,.18,.58,.37,.83,.3,.4,.58,.39,1.09,.77,.23,.17,.64,.47,.89,.94,.36,.68,.29,1.48,.23,2.06-.06,.58-.17,.8-.02,1.14,.09,.21,.31,.52,.52,.77,.13,.15,.23,.24,.31,.43,.1,.23,.1,.44,.09,.54-.03,.48-.33,.55-.48,1.14-.03,.14-.09,.37-.05,.66,.05,.31,.18,.46,.37,.8,.2,.35,.43,.76,.48,1.11,.08,.56-.29,1.04-.55,1.39-.97,1.26-2,.95-3.08,1.99-.12,.11-.44,.44-.86,.43Z" style="fill:#76bd9c;"/><path d="M51.43,170.24c-.59-.35-1.75-1.66-1.72-1.69,.03-.03,1.58,1.53,2.35,1.84,.04,.02,.06,.06,.04,.1-.02,.04-.06,.06-.1,.04-.2-.08-.39-.18-.58-.29Z" style="fill:#5eab8f;"/><path d="M51.62,164.27c-.38-.35-1.02-1.49-1-1.5,.03-.01,.92,1.36,1.44,1.71,.03,.02,.03,.05,.02,.08-.02,.03-.05,.03-.08,.02-.13-.09-.26-.19-.38-.3Z" style="fill:#5eab8f;"/><path d="M51.35,166.89c-.61-.5-1.72-2.19-1.68-2.22,.04-.02,1.55,2.01,2.38,2.5,.04,.02,.05,.08,.03,.12-.02,.04-.08,.05-.12,.03-.21-.12-.42-.27-.62-.43Z" style="fill:#5eab8f;"/><path d="M51.53,173.9c-.72-.43-2.13-2.02-2.09-2.06,.04-.03,1.93,1.86,2.87,2.24,.05,.02,.07,.07,.05,.12-.02,.05-.07,.07-.12,.05-.24-.1-.48-.22-.71-.36Z" style="fill:#5eab8f;"/><path d="M53.04,170.32c.85-.32,2.66-1.75,2.62-1.79-.04-.04-2.41,1.62-3.49,1.84-.05,.01-.09,.06-.08,.12,.01,.05,.06,.09,.12,.08,.27-.06,.55-.14,.82-.24Z" style="fill:#5eab8f;"/><path d="M52.55,164.32c.42-.3,1.2-1.35,1.18-1.36-.03-.02-1.08,1.24-1.64,1.52-.03,.01-.04,.05-.02,.07,.01,.03,.05,.04,.07,.02,.14-.07,.28-.16,.42-.25Z" style="fill:#5eab8f;"/><path d="M53.01,166.99c.76-.48,2.24-2.22,2.2-2.25-.04-.03-2.02,2.04-3.03,2.47-.05,.02-.07,.08-.05,.13,.02,.05,.08,.07,.13,.05,.25-.11,.5-.24,.75-.4Z" style="fill:#5eab8f;"/><path d="M53.31,173.83c.84-.42,2.61-1.99,2.57-2.02-.04-.03-2.36,1.83-3.44,2.2-.05,.02-.08,.07-.07,.12,.01,.05,.07,.07,.12,.05,.27-.09,.55-.21,.82-.34Z" style="fill:#5eab8f;"/><path d="M49.35,177.36c-.87,0-2.97-.43-2.95-.46,.02-.03,2.7,.41,3.75,.3,.05,0,.1,.02,.11,.05,0,.03-.03,.06-.08,.07-.26,.03-.54,.04-.82,.04Z" style="fill:#5eab8f;"/><path d="M51.53,179.97s-.14-.02-.16-.13c-.23-1.2-1.46-3.01-2.9-5.11-1.26-1.85-3.63-6.12-3.55-6.16,.05-.02,1.38,2.43,3.81,5.98,1.17,1.71,3.6,5.16,3.28,5.43-.06,.05-.3,.09-.49,0Z" style="fill:#5eab8f;"/><path d="M58.28,167.91s-.01-.02-.01-.03c0-.04,.02-.08,.06-.08,.61-.09,2.16-1.2,2.19-1.17,.03,.03-1.53,1.22-2.17,1.32-.03,0-.05,0-.07-.03Z" style="fill:#5eab8f;"/><path d="M57.23,170.51s-.01-.02-.01-.03c0-.04,.02-.08,.06-.08,.61-.09,2.16-1.2,2.19-1.17,.03,.03-1.53,1.22-2.17,1.32-.03,0-.05,0-.07-.03Z" style="fill:#5eab8f;"/><path d="M55.61,175.97s-.01-.02-.01-.03c0-.04,.02-.08,.06-.08,.61-.09,2.16-1.2,2.19-1.17,.03,.03-1.53,1.22-2.17,1.32-.03,0-.05,0-.07-.03Z" style="fill:#5eab8f;"/><path d="M57.8,167.39c-.41-.51-1-2.06-.97-2.08,.04-.01,.9,1.89,1.48,2.43,.03,.03,.03,.07,0,.1-.03,.03-.07,.03-.1,0-.15-.14-.29-.29-.42-.45Z" style="fill:#5eab8f;"/><path d="M53.43,179.25c-.05,0-.1-.03-.12-.09-.6-1.73-1.01-4.05-1.22-6.9-.23-3.03,0-11.26,.08-11.25,.07,0-.05,8.22,.18,11.23,.21,2.83,.62,5.12,1.21,6.83,.02,.07-.01,.14-.08,.17-.01,0-.03,0-.04,0Z" style="fill:#5eab8f;"/><path d="M59.52,182.16c-.42-.77-1.4-2.23-3.16-2.95-2.76-1.12-6.33,.02-8.74,2.96,4,.04,7.97,.04,11.91-.01Z" style="fill:#b65c67;"/><path d="M91,236.12c-19.81,1.53-39.7,1.37-59.67-.11-1.23-.09-2.14-1.18-2.02-2.41,1.6-16.38,3.2-32.77,4.8-49.15,.14-1.48,1.41-2.59,2.89-2.55,16.41,.49,32.27,.24,47.55-.76,.99-.07,1.88,.61,2.08,1.59,3.21,16.21,5.33,32.92,7.4,49.66,.23,1.88-1.15,3.58-3.03,3.73Z" style="fill:#e7ae80;"/><path d="M104.75,232.13l-7.42-50.74c-.02-.16-.19-.26-.34-.2l-4.85,1.84-6.64-1.73c.57,.26,1,.77,1.13,1.42,3.21,16.21,5.33,32.92,7.4,49.66,.23,1.88-1.15,3.58-3.03,3.73-1.28,.1-2.56,.19-3.83,.27h0l14.03-.09c2.2-.01,3.88-1.98,3.56-4.17Z" style="fill:#bf8964;"/><path d="M98.17,228.41l-4.71,6.29h0c-.55,.79-1.43,1.34-2.47,1.42-1.28,.1-2.56,.19-3.83,.27h0l14.03-.09c1.07,0,2.02-.48,2.67-1.21l-5.69-6.69Z" style="fill:#e0ab7d;"/><path d="M98.17,228.41l5.69,6.69h0c.7-.76,1.07-1.83,.9-2.96l-7.42-50.74c-.02-.16-.19-.26-.34-.2l-4.8,1.82c2.19,15.47,4.18,30.65,5.91,45.48l.07-.09Z" style="fill:#c8936d;"/><ellipse cx="48.61" cy="186.35" rx="1.48" ry="1.49" style="fill:#cf9666;"/><ellipse cx="70.07" cy="186.35" rx="1.48" ry="1.49" style="fill:#cf9666;"/><path d="M58.87,198.38c-1.26,0-2.47-.22-3.61-.66-1.25-.48-2.36-1.2-3.32-2.15-1.02-1.01-1.83-2.26-2.41-3.72-.63-1.56-.99-3.35-1.09-5.33,0-.18,.13-.34,.31-.35,.18,0,.34,.13,.35,.31,.09,1.9,.44,3.63,1.04,5.12,.55,1.37,1.31,2.55,2.27,3.49,.89,.88,1.93,1.56,3.09,2,1.11,.42,2.3,.63,3.53,.61,1.31-.02,2.61-.29,3.86-.81,1.27-.53,2.42-1.28,3.41-2.23,1.04-1.01,1.87-2.2,2.45-3.55,.63-1.45,.96-3.06,.99-4.77,0-.18,.15-.33,.33-.33h0c.18,0,.33,.15,.32,.34-.03,1.8-.38,3.49-1.05,5.03-.62,1.43-1.49,2.7-2.6,3.76-1.05,1.01-2.27,1.81-3.62,2.37-1.33,.55-2.71,.84-4.1,.86-.06,0-.11,0-.17,0Z" style="fill:#454242;"/><path d="M37.98,208.19c.08,.4,.43,2.14-.44,3.2-.09,.11-.47,.57-.84,.49-.42-.08-.61-.76-.69-1.06-1-3.71,.18-19.74,1.72-23.97,.12-.34,.35-.89,.89-1.22,.49-.29,1.04-.29,1.64-.28,.32,0,.16,.03,1.35,.17,.69,.08,.88,.09,1.07,.26,.26,.24,.4,.69,.25,1-.11,.21-.38,.3-.92,.48-.72,.24-.87,.17-1.13,.37-.15,.11-.3,.28-.57,.92-.24,.59-.38,.92-.48,1.52-2.46,14.87-1.84,18.1-1.84,18.1Z" style="fill:#f0bc89;"/><path d="M41.72,232.65c3.26-.12,5.4,0,5.4,0,0,0,.98,.06,2.27-.2,.93-.18,1.59-.31,1.67-.66,.12-.55-1.24-1.69-2.67-1.77-.79-.04-1.13,.26-2.36,.15-.43-.04-.8-.11-1.23-.2-.95-.19-1.04-.3-1.87-.48-.88-.19-1.64-.27-2.1-.31-1.17-.11-1.22,0-1.52-.14-1.11-.49-1.31-2.34-1.36-2.82-.2-1.86,.55-2.53,.28-4.68-.07-.54-.22-1.27-.78-1.65-.07-.05-.45-.3-.87-.22-.58,.12-.89,.81-1.06,1.22-1.13,2.76-.82,5.2-1.53,8.38-.11,.5-.35,1.45,.14,2.28,.29,.49,.73,.78,1.13,.97,1.72,.81,3.42,.24,6.47,.12Z" style="fill:#f0bc89;"/><g><use width="30" height="30" transform="translate(81.17 194.16) scale(.02)" xlink:href="#a"/><use width="30" height="30" transform="translate(80.84 194.16) scale(.02)" xlink:href="#a"/><use width="30" height="30" transform="translate(78.5 194.29) scale(.02)" xlink:href="#a"/><use width="30" height="30" transform="translate(73.87 203.94) scale(.02)" xlink:href="#a"/><use width="30" height="30" transform="translate(72.83 211.81) scale(.02)" xlink:href="#a"/><use width="30" height="30" transform="translate(78.41 217.17) scale(.02)" xlink:href="#a"/><use width="30" height="30" transform="translate(85.24 213.35) scale(.02)" xlink:href="#a"/><use width="30" height="30" transform="translate(84.37 196.85) scale(.02)" xlink:href="#a"/><use width="30" height="30" transform="translate(83.34 185.65) scale(.02)" xlink:href="#a"/><use width="30" height="30" transform="translate(82.83 181.45) scale(.02)" xlink:href="#a"/><use width="30" height="30" transform="translate(76.37 182.47) scale(.02)" xlink:href="#a"/><use width="30" height="30" transform="translate(71.56 191.74) scale(.02)" xlink:href="#a"/><use width="30" height="30" transform="translate(71.81 203.94) scale(.02)" xlink:href="#a"/><use width="30" height="30" transform="translate(73.35 213.5) scale(.02)" xlink:href="#a"/><use width="30" height="30" transform="translate(74.87 224.16) scale(.02)" xlink:href="#a"/><use width="30" height="30" transform="translate(84.09 226.82) scale(.02)" xlink:href="#a"/><use width="30" height="30" transform="translate(91.06 227.58) scale(.02)" xlink:href="#a"/><use width="30" height="30" transform="translate(88.52 228.99) scale(.02)" xlink:href="#a"/><use width="30" height="30" transform="translate(69.56 228.6) scale(.02)" xlink:href="#a"/><use width="30" height="30" transform="translate(60.08 222.24) scale(.02)" xlink:href="#a"/><use width="30" height="30" transform="translate(56.04 212.21) scale(.02)" xlink:href="#a"/><use width="30" height="30" transform="translate(54.9 207.49) scale(.02)" xlink:href="#a"/><use width="30" height="30" transform="translate(50.84 209.78) scale(.02)" xlink:href="#a"/><use width="30" height="30" transform="translate(49.58 219.96) scale(.02)" xlink:href="#a"/><use width="30" height="30" transform="translate(53.62 225.29) scale(.02)" xlink:href="#a"/><use width="30" height="30" transform="translate(54.64 228.48) scale(.02)" xlink:href="#a"/><use width="30" height="30" transform="translate(44.39 194.78) scale(.02)" xlink:href="#a"/><use width="30" height="30" transform="translate(44.39 198.6) scale(.02)" xlink:href="#a"/><use width="30" height="30" transform="translate(44.39 206.09) scale(.02)" xlink:href="#a"/><use width="30" height="30" transform="translate(44.4 212.32) scale(.02)" xlink:href="#a"/><use width="30" height="30" transform="translate(43.13 214.5) scale(.02)" xlink:href="#a"/><use width="30" height="30" transform="translate(38.32 214.88) scale(.02)" xlink:href="#a"/><use width="30" height="30" transform="translate(37.17 212.69) scale(.02)" xlink:href="#a"/><use width="30" height="30" transform="translate(33.26 219.1) scale(.02)" xlink:href="#a"/><use width="30" height="30" transform="translate(33.5 219.02) scale(.02)" xlink:href="#a"/><use width="30" height="30" transform="translate(33.39 221.27) scale(.02)" xlink:href="#a"/><use width="30" height="30" transform="translate(54.34 233.7) scale(.02)" xlink:href="#a"/><use width="30" height="30" transform="translate(55.18 233.7) scale(.02)" xlink:href="#a"/><use width="30" height="30" transform="translate(67.66 234.08) scale(.02)" xlink:href="#a"/></g><g><use width="17" height="17" transform="translate(72.93 205.59) scale(.02)" xlink:href="#b"/><use width="17" height="17" transform="translate(72.98 207.21) scale(.02)" xlink:href="#b"/><use width="17" height="17" transform="translate(72.57 207.21) scale(.02)" xlink:href="#b"/><use width="17" height="17" transform="translate(60.8 207.52) scale(.02)" xlink:href="#b"/><use width="17" height="17" transform="translate(59.73 206.77) scale(.02)" xlink:href="#b"/><use width="17" height="17" transform="translate(59.43 202.46) scale(.02)" xlink:href="#b"/><use width="17" height="17" transform="translate(69.37 199.61) scale(.02)" xlink:href="#b"/><use width="17" height="17" transform="translate(71.25 201.93) scale(.02)" xlink:href="#b"/><use width="17" height="17" transform="translate(66.33 211.6) scale(.02)" xlink:href="#b"/><use width="17" height="17" transform="translate(64.76 213.6) scale(.02)" xlink:href="#b"/><use width="17" height="17" transform="translate(80.66 205.43) scale(.02)" xlink:href="#b"/><use width="17" height="17" transform="translate(80.66 205.69) scale(.02)" xlink:href="#b"/><use width="17" height="17" transform="translate(77.31 218.54) scale(.02)" xlink:href="#b"/><use width="17" height="17" transform="translate(71.56 227.15) scale(.02)" xlink:href="#b"/><use width="17" height="17" transform="translate(65.29 223.59) scale(.02)" xlink:href="#b"/><use width="17" height="17" transform="translate(71.12 206.77) scale(.02)" xlink:href="#b"/><use width="17" height="17" transform="translate(83.16 220.43) scale(.02)" xlink:href="#b"/><use width="17" height="17" transform="translate(81.49 230.09) scale(.02)" xlink:href="#b"/><use width="17" height="17" transform="translate(78.14 232.82) scale(.02)" xlink:href="#b"/><use width="17" height="17" transform="translate(75.21 233.67) scale(.02)" xlink:href="#b"/><use width="17" height="17" transform="translate(55.04 190.79) scale(.02)" xlink:href="#b"/><use width="17" height="17" transform="translate(55.04 190.53) scale(.02)" xlink:href="#b"/><use width="17" height="17" transform="translate(55.03 189) scale(.02)" xlink:href="#b"/><use width="17" height="17" transform="translate(55.87 187.21) scale(.02)" xlink:href="#b"/><use width="17" height="17" transform="translate(60.7 185.96) scale(.02)" xlink:href="#b"/><use width="17" height="17" transform="translate(64.05 188.8) scale(.02)" xlink:href="#b"/><use width="17" height="17" transform="translate(65.41 193.74) scale(.02)" xlink:href="#b"/><use width="17" height="17" transform="translate(62.99 194.9) scale(.02)" xlink:href="#b"/><use width="17" height="17" transform="translate(57.57 187.96) scale(.02)" xlink:href="#b"/><use width="17" height="17" transform="translate(55.04 182.38) scale(.02)" xlink:href="#b"/><use width="17" height="17" transform="translate(45.39 188.58) scale(.02)" xlink:href="#b"/><use width="17" height="17" transform="translate(45.14 188.58) scale(.02)" xlink:href="#b"/><use width="17" height="17" transform="translate(44.68 190.92) scale(.02)" xlink:href="#b"/><use width="17" height="17" transform="translate(44.27 196.16) scale(.02)" xlink:href="#b"/><use width="17" height="17" transform="translate(42.08 202.36) scale(.02)" xlink:href="#b"/><use width="17" height="17" transform="translate(39.99 205.84) scale(.02)" xlink:href="#b"/><use width="17" height="17" transform="translate(36.01 186.16) scale(.02)" xlink:href="#b"/><use width="17" height="17" transform="translate(36.01 187.35) scale(.02)" xlink:href="#b"/><use width="17" height="17" transform="translate(35.28 203.31) scale(.02)" xlink:href="#b"/><use width="17" height="17" transform="translate(33.19 212.09) scale(.02)" xlink:href="#b"/><use width="17" height="17" transform="translate(33.19 211.76) scale(.02)" xlink:href="#b"/><use width="17" height="17" transform="translate(33.18 206.25) scale(.02)" xlink:href="#b"/><use width="17" height="17" transform="translate(33.71 198.24) scale(.02)" xlink:href="#b"/><use width="17" height="17" transform="translate(33.71 197.98) scale(.02)" xlink:href="#b"/><use width="17" height="17" transform="translate(33.71 194.47) scale(.02)" xlink:href="#b"/><use width="17" height="17" transform="translate(31.21 226.98) scale(.02)" xlink:href="#b"/><use width="17" height="17" transform="translate(31.21 226.65) scale(.02)" xlink:href="#b"/><use width="17" height="17" transform="translate(31.63 222.3) scale(.02)" xlink:href="#b"/><use width="17" height="17" transform="translate(29.65 232.19) scale(.02)" xlink:href="#b"/><use width="17" height="17" transform="translate(29.91 232.19) scale(.02)" xlink:href="#b"/><use width="17" height="17" transform="translate(33.91 232.18) scale(.02)" xlink:href="#b"/><use width="17" height="17" transform="translate(34.69 232.29) scale(.02)" xlink:href="#b"/><use width="17" height="17" transform="translate(33.76 235.57) scale(.02)" xlink:href="#b"/><use width="17" height="17" transform="translate(34.1 235.57) scale(.02)" xlink:href="#b"/><use width="17" height="17" transform="translate(41.04 235.56) scale(.02)" xlink:href="#b"/><use width="17" height="17" transform="translate(43.96 235.56) scale(.02)" xlink:href="#b"/><use width="17" height="17" transform="translate(45.62 233.76) scale(.02)" xlink:href="#b"/><use width="17" height="17" transform="translate(46.3 233.76) scale(.02)" xlink:href="#b"/><use width="17" height="17" transform="translate(48.79 233.77) scale(.02)" xlink:href="#b"/><use width="17" height="17" transform="translate(62.15 233.47) scale(.02)" xlink:href="#b"/><use width="17" height="17" transform="translate(62.15 231.35) scale(.02)" xlink:href="#b"/><use width="17" height="17" transform="translate(61.72 221.49) scale(.02)" xlink:href="#b"/><use width="17" height="17" transform="translate(64.14 217.07) scale(.02)" xlink:href="#b"/><use width="17" height="17" transform="translate(62.55 218.12) scale(.02)" xlink:href="#b"/><use width="17" height="17" transform="translate(46.58 220.84) scale(.02)" xlink:href="#b"/><use width="17" height="17" transform="translate(50.02 199.83) scale(.02)" xlink:href="#b"/><use width="17" height="17" transform="translate(50.55 201.22) scale(.02)" xlink:href="#b"/><use width="17" height="17" transform="translate(88.27 219.02) scale(.02)" xlink:href="#b"/><use width="17" height="17" transform="translate(88.51 219.51) scale(.02)" xlink:href="#b"/><use width="17" height="17" transform="translate(91.21 224.21) scale(.02)" xlink:href="#b"/></g><path d="M37.74,181.92c.05,0,.11,0,.16,0,3.38,.1,6.73,.17,10.06,.21-.15-1.81-.64-3.1-1.09-3.98-.93-1.81-1.79-2.07-3.17-4.68-.61-1.16-1.07-2.29-1.23-2.7-.12-.29-.08-.22-.92-2.7,0,0-.41-1.21-.46-2.08,0-.08-.01-.16-.02-.25-.01-.3,0-.35-.03-.43-.14-.26-.38-.26-.38-.26l-2.25,.02-.57,.02s-.2,.06-.38,.32c-.63,1.22-.81,2.53-.81,2.53,0,0-.1,.62-.15,1.02-.1,.7-.16,1.23-.17,1.36,0,.08-.14,1.09-.18,2.01-.05,1.18-.1,2.27,0,3.48,.11,1.39,.45,3.54,1.6,6.11Z" style="fill:#f6ca72;"/><path d="M37.75,181.94c.13-.01,.27-.02,.4-.02,.38,.01,.75,.02,1.13,.03-1.76-3.89-2.9-11.78-1.68-16.35,.05-.1,0-.19-.07-.27-.02,.03-.04,.05-.07,.08-.63,1.22-.81,2.53-.81,2.53,0,0-.1,.62-.15,1.02-.1,.7-.16,1.23-.17,1.36,0,.08-.14,1.09-.18,2.01-.05,1.18-.1,2.27,0,3.48,.11,1.39,.45,3.55,1.61,6.13Z" style="fill:#e4aa57;"/><path d="M45.3,182.09h.18c-.56-1.2-1.28-2.71-1.68-3.59-1.05-2.29-2.69-6.39-2.74-6.36-.05,.03,1.52,4.2,2.57,6.5,.39,.86,1.09,2.29,1.67,3.45Z" style="fill:#bf875b;"/><path d="M40.09,166.23c.38-.04,.72-.07,1-.16v-.07c0-.08-.02-.16-.02-.25-.01-.3,0-.35-.03-.43-.14-.26-.38-.26-.38-.26l-2.25,.02-.57,.02s-.18,.06-.35,.28c.16,.13,.3,.24,.43,.32,.23,.15,.46,.3,.8,.42,.58,.2,1.07,.15,1.38,.12Z" style="fill:#bb8160;"/><path d="M40.73,170.94c-.08-.04-.4-2.21-.3-2.18,.1,.04,.44,2.23,.34,2.19-.01,0-.03-.01-.04-.02Z" style="fill:#bf875b;"/><path d="M52.49,178.78c-.08-.04-.4-2.21-.3-2.18,.1,.04,.44,2.23,.34,2.19-.01,0-.03-.01-.04-.02Z" style="fill:#bf875b;"/><path d="M41.49,179.85s-.05-.01-.07-.03c-1.2-1.64-1.43-2.7-1.64-3.64-.13-.59-.58-1.75-.54-1.78,.04-.02,.58,1.16,.71,1.74,.2,.92,.43,1.97,1.61,3.58,.03,.04,.02,.09-.02,.12-.02,.01-.03,.02-.05,.02Z" style="fill:#bf875b;"/></g><g id="n"/><g id="o"/><g id="p"/><g id="q"/><g id="r"/><g id="s"/><g id="t"/></svg>