<?xml version="1.0" encoding="UTF-8"?><svg xmlns="http://www.w3.org/2000/svg" viewBox="0 0 255 257"><g id="a"/><g id="b"/><g id="c"/><g id="d"/><g id="e"/><g id="f"/><g id="g"/><g id="h"><rect width="255" height="257" style="fill:#0070b5;"/></g><g id="i"><g><path d="M78.01,137.41h126.35c.06,0,.11,.05,.11,.11v118.27c0,.06-.05,.11-.11,.11H78.01c-.06,0-.11-.05-.11-.11v-118.27c0-.06,.05-.11,.11-.11Z" style="fill:#ddbc9c;"/><path d="M204.35,256.71H78.01c-.51,0-.92-.41-.92-.92v-118.27c0-.51,.41-.92,.92-.92h126.35c.51,0,.92,.41,.92,.92v118.27c0,.51-.41,.92-.92,.92Zm-125.64-1.63h124.94v-116.86H78.71v116.86Z"/></g><g><rect x="77.9" y="137.68" width="126.56" height="118.48" rx=".1" ry=".1" style="fill:#1a1b4f;"/><path d="M204.38,256.98H77.98c-.49,0-.89-.4-.89-.89v-118.32c0-.49,.4-.89,.89-.89h126.4c.49,0,.89,.4,.89,.89v118.32c0,.49-.4,.89-.89,.89Zm-125.67-1.63h124.94v-116.86H78.71v116.86Z"/></g><path d="M132.77,218.17l-19.29-65.53c-.49-1.65,.73-3.31,2.45-3.35l39.49-.92c1.78-.04,3.08,1.67,2.56,3.37l-20.21,66.45c-.75,2.48-4.27,2.47-5.01-.02Z" style="fill:#fff;"/><path d="M140.53,209.15c6.13-20.29,12.26-40.58,18.39-60.87,1.8-.43,3.61-.85,5.41-1.28" style="fill:#d2d2d2;"/><path d="M130.14,209.28c-5.91-20.36-11.83-40.71-17.74-61.07-1.8-.45-3.6-.89-5.4-1.34" style="fill:#d2d2d2;"/><g><g><path d="M131.99,158.97c10.82,0,28.32-11.96,48.68-11.96,4.45,0,8.79,.31,12.99,.87,.36,.05,.73,0,1.06-.16,10.38-4.91,17.32-13.86,17.32-24.08s-6.61-18.74-16.57-23.72c-.26-.13-.48-.32-.65-.55-10.01-13.73-29.06-23.01-50.92-23.01s-42.69,10.17-52.27,24.98c0,.01-.02,.02-.03,.03-11.52,6-19.09,16.18-19.09,27.72,0,7.15,2.91,13.76,7.85,19.2,.53,.58,1.37,.74,2.11,.46,4.64-1.81,9.67-2.8,14.92-2.8,13.6,0,23.8,13.04,34.62,13.04Z" style="fill:#ddbc9c;"/><path d="M131.99,159.79c-5.32,0-10.37-2.95-15.72-6.07-5.87-3.43-11.93-6.97-18.9-6.97-5.03,0-9.95,.93-14.63,2.75-1.07,.42-2.25,.16-3-.67-5.28-5.8-8.07-12.62-8.07-19.75,0-11.38,7.23-21.96,19.36-28.35,10.15-15.54,30.38-25.18,52.84-25.18,21.31,0,41.08,8.94,51.58,23.34,.09,.13,.22,.23,.36,.3,10.66,5.34,17.02,14.48,17.02,24.45s-6.65,19.55-17.79,24.82c-.47,.22-.99,.3-1.51,.23-4.25-.57-8.58-.87-12.88-.87-11.63,0-22.16,3.89-31.44,7.32-6.72,2.49-12.53,4.63-17.24,4.63Zm-34.62-14.67c7.41,0,13.66,3.66,19.71,7.19,5.15,3.01,10.02,5.85,14.9,5.85,4.42,0,10.1-2.1,16.68-4.53,8.95-3.31,20.08-7.42,32-7.42,4.37,0,8.77,.3,13.09,.88,.21,.03,.42,0,.61-.09,10.56-5,16.86-13.73,16.86-23.35s-6.03-17.94-16.12-23c-.37-.19-.7-.46-.95-.8-10.2-13.99-29.46-22.68-50.27-22.68-22,0-41.77,9.43-51.59,24.61l-.12,.19-.23,.13c-11.67,6.08-18.65,16.18-18.65,26.99,0,6.71,2.64,13.16,7.64,18.65,.3,.32,.77,.42,1.22,.25,4.86-1.9,9.98-2.86,15.21-2.86Z"/></g><path d="M131.99,160.06c-3.34-.49-6.06-.39-15.85-6.11-5.83-3.41-11.87-6.93-18.76-6.93-5,0-9.89,.92-14.53,2.73-1.18,.46-2.47,.17-3.29-.74-5.32-5.85-8.14-12.74-8.14-19.93,0-11.46,7.26-22.12,19.44-28.56,10.21-15.58,30.51-25.25,53.03-25.25s41.24,8.99,51.8,23.45l.27,.23c10.75,5.38,17.17,14.61,17.17,24.7s-6.71,19.74-17.94,25.06c-.32,.15-1.2,.19-1.67,.26-6.68,.98-11.59,1.23-12.95,1.31-9.96,.62-21.94,4.79-23.8,5.44-6.23,2.17-8.46,3.62-14.06,4.35-5.5,.72-9.71,.15-10.71,0Zm-34.62-15.22c7.48,0,13.77,3.67,19.85,7.23,5.12,2.99,9.96,5.82,14.77,5.82,4.37,0,10.03-2.09,16.59-4.52,8.97-3.32,20.12-7.44,32.09-7.44,4.37,0,8.79,.3,13.13,.88,.16,.02,.32,0,.46-.07,10.45-4.95,16.7-13.59,16.7-23.1s-5.97-17.74-15.96-22.75c-.42-.21-.78-.51-1.06-.89-10.15-13.91-29.33-22.56-50.05-22.56-21.91,0-41.59,9.38-51.36,24.48l-.16,.25-.29,.16c-11.58,6.03-18.49,16.03-18.49,26.74,0,6.64,2.62,13.03,7.57,18.46,.21,.24,.58,.3,.91,.18,4.9-1.91,10.05-2.88,15.31-2.88Z"/></g><path d="M165.52,142.85c-17.31-9.78-55.17-7.61-59.5,1.09-19.47-6.52-31.37-60.87,11.9-39.13,43.27,21.74-12.98,22.83,32.45-2.17,45.43-25,41.11,32.61,15.14,40.22Z" style="fill:#fae9d8;"/><g><path d="M157.95,114.58c0,3.44,5.41,8.7,9.74,8.7,3.89,0,9.51-5.26,10.61-8.7h-20.35Z" style="fill:#f8d452;"/><path d="M167.68,123.48c-3.83,0-9.94-4.86-9.94-8.9v-.2h20.83l-.09,.27c-1.17,3.65-6.96,8.84-10.8,8.84Zm-9.53-8.7c.21,3.28,5.29,8.29,9.53,8.29,3.1,0,8.84-4.24,10.33-8.29h-19.85Z"/></g><path d="M178.71,109.74c6.28-3.85-.96-4.95-6.99-4.84-6.12,.11-13.11,1.94-14.85,9.69h9.74c5.79,0,6.56-1.44,12.11-4.84Z" style="fill:#959595;"/><path d="M177.02,103.79c-3.09,.02-5.94,.62-8.37,1.33,1.03-.13,2.06-.2,3.07-.22,6.03-.1,13.27,.99,6.99,4.84-5.55,3.41-6.44,4.84-12.23,4.84h-2.35c7.88,0,12.36,.67,17.62-1.09,9.74-3.26,9.74-4.62,17.31-6.52,4.33-1.09-10.82-3.26-22.04-3.19Z" style="fill:#979747;"/><path d="M162.35,114.58c1.01,2.17,2.35,3.26,4.8,3.26s3.79-2.17,4.87-3.26h-9.67Z"/><g><path d="M113.96,115.56c-.39,.07-.87,.11-1.44,.11-1.7-.06-9.14,.69-13.07,.4-.63,3.21,3.42,7.21,5.5,7.21,5.63,1.39,6.49-2.17,9.74-6.52,.55-.73,.39-1.07-.72-1.2Z" style="fill:#f8d452;"/><path d="M107.17,123.79c-.67,0-1.42-.1-2.27-.31h0c-1.07,0-2.73-1.08-4-2.63-1.33-1.63-1.93-3.38-1.65-4.82l.03-.18h.18c2.51,.2,6.52-.05,9.45-.23,1.68-.1,3-.18,3.62-.16,.52,0,.99-.04,1.4-.11h.06c.69,.08,1.04,.24,1.16,.53,.14,.33-.09,.7-.3,.99-.61,.81-1.12,1.58-1.62,2.33-1.72,2.58-3.05,4.58-6.06,4.58Zm-7.56-7.5c-.18,1.28,.39,2.84,1.59,4.31,1.18,1.44,2.75,2.48,3.74,2.48,4.48,1.1,5.86-.96,7.94-4.09,.5-.75,1.02-1.53,1.63-2.35,.28-.37,.28-.53,.25-.59-.03-.07-.18-.21-.81-.29-.42,.07-.91,.11-1.45,.11-.6-.02-1.92,.06-3.58,.16-2.87,.18-6.77,.41-9.32,.25Z"/></g><path d="M103.9,116.09c.21,1.6,1.55,2.84,3.2,2.84,1.79,0,4.3-1.45,4.32-3.24-1.71,.07-4.7,.3-7.53,.4Z"/><path d="M104.11,114.31c-4.16-.1-8.69-3.04-8.75-4.92,0-.1,.03-.21,.05-.31,.3-1.16,2.39-2.16,4.88-2.75,.19-.12,.36-.24,.53-.35-.16,.11-.34,.23-.53,.35,2.22-.52,4.74-.7,6.59-.37,1.58,.29,3.27,1.14,4.76,2.22-1.62-1.81-5.45-3.84-9.96-3.64h.01s-.01,0-.02,0c-3.27-.26-20.53-.83-20.53-.83,5.87,2.33,11.24,4.52,7.96,7.52h0c-1.84,1.33-4.62,2.56-10.13,3.35-6.45,.93,12.98-2.17,18.39,1.09,2.16,1.09,13.05-.07,15.14,0,3.25,0,3.35-1.3,3.36-1.76-.55,1.52-6.65,.53-11.77,.4Zm-2.88-8.62s.03-.02,.05-.03c-.01,.01-.03,.02-.05,.03Z" style="fill:#979747;"/><path d="M115.93,113.65c.05,1.89-6.44,.79-11.82,.66-4.16-.1-8.69-3.04-8.75-4.92-.06-2.34,7.41-4.17,11.53-3.42s8.98,5.35,9.04,7.69Z" style="fill:#959595;"/><path d="M144.26,134.87c-.26-.13-.57-.06-.76,.15l-10.15,11.32c.05,.2,.09,.4,.14,.6,.44,1.98,.9,4.02,1.93,5.58,.32,.47,1.04,.36,1.18-.19,.78-3.01,3.19-10.6,8.07-13.28,2.08-1.14,4.42-1.43,6.97-.86,.11,.02,.22,.05,.32,.07-.3-.13-.61-.26-.91-.38-2.36-.99-4.71-2.01-6.79-3.01Z"/><g><path d="M132.65,156.16c-4.95-5.75-.63-19.88-12.53-18.79,7.57-3.26,10.82-10.87,10.82-10.87,0,0,2.19-5.3,3.8,.07s25.41,14.06,13.51,10.8c-11.9-3.26-14.59,18.85-14.59,18.85-.26,.34-.79,.31-1.01-.07Z" style="fill:#3c502b;"/><path d="M133.18,156.87s-.04,0-.07,0c-.32-.02-.61-.19-.79-.46-1.85-2.17-2.44-5.44-3.02-8.6-.99-5.49-1.92-10.69-9.15-10.02l-2.54,.23,2.35-1.01c7.33-3.16,10.57-10.58,10.6-10.66,.11-.27,1.1-2.65,2.52-2.58,.84,.04,1.51,.92,2.04,2.69,.84,2.82,8.82,6.95,13.1,9.16,3.53,1.83,3.91,2.05,3.71,2.57-.17,.43-.38,.52-3.8-.42-2.27-.62-4.35-.31-6.19,.93-6.19,4.18-7.87,17.45-7.89,17.58v.11l-.08,.09c-.19,.25-.49,.39-.8,.39Zm-11.21-19.95c6.25,.3,7.21,5.6,8.14,10.74,.55,3.07,1.13,6.24,2.85,8.24l.04,.06c.05,.08,.12,.1,.16,.1,.03,0,.07,0,.11-.02,.21-1.56,2.01-13.82,8.22-18.01,2.04-1.38,4.35-1.73,6.86-1.04,.6,.16,1.08,.29,1.47,.39-.58-.31-1.28-.67-1.96-1.03-6.36-3.29-12.64-6.75-13.51-9.65-.56-1.88-1.1-2.1-1.31-2.11h-.02c-.58,0-1.35,1.21-1.71,2.09-.13,.3-2.92,6.69-9.35,10.26Z"/></g><g><path d="M132.49,150.73c-2.05-9.36-1.49-18.52,1.1-26.35-1.34-1.05-2.65,2.12-2.65,2.12,0,0-3.25,7.61-10.82,10.87,11.9-1.09,7.57,13.04,12.53,18.79,.22,.37,.74,.41,1.01,.07,0,0,.03-.27,.11-.73-.49-1.55-.92-3.13-1.28-4.76Z" style="fill:#56703c;"/><path d="M133.18,156.87s-.04,0-.07,0c-.34-.02-.64-.21-.81-.5-1.83-2.11-2.42-5.39-2.99-8.57-.99-5.49-1.92-10.69-9.15-10.02l-2.54,.23,2.35-1.01c7.33-3.16,10.57-10.58,10.6-10.66,.09-.22,.95-2.22,2.13-2.54,.39-.11,.79-.02,1.14,.25l.23,.18-.09,.27c-2.68,8.1-3.06,17.13-1.09,26.14h0c.34,1.54,.76,3.12,1.27,4.72l.03,.09-.02,.1c-.07,.45-.1,.72-.11,.72v.11l-.08,.09c-.19,.25-.49,.39-.8,.39Zm-11.21-19.95c6.25,.3,7.21,5.6,8.14,10.74,.55,3.07,1.13,6.24,2.85,8.24,.09,.14,.17,.16,.21,.16,.03,0,.07,0,.11-.02,.02-.11,.04-.29,.07-.51-.5-1.59-.92-3.17-1.26-4.7-1.97-9.02-1.62-18.09,1.01-26.24-.08-.01-.14,0-.19,0-.6,.16-1.3,1.35-1.59,2.07-.13,.3-2.92,6.69-9.35,10.26Z"/></g><rect x="137.36" y="190.69" width="4.79" height="10.9"/><rect x="36.15" y="190.69" width="4.79" height="10.9"/><path d="M37.13,192.46h103.96s.06,.03,.06,.06v39.13c0,3.04-2.47,5.5-5.5,5.5H42.57c-3.03,0-5.5-2.46-5.5-5.5v-39.13s.03-.06,.06-.06Z" style="fill:#e5823b;"/><rect x="37.07" y="227.48" width="104.08" height=".59"/><rect x="37.07" y="226.51" width="104.08" height=".59"/><rect x="37.07" y="225.49" width="104.08" height=".59"/><rect x="37.07" y="224.52" width="104.08" height=".59"/><rect x="37.07" y="223.55" width="104.08" height=".59"/><rect x="37.07" y="222.54" width="104.08" height=".59"/><rect x="37.07" y="221.48" width="104.08" height=".59"/><rect x="37.07" y="220.51" width="104.08" height=".59"/><rect x="37.07" y="219.49" width="104.08" height=".59"/><rect x="37.07" y="218.52" width="104.08" height=".59"/><rect x="37.07" y="217.55" width="104.08" height=".59"/><rect x="37.07" y="216.54" width="104.08" height=".59"/><rect x="37.07" y="215.57" width="104.08" height=".59"/><rect x="37.07" y="214.6" width="104.08" height=".59"/><rect x="37.07" y="213.58" width="104.08" height=".59"/><rect x="37.07" y="212.61" width="104.08" height=".59"/><rect x="37.07" y="211.64" width="104.08" height=".59"/><rect x="37.07" y="210.62" width="104.08" height=".59"/><rect x="37.07" y="209.57" width="104.08" height=".59"/><rect x="37.07" y="208.6" width="104.08" height=".59"/><rect x="37.07" y="207.58" width="104.08" height=".59"/><rect x="37.07" y="206.61" width="104.08" height=".59"/><rect x="37.07" y="205.64" width="104.08" height=".59"/><rect x="37.07" y="204.63" width="104.08" height=".59"/><rect x="37.07" y="203.57" width="104.08" height=".59"/><rect x="37.07" y="202.6" width="104.08" height=".59"/><rect x="37.07" y="201.59" width="104.08" height=".59"/><rect x="74.23" y="193.48" width="29.68" height="42.32" style="fill:#1e1e1e;"/><rect x="75.24" y="232.34" width="27.66" height="1.94" style="fill:#d35b36;"/><rect x="78.85" y="220.26" width="20.09" height="6.59" style="fill:#f3e851;"/><rect x="80.79" y="214.26" width="5.13" height=".76" style="fill:#d85e36;"/><rect x="92.39" y="214.26" width="5.13" height=".76" style="fill:#d85e36;"/><rect x="78.85" y="224.23" width="20.09" height=".51" style="fill:#fff;"/><rect x="78.85" y="223.3" width="20.09" height=".51" style="fill:#c43531;"/><rect x="78.85" y="222.37" width="20.09" height=".51" style="fill:#fff;"/><rect x="83.48" y="221.86" width="10.68" height="3.46" style="fill:#1e1e1e;"/><path d="M75.24,212.74v17.66h27.66v-17.66h-27.66Zm26.73,17.06h-25.81v-16.14h25.81v16.14Z" style="fill:#e5823b;"/><rect x="82.38" y="232.84" width="1.01" height=".93" style="fill:#fff;"/><rect x="84.06" y="232.84" width="10.09" height=".93" style="fill:#fff;"/><rect x="94.82" y="232.84" width="1.01" height=".93" style="fill:#fff;"/><ellipse cx="85.03" cy="223.51" rx="1.13" ry="1.14" style="fill:#fff;"/><ellipse cx="92.68" cy="223.51" rx="1.13" ry="1.14" style="fill:#fff;"/><path d="M84.42,222.93c.27-.01,.47-.1,.6-.26,.09,.19,.31,.24,.61,.24-.06,.27,.04,.46,.26,.6-.27,.11-.31,.34-.24,.61-.26-.06-.45,.03-.6,.26-.14-.23-.34-.32-.61-.24,.06-.28-.02-.49-.26-.6,.21-.16,.31-.35,.24-.61Z" style="fill:#1e1e1e;"/><path d="M92.07,222.93c.27-.01,.47-.1,.6-.26,.09,.19,.31,.24,.61,.24-.06,.27,.04,.46,.26,.6-.27,.11-.31,.34-.24,.61-.26-.06-.45,.03-.6,.26-.14-.23-.34-.32-.61-.24,.06-.28-.02-.49-.26-.6,.21-.16,.31-.35,.24-.61Z" style="fill:#1e1e1e;"/><rect x="75.32" y="208.94" width="27.57" height="3.29" style="fill:#e5823b;"/><rect x="79.86" y="209.53" width="5.3" height="2.03" style="fill:#24575d; opacity:.36;"/><rect x="86.5" y="209.53" width="5.3" height="2.03" style="fill:#24575d; opacity:.36;"/><rect x="92.98" y="209.53" width="5.3" height="2.03" style="fill:#24575d; opacity:.36;"/><rect x="75.24" y="195.42" width="27.66" height=".42" style="fill:#e5823b;"/><rect x="75.24" y="198.04" width="27.66" height=".42" style="fill:#e5823b;"/><rect x="75.32" y="196.09" width="27.66" height=".68" style="fill:#fff;"/><rect x="75.32" y="197.11" width="27.66" height=".68" style="fill:#fff;"/><rect x="76.83" y="196.43" width=".17" height=".93"/><rect x="79.1" y="196.43" width=".17" height=".93"/><rect x="81.12" y="196.43" width=".17" height=".93"/><rect x="83.48" y="196.43" width=".17" height=".93"/><path d="M89.7,224.82h-1.85c.3-.84,.3-1.69,0-2.53h1.85c-.34,.84-.34,1.69,0,2.53Z" style="fill:#fff;"/><rect x="85.66" y="196.43" width=".17" height=".93"/><rect x="87.93" y="196.43" width=".17" height=".93"/><rect x="89.95" y="196.43" width=".17" height=".93"/><rect x="92.13" y="196.43" width=".17" height=".93"/><rect x="94.4" y="196.43" width=".17" height=".93"/><rect x="96.84" y="196.43" width=".17" height=".93"/><rect x="99.03" y="196.43" width=".17" height=".93"/><rect x="101.3" y="196.43" width=".17" height=".93"/><circle cx="80.2" cy="196.94" r=".34" style="fill:#e5823b;"/><rect x="75.32" y="199.9" width="27.66" height="8.19" style="fill:#e5823b;"/><rect x="75.74" y="200.4" width="3.95" height="7.1" style="fill:#1e1e1e;"/><rect x="80.2" y="200.4" width="3.95" height="7.1" style="fill:#1e1e1e;"/><rect x="84.82" y="200.4" width="3.95" height="7.1" style="fill:#1e1e1e;"/><rect x="89.28" y="200.4" width="3.95" height="7.1" style="fill:#1e1e1e;"/><rect x="93.73" y="200.4" width="3.95" height="7.1" style="fill:#1e1e1e;"/><rect x="98.36" y="200.4" width="3.95" height="7.1" style="fill:#1e1e1e;"/><path d="M76.08,200.83v4.31h0c.02,.89,.75,1.61,1.64,1.61s1.61-.72,1.64-1.61h0v-4.31h-3.28Z" style="fill:#fbe95f;"/><path d="M77.86,206.33c-.75,0-1.36-.66-1.38-1.49h0v-3.84h-.14v4h0c.02,.83,.63,1.49,1.38,1.49,.42,0,.8-.21,1.05-.54-.24,.24-.56,.38-.91,.38Z" style="fill:#d2c25b;"/><path d="M80.53,200.83v4.31h0c.02,.89,.75,1.61,1.64,1.61s1.61-.72,1.64-1.61h0v-4.31h-3.28Z" style="fill:#6a6d6a;"/><path d="M82.31,206.33c-.75,0-1.36-.66-1.38-1.49h0v-3.84h-.14v4h0c.02,.83,.63,1.49,1.38,1.49,.42,0,.8-.21,1.05-.54-.24,.24-.56,.38-.91,.38Z" style="fill:#525652;"/><path d="M85.16,200.83v4.31h0c.02,.89,.75,1.61,1.64,1.61s1.61-.72,1.64-1.61h0v-4.31h-3.28Z" style="fill:#848784;"/><path d="M86.94,206.33c-.75,0-1.36-.66-1.38-1.49h0v-3.84h-.14v4h0c.02,.83,.63,1.49,1.38,1.49,.42,0,.8-.21,1.05-.54-.24,.24-.56,.38-.91,.38Z" style="fill:#787878;"/><path d="M89.61,200.83v4.31h0c.02,.89,.75,1.61,1.64,1.61s1.61-.72,1.64-1.61h0v-4.31h-3.28Z" style="fill:#c5c4c4;"/><path d="M91.39,206.33c-.75,0-1.36-.66-1.38-1.49h0v-3.84h-.14v4h0c.02,.83,.63,1.49,1.38,1.49,.42,0,.8-.21,1.05-.54-.24,.24-.56,.38-.91,.38Z" style="fill:#99999a;"/><path d="M94.07,200.83v4.31h0c.02,.89,.75,1.61,1.64,1.61s1.61-.72,1.64-1.61h0v-4.31h-3.28Z" style="fill:#75bde8;"/><path d="M95.85,206.33c-.75,0-1.36-.66-1.38-1.49h0v-3.84h-.14v4h0c.02,.83,.63,1.49,1.38,1.49,.42,0,.8-.21,1.05-.54-.24,.24-.56,.38-.91,.38Z" style="fill:#48a0cb;"/><path d="M98.69,200.83v4.31h0c.02,.89,.75,1.61,1.64,1.61s1.61-.72,1.64-1.61h0v-4.31h-3.28Z" style="fill:#dd5244;"/><path d="M100.47,206.33c-.75,0-1.36-.66-1.38-1.49h0v-3.84h-.14v4h0c.02,.83,.63,1.49,1.38,1.49,.42,0,.8-.21,1.05-.54-.24,.24-.56,.38-.91,.38Z" style="fill:#c23931;"/><path d="M76.58,215.61v13.85h24.97v-13.85h-24.97Zm24.13,12.76h-23.62v-12.16h23.62v12.16Z" style="fill:#97422b;"/><ellipse cx="122.58" cy="214.92" rx="16.77" ry="16.85" style="fill:#4f524f;"/><ellipse cx="122.58" cy="214.92" rx="16.26" ry="16.34" style="fill:#78766e;"/><ellipse cx="122.58" cy="214.92" rx="15.71" ry="15.78" style="fill:#898c89;"/><ellipse cx="122.58" cy="214.92" rx="14.7" ry="14.77" style="fill:#464646;"/><ellipse cx="122.58" cy="214.92" rx="14.18" ry="14.25" style="fill:#1d1d1d;"/><ellipse cx="122.58" cy="214.92" rx="12.66" ry="12.72" style="fill:#434343; opacity:.37;"/><ellipse cx="118.93" cy="214.62" rx="9.71" ry="12.06" style="fill:#1d1d1d;"/><ellipse cx="122.58" cy="214.92" rx="1.57" ry="1.58" style="fill:#0e0e0e;"/><ellipse cx="122.58" cy="214.92" rx="1.22" ry="1.22" style="fill:#464646;"/><ellipse cx="122.58" cy="214.92" rx=".94" ry=".94" style="fill:#898c89;"/><rect x="122.29" y="202.18" width=".59" height="11.28" transform="translate(-.77 .46) rotate(-.21)" style="fill:#0e0e0e;"/><rect x="122.31" y="216.33" width=".59" height="11.32" style="fill:#0e0e0e;"/><rect x="123.95" y="214.6" width="11.27" height=".59" style="fill:#0e0e0e;"/><rect x="108.4" y="214.6" width="12.78" height=".59" style="fill:#0e0e0e;"/><polygon points="123.91 214.08 123.49 213.67 131.31 205.73 131.73 206.14 123.91 214.08" style="fill:#0e0e0e;"/><polygon points="121.39 214.09 112.69 205.34 113.11 204.92 121.81 213.67 121.39 214.09" style="fill:#0e0e0e;"/><polygon points="131.44 224.01 123.49 216.03 123.91 215.61 131.85 223.59 131.44 224.01" style="fill:#0e0e0e;"/><g style="opacity:.37;"><path d="M122.86,202.18h-.59v1.12c.2,.09,.4,.19,.59,.3v-1.41Z" style="fill:#434343;"/><path d="M122.31,227.65h.59v-2.02c-.19,.11-.39,.21-.59,.3v1.72Z" style="fill:#434343;"/><path d="M128.63,215.19h6.59v-.59h-6.58v.02c0,.19,0,.38-.01,.57Z" style="fill:#434343;"/><path d="M131.73,206.14l-.42-.42-3.62,3.68c.08,.2,.15,.41,.22,.62l3.82-3.88Z" style="fill:#434343;"/><path d="M131.44,224.01l.42-.42-4.05-4.07c-.07,.2-.15,.4-.23,.6l3.87,3.88Z" style="fill:#434343;"/></g><polygon points="113.32 224.48 112.9 224.06 121.31 215.69 121.72 216.11 113.32 224.48" style="fill:#0e0e0e;"/><ellipse cx="55.5" cy="214.92" rx="16.77" ry="16.85" style="fill:#4f524f;"/><ellipse cx="55.5" cy="214.92" rx="16.26" ry="16.34" style="fill:#78766e;"/><ellipse cx="55.5" cy="214.92" rx="15.71" ry="15.78" style="fill:#898c89;"/><ellipse cx="55.5" cy="214.92" rx="14.7" ry="14.77" style="fill:#464646;"/><ellipse cx="55.5" cy="214.92" rx="14.18" ry="14.25" style="fill:#1d1d1d;"/><ellipse cx="55.5" cy="214.92" rx="12.66" ry="12.72" style="fill:#434343; opacity:.37;"/><ellipse cx="51.85" cy="214.62" rx="9.71" ry="12.06" style="fill:#1d1d1d;"/><ellipse cx="55.5" cy="214.92" rx="1.57" ry="1.58" style="fill:#0e0e0e;"/><ellipse cx="55.5" cy="214.92" rx="1.22" ry="1.22" style="fill:#464646;"/><ellipse cx="55.5" cy="214.92" rx=".94" ry=".94" style="fill:#898c89;"/><rect x="55.21" y="202.18" width=".59" height="11.28" transform="translate(-.77 .21) rotate(-.21)" style="fill:#0e0e0e;"/><rect x="55.23" y="216.33" width=".59" height="11.32" style="fill:#0e0e0e;"/><rect x="56.87" y="214.6" width="11.27" height=".59" style="fill:#0e0e0e;"/><rect x="41.32" y="214.6" width="12.78" height=".59" style="fill:#0e0e0e;"/><polygon points="56.82 214.08 56.41 213.67 64.22 205.73 64.64 206.14 56.82 214.08" style="fill:#0e0e0e;"/><polygon points="54.31 214.09 45.6 205.34 46.02 204.92 54.72 213.67 54.31 214.09" style="fill:#0e0e0e;"/><polygon points="64.35 224.01 56.41 216.03 56.82 215.61 64.77 223.59 64.35 224.01" style="fill:#0e0e0e;"/><g style="opacity:.37;"><path d="M55.78,202.18h-.59v1.12c.2,.09,.4,.19,.59,.3v-1.41Z" style="fill:#434343;"/><path d="M55.23,227.65h.59v-2.02c-.19,.11-.39,.21-.59,.3v1.72Z" style="fill:#434343;"/><path d="M61.55,215.19h6.59v-.59h-6.58v.02c0,.19,0,.38-.01,.57Z" style="fill:#434343;"/><path d="M64.64,206.14l-.42-.42-3.62,3.68c.08,.2,.15,.41,.22,.62l3.82-3.88Z" style="fill:#434343;"/><path d="M64.35,224.01l.42-.42-4.05-4.07c-.07,.2-.15,.4-.23,.6l3.87,3.88Z" style="fill:#434343;"/></g><polygon points="46.23 224.48 45.82 224.06 54.22 215.69 54.64 216.11 46.23 224.48" style="fill:#0e0e0e;"/><rect x="50.6" y="194.83" width="10.09" height="1.01" style="fill:#1d1d1d;"/><rect x="117.52" y="194.83" width="10.09" height="1.01" style="fill:#1d1d1d;"/><path d="M56.99,238.5h-2.69l-.59-1.35h3.87l-.59,1.35Z"/><path d="M123.91,238.5h-2.69l-.59-1.35h3.87l-.59,1.35Z"/><path d="M47.59,190.1h3.51c.33,0,.6,.27,.6,.6v1.77h-4.71v-1.77c0-.33,.27-.6,.6-.6Z"/><path d="M63.39,190.1h3.51c.33,0,.6,.27,.6,.6v1.77h-4.71v-1.77c0-.33,.27-.6,.6-.6Z"/><path d="M121.99,190.1h3.51c.33,0,.6,.27,.6,.6v1.77h-4.71v-1.77c0-.33,.27-.6,.6-.6Z"/><path d="M91.73,190.1h.4c.33,0,.6,.27,.6,.6v1.77h-1.6v-1.77c0-.33,.27-.6,.6-.6Z"/><path d="M96.35,190.1h.4c.33,0,.6,.27,.6,.6v1.77h-1.6v-1.77c0-.33,.27-.6,.6-.6Z"/><path d="M57.85,187.31h3.51c.33,0,.6,.27,.6,.6v4.55h-4.71v-4.55c0-.33,.27-.6,.6-.6Z"/><polygon points="37.48 191.47 36.66 191.26 40.53 176.05 41.34 176.26 37.48 191.47"/><polygon points="140.82 191.47 136.96 176.26 137.77 176.05 141.64 191.26 140.82 191.47"/><rect x="40.52" y="175.99" width="97.27" height=".84"/><path d="M131.73,177.51H46.4c-.84,0-1.51-.68-1.51-1.52s.68-1.52,1.51-1.52h85.33c.84,0,1.51,.68,1.51,1.52s-.68,1.52-1.51,1.52Z" style="fill:#e88e3d;"/><path d="M131.73,176.92H46.4c-.84,0-1.51-.42-1.51-.93s.68-.93,1.51-.93h85.33c.84,0,1.51,.42,1.51,.93s-.68,.93-1.51,.93Z" style="fill:#e06637;"/><polygon points="90.57 212.74 87.45 212.74 75.24 228.27 75.24 230.39 76.68 230.39 90.57 212.74" style="fill:#4f524f; opacity:.29;"/><polygon points="84.83 230.39 87.36 230.39 101.24 212.74 98.72 212.74 84.83 230.39" style="fill:#4f524f; opacity:.29;"/><polygon points="79.11 230.39 80.44 230.39 94.32 212.74 93 212.74 79.11 230.39" style="fill:#4f524f; opacity:.29;"/><polygon points="80.96 230.39 82.29 230.39 96.17 212.74 94.85 212.74 80.96 230.39" style="fill:#4f524f; opacity:.29;"/><circle cx="85.91" cy="216.88" r=".25" style="fill:#d7d7d7; opacity:.5;"/><circle cx="91.97" cy="216.88" r=".25" style="fill:#d7d7d7; opacity:.5;"/><g style="opacity:.3;"><ellipse cx="162.95" cy="116.5" rx="15.22" ry="19.74" transform="translate(-3.35 228.16) rotate(-69.44)" style="fill:#96aead;"/><path d="M166.22,132.76c-2.84,0-5.78-.53-8.64-1.59-10.42-3.85-16.48-13.57-13.52-21.66h0c2.96-8.09,13.85-11.54,24.27-7.69,10.42,3.85,16.48,13.57,13.52,21.66-1.44,3.94-4.78,6.9-9.38,8.35-1.97,.62-4.08,.93-6.24,.93Zm-21.4-22.97c-2.81,7.67,3.04,16.92,13.04,20.61,4.86,1.8,9.96,2.03,14.36,.65,4.36-1.37,7.51-4.16,8.86-7.85,2.81-7.67-3.04-16.92-13.04-20.62-10-3.7-20.42-.47-23.23,7.2h0Z"/></g><g style="opacity:.3;"><ellipse cx="109.56" cy="116.5" rx="19.74" ry="15.22" transform="translate(-33.93 45.89) rotate(-20.56)" style="fill:#96aead;"/><path d="M106.29,132.76c-2.16,0-4.27-.31-6.24-.93-4.61-1.44-7.94-4.41-9.38-8.35-2.96-8.09,3.1-17.81,13.52-21.66,5.03-1.86,10.32-2.1,14.89-.66,4.61,1.44,7.94,4.41,9.38,8.35h0c2.96,8.09-3.1,17.81-13.52,21.66-2.86,1.06-5.8,1.59-8.64,1.59Zm6.53-31.71c-2.75,0-5.59,.52-8.36,1.54-10,3.7-15.85,12.95-13.04,20.62,1.35,3.7,4.5,6.48,8.86,7.85,4.4,1.38,9.5,1.15,14.36-.65,10-3.7,15.85-12.95,13.04-20.61h0c-1.35-3.7-4.5-6.49-8.86-7.85-1.9-.59-3.92-.89-6-.89Z"/></g><path d="M128.67,113.45s-.05,0-.07,0c-.16-.04-.26-.21-.22-.37,2.59-10.4,5.16-15.45,7.87-15.45h0c2.71,0,5.28,5.05,7.87,15.45,.04,.16-.06,.33-.22,.37-.16,.04-.33-.06-.37-.22-3.08-12.39-5.66-14.99-7.28-14.99s-4.2,2.6-7.28,14.99c-.03,.14-.16,.23-.29,.23Z"/><path d="M92.76,133.02c-.06,0-.12-.02-.17-.05-.14-.09-.18-.28-.08-.42l2.16-3.26c.09-.14,.28-.18,.42-.08,.14,.09,.18,.28,.08,.42l-2.16,3.26c-.06,.09-.15,.14-.25,.14Z"/><path d="M91.13,138.45c-1.66,0-3.01-1.36-3.01-3.02s1.35-3.02,3.01-3.02,3.01,1.36,3.01,3.02-1.35,3.02-3.01,3.02Zm0-5.43c-1.32,0-2.4,1.08-2.4,2.41s1.08,2.41,2.4,2.41,2.4-1.08,2.4-2.41-1.08-2.41-2.4-2.41Z"/><g style="opacity:.1;"><line x1="172.62" y1="126.09" x2="167.98" y2="119.79" style="fill:#98a3a2;"/><path d="M172.62,126.9c-.25,0-.49-.11-.65-.33l-4.64-6.3c-.27-.36-.19-.87,.17-1.14,.36-.27,.87-.19,1.13,.17l4.64,6.3c.27,.36,.19,.87-.17,1.14-.14,.11-.31,.16-.48,.16Z"/></g><g style="opacity:.1;"><line x1="172.25" y1="118.49" x2="167.61" y2="112.19" style="fill:#98a3a2;"/><path d="M172.25,119.3c-.25,0-.49-.11-.65-.33l-4.64-6.3c-.27-.36-.19-.87,.17-1.14,.36-.27,.87-.19,1.13,.17l4.64,6.3c.27,.36,.19,.87-.17,1.14-.14,.11-.31,.16-.48,.16Z"/></g><g style="opacity:.1;"><line x1="106.6" y1="127.15" x2="101.97" y2="120.85" style="fill:#98a3a2;"/><path d="M106.6,127.96c-.25,0-.49-.11-.65-.33l-4.64-6.3c-.27-.36-.19-.87,.17-1.14,.36-.27,.87-.19,1.13,.17l4.64,6.3c.27,.36,.19,.87-.17,1.14-.14,.11-.31,.16-.48,.16Z"/></g><g style="opacity:.1;"><line x1="106.23" y1="119.55" x2="101.6" y2="113.25" style="fill:#98a3a2;"/><path d="M106.24,120.36c-.25,0-.49-.11-.65-.33l-4.64-6.3c-.27-.36-.19-.87,.17-1.14,.36-.27,.87-.19,1.13,.17l4.64,6.3c.27,.36,.19,.87-.17,1.14-.14,.11-.31,.16-.48,.16Z"/></g><path d="M78.15,167.26h-.03c-.17-.02-.29-.17-.27-.33,.3-3.17,2.31-6.23,4.63-9.77,3.29-5.01,7.39-11.25,7.81-20.11,0-.17,.16-.28,.32-.29,.17,0,.3,.15,.29,.32-.43,9.03-4.57,15.34-7.91,20.42-2.28,3.47-4.25,6.47-4.53,9.49-.02,.16-.15,.28-.3,.28Z"/><g><path d="M143,161.9c-1.22,0-2.35,.41-3.25,1.11h0l-.03,.02-3.02,2.31h0c-.07,.07-.13,.14-.15,.23-.06,.22,.07,.44,.29,.5,.13,.03,.25,0,.35-.07h0l3.09-2.35h0c.75-.55,1.68-.88,2.68-.88,2.5,0,4.53,2.04,4.53,4.56s-2.03,4.56-4.53,4.56c-1,0-1.93-.33-2.68-.89h0l-10.3-7.95h0c-.91-.71-2.05-1.14-3.29-1.14-2.95,0-5.35,2.41-5.35,5.37s2.4,5.37,5.35,5.37c1.24,0,2.38-.43,3.28-1.14h0l3.43-2.61h0c.1-.08,.16-.19,.16-.32,0-.22-.18-.41-.41-.41-.1,0-.18,.03-.25,.09h0l-3.59,2.74h0c-.75,.55-1.68,.88-2.68,.88-2.5,0-4.53-2.04-4.53-4.56s2.03-4.56,4.53-4.56c1,0,1.93,.33,2.68,.89h0l10.37,7.84h0c.91,.72,2.06,1.16,3.31,1.16,2.95,0,5.35-2.41,5.35-5.37s-2.4-5.37-5.35-5.37Z" style="fill:#884442;"/><path d="M143,172.97c-1.15,0-2.25-.34-3.19-.99h0l-10.69-8.07c-.73-.54-1.58-.82-2.48-.82-2.32,0-4.2,1.89-4.2,4.22s1.88,4.22,4.2,4.22c.9,0,1.76-.28,2.48-.82l.12-.09,3.52-2.69h0c.12-.08,.25-.12,.39-.12,.41,0,.74,.33,.74,.74,0,.19-.07,.37-.2,.51v.02l-3.69,2.81h0c-.97,.7-2.11,1.08-3.32,1.08-3.13,0-5.68-2.56-5.68-5.71s2.55-5.71,5.68-5.71c1.14,0,2.22,.33,3.15,.97v-.02l10.64,8.2c.73,.54,1.58,.82,2.48,.82,2.32,0,4.2-1.89,4.2-4.22s-1.88-4.22-4.2-4.22c-.9,0-1.76,.28-2.48,.82l-.14,.1-3.02,2.31h-.02c-.16,.09-.36,.12-.54,.07-.39-.1-.63-.51-.53-.91,.04-.14,.11-.26,.21-.36v-.02l3.34-2.55h0c.95-.66,2.06-1.01,3.22-1.01,3.13,0,5.68,2.56,5.68,5.71s-2.55,5.71-5.68,5.71Zm-3.44-2.03l.33,.26c.89,.71,1.97,1.09,3.1,1.09,2.76,0,5.01-2.26,5.01-5.04s-2.25-5.04-5.01-5.04c-1.11,0-2.16,.36-3.05,1.04l-.22,.17h0l-2.77,2.12h0l-.07,.06s-.02,.03-.03,.04c0,.04,.01,.08,.05,.09,.03,0,.05,0,.06-.01l.09-.07,3.27-2.49h.01c.78-.49,1.68-.75,2.61-.75,2.68,0,4.87,2.19,4.87,4.89s-2.18,4.89-4.87,4.89c-.93,0-1.83-.26-2.61-.77h-.01l-.27-.19-9.96-7.69h0l-.34-.26c-.89-.7-1.96-1.08-3.08-1.08-2.76,0-5.01,2.26-5.01,5.04s2.25,5.04,5.01,5.04c1.12,0,2.19-.37,3.08-1.07l.17-.14h0l3.25-2.48s.03-.03,.03-.05c0-.04-.03-.07-.07-.07,0,0-.02,0-.04,.02l-.06,.05-3.8,2.91v-.02c-.79,.5-1.68,.76-2.62,.76-2.68,0-4.87-2.19-4.87-4.89s2.18-4.89,4.87-4.89c.93,0,1.83,.26,2.61,.76h0l.27,.19,10.04,7.59v-.02Z" style="fill:#884442;"/></g></g><g id="j"/><g id="k"/><g id="l"/><g id="m"/><g id="n"/><g id="o"/><g id="p"/></svg>