<?xml version="1.0" encoding="UTF-8"?><svg xmlns="http://www.w3.org/2000/svg" viewBox="0 0 255.74 256.99"><g id="a"/><g id="b"/><g id="c"/><g id="d"/><g id="e"/><g id="f"/><g id="g"/><g id="h"><rect width="255.74" height="256.99" rx="20.98" ry="20.98" style="fill:#b8faff;"/></g><g id="i"><g><path d="M66.47,137.67h126.35c.06,0,.11,.05,.11,.11v118.27c0,.06-.05,.11-.11,.11H66.47c-.06,0-.11-.05-.11-.11v-118.27c0-.06,.05-.11,.11-.11Z" style="fill:#ddbc9c;"/><path d="M192.82,256.97H66.47c-.51,0-.92-.41-.92-.92v-118.27c0-.51,.41-.92,.92-.92h126.35c.51,0,.92,.41,.92,.92v118.27c0,.51-.41,.92-.92,.92Zm-125.64-1.63h124.94v-116.86H67.17v116.86Z"/></g><g><path d="M191.85,137.67h-47.55c.76,9.7,.43,21.48-2.73,34.42-4.12,16.88-11.48,29.35-16.86,36.98-5.5-7.09-15.44-21.86-19.52-43.29-2.01-10.53-2.1-20.08-1.38-28.11h-36.35c-.6,0-1.08,.49-1.08,1.09v116.31c0,.6,.48,1.09,1.08,1.09h43.63c3.89-3.02,6.54-6.14,7.21-9.41,1.25,3.47,3.89,6.56,7.41,9.41h66.14c.6,0,1.08-.49,1.08-1.09v-116.31c0-.6-.48-1.09-1.08-1.09Z" style="fill:#dd6853;"/><path d="M191.85,256.97H125.42l-.22-.18c-3.16-2.56-5.4-5.12-6.79-7.78-1.13,2.55-3.39,5.12-6.83,7.79l-.22,.17h-43.91c-1.04,0-1.89-.85-1.89-1.9v-116.31c0-1.05,.85-1.9,1.89-1.9h37.23l-.08,.89c-.83,9.35-.37,18.73,1.37,27.89,3.63,19.04,12.03,33.26,18.69,42.07,7.56-10.94,12.97-22.98,16.1-35.8,2.71-11.1,3.62-22.59,2.71-34.16l-.07-.88h48.43c1.04,0,1.89,.85,1.89,1.9v116.31c0,1.05-.85,1.9-1.89,1.9Zm-65.86-1.63h65.86c.15,0,.27-.12,.27-.27v-116.31c0-.15-.12-.27-.27-.27h-46.68c.81,11.44-.14,22.81-2.82,33.8-3.27,13.38-8.98,25.91-16.99,37.26l-.63,.89-.67-.86c-6.87-8.87-15.87-23.64-19.68-43.63-1.72-9.02-2.21-18.25-1.47-27.45h-35.47c-.15,0-.27,.12-.27,.27v116.31c0,.15,.12,.27,.27,.27h43.35c3.93-3.09,6.12-5.96,6.7-8.76l.58-2.81,.98,2.7c1.1,3.04,3.37,5.94,6.94,8.87Z"/></g><path d="M118.87,219.42c-.17,0-.34-.05-.48-.16-.36-.27-.43-.78-.16-1.14,1.17-1.57,2.34-3.14,3.51-4.71,12.24-16.4,24.91-33.35,33.11-50.29,.2-.4,.68-.57,1.08-.38,.4,.2,.57,.68,.37,1.09-8.28,17.08-20.99,34.1-33.28,50.55-1.17,1.57-2.34,3.14-3.51,4.71-.16,.21-.4,.33-.65,.33Z"/><path d="M119.29,219.19c-.17,0-.34-.05-.49-.17-.35-.27-.42-.78-.15-1.14,1.19-1.56,2.38-3.12,3.58-4.68,12.44-16.24,25.3-33.03,33.72-49.87,.2-.4,.69-.56,1.09-.36,.4,.2,.56,.69,.36,1.09-8.48,16.97-21.39,33.83-33.88,50.13-1.19,1.56-2.39,3.12-3.58,4.67-.16,.21-.4,.32-.64,.32Z"/><path d="M156.15,163.95c-.2,0-.4-.08-.56-.23l-10.86-10.5c-.32-.31-.33-.83-.02-1.15,.31-.32,.82-.33,1.14-.02l10.86,10.5c.32,.31,.33,.83,.02,1.15-.16,.17-.37,.25-.58,.25Z"/><path d="M145.29,154.26c-.53,0-1.01-.35-1.17-.88-.18-.65,.19-1.32,.83-1.51l10.86-3.12c.64-.19,1.32,.19,1.5,.84,.18,.65-.19,1.32-.83,1.51l-10.86,3.12c-.11,.03-.22,.05-.33,.05Z"/><path d="M156.74,150.73c-.38,0-.72-.27-.8-.67-.74-4.05-2.27-8.16-4.56-12.22-.22-.39-.08-.89,.31-1.11,.39-.22,.88-.08,1.1,.31,2.38,4.22,3.98,8.5,4.75,12.73,.08,.44-.21,.87-.65,.95-.05,0-.1,.01-.15,.01Z"/><path d="M123.7,211.09c-.23,0-.46-.1-.62-.29-13.34-16.04-24.2-29.65-32.55-46.49-.2-.4-.04-.89,.36-1.09,.4-.2,.89-.04,1.09,.36,8.28,16.68,19.08,30.21,32.35,46.17,.29,.34,.24,.86-.1,1.15-.15,.13-.34,.19-.52,.19Z"/><path d="M91.24,164.35c-.22,0-.44-.09-.6-.27-.3-.33-.28-.85,.05-1.15l11.9-10.87c.33-.3,.84-.28,1.14,.05,.3,.33,.28,.85-.05,1.15l-11.9,10.87c-.15,.14-.35,.21-.54,.21Z"/><g><ellipse cx="123.7" cy="239.63" rx="1.08" ry="1.09" style="fill:#542e22;"/><path d="M123.7,241.53c-1.04,0-1.89-.85-1.89-1.9s.85-1.9,1.89-1.9,1.89,.85,1.89,1.9-.85,1.9-1.89,1.9Zm0-2.17c-.15,0-.27,.12-.27,.27s.12,.27,.27,.27,.27-.12,.27-.27-.12-.27-.27-.27Z"/></g><g><ellipse cx="123.7" cy="221.15" rx="1.08" ry="1.09" style="fill:#542e22;"/><path d="M123.7,223.05c-1.04,0-1.89-.85-1.89-1.9s.85-1.9,1.89-1.9,1.89,.85,1.89,1.9-.85,1.9-1.89,1.9Zm0-2.17c-.15,0-.27,.12-.27,.27s.12,.27,.27,.27,.27-.12,.27-.27-.12-.27-.27-.27Z"/></g><g><rect x="64.74" y="219" width="24.34" height="10.3" rx="1" ry="1"/><path d="M88.27,229.51h-22.72c-.56,0-1.01-.46-1.01-1.02v-8.67c0-.56,.45-1.02,1.01-1.02h22.72c.56,0,1.01,.46,1.01,1.02v8.67c0,.56-.45,1.02-1.01,1.02Zm-22.72-10.3c-.33,0-.61,.27-.61,.61v8.67c0,.34,.27,.61,.61,.61h22.72c.33,0,.61-.27,.61-.61v-8.67c0-.34-.27-.61-.61-.61h-22.72Z"/></g><g><rect x="65.38" y="218.36" width="23.06" height="10.3" rx="1" ry="1" style="fill:#dd6853;"/><path d="M87.63,228.86h-21.44c-.56,0-1.01-.46-1.01-1.02v-8.67c0-.56,.45-1.02,1.01-1.02h21.44c.56,0,1.01,.46,1.01,1.02v8.67c0,.56-.45,1.02-1.01,1.02Zm-21.44-10.3c-.33,0-.61,.27-.61,.61v8.67c0,.34,.27,.61,.61,.61h21.44c.33,0,.61-.27,.61-.61v-8.67c0-.34-.27-.61-.61-.61h-21.44Z"/></g><path d="M86.38,221.01h-10.82c-.22,0-.4-.18-.4-.41s.18-.41,.4-.41h10.82c.22,0,.4,.18,.4,.41s-.18,.41-.4,.41Z" style="fill:#fff; opacity:.23;"/><g><rect x="163.18" y="219" width="24.34" height="10.3" rx="1" ry="1"/><path d="M186.71,229.51h-22.72c-.56,0-1.01-.46-1.01-1.02v-8.67c0-.56,.45-1.02,1.01-1.02h22.72c.56,0,1.01,.46,1.01,1.02v8.67c0,.56-.45,1.02-1.01,1.02Zm-22.72-10.3c-.33,0-.61,.27-.61,.61v8.67c0,.34,.27,.61,.61,.61h22.72c.33,0,.61-.27,.61-.61v-8.67c0-.34-.27-.61-.61-.61h-22.72Z"/></g><g><rect x="163.82" y="218.36" width="23.06" height="10.3" rx="1" ry="1" style="fill:#dd6853;"/><path d="M186.07,228.86h-21.44c-.56,0-1.01-.46-1.01-1.02v-8.67c0-.56,.45-1.02,1.01-1.02h21.44c.56,0,1.01,.46,1.01,1.02v8.67c0,.56-.45,1.02-1.01,1.02Zm-21.44-10.3c-.33,0-.61,.27-.61,.61v8.67c0,.34,.27,.61,.61,.61h21.44c.33,0,.61-.27,.61-.61v-8.67c0-.34-.27-.61-.61-.61h-21.44Z"/></g><path d="M184.81,221.01h-10.82c-.22,0-.4-.18-.4-.41s.18-.41,.4-.41h10.82c.22,0,.4,.18,.4,.41s-.18,.41-.4,.41Z" style="fill:#fff; opacity:.23;"/><path d="M118.4,248.21h-.01c-.45,0-.8-.38-.8-.83l.43-28.59c0-.44,.37-.8,.81-.8h.01c.45,0,.8,.38,.8,.83l-.43,28.59c0,.44-.37,.8-.81,.8Z"/><g><g><path d="M120.45,159.01c10.82,0,28.32-11.96,48.68-11.96,4.45,0,8.79,.31,12.99,.87,.36,.05,.73,0,1.06-.16,10.38-4.91,17.32-13.86,17.32-24.08s-6.61-18.74-16.57-23.72c-.26-.13-.48-.32-.65-.55-10.01-13.73-29.06-23.01-50.92-23.01s-42.69,10.17-52.27,24.98c0,.01-.02,.02-.03,.03-11.52,6-19.09,16.18-19.09,27.72,0,7.15,2.91,13.76,7.85,19.2,.53,.58,1.37,.74,2.11,.46,4.64-1.81,9.67-2.8,14.92-2.8,13.6,0,23.8,13.04,34.62,13.04Z" style="fill:#ddbc9c;"/><path d="M120.45,159.83c-5.32,0-10.37-2.95-15.72-6.07-5.87-3.43-11.93-6.97-18.9-6.97-5.03,0-9.95,.93-14.63,2.75-1.07,.42-2.25,.16-3-.67-5.28-5.8-8.07-12.62-8.07-19.75,0-11.38,7.23-21.96,19.36-28.35,10.15-15.54,30.38-25.18,52.84-25.18,21.31,0,41.08,8.94,51.58,23.34,.09,.13,.22,.23,.36,.3,10.66,5.34,17.02,14.48,17.02,24.45s-6.65,19.54-17.79,24.82c-.47,.22-1,.3-1.51,.23-4.25-.57-8.58-.87-12.88-.87-11.63,0-22.16,3.89-31.44,7.32-6.73,2.49-12.53,4.63-17.24,4.63Zm-34.61-14.67c7.4,0,13.66,3.66,19.71,7.19,5.15,3.01,10.02,5.85,14.9,5.85,4.42,0,10.1-2.1,16.68-4.53,8.94-3.31,20.08-7.42,32-7.42,4.37,0,8.77,.3,13.09,.88,.22,.03,.42,0,.61-.09,10.56-5,16.86-13.73,16.86-23.35s-6.03-17.94-16.12-23c-.37-.19-.7-.46-.95-.8-10.2-13.99-29.46-22.68-50.27-22.68-22,0-41.77,9.43-51.59,24.61l-.11,.17-.2,.13c-11.71,6.1-18.68,16.19-18.68,27.01,0,6.71,2.64,13.16,7.64,18.65,.3,.32,.77,.42,1.22,.25,4.86-1.9,9.98-2.86,15.21-2.86Z"/></g><path d="M120.45,160.1c-3.34-.49-6.06-.39-15.85-6.11-5.83-3.41-11.87-6.93-18.76-6.93-5,0-9.89,.92-14.53,2.73-1.18,.46-2.47,.17-3.29-.74-5.32-5.85-8.14-12.74-8.14-19.93,0-11.46,7.26-22.12,19.44-28.56,10.21-15.58,30.51-25.25,53.03-25.25s41.24,8.99,51.8,23.45l.27,.23c10.75,5.38,17.17,14.61,17.17,24.7s-6.71,19.74-17.94,25.06c-.32,.15-1.2,.19-1.67,.26-6.68,.98-11.59,1.23-12.95,1.31-9.96,.62-21.94,4.79-23.8,5.44-6.23,2.17-8.46,3.62-14.06,4.35-5.5,.72-9.71,.15-10.71,0Zm-34.62-15.22c7.48,0,13.77,3.67,19.85,7.23,5.12,2.99,9.96,5.82,14.77,5.82,4.37,0,10.03-2.09,16.59-4.52,8.97-3.32,20.12-7.44,32.09-7.44,4.37,0,8.79,.3,13.13,.88,.16,.02,.32,0,.46-.07,10.45-4.95,16.7-13.59,16.7-23.1s-5.97-17.74-15.96-22.75c-.42-.21-.78-.51-1.06-.89-10.15-13.91-29.33-22.56-50.05-22.56-21.91,0-41.59,9.38-51.36,24.48l-.16,.25-.29,.16c-11.58,6.03-18.49,16.03-18.49,26.74,0,6.64,2.62,13.03,7.57,18.46,.21,.24,.58,.3,.91,.18,4.9-1.91,10.05-2.88,15.31-2.88Z"/></g><path d="M153.98,142.88c-17.31-9.78-55.17-7.61-59.5,1.09-19.47-6.52-31.37-60.87,11.9-39.13,43.27,21.74-12.98,22.83,32.45-2.17,45.43-25,41.11,32.61,15.14,40.22Z" style="fill:#fae9d8;"/><g><path d="M146.41,114.62c0,3.44,5.41,8.7,9.74,8.7,3.89,0,9.51-5.26,10.61-8.7h-20.35Z" style="fill:#f8d452;"/><path d="M156.15,123.52c-3.83,0-9.94-4.86-9.94-8.9v-.2h20.83l-.09,.27c-1.17,3.65-6.96,8.84-10.8,8.84Zm-9.53-8.7c.21,3.28,5.29,8.29,9.53,8.29,3.1,0,8.84-4.24,10.33-8.29h-19.85Z"/></g><path d="M167.18,109.78c6.28-3.85-.96-4.95-6.99-4.84-6.12,.11-13.11,1.94-14.85,9.69h9.74c5.79,0,6.56-1.44,12.11-4.84Z" style="fill:#959595;"/><path d="M165.48,103.83c-3.09,.02-5.94,.62-8.37,1.33,1.03-.13,2.06-.2,3.07-.22,6.03-.1,13.27,.99,6.99,4.84-5.55,3.41-6.44,4.84-12.23,4.84h-2.35c7.88,0,12.36,.67,17.62-1.09,9.74-3.26,9.74-4.62,17.31-6.52,4.33-1.09-10.82-3.26-22.04-3.19Z" style="fill:#979747;"/><path d="M150.81,114.62c1.01,2.17,2.35,3.26,4.8,3.26s3.79-2.17,4.87-3.26h-9.67Z"/><g><path d="M102.42,115.6c-.39,.07-.87,.11-1.44,.11-1.7-.06-9.14,.69-13.07,.4-.63,3.21,3.42,7.21,5.5,7.21,5.63,1.39,6.49-2.17,9.74-6.52,.55-.73,.39-1.07-.72-1.2Z" style="fill:#f8d452;"/><path d="M95.63,123.83c-.67,0-1.42-.1-2.27-.31h0c-1.07,0-2.73-1.08-4-2.63-1.33-1.63-1.93-3.38-1.65-4.82l.03-.18h.18c2.51,.2,6.52-.05,9.45-.23,1.68-.1,3-.18,3.62-.16,.52,0,.99-.04,1.4-.11h.06c.69,.08,1.04,.24,1.16,.53,.14,.33-.09,.7-.3,.99-.61,.81-1.12,1.58-1.62,2.33-1.72,2.58-3.05,4.58-6.06,4.58Zm-7.55-7.5c-.18,1.28,.39,2.84,1.59,4.31,1.18,1.44,2.75,2.48,3.74,2.48,4.48,1.1,5.86-.96,7.95-4.09,.5-.75,1.02-1.53,1.63-2.35,.28-.37,.28-.53,.25-.59-.03-.07-.18-.21-.81-.28-.42,.07-.91,.11-1.45,.11-.6-.02-1.92,.06-3.59,.16-2.87,.17-6.77,.41-9.32,.25Z"/></g><path d="M92.37,116.13c.21,1.6,1.55,2.84,3.2,2.84,1.79,0,4.3-1.45,4.32-3.24-1.71,.07-4.7,.3-7.53,.4Z"/><path d="M92.57,114.35c-4.16-.1-8.69-3.04-8.75-4.92,0-.1,.03-.21,.05-.31,.3-1.16,2.39-2.16,4.88-2.75,.19-.12,.36-.24,.53-.35-.16,.11-.34,.23-.53,.35,2.22-.52,4.74-.7,6.59-.37,1.58,.29,3.27,1.14,4.76,2.22-1.62-1.81-5.45-3.84-9.96-3.64h.01s-.01,0-.02,0c-3.27-.26-20.53-.83-20.53-.83,5.87,2.33,11.24,4.52,7.96,7.52h0c-1.84,1.33-4.62,2.56-10.13,3.35-6.45,.93,12.98-2.17,18.39,1.09,2.16,1.09,13.05-.07,15.14,0,3.25,0,3.35-1.3,3.36-1.76-.55,1.52-6.65,.53-11.77,.4Zm-2.88-8.62s.03-.02,.05-.03c-.01,.01-.03,.02-.05,.03Z" style="fill:#979747;"/><path d="M104.39,113.69c.05,1.89-6.44,.79-11.82,.66-4.16-.1-8.69-3.04-8.75-4.92-.06-2.34,7.41-4.17,11.53-3.42,4.12,.74,8.98,5.35,9.04,7.69Z" style="fill:#959595;"/><path d="M132.72,134.91c-.26-.13-.57-.06-.76,.15l-10.15,11.32c.05,.2,.09,.4,.14,.6,.44,1.98,.9,4.02,1.93,5.58,.32,.47,1.04,.36,1.18-.19,.78-3.01,3.19-10.6,8.07-13.28,2.08-1.14,4.42-1.43,6.97-.86,.11,.02,.22,.05,.32,.07-.3-.13-.61-.26-.91-.38-2.36-.99-4.71-2.01-6.79-3.01Z"/><g><path d="M121.12,156.2c-4.95-5.75-.63-19.88-12.53-18.79,7.57-3.26,10.82-10.87,10.82-10.87,0,0,2.19-5.3,3.8,.07s25.41,14.06,13.51,10.8c-11.9-3.26-14.59,18.85-14.59,18.85-.26,.34-.79,.31-1.01-.07Z" style="fill:#3c502b;"/><path d="M121.64,156.91s-.04,0-.07,0c-.32-.02-.61-.19-.79-.46-1.85-2.17-2.44-5.44-3.02-8.6-.99-5.49-1.92-10.69-9.15-10.02l-2.54,.23,2.35-1.01c7.33-3.16,10.57-10.58,10.61-10.66,.11-.26,1.11-2.58,2.46-2.58,.02,0,.04,0,.06,0,.84,.04,1.51,.92,2.04,2.69,.84,2.82,8.82,6.95,13.1,9.16,3.53,1.83,3.91,2.05,3.71,2.57-.17,.43-.38,.52-3.8-.42-2.27-.62-4.36-.31-6.2,.93-6.19,4.18-7.87,17.45-7.89,17.58v.11l-.08,.09c-.19,.25-.49,.39-.8,.39Zm-11.21-19.95c6.25,.3,7.21,5.6,8.14,10.74,.55,3.07,1.13,6.24,2.85,8.24l.04,.06c.05,.08,.12,.1,.16,.1,.02,0,.07,0,.11-.02,.21-1.56,2.01-13.82,8.22-18.01,2.04-1.38,4.35-1.73,6.86-1.04,.6,.16,1.08,.29,1.47,.39-.58-.31-1.28-.67-1.96-1.03-6.36-3.29-12.63-6.75-13.51-9.65-.56-1.88-1.1-2.1-1.31-2.11h-.02c-.58,0-1.36,1.24-1.71,2.09-.13,.3-2.92,6.69-9.35,10.26Z"/></g><g><path d="M120.95,150.77c-2.05-9.36-1.49-18.52,1.1-26.35-1.34-1.05-2.65,2.12-2.65,2.12,0,0-3.25,7.61-10.82,10.87,11.9-1.09,7.57,13.04,12.53,18.79,.22,.37,.74,.41,1.01,.07,0,0,.03-.27,.11-.73-.49-1.55-.92-3.13-1.28-4.76Z" style="fill:#56703c;"/><path d="M121.64,156.91s-.04,0-.07,0c-.34-.02-.64-.21-.81-.5-1.83-2.11-2.42-5.39-2.99-8.57-.99-5.49-1.92-10.69-9.15-10.02l-2.54,.23,2.35-1.01c7.33-3.16,10.57-10.58,10.61-10.66,.09-.22,.95-2.22,2.13-2.54,.39-.1,.79-.02,1.14,.25l.23,.18-.09,.27c-2.68,8.1-3.06,17.13-1.09,26.14h0c.34,1.53,.76,3.12,1.27,4.72l.03,.09v.09c-.08,.45-.12,.72-.12,.72v.11l-.08,.09c-.19,.25-.49,.39-.8,.39Zm-11.21-19.95c6.25,.3,7.21,5.6,8.14,10.74,.55,3.07,1.13,6.24,2.85,8.24,.09,.14,.17,.16,.21,.16,.02,0,.07,0,.11-.02,.02-.11,.04-.29,.07-.51-.5-1.59-.92-3.18-1.26-4.7h0c-1.97-9.02-1.62-18.09,1.01-26.24-.08-.02-.14,0-.19,0-.6,.16-1.3,1.35-1.59,2.07-.13,.3-2.92,6.69-9.35,10.26Z"/></g><g><path d="M179.95,117.08l13.89,13.96c.6,.6,.6,1.58,0,2.18l-2.42,2.43c-.6,.6-1.57,.6-2.17,0l-13.89-13.96c-.6-.6-.6-1.58,0-2.18l2.42-2.43c.6-.6,1.57-.6,2.17,0Z" style="fill:#eeb870;"/><path d="M178.86,117.2c.6,0,1.16,.23,1.57,.65l12.63,12.69c.42,.42,.65,.98,.65,1.58s-.23,1.16-.65,1.58l-1.16,1.16c-.42,.42-.98,.65-1.57,.65s-1.16-.23-1.57-.65l-12.63-12.69c-.42-.42-.65-.98-.65-1.58s.23-1.16,.65-1.58l1.16-1.16c.42-.42,.98-.65,1.57-.65m0-.2c-.62,0-1.24,.24-1.72,.71l-1.16,1.16c-.94,.95-.94,2.5,0,3.45l12.63,12.69c.47,.47,1.09,.71,1.72,.71s1.24-.24,1.72-.71l1.16-1.16c.94-.95,.94-2.5,0-3.45l-12.63-12.69c-.47-.47-1.09-.71-1.72-.71h0Z" style="fill:#e5e5e4;"/></g><g><path d="M189.25,117.08l-13.89,13.96c-.6,.6-.6,1.58,0,2.18l2.42,2.43c.6,.6,1.57,.6,2.17,0l13.89-13.96c.6-.6,.6-1.58,0-2.18l-2.42-2.43c-.6-.6-1.57-.6-2.17,0Z" style="fill:#eeb870;"/><path d="M190.33,117.2c.6,0,1.16,.23,1.57,.65l1.16,1.16c.42,.42,.65,.98,.65,1.58s-.23,1.16-.65,1.58l-12.63,12.69c-.42,.42-.98,.65-1.57,.65s-1.16-.23-1.57-.65l-1.16-1.16c-.42-.42-.65-.98-.65-1.58s.23-1.16,.65-1.58l12.63-12.69c.42-.42,.98-.65,1.57-.65m0-.2c-.62,0-1.24,.24-1.72,.71l-12.63,12.69c-.94,.95-.94,2.5,0,3.45l1.16,1.16c.47,.47,1.09,.71,1.72,.71s1.24-.24,1.72-.71l12.63-12.69c.94-.95,.94-2.5,0-3.45l-1.16-1.16c-.47-.47-1.09-.71-1.72-.71h0Z" style="fill:#e5e5e4;"/></g><path d="M178.04,124c.09,.09,.18,.15,.27,.22l.37-.39c-.09-.07-.18-.13-.26-.21l-1.26-1.27c-.95-.95-.95-2.51,0-3.46,.47-.48,1.1-.71,1.72-.71s1.25,.24,1.72,.71l1.26,1.27s.08,.1,.12,.15l.37-.4s-.07-.1-.11-.14l-1.26-1.27c-1.16-1.17-3.05-1.17-4.21,0s-1.16,3.06,0,4.23l1.26,1.27Z" style="fill:#cda16f;"/><path d="M191.16,124c-.09,.09-.18,.15-.27,.22l-.37-.39c.09-.07,.18-.13,.26-.21l1.26-1.27c.95-.95,.95-2.51,0-3.46-.47-.48-1.1-.71-1.72-.71s-1.25,.24-1.72,.71l-1.26,1.27s-.08,.1-.12,.15l-.37-.4s.07-.1,.11-.14l1.26-1.27c1.16-1.17,3.05-1.17,4.21,0s1.16,3.06,0,4.23l-1.26,1.27Z" style="fill:#cda16f;"/><path d="M178.04,128.73c.09-.09,.18-.15,.27-.22l.37,.39c-.09,.07-.18,.13-.26,.21l-1.26,1.27c-.95,.95-.95,2.51,0,3.46,.47,.48,1.1,.71,1.72,.71s1.25-.24,1.72-.71l1.26-1.27s.08-.1,.12-.15l.37,.4s-.07,.1-.11,.14l-1.26,1.27c-1.16,1.17-3.05,1.17-4.21,0s-1.16-3.06,0-4.23l1.26-1.27Z" style="fill:#cda16f;"/><path d="M191.16,128.73c-.09-.09-.18-.15-.27-.22l-.37,.39c.09,.07,.18,.13,.26,.21l1.26,1.27c.95,.95,.95,2.51,0,3.46-.47,.48-1.1,.71-1.72,.71s-1.25-.24-1.72-.71l-1.26-1.27s-.08-.1-.12-.15l-.37,.4s.07,.1,.11,.14l1.26,1.27c1.16,1.17,3.05,1.17,4.21,0s1.16-3.06,0-4.23l-1.26-1.27Z" style="fill:#cda16f;"/><circle cx="184.81" cy="126.04" r=".54" style="fill:#cda16f;"/><circle cx="183.73" cy="124.95" r=".54" style="fill:#cda16f;"/><circle cx="185.9" cy="127.12" r=".54" style="fill:#cda16f;"/><circle cx="183.73" cy="127.12" r=".54" style="fill:#cda16f;"/><circle cx="182.65" cy="126.04" r=".54" style="fill:#cda16f;"/><circle cx="184.81" cy="128.21" r=".54" style="fill:#cda16f;"/><circle cx="185.9" cy="124.95" r=".54" style="fill:#cda16f;"/><circle cx="184.81" cy="123.86" r=".54" style="fill:#cda16f;"/><circle cx="186.98" cy="126.04" r=".54" style="fill:#cda16f;"/><g><path d="M177.14,113.72c-.37,.75-.5,1.35-.76,3.2-.34,2.48-.38,3.26-.53,4.26-.16,1.08-.46,3.11-1.48,5.18-.38,.76-1.92,3.69-5.22,5.58-1.95,1.11-3.74,1.42-4.89,1.58-5.2,.73-11.23,1.22-23.36,.23-1.88-.15-4.34-.39-6.57-2.08-.2-.15-.39-.31-.57-.47,.43,.48,.94,.98,1.52,1.42,2.23,1.69,4.69,1.93,6.57,2.08,12.13,.99,18.16,.5,23.36-.23,1.15-.16,2.95-.47,4.89-1.58,3.3-1.88,4.85-4.82,5.22-5.58,1.02-2.07,1.32-4.1,1.48-5.18,.15-1,.18-1.78,.53-4.26,.26-1.85,.38-2.46,.76-3.2,.28-.56,.87-1.73,2.1-2.41,.86-.48,1.51-.42,2.07-.45v-1.25c-.8,.59-1.63-.02-3.02,.75-1.23,.68-1.82,1.85-2.1,2.41Z" style="fill:#223943;"/><path d="M64.65,112.28v.04s.1,0,.15,0c-.05-.01-.1-.03-.15-.05Z" style="fill:#223943;"/><path d="M126.68,112.67c-.37-.41-1.86-2.02-4.3-2.18-.65-.04-2.79-.07-4.34,1.45-.97,.96-1.25,2.09-1.61,3.63-.47,2.01-.27,2.99-.39,4.59-.06,.86-.38,4.03-2.3,7.1-.53,.85-2.22,3.48-5.45,5.02-2.11,1.01-3.97,1.11-5.32,1.19-6.71,.38-15.87,.94-23.29,0-.93-.12-2.72-.37-4.63-1.49-.74-.43-1.34-.89-1.77-1.28,.1,.12,.21,.24,.33,.36,.39,.41,1.2,1.18,2.4,1.88,1.92,1.11,3.71,1.37,4.63,1.49,7.42,.94,16.59,.38,23.29,0,1.35-.08,3.21-.18,5.32-1.19,3.23-1.54,4.92-4.17,5.45-5.02,1.92-3.07,2.24-6.24,2.3-7.1,.12-1.6-.07-2.58,.39-4.59,.36-1.55,.63-2.67,1.61-3.63,1.55-1.53,3.68-1.5,4.34-1.45,1.61,.1,2.81,.84,3.54,1.45-.06-.08-.13-.15-.19-.23Z" style="fill:#223943;"/></g><g><path d="M177.37,105.7c-1.19-.08-1.88-.23-2.69-.36-2.88-.46-10.68-1.23-19.58-1.32-6.44-.06-10.66-.1-16.06,.59-3.78,.49-7.58,.79-11.37,1.25-.57,.07-2.21,.27-4.4,.3-1.48,.02-2.62-.06-3.19-.1-6.54-.47-17.74-2.27-27.79-2.31-6.36-.03-15.34,.64-19.19,1.45-1.58,.34-3.14,.87-5.62,.76-2.09-.1-2.94-.57-3.75,.03l-.03,.03v5.65s.04,.04,.07,.07c1.02,.98,2.1,.4,3.32,1.62,.74,.74,.99,1.61,1.35,2.81,.4,1.37,.43,2.28,.56,3.6,.25,2.54,.38,3.91,.92,5.55,.36,1.09,1.02,3,2.73,4.79,.39,.41,1.2,1.18,2.4,1.88,1.92,1.11,3.71,1.37,4.63,1.49,7.42,.94,16.59,.38,23.29,0,1.35-.08,3.21-.18,5.32-1.19,3.23-1.54,4.92-4.17,5.45-5.02,1.92-3.07,2.24-6.24,2.3-7.1,.12-1.6-.07-2.58,.39-4.59,.36-1.55,.63-2.67,1.61-3.63,1.55-1.53,3.68-1.5,4.34-1.45,2.44,.16,3.93,1.76,4.3,2.18,1.04,1.16,1.39,2.39,1.64,3.3,.37,1.33,.16,1.58,.46,3.96,.15,1.21,.32,2.59,.82,4.26,.3,1.01,.72,2.4,1.68,3.96,.36,.6,1.41,2.28,3.06,3.53,2.23,1.69,4.69,1.93,6.57,2.08,12.13,.99,18.16,.5,23.36-.23,1.15-.16,2.95-.47,4.89-1.58,3.3-1.88,4.85-4.82,5.22-5.58,1.02-2.07,1.32-4.1,1.48-5.18,.15-1,.18-1.78,.53-4.26,.26-1.85,.38-2.46,.76-3.2,.28-.56,.87-1.73,2.1-2.41,1.39-.77,2.22-.16,3.02-.75v-4.69c-.82-.53-1.89,.04-4.89-.17Zm-63.11,7.13c-.32,2.35-.46,3.13-.76,5.15-1.31,8.81-3.78,10.7-3.78,10.7-3.94,3.63-27.69,3.53-32.75,.2,0,0-3.71-1.88-3.98-8.55-.54-7.59-1.22-10.86-1.22-10.86,14.3-1.97,28.6-2,42.9-.07,0,0-.13,1.25-.43,3.43Zm59.46,0c-.32,2.35-.46,3.13-.76,5.15-1.31,8.81-3.78,10.7-3.78,10.7-3.94,3.63-27.69,3.53-32.75,.2,0,0-3.71-1.88-3.98-8.55-.54-7.59-1.22-10.86-1.22-10.86,14.3-1.97,28.6-2,42.9-.07,0,0-.13,1.25-.43,3.43Z" style="fill:#38526b;"/><path d="M152.94,134.52c-3.23,0-7.14-.15-12.05-.56-1.73-.14-4.35-.35-6.68-2.12-1.14-.86-2.18-2.07-3.11-3.59-.99-1.62-1.41-3.06-1.7-4.01-.5-1.68-.67-3.06-.83-4.28-.13-1.03-.16-1.66-.19-2.16-.03-.65-.06-1.04-.26-1.78-.25-.89-.59-2.1-1.6-3.22-1.13-1.26-2.61-2.01-4.17-2.11-.78-.04-2.75-.02-4.18,1.4-.95,.94-1.22,2.08-1.55,3.53-.31,1.34-.32,2.22-.34,3.14,0,.44-.01,.9-.05,1.42-.09,1.19-.49,4.26-2.33,7.19-1.45,2.32-3.32,4.03-5.54,5.09-2.14,1.02-4.02,1.13-5.39,1.21l-.58,.03c-6.55,.37-15.53,.89-22.76-.03-.81-.1-2.7-.34-4.71-1.51-.9-.52-1.74-1.18-2.44-1.92-1.78-1.85-2.45-3.89-2.77-4.86-.55-1.66-.68-3.06-.93-5.59l-.06-.61c-.09-1.01-.16-1.82-.49-2.95-.35-1.17-.59-2.02-1.3-2.72-.6-.6-1.15-.73-1.73-.87-.52-.12-1.06-.25-1.59-.75l-.13-.13v-5.83l.08-.06c.64-.48,1.26-.4,2.19-.27,.46,.06,1.02,.14,1.72,.17,1.97,.1,3.33-.23,4.64-.54,.31-.07,.62-.15,.93-.21,3.72-.79,12.44-1.46,18.86-1.46,.12,0,.25,0,.37,0,6.73,.03,14.07,.85,19.96,1.52,3.04,.34,5.67,.64,7.84,.79,.69,.05,1.77,.11,3.17,.1,2.15-.02,3.75-.22,4.36-.29,1.79-.22,3.6-.41,5.34-.58,1.98-.2,4.03-.41,6.04-.67,5.42-.7,9.67-.66,16.09-.6,8.82,.09,16.71,.86,19.61,1.32,.18,.03,.34,.06,.51,.09,.61,.1,1.24,.21,2.16,.28h0c1.36,.09,2.34,.03,3.05-.02,.87-.06,1.45-.1,1.95,.22l.09,.06v4.91l-.08,.06c-.43,.31-.86,.33-1.32,.34-.48,.02-1.03,.03-1.73,.42-1.18,.65-1.75,1.78-2.02,2.32-.36,.73-.48,1.32-.74,3.14-.2,1.45-.3,2.3-.37,2.99-.05,.48-.09,.86-.15,1.27-.16,1.1-.46,3.14-1.5,5.24-.55,1.1-2.16,3.87-5.3,5.67-1.88,1.07-3.64,1.42-4.97,1.61-2.86,.4-6.24,.79-11.35,.79Zm-30.98-24.25c.16,0,.31,0,.42,.01,1.66,.11,3.24,.91,4.44,2.25,1.07,1.19,1.43,2.46,1.69,3.38,.22,.78,.24,1.21,.28,1.87,.03,.5,.06,1.11,.19,2.12,.15,1.21,.32,2.58,.81,4.23,.28,.93,.69,2.34,1.65,3.91,.9,1.47,1.91,2.64,3,3.48,2.23,1.69,4.68,1.89,6.47,2.04,12.65,1.03,18.66,.42,23.31-.23,1.29-.18,3-.52,4.82-1.56,3.05-1.74,4.61-4.42,5.14-5.49,1.01-2.04,1.3-4.04,1.46-5.12,.06-.41,.1-.79,.15-1.26,.08-.69,.17-1.54,.37-3,.26-1.87,.38-2.49,.78-3.27,.29-.58,.9-1.78,2.19-2.5,.78-.43,1.41-.45,1.91-.47,.39-.01,.71-.02,1.01-.21v-4.47c-.37-.19-.83-.16-1.61-.11-.72,.05-1.71,.12-3.1,.02-.94-.07-1.58-.17-2.2-.28-.17-.03-.34-.06-.51-.08-2.89-.46-10.75-1.23-19.55-1.32-6.41-.06-10.64-.1-16.04,.59-2.02,.26-4.07,.47-6.06,.67-1.74,.18-3.55,.36-5.31,.58-.63,.08-2.25,.28-4.42,.3-1.41,.02-2.5-.05-3.2-.1-2.18-.15-4.81-.45-7.86-.79-5.89-.66-13.22-1.49-19.92-1.52-.12,0-.25,0-.37,0-6.4,0-15.08,.67-18.77,1.45-.31,.06-.61,.14-.92,.21-1.28,.3-2.72,.65-4.75,.55-.71-.03-1.29-.11-1.75-.17-.87-.12-1.36-.18-1.81,.13v5.47c.44,.42,.89,.53,1.4,.65,.58,.14,1.24,.29,1.92,.97,.77,.78,1.04,1.66,1.4,2.89,.34,1.17,.42,1.99,.51,3.03l.06,.61c.24,2.5,.38,3.88,.91,5.5,.34,1.02,.97,2.92,2.68,4.71,.68,.71,1.49,1.35,2.35,1.85,1.94,1.13,3.77,1.36,4.56,1.46,7.19,.91,16.15,.4,22.68,.03l.57-.03c1.35-.08,3.17-.18,5.25-1.17,2.15-1.03,3.96-2.69,5.37-4.94,1.79-2.85,2.18-5.85,2.27-7,.04-.51,.04-.96,.05-1.39,.01-.95,.03-1.84,.35-3.23,.35-1.51,.63-2.71,1.67-3.73,1.33-1.31,3.07-1.52,4.07-1.52Zm30.86,21.34c-6.92,0-13.89-.84-16.5-2.56-.14-.07-3.8-2-4.07-8.71-.53-7.48-1.2-10.79-1.21-10.83l-.04-.21,.21-.03c14.25-1.97,28.71-1.99,42.96-.07l.19,.03-.02,.2s-.13,1.28-.43,3.44l-.2-.03,.2,.03c-.2,1.46-.33,2.31-.47,3.23-.09,.56-.17,1.15-.29,1.92-1.31,8.8-3.75,10.75-3.86,10.83-1.99,1.83-9.21,2.77-16.49,2.77Zm-21.34-21.97c.16,.84,.72,4.22,1.18,10.67,.26,6.48,3.83,8.36,3.86,8.38,5.12,3.38,28.82,3.25,32.53-.17,.04-.03,2.43-1.99,3.71-10.58,.11-.77,.2-1.36,.29-1.92,.14-.92,.27-1.77,.47-3.23,.23-1.66,.36-2.8,.41-3.23-14.08-1.88-28.36-1.86-42.44,.06Zm-38.12,21.97c-6.92,0-13.89-.84-16.5-2.56-.14-.07-3.8-2-4.07-8.71-.53-7.48-1.2-10.79-1.21-10.83l-.04-.21,.21-.03c14.25-1.97,28.71-1.99,42.96-.07l.19,.03-.02,.2s-.13,1.28-.43,3.44h0c-.2,1.48-.33,2.34-.47,3.27-.08,.55-.17,1.13-.28,1.88-1.31,8.8-3.75,10.75-3.86,10.83-1.99,1.83-9.21,2.77-16.48,2.77Zm-21.34-21.97c.16,.84,.72,4.22,1.18,10.67,.26,6.46,3.83,8.36,3.87,8.38,5.12,3.38,28.82,3.25,32.53-.17,.04-.03,2.44-1.99,3.71-10.58,.11-.75,.2-1.33,.28-1.88,.14-.93,.27-1.79,.47-3.27h0c.23-1.66,.36-2.8,.41-3.23-14.08-1.88-28.36-1.86-42.44,.06Z" style="fill:#1c313e;"/></g><path d="M71.81,109.46s.68,3.27,1.22,10.86c.26,6.67,3.98,8.55,3.98,8.55,5.06,3.33,28.81,3.43,32.75-.2,0,0,2.46-1.88,3.78-10.7,.29-2.02,.43-2.8,.76-5.15,.3-2.18,.43-3.43,.43-3.43-14.3-1.93-28.6-1.91-42.9,.07Z" style="opacity:.28;"/><path d="M85.38,108.21c-1.48,.08-2.97,.17-4.45,.29l-7.88,12.27c.13,2.06,.59,3.64,1.16,4.83l11.17-17.4Z" style="fill:#e1e5e7; opacity:.9;"/><path d="M80.89,130.3l14.32-22.29c-2.15-.02-4.29,0-6.44,.06l-12.84,20c.61,.6,1.08,.84,1.08,.84,.84,.55,2.19,1.02,3.88,1.39Z" style="fill:#e1e5e7; opacity:.9;"/><path d="M131.24,109.5s.68,3.27,1.22,10.86c.26,6.67,3.98,8.55,3.98,8.55,5.06,3.33,28.81,3.43,32.75-.2,0,0,2.46-1.88,3.78-10.7,.29-2.02,.43-2.8,.76-5.15,.3-2.18,.43-3.43,.43-3.43-14.3-1.93-28.6-1.91-42.9,.07Z" style="opacity:.28;"/><g style="opacity:.9;"><path d="M133.37,124.96c-.04-.11-.09-.23-.13-.35,.04,.12,.09,.23,.13,.35Z" style="fill:#e1e5e7;"/><path d="M135.74,128.39s-.08-.07-.12-.11c.04,.04,.08,.07,.12,.11Z" style="fill:#e1e5e7;"/><path d="M135.94,128.55s-.07-.05-.11-.09c.04,.03,.07,.06,.11,.09Z" style="fill:#e1e5e7;"/><path d="M131.24,109.46c.31-.04,.63-.09,.94-.13-.31,.04-.63,.08-.94,.13Z" style="fill:#e1e5e7;"/><path d="M143.03,130.75c-.12-.02-.24-.03-.36-.05h0c.12,.02,.24,.04,.36,.05Z" style="fill:#e1e5e7;"/><path d="M144.52,130.94c.25,.03,.51,.06,.77,.08-.26-.03-.51-.05-.77-.08Z" style="fill:#e1e5e7;"/><path d="M144.52,130.94c-.12-.01-.25-.03-.37-.04,.12,.01,.24,.03,.37,.04Z" style="fill:#e1e5e7;"/><path d="M144.13,130.89c-.38-.05-.74-.09-1.1-.14,.36,.05,.73,.1,1.1,.14Z" style="fill:#e1e5e7;"/><path d="M146.48,131.13c-.26-.02-.52-.04-.78-.07,.26,.02,.52,.05,.78,.07Z" style="fill:#e1e5e7;"/><path d="M150.08,107.99c.4,0,.81-.01,1.21-.02-.4,0-.81,.01-1.21,.02Z" style="fill:#e1e5e7;"/><path d="M137.63,129.48l-.06-.02h0l.06,.02Z" style="fill:#e1e5e7;"/><path d="M133.44,125.12s-.04-.1-.06-.15c.02,.05,.04,.1,.06,.15Z" style="fill:#e1e5e7;"/><path d="M133.47,125.2h0l-.02-.05,.02,.05Z" style="fill:#e1e5e7;"/><path d="M133.45,125.15v0Z" style="fill:#e1e5e7;"/><path d="M172.59,120.18c-.12,.59-.24,1.14-.36,1.66,.12-.51,.24-1.07,.36-1.66Z" style="fill:#e1e5e7;"/><path d="M172.23,121.84c-.04,.17-.08,.34-.12,.5,.04-.16,.08-.33,.12-.5Z" style="fill:#e1e5e7;"/><path d="M154.79,117.85l2.3-1.08,.06-1.19,13.59-6.6c-.66-.07-1.32-.15-1.98-.21l-14.31,6.95,6.53-7.54c-.34-.02-.68-.03-1.02-.05l-4.55,5.25-1.23-.99,2.36-4.37c-.49-.01-.99-.02-1.48-.03l-2.66,4.94-2.37-4.93c-.48,0-.96,.02-1.44,.03l.44,.92,1.39,3.86-.14-.31-.71,.34,.6,1.3-3.31-2.47-3.86-3.38c-.62,.04-1.24,.08-1.85,.13l5.9,5.15-1.57,.37-7.98-5.2c-.69,.07-1.39,.14-2.08,.22l7.61,4.96-.29,1.5-11.02-2.89h0c.04,.34,.09,.72,.14,1.13l10.63,2.79-.9,1.65h-9.29c.03,.34,.06,.69,.08,1.06h8.56l-.08,2.12-7.38,3.94c.15,.34,.3,.66,.46,.95l9.39-5.01h0l-.04-.15,1.18,1.74-7.92,6.22c.29,.18,.65,.36,1.05,.52l7.14-5.61,.35,.56-3.51,6.1c.36,.06,.73,.13,1.11,.18l3.28-5.72,.8,.39,2.23,5.92c.38,.02,.76,.03,1.14,.05l-2.21-5.87h0l6.77,5.91c.51,0,1.02-.02,1.52-.04v-.02l-7.28-6.37,2.13-.51,10.05,6.55c.51-.06,1.01-.12,1.5-.19,0-.03,0-.06,0-.09l-9.83-6.41,18.44,.87c.12-.32,.24-.67,.37-1.04l-18.16-.86-.22-.19,.5-1.31,18.88-1.58c.13-.68,.26-1.41,.38-2.2l.03-.18-17.52,1.47-.68-1.42Zm-.97-4.76l1.09,.88-1.28,1.47-.51-1.06,.7-1.29Zm-.28,5.19l.53,1.11-.53,.04-2.01-.33,.8-.92,.74,.65,.47-.54Zm-2.06-.85l.25,.22-.19,.22-.22-.14,.16-.3Zm-.65,1.55l-.17-.03,.03-.06,.14,.09Zm.29,0l.06,.05h-.09l.03-.05Zm1.24-3.17l.34,.72-.11,.12-.47-.41,.23-.43Zm-4.11-1.21l2.22,1.94-.25,.47-1.27-.83-.7-1.58Zm-6.31,4.53l.4,1.33-.74,.39,.06-1.72h.27Zm.49-1h0l.83-1.52h.02l.11-.54,.12-.47h-.03l.24-1.25,5.87,3.83-.61,1.13h.01c-.55,1.8-1.11,3.59-1.66,5.39l-1.31-.64-.31-.18-.39-.63c1.21-1.51,2.42-3.02,3.63-4.53l-5.91,1.46-.61-2.03Zm6.6,1.19l1.11,.61,.12-.22c.67,.84,1.35,1.68,2.02,2.52-1.08-.97-2.17-1.93-3.25-2.9Z" style="fill:#e1e5e7;"/><path d="M163.21,108.3c.22,.01,.45,.03,.67,.05-.22-.02-.45-.03-.67-.05Z" style="fill:#e1e5e7;"/><path d="M162.53,108.26c.16,0,.33,.02,.49,.03-.16-.01-.33-.02-.49-.03Z" style="fill:#e1e5e7;"/><path d="M162.31,108.25h0Z" style="fill:#e1e5e7;"/><path d="M163.02,108.29h0Z" style="fill:#e1e5e7;"/><path d="M159.85,108.12c-.23,0-.45-.02-.68-.03,.23,0,.45,.02,.68,.03Z" style="fill:#e1e5e7;"/><path d="M156.57,108.01c.24,0,.49,.01,.73,.02-.24,0-.49-.01-.73-.02Z" style="fill:#e1e5e7;"/><path d="M157.49,108.03c.25,0,.5,.01,.75,.02-.25,0-.5-.02-.75-.02Z" style="fill:#e1e5e7;"/><path d="M157.31,108.03h0Z" style="fill:#e1e5e7;"/><path d="M159.85,108.12h0Z" style="fill:#e1e5e7;"/><path d="M161.63,108.21h0Z" style="fill:#e1e5e7;"/><path d="M161.85,108.22c.16,0,.31,.02,.47,.03-.16,0-.31-.02-.47-.03Z" style="fill:#e1e5e7;"/><path d="M161.09,108.18c.18,0,.36,.02,.55,.03-.18-.01-.36-.02-.55-.03Z" style="fill:#e1e5e7;"/><path d="M160.98,108.17h0Z" style="fill:#e1e5e7;"/><path d="M154.56,107.98h0Z" style="fill:#e1e5e7;"/><path d="M141.05,108.42c-.26,.02-.51,.04-.77,.06,.26-.02,.51-.04,.77-.06Z" style="fill:#e1e5e7;"/><path d="M155.02,107.98c-.15,0-.31,0-.46,0,.15,0,.31,0,.46,0Z" style="fill:#e1e5e7;"/><path d="M154.42,107.97c-.2,0-.4,0-.6,0,.2,0,.4,0,.6,0Z" style="fill:#e1e5e7;"/><path d="M141.05,108.42h0Z" style="fill:#e1e5e7;"/><path d="M156.56,108.01h0Z" style="fill:#e1e5e7;"/><path d="M155.02,107.98h0Z" style="fill:#e1e5e7;"/><path d="M171.84,123.29c-.04,.14-.08,.28-.12,.41,.04-.13,.08-.27,.12-.41Z" style="fill:#e1e5e7;"/><path d="M165.9,108.5c.6,.05,1.19,.1,1.79,.16-.6-.06-1.19-.11-1.79-.16Z" style="fill:#e1e5e7;"/><path d="M160.92,131c.06,0,.12-.01,.18-.02h0c-.06,0-.12,.01-.18,.02h0Z" style="fill:#e1e5e7;"/><path d="M154.68,131.37h0Z" style="fill:#e1e5e7;"/><path d="M147.72,131.22c-.26-.02-.53-.04-.79-.06,.26,.02,.52,.04,.79,.06Z" style="fill:#e1e5e7;"/></g><rect x="74.84" y="196.75" width="6.85" height="23.8" transform="translate(-130.39 286.91) rotate(-90)" style="fill:#3a3e44;"/><g><path d="M100.36,212.96c-.7-1.27-.93-2.56-.99-2.92-.01-.08-.03-.16-.04-.24v-.04c-.46-2.41,.82-4.8,3.03-5.84l59.64-28.14c1.73-.82,3.78-.67,5.35,.42,.49,.34,.97,.72,1.45,1.15,0,0,1.08,1.03,1.89,2.34,1.9,3.07,2.49,12.76-2.67,23.67-1.72,3.28-3.22,7-8.3,11.7-2.06,1.91-4.38,3.52-6.88,4.79l-10.52,5.38c-2.49,1.27-14.18,2.8-27.62-1.66,0,0-10.71-4.07-14.33-10.61Z" style="fill:#de5f5a;"/><path d="M132.8,226.86c-4.99,0-11.39-.74-18.21-3-.45-.17-10.87-4.19-14.5-10.75h0c-.73-1.32-.97-2.64-1.02-3.02-.01-.07-.03-.15-.04-.23-.48-2.56,.84-5.1,3.19-6.22l59.64-28.14c1.84-.87,4.01-.7,5.65,.45,.49,.34,.99,.74,1.48,1.17,.05,.05,1.12,1.08,1.94,2.41,1.98,3.21,2.51,13.04-2.65,23.96-.22,.43-.44,.85-.66,1.28-1.52,2.99-3.24,6.38-7.71,10.51-2.06,1.91-4.4,3.54-6.95,4.84l-10.52,5.38c-1.31,.67-4.82,1.36-9.65,1.36Zm31.52-51.29c-.75,0-1.5,.16-2.19,.49l-59.64,28.14c-2.11,.99-3.28,3.26-2.86,5.51,.02,.12,.04,.2,.05,.29,.05,.35,.27,1.59,.95,2.81h0c3.52,6.37,14.07,10.43,14.17,10.47,13.23,4.39,24.79,3,27.38,1.67l10.52-5.38c2.5-1.28,4.79-2.87,6.82-4.75,4.39-4.06,6.09-7.4,7.58-10.34,.22-.43,.43-.86,.65-1.27,5.06-10.7,4.59-20.27,2.68-23.36-.78-1.27-1.83-2.27-1.84-2.28-.46-.41-.94-.79-1.41-1.12-.85-.59-1.85-.89-2.86-.89Z"/></g><path d="M142.34,224.8c-4.06-.44-15.85,.72-24.66-3.71-4.27-2.14-6.14-4.74-6.1-6.15,.03-1.1,.56-1.9,.56-1.9,.14-.22,.48-.67,1.45-1.23,1.87-1.08,5.33-2.56,5.33-2.56,0,0-2.41,.86-4.45,1.56-.92,.31-5.16,1.7-10.22,1.44-1.96-.1-3.25-.4-4.18-.58,.11,.27,.24,.54,.39,.81,3.62,6.54,14.33,10.61,14.33,10.61,13.32,4.42,24.91,2.96,27.55,1.7Z" style="fill:#c54b45; opacity:.74;"/><path d="M170.39,179.87c-.32,.57-.72,1.23-1.25,1.97-2.94,4.16-6.64,6.64-7.45,7.18-1.8,1.18-3.97,2.54-3.97,2.54,0,0,3.31-1.81,5.3-2.62,1.03-.42,1.59-.4,1.85-.38,0,0,.95,.08,1.83,.73,1.12,.84,1.99,3.93,1.03,8.62-1.53,7.42-6.69,14.2-10,18.53,.55-.44,1.08-.9,1.6-1.38,5.07-4.69,6.58-8.42,8.3-11.7,5.07-10.71,4.58-20.24,2.77-23.49Z" style="fill:#c54b45; opacity:.74;"/><path d="M103.91,210.05c-.44-.03-.8-.44-.86-1.01-.07-.65,.31-1.27,.84-1.38,10.96-2.18,21.72-5.83,31.98-10.86,10.13-4.96,20.05-11.41,29.5-19.15,.45-.37,1.04-.22,1.32,.33,.28,.55,.14,1.3-.31,1.67-9.56,7.84-19.61,14.36-29.87,19.39-10.39,5.09-21.28,8.79-32.39,11-.07,.01-.14,.02-.21,.01Z" style="fill:#466c65;"/><path d="M103.97,209.31c-.16-.01-.3-.17-.32-.38-.02-.25,.12-.48,.31-.52,11.01-2.19,21.81-5.86,32.1-10.9,10.17-4.98,20.13-11.45,29.61-19.22,.17-.14,.39-.08,.5,.12,.11,.21,.05,.49-.12,.62-9.53,7.81-19.54,14.31-29.75,19.31-10.35,5.07-21.2,8.76-32.26,10.95-.03,0-.05,0-.08,0Z" style="fill:#ece7e6;"/><path d="M99.37,210.04c-.01-.08-.03-.16-.04-.24v-.04c-.3-1.59,.15-3.17,1.13-4.37h-9.82v6.94h9.41c-.47-1.05-.64-2-.68-2.3Z" style="fill:#3a3e44;"/><path d="M99.33,209.8v-.04c-.3-1.59,.15-3.17,1.13-4.37h-1.44c-.98,1.19-1.44,2.78-1.14,4.37v.04c.02,.08,.04,.16,.05,.24,.04,.3,.21,1.25,.68,2.3h1.44c-.47-1.05-.64-2-.68-2.3-.01-.08-.03-.16-.04-.24Z" style="fill:#1d1d23;"/><path d="M167.34,176.2c.49,.34,.97,.72,1.45,1.15,0,0,1.08,1.03,1.89,2.34,.02,.03,.03,.05,.05,.08l6.15-6.82-5.18-4.73-6.42,7.12c.73,.13,1.44,.42,2.07,.85Z" style="fill:#3a3e44;"/><path d="M171.63,178.5c-.81-1.28-1.84-2.27-1.84-2.27-.48-.42-.96-.81-1.45-1.15-.63-.44-1.33-.72-2.06-.85l-1.01,1.11c.73,.13,1.44,.42,2.07,.85,.49,.34,.97,.72,1.45,1.15,0,0,1.08,1.03,1.89,2.34,.02,.03,.03,.05,.05,.08l.97-1.08c-.02-.06-.04-.13-.07-.2Z" style="fill:#1d1d23;"/><polygon points="192.93 143.78 172.14 167.81 177.24 172.26 192.93 154.13 192.93 143.78" style="fill:#3a3e44;"/><path d="M90.75,212.89c-.92,0-1.67-.51-1.67-1.15v-5.75c0-.63,.75-1.15,1.67-1.15s1.67,.51,1.67,1.15v5.75c0,.63-.75,1.15-1.67,1.15Z" style="fill:#6d7074;"/><path d="M177.02,173.51c-.61,.69-1.49,.9-1.96,.48l-4.26-3.84c-.47-.42-.35-1.32,.26-2.01s1.49-.9,1.96-.48l4.26,3.84c.47,.42,.35,1.32-.26,2.01Z" style="fill:#6d7074;"/><path d="M161.59,182.76c-.53,.7-.17,1.85-1.21,1.98-.93,.09-1.92-1.18-1.56-2.1,.28-.71,1.34-.33,2.06-.73,.75-.42,1.68-.42,.72,.85Z" style="fill:#767576;"/><path d="M159.66,183.5c-.23,0-.42,.19-.42,.42s.19,.42,.42,.42,.42-.19,.42-.42-.19-.42-.42-.42Zm0,.7c-.15,0-.28-.12-.28-.28s.12-.28,.28-.28,.28,.12,.28,.28-.12,.28-.28,.28Z" style="fill:#9e9e9e;"/><path d="M161.48,182.57l-1.98,1.4s-.09,.02-.11-.02l-.23-.32s-.02-.09,.02-.11l1.98-1.4s.09-.02,.11,.02l.23,.32s.02,.09-.02,.11Z"/><path d="M161.55,182.61l-2.05,1.46s-.09,.02-.11-.02l-.23-.32s-.02-.09,.02-.11l2.05-1.46s.09-.02,.11,.02l.23,.32s.02,.09-.02,.11Z" style="fill:#9e9e9e;"/><rect x="159.13" y="184.23" width="1.09" height="5.76" rx=".13" ry=".13" style="fill:#9e9e9e;"/><path d="M159.26,189.99h0c-.07,0-.13-.1-.13-.22v-5.31c0-.12,.06-.22,.13-.22h.15v5.76h-.15Z" style="fill:#444445;"/><rect x="159.97" y="184.32" width=".09" height="5.48" rx=".03" ry=".03" style="fill:#d6d7d7;"/><ellipse cx="152.36" cy="204.84" rx="6.51" ry="3.79" transform="translate(-101.97 182.69) rotate(-48.38)" style="fill:#ece7e6; opacity:.29;"/></g><g id="j"/><g id="k"/><g id="l"/><g id="m"/><g id="n"/><g id="o"/><g id="p"/></svg>