<?xml version="1.0" encoding="UTF-8"?><svg xmlns="http://www.w3.org/2000/svg" viewBox="0 0 255 257"><g id="a"/><g id="b"/><g id="c"/><g id="d"/><g id="e"/><g id="f"/><g id="g"/><g id="h"><rect width="255" height="257" style="fill:#00b290;"/></g><g id="i"><g><rect x="72.11" y="137.77" width="126.49" height="118.42" rx=".1" ry=".1" style="fill:#1a1b4f;"/><path d="M198.52,257H72.19c-.49,0-.89-.4-.89-.89v-118.25c0-.49,.4-.89,.89-.89h126.33c.49,0,.89,.4,.89,.89v118.25c0,.49-.4,.89-.89,.89Zm-125.6-1.63h124.87v-116.79H72.92v116.79Z"/></g><path d="M126.94,218.48l-19.27-65.48c-.49-1.65,.73-3.31,2.45-3.35l39.47-.92c1.78-.04,3.08,1.67,2.56,3.37l-20.19,66.4c-.75,2.48-4.27,2.47-5.01-.02Z" style="fill:#fff;"/><path d="M134.71,209.47c6.13-20.28,12.25-40.56,18.38-60.84,1.8-.43,3.61-.85,5.41-1.28" style="fill:#d2d2d2;"/><path d="M124.32,209.6c-5.91-20.34-11.82-40.69-17.73-61.03-1.8-.45-3.6-.89-5.4-1.34" style="fill:#d2d2d2;"/><g><path d="M189.61,101.02c-.26-.13-.48-.32-.66-.55-4.68-6.42-11.35-11.84-19.34-15.82-2.99,.31-6.09,.05-8.99-.18-6.81-.56-13.67-1.02-20.49-.21-7.59,.9-15.21,1.19-22.76,2.35-2.64,.4-5.1,.51-7.33,.13-.5,.1-1.02,.15-1.56,.13-1.18,.04-2.28-.2-3.3-.74-.28-.09-.56-.21-.82-.34-7.82,4.28-14.24,9.97-18.55,16.64,0,.01-.02,.02-.03,.03-11.51,6-19.08,16.17-19.08,27.7,0,7.14,2.91,13.76,7.85,19.19,.53,.58,1.37,.74,2.1,.46,4.64-1.81,9.66-2.8,14.91-2.8,13.59,0,23.78,13.04,34.6,13.04s28.3-11.95,48.65-11.95c4.45,0,8.79,.31,12.98,.87,.36,.05,.73,0,1.06-.16,10.37-4.91,17.31-13.85,17.31-24.07s-6.61-18.73-16.56-23.71Z" style="fill:#ce7c3b;"/><path d="M190.09,100.05l-.27-.23c-1.88-2.54-4.52-5.61-8.11-8.61-4.12-3.43-8.15-5.64-11.41-7.1-.2,.03-.4,.02-.6-.04-.19-.06-.38-.14-.56-.22,.24,.3,.37,.6,.29,.81-.16,.37-1.01,.53-2.06,.12,8.49,3.89,15.7,9.46,20.7,16.32,.28,.38,.64,.68,1.05,.89,9.99,5,15.96,13.5,15.96,22.74s-6.24,18.14-16.69,23.08c-.14,.07-.3,.09-.46,.07-4.33-.58-8.75-.88-13.12-.88-11.96,0-23.11,4.12-32.07,7.44-6.55,2.42-12.21,4.51-16.58,4.51-4.81,0-9.64-2.82-14.76-5.81-6.08-3.55-12.36-7.22-19.84-7.22-5.26,0-10.41,.97-15.31,2.88-.33,.13-.7,.06-.91-.18-4.95-5.44-7.57-11.82-7.57-18.45,0-10.7,6.92-20.7,18.48-26.73l.29-.16,.16-.25c4.46-6.89,11.02-12.56,18.88-16.71-.14-.06-.28-.11-.41-.19-.36-.12-.69-.26-1.02-.44-.06,.03-.12,.06-.18,.08-.03,.01-.06,.02-.09,.03-.28,.07-.58,.1-.87,.1-.22,0-.45-.04-.67-.07-.05,0-.09,.01-.15,.01-.05,0-.09-.01-.13-.01-6.99,4.12-12.87,9.45-17.03,15.8-12.17,6.43-19.43,17.09-19.43,28.54,0,7.19,2.81,14.08,8.13,19.92,.82,.91,2.12,1.19,3.29,.74,4.64-1.81,9.53-2.73,14.52-2.73,6.89,0,12.92,3.52,18.75,6.93,9.79,5.72,12.51,5.62,15.84,6.11,1,.15,5.2,.72,10.7,0,5.6-.73,7.83-2.18,14.05-4.35,1.86-.65,13.83-4.81,23.78-5.43,1.35-.08,6.26-.33,12.94-1.31,.47-.07,1.35-.1,1.67-.26,11.23-5.32,17.93-14.68,17.93-25.05s-6.41-19.3-17.16-24.68Z"/></g><g><ellipse cx="136.98" cy="87.43" rx="35.94" ry="6.13" transform="translate(-1.3 2.08) rotate(-.87)"/><path d="M133.97,93.99c-16.62,0-33.22-2-33.34-5.99-.01-.46,.19-.91,.59-1.33,2.92-3.07,17.88-5.5,35.57-5.77,17.6-.28,36.4,1.72,36.53,5.97h0c.01,.46-.19,.91-.59,1.33-2.92,3.07-17.88,5.5-35.57,5.77-1.06,.02-2.12,.02-3.19,.02Zm6.15-12.31c-1.09,0-2.19,0-3.31,.03-17.21,.27-32.25,2.64-35,5.52-.25,.26-.37,.51-.37,.75,.08,2.71,14.76,5.5,35.71,5.18,17.21-.27,32.26-2.64,35-5.52,.25-.26,.37-.51,.37-.75-.07-2.56-13.23-5.2-32.39-5.2Z"/></g><g><path d="M141.13,85.26c13.4-.21,25.11,.86,31.34,2.62,.3-.33,.46-.66,.45-1-.1-3.38-16.27-5.88-36.12-5.57-19.85,.31-35.86,3.3-35.76,6.69,.03,1.1,1.77,2.11,4.77,2.95,2.7-2.95,17.45-5.41,35.31-5.68Z" style="fill:#722f71;"/><path d="M105.94,91.4l-.24-.07c-3.37-.95-5.03-2.04-5.07-3.33-.01-.46,.19-.91,.59-1.33,2.92-3.07,17.88-5.5,35.57-5.77,17.6-.28,36.4,1.72,36.53,5.97,.01,.44-.18,.87-.56,1.29l-.17,.18-.24-.07c-6.41-1.81-18.36-2.8-31.23-2.6-17.31,.27-32.37,2.66-35.02,5.55l-.17,.18Zm34.18-9.72c-1.09,0-2.19,0-3.31,.03-17.21,.27-32.25,2.64-35,5.52-.25,.26-.37,.51-.37,.75,.01,.39,.45,1.4,4.25,2.51,3.24-3.01,17.98-5.36,35.42-5.63h0c12.75-.19,24.67,.78,31.2,2.56,.13-.19,.2-.37,.19-.53-.07-2.56-13.23-5.2-32.39-5.2Z"/></g><path d="M162.29,61.87s-8.05,2.09-11.19,6.47c-3.01,4.2-4.81,13.92-2.57,12.37,2.79-1.92,9.05-3.87,11.17-5.79,4.56-5.71,2.58-13.05,2.58-13.05Z" style="fill:#57715c;"/><path d="M164.35,86.53s-3.34-3.4-6.4-3.7c-2.93-.29-8.23,1.61-6.82,2.28,1.75,.83,4.5,3.39,6.06,3.89,4.12,.63,7.16-2.47,7.16-2.47Z" style="fill:#526d6a;"/><path d="M165.07,76.22s-4.71-.69-7.33,.91c-2.52,1.54-5.62,6.26-4.09,5.94,1.89-.39,5.62-.02,7.17-.56,3.67-1.99,4.25-6.3,4.25-6.3Z" style="fill:#526d6a;"/><path d="M154.11,78.29s-5.57,1.32-7.79,4.29c-2.13,2.85-3.52,9.5-1.95,8.47,1.95-1.28,6.28-2.53,7.77-3.82,3.22-3.86,1.97-8.94,1.97-8.94Z" style="fill:#637e67;"/><path d="M149.07,79.27c-.05,.01-.11,.01-.16,0-.14-.05-.21-.21-.16-.35,2.22-6.13,12.17-14.65,12.25-14.52,.08,.13-9.57,8.7-11.74,14.71-.03,.09-.1,.15-.18,.17Z" style="fill:#637e67;"/><path d="M139.46,69.22s-4.97,6.7-4.68,12.09c.27,5.17,4.93,13.88,5.71,11.26,.97-3.25,4.64-8.71,5.1-11.55,0-7.32-6.13-11.79-6.13-11.79Z" style="fill:#57715c;"/><path d="M140.01,91.1s-.08,.08-.13,.1c-.14,.05-.29-.03-.34-.17-2.09-6.17,.35-19.08,.49-19.03,.14,.05-2.03,12.8,.02,18.86,.03,.09,.01,.18-.04,.25Z" style="fill:#637e67;"/><path d="M122.06,68.34s7.66,3.25,10.13,8.04c2.37,4.6,2.74,14.47,.74,12.61-2.48-2.31-8.39-5.15-10.21-7.37-3.69-6.32-.66-13.29-.66-13.29Z" style="fill:#57715c;"/><path d="M132.61,87.5s.11,.03,.16,.02c.15-.03,.24-.17,.21-.32-1.31-6.39-9.91-16.28-10.01-16.17-.1,.11,8.2,10.01,9.48,16.28,.02,.09,.08,.16,.16,.19Z" style="fill:#637e67;"/><path d="M153,84.74s-.03-.05-.04-.08c0-.08,.05-.15,.12-.16,3.39-.4,9.73,2.28,9.69,2.35-.04,.07-6.33-2.46-9.65-2.06-.05,0-.09-.01-.12-.05Z" style="fill:#637e67;"/><path d="M116.12,85.08s2.18,4.25,5.01,5.45c2.72,1.16,8.33,.93,7.19-.13-1.42-1.32-3.29-4.58-4.63-5.53-3.75-1.83-7.57,.21-7.57,.21Z" style="fill:#526d6a;"/><path d="M126.43,90.19s.02,.06,.01,.09c-.01,.08-.09,.13-.17,.11-3.35-.63-8.61-5.09-8.55-5.14,.06-.05,5.31,4.24,8.6,4.86,.05,0,.08,.04,.1,.08Z" style="fill:#637e67;"/><path d="M133.53,78.27s-3.35,3.39-3.62,6.46c-.26,2.95,1.67,8.26,2.33,6.84,.81-1.76,3.33-4.56,3.81-6.13,.59-4.15-2.52-7.18-2.52-7.18Z" style="fill:#526d6a;"/><path d="M131.86,89.7s-.05,.03-.08,.04c-.08,.01-.15-.05-.16-.12-.43-3.4,2.18-9.8,2.25-9.76,.07,.04-2.39,6.38-1.96,9.72,0,.05-.01,.09-.05,.12Z" style="fill:#637e67;"/><path d="M154.23,82.42s-.06-.01-.08-.04c-.06-.05-.06-.14-.01-.2,2.26-2.57,8.77-4.81,8.78-4.73,.01,.08-6.35,2.4-8.57,4.92-.03,.04-.08,.05-.12,.05Z" style="fill:#637e67;"/><path d="M144.08,74.81s-.09,.07-.15,.07c-.15,.02-.29-.08-.31-.22-1.04-6.44,3.49-18.76,3.63-18.69,.13,.07-4.12,12.29-3.09,18.6,.01,.09-.02,.18-.08,.24Z" style="fill:#637e67;"/><path d="M147.28,85.13c2.12-2.85,4.52-5.15,6.85-6.73-.01-.07-.02-.11-.02-.11,0,0-5.57,1.32-7.79,4.29-1.78,2.37-3.03,7.38-2.49,8.39,.87-1.92,2.02-3.9,3.46-5.83Z" style="fill:#57715c;"/><path d="M97.14,69.49s1.48,6.6,5.77,9c4.13,2.3,14.11,3.34,12.69,1.54-1.76-2.23-3.24-7.35-5.06-9.02-5.56-3.52-13.4-1.52-13.4-1.52Z" style="fill:#798068;"/><path d="M106.89,77.08c-4.13-2.29-7.4-4.97-9.57-7.63-.1,.02-.17,.04-.17,.04,0,0,1.48,6.6,5.77,9,3.44,1.92,10.92,2.95,12.51,2.21-2.83-.86-5.73-2.07-8.54-3.62Z" style="fill:#838675;"/><path d="M124.16,58.05s-2.22,6.38,.16,10.71c2.29,4.15,10.21,10.34,9.96,8.06-.32-2.83,1.12-7.96,.46-10.35-2.86-5.95-10.57-8.42-10.57-8.42Z" style="fill:#798068;"/><path d="M128.43,69.67c-2.3-4.14-3.66-8.15-4.1-11.56-.1-.03-.17-.06-.17-.06,0,0-2.22,6.38,.16,10.71,1.9,3.46,7.71,8.31,9.45,8.53-1.95-2.24-3.78-4.8-5.34-7.61Z" style="fill:#838675;"/><path d="M112.24,68.79c-.03,.08-.1,.14-.19,.15-.13,.02-.24-.07-.26-.2-1.34-2.53-1.73-6.52-.9-8.49,1.03-2.43,4.43,.93,1.35,8.43,0,.04,0,.07-.01,.11Z" style="fill:#838775;"/><path d="M108.59,66.44c0,.08-.03,.15-.1,.2-.1,.06-.23,.03-.29-.08-2.02-1.65-3.76-4.86-3.75-6.81,0-2.41,4.05-.8,4.12,6.59,.02,.03,.03,.06,.03,.09Z" style="fill:#838775;"/><path d="M103.44,64.25c.02,.05,0,.11-.03,.15-.06,.06-.15,.06-.21,0-1.67-.75-3.43-2.6-3.79-3.92-.43-1.63,2.59-1.29,3.99,3.71,.02,.02,.03,.04,.04,.06Z" style="fill:#838775;"/><path d="M93.32,60.75c.95,.95,3.34,1.65,5.15,1.48,9.7,3.53,15.95,8.3,18.53,14.25,.05,.12,.19,.17,.3,.12,.06-.03,.11-.08,.13-.14,.02-.05,.02-.11,0-.17-2.66-6.13-9.1-11.02-19.09-14.61-3.55-3.27-6.17-2.11-5.01-.95Z" style="fill:#838775;"/><path d="M116.28,74.11c-.03,.08-.1,.14-.19,.15-.13,.02-.24-.07-.26-.2-1.34-2.53-1.73-6.52-.9-8.49,1.03-2.43,4.43,.93,1.35,8.43,0,.04,0,.07-.01,.11Z" style="fill:#838775;"/><path d="M115.95,74.12c.08,0,.16,.06,.2,.14,.05,.12,0,.25-.12,.3-2.08,1.96-5.81,3.39-7.92,3.1-2.6-.37-.27-4.54,7.74-3.52,.03-.01,.07-.02,.1-.02Z" style="fill:#838775;"/><path d="M113.48,71.08c.08,.02,.15,.08,.18,.17,.03,.12-.04,.25-.16,.28-2.54,.76-6.4,1.99-8.26,2-2.81,.01-.34-5.95,8.14-2.45,.04,0,.07-.01,.11,0Z" style="fill:#838775;"/><path d="M108.92,67.45c.06,.01,.11,.06,.12,.12,.02,.09-.03,.18-.11,.2-1.77,.53-4.47,1.39-5.76,1.39-1.96,.01-.23-4.16,5.68-1.71,.02,0,.05,0,.07,0Z" style="fill:#838775;"/><path d="M104.28,63.89c.06,.01,.11,.06,.12,.12,.02,.09-.03,.18-.11,.2-1.77,.53-4.47,1.39-5.76,1.39-1.96,.01-.23-4.16,5.68-1.71,.02,0,.05,0,.07,0Z" style="fill:#838775;"/><path d="M133.63,55.29c1.38-.92,2.24-.42,2.66,.56,1.12-.67,2.84,.32,1.94,1.91,1.27-.23,1.82,1.81,.6,2.66,.91,.69,.6,2.24-.93,2.56,.36,.72-.63,2.45-2.16,1.65,0,.49-1.85,1.72-2.71,.22-.87,.51-2.4,.2-2.39-1.29-1.05,.31-2.1-.86-1.32-2.38-1.33-.52-1.2-2.75,.17-2.72-.88-.89,.11-2.62,1.61-2.2,.34-1.65,1.88-1.34,2.53-.98Z" style="fill:#a7736a;"/><path d="M139.55,71.1c.45-.13,1.73,1.3,1.73,1.3v-.02c.18-.86,.66-1.86,.97-1.86,1.12-.01,.68,7.72-.4,7.81-1.05,.13-3.02-7.02-2.3-7.23Z" style="fill:#e9a0a0;"/><path d="M147.32,72.35c.32,.34-.34,2.15-.34,2.15h.02c.84-.26,1.94-.3,2.09-.02,.53,.99-6.47,4.22-7.06,3.3-.6-.87,4.77-5.97,5.28-5.43Z" style="fill:#e9a0a0;"/><path d="M150.03,78.28c-.05,.47-1.85,1.12-1.85,1.12h.02c.73,.49,1.47,1.32,1.35,1.61-.41,1.04-7.38-2.26-7.05-3.31,.28-1.03,7.61-.17,7.53,.57Z" style="fill:#e9a0a0;"/><path d="M146.18,84.82c-.42,.21-1.94-.96-1.94-.96v.02c-.01,.88-.3,1.95-.61,2.01-1.09,.22-2.09-7.46-1.04-7.75,1.01-.32,4.25,6.35,3.59,6.68Z" style="fill:#e9a0a0;"/><path d="M139.62,85.58c-.43-.18-.54-2.1-.54-2.1l-.02,.02c-.67,.56-1.66,1.04-1.91,.85-.88-.69,4.26-6.46,5.16-5.85,.9,.56-2,7.38-2.69,7.09Z" style="fill:#e9a0a0;"/><path d="M134.98,81.01c-.15-.45,1.2-1.81,1.2-1.81h-.02c-.86-.13-1.88-.56-1.9-.88-.07-1.12,7.64-1.1,7.78-.01,.18,1.05-6.82,3.4-7.06,2.7Z" style="fill:#e9a0a0;"/><path d="M134.5,75.09c.18-.44,2.09-.57,2.09-.57l-.02-.02c-.57-.66-1.06-1.66-.86-1.91,.68-.89,6.48,4.21,5.88,5.12-.55,.91-7.37-1.93-7.09-2.62Z" style="fill:#e9a0a0;"/><path d="M141.93,77.71c-.07,.02-.15-.02-.17-.1,0,0-.83-3.29-.76-3.31s1.02,3.24,1.02,3.24c.02,.07-.02,.15-.09,.17Z" style="fill:#e3807e;"/><path d="M141.93,77.71s-.07,0-.1-.01c0,0-4.07-2.41-4.03-2.48s4.16,2.24,4.16,2.24c.06,.04,.09,.12,.05,.19-.02,.03-.05,.05-.08,.06Z" style="fill:#e3807e;"/><path d="M143.25,78.47h-.03s-5.64,.33-5.64,.25c0-.07,5.63-.52,5.63-.52,.07,0,.14,.05,.14,.13,0,.07-.04,.12-.1,.14Z" style="fill:#e3807e;"/><path d="M139.83,82.74c-.06-.04,2.23-4.19,2.23-4.19,.04-.07,.12-.09,.18-.05s.09,.12,.05,.19c0,0-2.43,4.07-2.46,4.05Z" style="fill:#e3807e;"/><path d="M144.39,82.66c-.06,.02-2.62-5.03-2.62-5.03-.03-.07,0-.15,.06-.18,.07-.03,.15,0,.18,.06,0,0,2.38,5.15,2.38,5.15Z" style="fill:#e3807e;"/><path d="M142.21,78.14c-.07-.02-.12-.09-.1-.17,.02-.07,.09-.11,.17-.1,0,0,4.42,1.24,4.41,1.31-.01,.05-4.47-1.05-4.47-1.05Z" style="fill:#e3807e;"/><path d="M141.93,77.71c-.06,.02-.12,0-.15-.06-.04-.07-.01-.15,.05-.18,0,0,4.04-2.2,4.07-2.14,.04,.07-3.94,2.37-3.94,2.37,0,0-.02,0-.03,.01Z" style="fill:#e3807e;"/><ellipse cx="142.08" cy="78.09" rx="1.27" ry="1.28" style="fill:#e47f3a;"/><path d="M132.86,66.35c.26-.07,.98,.73,.98,.73h0c.1-.5,.37-1.06,.55-1.06,.63,0,.39,4.36-.23,4.41-.59,.07-1.7-3.96-1.3-4.08Z" style="fill:#b4763a;"/><path d="M137.25,67.05c.18,.19-.19,1.21-.19,1.21h.01c.47-.15,1.09-.17,1.18,0,.3,.56-3.65,2.38-3.98,1.86-.34-.49,2.69-3.37,2.98-3.06Z" style="fill:#b4763a;"/><path d="M138.77,70.4c-.03,.27-1.04,.63-1.04,.63h.01c.41,.28,.83,.74,.76,.91-.23,.59-4.16-1.28-3.98-1.86,.16-.58,4.29-.1,4.25,.32Z" style="fill:#b4763a;"/><path d="M136.6,74.09c-.24,.12-1.09-.54-1.09-.54h0c0,.51-.17,1.11-.34,1.15-.62,.12-1.18-4.21-.58-4.37,.57-.18,2.4,3.58,2.02,3.77Z" style="fill:#b4763a;"/><path d="M132.9,74.52c-.24-.1-.31-1.19-.31-1.19h-.01c-.38,.33-.94,.6-1.08,.49-.5-.39,2.4-3.65,2.91-3.3,.51,.32-1.13,4.16-1.52,4Z" style="fill:#b4763a;"/><path d="M130.28,71.94c-.09-.25,.68-1.02,.68-1.02h-.01c-.49-.07-1.06-.31-1.07-.49-.04-.63,4.31-.62,4.39,0,.1,.59-3.85,1.92-3.98,1.52Z" style="fill:#b4763a;"/><path d="M130.01,68.6c.1-.25,1.18-.32,1.18-.32h0c-.32-.38-.6-.95-.49-1.09,.38-.5,3.66,2.37,3.32,2.89-.31,.51-4.16-1.09-4-1.48Z" style="fill:#b4763a;"/><path d="M134.2,70.08s-.08-.01-.09-.05c0,0-.47-1.86-.43-1.87s.57,1.83,.57,1.83c.01,.04-.01,.08-.05,.09Z" style="fill:#e3807e;"/><path d="M134.2,70.08s-.04,0-.06,0c0,0-2.29-1.36-2.27-1.4s2.35,1.26,2.35,1.26c.04,.02,.05,.07,.03,.11-.01,.02-.03,.03-.05,.04Z" style="fill:#e3807e;"/><path d="M134.95,70.51h-.01s-3.18,.19-3.18,.14c0-.04,3.17-.29,3.17-.29,.04,0,.08,.03,.08,.07,0,.04-.02,.07-.06,.08Z" style="fill:#e3807e;"/><path d="M133.02,72.92s1.26-2.36,1.26-2.36c.02-.04,.07-.05,.1-.03s.05,.07,.03,.11c0,0-1.37,2.3-1.39,2.28Z" style="fill:#e3807e;"/><path d="M135.59,72.87s-1.48-2.84-1.48-2.84c-.02-.04,0-.08,.03-.1,.04-.02,.08,0,.1,.03,0,0,1.34,2.9,1.34,2.9Z" style="fill:#e3807e;"/><path d="M134.37,70.32s-.06-.05-.05-.09c.01-.04,.05-.06,.09-.05,0,0,2.5,.7,2.49,.74,0,.03-2.52-.59-2.52-.59Z" style="fill:#e3807e;"/><path d="M134.2,70.08s-.07,0-.09-.04c-.02-.04,0-.08,.03-.1,0,0,2.28-1.24,2.3-1.2,.02,.04-2.22,1.34-2.22,1.34h-.02Z" style="fill:#e3807e;"/><circle cx="134.29" cy="70.29" r=".72" style="fill:#e47f3a;"/><path d="M123.76,74.46c.39-.11,1.49,1.12,1.49,1.12v-.02c.15-.74,.57-1.6,.84-1.6,.96-.01,.59,6.65-.35,6.72-.91,.11-2.6-6.05-1.98-6.22Z" style="fill:#b4763a;"/><path d="M130.45,75.54c.28,.29-.29,1.85-.29,1.85h.02c.72-.22,1.67-.26,1.8-.01,.46,.85-5.57,3.63-6.07,2.84-.52-.75,4.1-5.14,4.54-4.67Z" style="fill:#a54845;"/><path d="M132.79,80.64c-.04,.4-1.59,.97-1.59,.97h.02c.63,.43,1.26,1.13,1.17,1.39-.35,.9-6.35-1.95-6.07-2.85,.24-.88,6.55-.15,6.48,.49Z" style="fill:#b4763a;"/><path d="M129.47,86.27c-.36,.18-1.67-.83-1.67-.83v.02c0,.75-.26,1.68-.53,1.73-.94,.19-1.8-6.42-.89-6.67,.87-.28,3.66,5.46,3.09,5.75Z" style="fill:#a54845;"/><path d="M123.82,86.93c-.37-.16-.47-1.81-.47-1.81h-.02c-.57,.5-1.43,.91-1.65,.74-.76-.59,3.67-5.56,4.45-5.04,.78,.48-1.73,6.35-2.31,6.1Z" style="fill:#b4763a;"/><path d="M119.83,82.99c-.13-.39,1.03-1.56,1.03-1.56h-.02c-.74-.11-1.62-.48-1.64-.75-.06-.96,6.57-.95,6.7-.01,.16,.9-5.87,2.93-6.08,2.32Z" style="fill:#a54845;"/><path d="M119.42,77.9c.15-.38,1.8-.49,1.8-.49v-.02c-.5-.57-.92-1.43-.76-1.65,.58-.77,5.58,3.62,5.06,4.41-.47,.79-6.34-1.66-6.1-2.26Z" style="fill:#b4763a;"/><path d="M125.81,80.15c-.06,.02-.13-.02-.14-.08,0,0-.71-2.83-.65-2.85s.87,2.79,.87,2.79c.02,.06-.02,.13-.08,.14Z" style="fill:#e3807e;"/><path d="M125.81,80.15s-.06,0-.09-.01c0,0-3.5-2.08-3.47-2.13s3.59,1.93,3.59,1.93c.06,.03,.08,.1,.04,.16-.02,.03-.04,.05-.07,.05Z" style="fill:#e3807e;"/><path d="M126.95,80.81h-.02s-4.85,.28-4.86,.22c0-.06,4.84-.45,4.84-.45,.06,0,.12,.04,.12,.11,0,.06-.03,.11-.09,.12Z" style="fill:#e3807e;"/><path d="M124.01,84.48c-.06-.03,1.92-3.6,1.92-3.6,.03-.06,.1-.08,.16-.04s.08,.1,.04,.16c0,0-2.09,3.5-2.12,3.49Z" style="fill:#e3807e;"/><path d="M127.93,84.42c-.05,.01-2.25-4.33-2.25-4.33-.03-.06,0-.13,.05-.16,.06-.03,.13,0,.16,.05,0,0,2.05,4.43,2.04,4.43Z" style="fill:#e3807e;"/><path d="M126.06,80.52c-.06-.02-.1-.08-.08-.14,.02-.06,.08-.1,.14-.08,0,0,3.81,1.07,3.79,1.13-.01,.04-3.85-.9-3.85-.9Z" style="fill:#e3807e;"/><path d="M125.81,80.15c-.05,.01-.11,0-.13-.06-.03-.06-.01-.13,.04-.16,0,0,3.48-1.89,3.51-1.84,.03,.06-3.39,2.04-3.39,2.04,0,0-.02,0-.03,.01Z" style="fill:#e3807e;"/><ellipse cx="125.95" cy="80.48" rx="1.09" ry="1.1" style="fill:#b0d2a1;"/><path d="M126.63,86.25c.16-.05,.61,.46,.61,.46h0c.06-.31,.23-.66,.34-.66,.39,0,.24,2.72-.14,2.75-.37,.05-1.06-2.48-.81-2.55Z" style="fill:#b6d5a3;"/><path d="M129.37,86.69c.11,.12-.12,.76-.12,.76h0c.29-.09,.68-.1,.74,0,.19,.35-2.28,1.49-2.49,1.16-.21-.31,1.68-2.1,1.86-1.91Z" style="fill:#b6d5a3;"/><path d="M130.32,88.78c-.02,.17-.65,.4-.65,.4h0c.26,.17,.52,.46,.48,.57-.14,.37-2.6-.8-2.49-1.17,.1-.36,2.68-.06,2.66,.2Z" style="fill:#b6d5a3;"/><path d="M128.96,91.08c-.15,.07-.68-.34-.68-.34h0c0,.32-.11,.69-.22,.72-.39,.08-.74-2.63-.37-2.73,.36-.11,1.5,2.24,1.27,2.35Z" style="fill:#b6d5a3;"/><path d="M126.65,91.36c-.15-.06-.19-.74-.19-.74h0c-.24,.2-.59,.37-.67,.3-.31-.24,1.5-2.28,1.82-2.06,.32,.2-.71,2.6-.95,2.5Z" style="fill:#b6d5a3;"/><path d="M125.01,89.74c-.05-.16,.42-.64,.42-.64h0c-.3-.05-.66-.2-.67-.31-.03-.39,2.69-.39,2.74,0,.06,.37-2.4,1.2-2.49,.95Z" style="fill:#b6d5a3;"/><path d="M124.85,87.65c.06-.15,.74-.2,.74-.2h0c-.2-.24-.37-.59-.3-.68,.24-.31,2.28,1.48,2.07,1.81-.19,.32-2.6-.68-2.5-.92Z" style="fill:#b6d5a3;"/><path d="M127.47,88.58s-.05,0-.06-.03c0,0-.29-1.16-.27-1.17s.36,1.14,.36,1.14c0,.03,0,.05-.03,.06Z" style="fill:#8dbe57;"/><path d="M127.47,88.58s-.02,0-.04,0c0,0-1.43-.85-1.42-.87s1.47,.79,1.47,.79c.02,.01,.03,.04,.02,.07,0,.01-.02,.02-.03,.02Z" style="fill:#8dbe57;"/><path d="M127.93,88.85h0s-1.99,.12-1.99,.09c0-.03,1.98-.18,1.98-.18,.03,0,.05,.02,.05,.04,0,.02-.01,.04-.04,.05Z" style="fill:#8dbe57;"/><path d="M126.73,90.35s.79-1.48,.79-1.48c.01-.02,.04-.03,.07-.02s.03,.04,.02,.07c0,0-.86,1.43-.87,1.43Z" style="fill:#8dbe57;"/><path d="M128.33,90.33s-.92-1.77-.92-1.77c-.01-.02,0-.05,.02-.06,.03-.01,.05,0,.06,.02l.84,1.82Z" style="fill:#8dbe57;"/><path d="M127.57,88.73s-.04-.03-.03-.06c0-.03,.03-.04,.06-.03,0,0,1.56,.44,1.55,.46,0,.02-1.58-.37-1.58-.37Z" style="fill:#8dbe57;"/><path d="M127.47,88.58s-.04,0-.05-.02c-.01-.02,0-.05,.02-.07,0,0,1.42-.78,1.44-.75,.01,.02-1.39,.84-1.39,.84h-.01Z" style="fill:#8dbe57;"/><circle cx="127.52" cy="88.71" r=".45" style="fill:#e47f3a;"/><path d="M135.09,82.81c.26-.07,.98,.74,.98,.74h0c.1-.5,.37-1.07,.55-1.07,.63,0,.39,4.37-.23,4.42-.6,.07-1.71-3.98-1.3-4.09Z" style="fill:#df6561;"/><path d="M139.49,83.52c.18,.19-.19,1.22-.19,1.22h.01c.47-.15,1.1-.17,1.18,0,.3,.56-3.66,2.39-4,1.87-.34-.49,2.7-3.38,2.99-3.07Z" style="fill:#df6561;"/><path d="M141.02,86.88c-.03,.27-1.05,.64-1.05,.64h.01c.41,.28,.83,.75,.77,.91-.23,.59-4.18-1.28-3.99-1.87,.16-.58,4.31-.1,4.26,.32Z" style="fill:#df6561;"/><path d="M138.84,90.58c-.24,.12-1.1-.54-1.1-.54h0c0,.51-.17,1.12-.35,1.15-.62,.12-1.18-4.23-.59-4.39,.57-.18,2.41,3.59,2.03,3.78Z" style="fill:#df6561;"/><path d="M135.13,91.01c-.25-.1-.31-1.19-.31-1.19h-.01c-.38,.33-.94,.6-1.08,.49-.5-.39,2.41-3.66,2.92-3.31,.51,.32-1.13,4.18-1.52,4.02Z" style="fill:#df6561;"/><path d="M132.5,88.42c-.09-.25,.68-1.02,.68-1.02h-.01c-.49-.07-1.07-.32-1.08-.5-.04-.63,4.32-.62,4.41,0,.1,.59-3.86,1.93-4,1.53Z" style="fill:#df6561;"/><path d="M132.23,85.07c.1-.25,1.18-.32,1.18-.32h0c-.32-.39-.6-.95-.49-1.09,.38-.51,3.67,2.38,3.33,2.9-.31,.52-4.17-1.09-4.01-1.48Z" style="fill:#df6561;"/><path d="M136.44,86.55s-.08-.01-.09-.05c0,0-.47-1.86-.43-1.88s.58,1.83,.58,1.83c.01,.04-.01,.08-.05,.09Z" style="fill:#e3807e;"/><path d="M136.44,86.55s-.04,0-.06,0c0,0-2.3-1.37-2.28-1.4s2.36,1.27,2.36,1.27c.04,.02,.05,.07,.03,.11-.01,.02-.03,.03-.05,.04Z" style="fill:#e3807e;"/><path d="M137.19,86.98h-.01s-3.19,.19-3.2,.14c0-.04,3.19-.3,3.19-.3,.04,0,.08,.03,.08,.07,0,.04-.02,.07-.06,.08Z" style="fill:#e3807e;"/><path d="M135.25,89.4s1.26-2.37,1.26-2.37c.02-.04,.07-.05,.1-.03s.05,.07,.03,.11c0,0-1.38,2.3-1.39,2.29Z" style="fill:#e3807e;"/><path d="M137.83,89.36s-1.48-2.85-1.48-2.85c-.02-.04,0-.08,.03-.1,.04-.02,.08,0,.1,.03,0,0,1.35,2.91,1.34,2.92Z" style="fill:#e3807e;"/><path d="M136.6,86.8s-.07-.05-.05-.09c.01-.04,.05-.06,.09-.05,0,0,2.51,.7,2.49,.74,0,.03-2.53-.59-2.53-.59Z" style="fill:#e3807e;"/><path d="M136.44,86.55s-.07,0-.09-.04c-.02-.04,0-.08,.03-.1,0,0,2.29-1.25,2.31-1.21,.02,.04-2.23,1.34-2.23,1.34h-.02Z" style="fill:#e3807e;"/><circle cx="136.52" cy="86.77" r=".72" style="fill:#e47f3a;"/><path d="M132.3,58.49c-.06,.04-.15,.03-.19-.03-.04-.06-.03-.15,.03-.19,1.11-.81,3.65,.32,3.6,.38-.02,.03-2.43-.9-3.44-.16Z" style="fill:#9f554a;"/><path d="M136.13,60.78c-.06-.04,.37-2.25-.86-3.15-.06-.04-.07-.13-.03-.19s.13-.07,.19-.03c1.35,.99,.73,3.39,.7,3.37Z" style="fill:#9f554a;"/><path d="M135.5,62.37c-.33,.09-.71,.13-1.13,.04-.71-.14-1.45-.95-1.39-1,.06-.05,.81,.6,1.44,.73,1.03,.21,1.82-.41,1.97-.54,.06-.05,.14-.04,.19,.02,.05,.06,.04,.14-.02,.19-.1,.09-.5,.4-1.07,.55Z" style="fill:#9f554a;"/><path d="M133.39,62.7s-.05,0-.07,0c-1.52-.44-1.92-3.14-1.84-3.13,.07,0,.53,2.47,1.91,2.86,.07,.02,.11,.1,.09,.17-.01,.05-.05,.08-.09,.09Z" style="fill:#9f554a;"/><circle cx="134.32" cy="59.94" r=".54" style="fill:#9f554a;"/><path d="M120.15,61.4c1.73-1.16,2.81-.53,3.34,.7,1.4-.84,3.56,.4,2.43,2.4,1.59-.29,2.28,2.27,.75,3.34,1.14,.87,.75,2.81-1.16,3.22,.45,.91-.79,3.08-2.71,2.08,0,.61-2.33,2.16-3.4,.28-1.09,.64-3.02,.25-3.01-1.61-1.32,.39-2.64-1.08-1.66-2.99-1.67-.65-1.51-3.45,.21-3.42-1.11-1.11,.13-3.29,2.02-2.76,.43-2.08,2.36-1.69,3.18-1.23Z" style="fill:#a4554a;"/><path d="M120.52,65.84c.57-.38,.93-.18,1.1,.23,.46-.28,1.18,.13,.8,.79,.53-.1,.75,.75,.25,1.1,.38,.29,.25,.93-.38,1.06,.15,.3-.26,1.02-.9,.69,0,.2-.77,.71-1.12,.09-.36,.21-1,.08-.99-.53-.44,.13-.87-.36-.55-.99-.55-.22-.5-1.14,.07-1.13-.37-.37,.04-1.09,.67-.91,.14-.69,.78-.56,1.05-.41Z" style="fill:#e58a81;"/><path d="M118.47,65.41c-.08,.05-.18,.04-.24-.04-.05-.08-.04-.18,.04-.24,1.39-1.01,4.58,.41,4.52,.48-.02,.03-3.05-1.14-4.32-.21Z" style="fill:#efde98;"/><path d="M123.28,68.29c-.08-.05,.47-2.83-1.08-3.96-.08-.06-.09-.16-.04-.24s.16-.09,.24-.04c1.7,1.24,.92,4.26,.88,4.23Z" style="fill:#efde98;"/><path d="M122.49,70.29c-.41,.11-.89,.16-1.42,.06-.89-.18-1.82-1.19-1.75-1.25,.07-.06,1.02,.76,1.81,.92,1.29,.26,2.29-.52,2.48-.68,.07-.06,.18-.05,.24,.02,.06,.07,.05,.18-.02,.24-.13,.11-.63,.5-1.34,.7Z" style="fill:#efde98;"/><path d="M119.84,70.7s-.06,0-.09,0c-1.91-.55-2.41-3.94-2.31-3.93,.09,.01,.66,3.1,2.4,3.6,.09,.03,.14,.12,.12,.21-.02,.06-.06,.1-.12,.12Z" style="fill:#efde98;"/><path d="M114.63,74.16c1.73-1.16,2.81-.53,3.34,.7,1.4-.84,3.56,.4,2.43,2.4,1.59-.29,2.28,2.27,.75,3.34,1.14,.87,.75,2.81-1.16,3.22,.45,.91-.79,3.08-2.71,2.08,0,.61-2.33,2.16-3.4,.28-1.09,.64-3.02,.25-3.01-1.61-1.32,.39-2.64-1.08-1.66-2.99-1.67-.65-1.51-3.45,.21-3.42-1.11-1.11,.13-3.29,2.02-2.76,.43-2.08,2.36-1.69,3.18-1.23Z" style="fill:#7d9895;"/><path d="M112.96,78.17c-.08,.05-.18,.04-.24-.04-.05-.08-.04-.18,.04-.24,1.39-1.01,4.58,.41,4.52,.48-.02,.03-3.05-1.14-4.32-.21Z" style="fill:#efde98;"/><path d="M117.77,81.05c-.08-.05,.47-2.83-1.08-3.96-.08-.06-.09-.16-.04-.24s.16-.09,.24-.04c1.7,1.24,.92,4.26,.88,4.23Z" style="fill:#efde98;"/><path d="M116.98,83.05c-.41,.11-.89,.16-1.42,.06-.89-.18-1.82-1.19-1.75-1.25,.07-.06,1.02,.76,1.81,.92,1.29,.26,2.29-.52,2.48-.68,.07-.06,.18-.05,.24,.02,.06,.07,.05,.18-.02,.24-.13,.11-.63,.5-1.34,.7Z" style="fill:#efde98;"/><path d="M114.33,83.46s-.06,0-.09,0c-1.91-.55-2.41-3.94-2.31-3.93,.09,.01,.66,3.1,2.4,3.6,.09,.03,.14,.12,.12,.21-.02,.06-.06,.1-.12,.12Z" style="fill:#efde98;"/><ellipse cx="114.76" cy="79.57" rx="1.28" ry="1.29" style="fill:#be9291;"/><path d="M146.98,59.63c1.58-1.06,2.57-.49,3.05,.64,1.28-.77,3.26,.37,2.22,2.2,1.46-.27,2.09,2.08,.69,3.06,1.04,.79,.69,2.57-1.06,2.95,.41,.83-.72,2.81-2.48,1.9,0,.56-2.13,1.98-3.11,.25-1,.59-2.76,.23-2.75-1.48-1.21,.36-2.41-.99-1.52-2.74-1.53-.6-1.38-3.15,.19-3.13-1.01-1.02,.12-3.01,1.85-2.52,.4-1.9,2.16-1.54,2.91-1.12Z" style="fill:#a7736a;"/><path d="M147.59,64.23c.34-.23,.55-.1,.65,.14,.27-.16,.7,.08,.48,.47,.31-.06,.45,.44,.15,.65,.22,.17,.15,.55-.23,.63,.09,.18-.15,.6-.53,.41,0,.12-.46,.42-.67,.05-.21,.13-.59,.05-.59-.32-.26,.08-.52-.21-.33-.59-.33-.13-.3-.68,.04-.67-.22-.22,.03-.64,.4-.54,.08-.41,.46-.33,.62-.24Z" style="fill:#485148;"/><path d="M145.44,63.29c-.07,.05-.17,.03-.22-.04-.05-.07-.04-.17,.03-.22,1.27-.93,4.19,.37,4.14,.44-.02,.03-2.79-1.04-3.95-.19Z" style="fill:#9f554a;"/><path d="M149.84,65.93c-.07-.05,.43-2.58-.99-3.62-.07-.05-.08-.15-.03-.22s.15-.08,.22-.03c1.55,1.13,.84,3.89,.8,3.87Z" style="fill:#9f554a;"/><path d="M149.12,67.76c-.38,.1-.82,.15-1.3,.05-.82-.16-1.66-1.09-1.6-1.15,.07-.06,.93,.69,1.66,.84,1.18,.24,2.1-.47,2.27-.62,.07-.06,.16-.05,.22,.02,.06,.07,.05,.16-.02,.22-.12,.1-.57,.46-1.23,.64Z" style="fill:#9f554a;"/><path d="M146.7,68.13s-.06,0-.08,0c-1.74-.5-2.2-3.6-2.11-3.59,.08,.01,.6,2.83,2.2,3.29,.08,.02,.13,.11,.11,.19-.02,.05-.06,.09-.11,.11Z" style="fill:#9f554a;"/><path d="M159.68,143.2c-17.3-9.78-55.14-7.6-59.46,1.09-19.46-6.52-31.35-60.84,11.89-39.11,43.24,21.73-12.97,22.81,32.43-2.17,45.41-24.99,41.08,32.59,15.14,40.2Z" style="fill:#efb17c;"/><g><path d="M152.11,114.96c0,3.44,5.41,8.69,9.73,8.69,3.89,0,9.5-5.26,10.6-8.69h-20.33Z" style="fill:#f8d452;"/><path d="M161.84,123.85c-3.83,0-9.93-4.86-9.93-8.89v-.2h20.81l-.08,.27c-1.17,3.65-6.95,8.83-10.8,8.83Zm-9.52-8.69c.21,3.28,5.28,8.28,9.52,8.28,3.1,0,8.84-4.23,10.32-8.28h-19.84Z"/></g><path d="M172.87,110.12c6.28-3.85-.96-4.94-6.99-4.84-5.8,.1-12.38,1.75-14.53,8.53-.18,.57,.23,1.15,.82,1.15h8.6c5.79,0,6.55-1.44,12.1-4.84Z" style="fill:#e68643;"/><path d="M171.17,104.17c-3.08,.02-5.93,.62-8.36,1.33,1.03-.13,2.06-.2,3.07-.22,6.03-.1,13.26,.99,6.99,4.84-5.55,3.4-6.44,4.84-12.23,4.84h-2.35c7.88,0,12.36,.67,17.61-1.09,9.73-3.26,9.73-4.62,17.3-6.52,4.32-1.09-10.81-3.26-22.02-3.18Z" style="fill:#81cae2;"/><path d="M156.51,114.96c1.01,2.17,2.35,3.26,4.79,3.26s3.78-2.17,4.86-3.26h-9.66Z"/><g><path d="M108.15,115.93c-.39,.07-.87,.11-1.44,.11-1.7-.06-9.14,.69-13.06,.4-.63,3.2,3.42,7.2,5.5,7.2,5.63,1.39,6.49-2.17,9.73-6.52,.55-.73,.39-1.07-.72-1.2Z" style="fill:#f8d452;"/><path d="M101.36,124.16c-.67,0-1.42-.1-2.27-.31h0c-1.07,0-2.73-1.08-3.99-2.63-1.33-1.63-1.93-3.38-1.64-4.82l.03-.18h.18c2.51,.2,6.51-.05,9.43-.23,1.68-.1,3.01-.18,3.62-.16,.52,0,.99-.04,1.4-.11h.06c.69,.08,1.03,.24,1.16,.53,.14,.33-.09,.7-.3,.99-.61,.81-1.12,1.58-1.62,2.33-1.72,2.58-3.05,4.58-6.05,4.58Zm-7.55-7.5c-.18,1.28,.39,2.84,1.59,4.3,1.18,1.44,2.75,2.48,3.74,2.48,4.48,1.1,5.86-.96,7.94-4.09,.5-.75,1.02-1.53,1.63-2.35,.28-.37,.28-.53,.25-.59-.03-.07-.18-.21-.8-.28-.42,.07-.91,.11-1.45,.11-.6-.02-1.92,.06-3.59,.16-2.86,.17-6.76,.41-9.3,.25Z"/></g><path d="M98.1,116.46c.21,1.6,1.55,2.84,3.2,2.84,1.78,0,4.3-1.45,4.32-3.24-1.71,.07-4.7,.3-7.52,.4Z"/><path d="M98.3,114.68c-4.16-.1-8.69-3.03-8.74-4.92,0-.1,.03-.21,.05-.31,.3-1.16,2.38-2.16,4.88-2.74,.19-.12,.36-.24,.53-.35-.16,.11-.34,.23-.53,.35,2.22-.52,4.74-.7,6.59-.37,1.58,.29,3.27,1.14,4.76,2.22-1.62-1.81-5.44-3.83-9.96-3.64h.01s-.01,0-.02,0c-2.7-.21-14.89-.64-19.09-.78-.28,0-.35,.38-.09,.48,5.31,2.13,9.65,4.21,6.62,6.99h0c-1.84,1.33-4.62,2.55-10.12,3.34-6.45,.93,12.97-2.17,18.38,1.09,2.16,1.09,13.04-.07,15.14,0,3.24,0,3.34-1.3,3.36-1.76-.55,1.52-6.65,.53-11.76,.4Zm-2.88-8.62s.03-.02,.05-.03c-.01,.01-.03,.02-.05,.03Z" style="fill:#81cae2;"/><path d="M110.12,114.03c.05,1.88-6.43,.79-11.82,.66-4.16-.1-8.69-3.03-8.74-4.92-.06-2.34,7.41-4.17,11.52-3.42,4.11,.74,8.97,5.34,9.03,7.68Z" style="fill:#e68643;"/><path d="M138.39,135.28c-.26-.13-.57-.06-.76,.15l-10.14,11.31c.05,.2,.09,.4,.14,.6,.44,1.98,.9,4.02,1.93,5.57,.32,.47,1.04,.36,1.18-.19,.78-3.01,3.18-10.6,8.06-13.27,2.08-1.14,4.42-1.43,6.97-.86,.11,.02,.22,.05,.32,.07-.3-.13-.61-.26-.91-.38-2.36-.99-4.71-2.01-6.78-3.01Z"/><g><path d="M126.79,156.55c-4.95-5.74-.63-19.86-12.52-18.78,7.57-3.26,10.81-10.86,10.81-10.86,0,0,2.19-5.3,3.8,.07,1.61,5.37,25.39,14.06,13.5,10.8-11.89-3.26-14.59,18.84-14.59,18.84-.26,.34-.79,.31-1-.07Z" style="fill:#3c502b;"/><path d="M127.32,157.39s-.05,0-.07,0c-.36-.02-.69-.22-.89-.52-1.87-2.2-2.46-5.48-3.04-8.65-1.02-5.66-1.91-10.57-9-9.91l-3.4,.31,3.14-1.35c7.28-3.14,10.5-10.5,10.53-10.58,.19-.45,1.21-2.72,2.65-2.66,.91,.05,1.61,.96,2.16,2.79,.83,2.76,8.76,6.87,13.03,9.08,3.57,1.85,4.03,2.09,3.77,2.74-.22,.56-.58,.59-3.96-.34-2.23-.61-4.28-.31-6.08,.91-6.14,4.14-7.81,17.34-7.83,17.47l-.02,.15-.09,.12c-.22,.28-.55,.44-.91,.44Zm-10.75-20.18c5.97,.57,6.94,5.97,7.82,10.81,.55,3.05,1.12,6.2,2.82,8.17l.06,.08s.01,.02,.03,.03c.26-1.92,2.13-13.85,8.26-18,2.08-1.4,4.42-1.76,6.97-1.06,.11,.03,.22,.06,.32,.09-.3-.16-.61-.32-.91-.47-6.38-3.3-12.68-6.78-13.57-9.73-.57-1.89-1.08-2.01-1.18-2.02-.48,.02-1.25,1.17-1.6,2-.13,.29-2.82,6.48-9.02,10.1Z"/></g><g><path d="M127.23,156.08h0c.03-.09,.06-.17,.09-.24,.02-.03,.04-.06,.06-.09,.01-.02,.03-.03,.04-.05-.51-2.39-.92-4.86-1.2-7.43-.94-8.78-.27-16.97,1.58-23.42-1.36-1.23-2.72,2.06-2.72,2.06,0,0-3.24,7.6-10.81,10.86,11.71-1.07,7.7,12.6,12.3,18.5,.06-.03,.12-.06,.18-.08,.13-.03,.27-.02,.4-.02,.02-.03,.04-.06,.06-.08h0Z" style="fill:#56703c;"/><path d="M126.47,156.79l-.21-.27c-1.68-2.16-2.25-5.3-2.8-8.33-.99-5.49-1.94-10.67-9.15-10.02l-2.54,.23,2.35-1.01c7.32-3.15,10.57-10.58,10.6-10.65,.09-.23,.97-2.27,2.18-2.55,.29-.07,.74-.06,1.19,.35l.19,.17-.07,.24c-1.91,6.62-2.47,14.88-1.57,23.26,.26,2.43,.65,4.85,1.19,7.39l.04,.18-.1,.15-.43-.1,.36,.19c-.03,.05-.05,.11-.07,.16l-.02,.13-.09,.06-.12,.15-.22,.04c-.15,0-.25,0-.32,.01l-.37,.2Zm-10.36-19.48c6.25,.3,7.21,5.6,8.14,10.73,.51,2.82,1.04,5.74,2.47,7.74,.07-.01,.13-.02,.19-.02,.02-.04,.03-.08,.05-.11l.02-.04c-.53-2.51-.91-4.9-1.17-7.3-.89-8.36-.36-16.62,1.52-23.29-.11-.05-.2-.04-.27-.03-.6,.14-1.31,1.34-1.61,2.07-.13,.3-2.91,6.69-9.34,10.25Z"/></g><g><path d="M126.79,156.55c-4.95-5.74-.63-19.86-12.52-18.78,7.57-3.26,10.81-10.86,10.81-10.86,0,0,2.19-5.3,3.8,.07,1.61,5.37,25.39,14.06,13.5,10.8-11.89-3.26-14.59,18.84-14.59,18.84-.26,.34-.79,.31-1-.07Z" style="fill:#3c502b;"/><path d="M127.32,157.26s-.04,0-.06,0c-.32-.02-.61-.19-.79-.46-1.85-2.17-2.44-5.44-3.01-8.6-.99-5.49-1.91-10.67-9.14-10.02l-2.54,.23,2.35-1.01c7.32-3.15,10.57-10.58,10.6-10.65,.11-.26,1.11-2.58,2.46-2.58,.02,0,.04,0,.06,0,.84,.04,1.51,.92,2.04,2.69,.84,2.82,8.81,6.94,13.09,9.16,3.53,1.83,3.91,2.05,3.71,2.56-.17,.43-.38,.52-3.8-.42-2.27-.62-4.35-.31-6.19,.93-6.19,4.18-7.87,17.44-7.89,17.57v.11l-.08,.09c-.19,.25-.49,.39-.8,.39Zm-11.2-19.94c6.25,.3,7.21,5.6,8.13,10.73,.55,3.07,1.13,6.24,2.85,8.23l.04,.06c.05,.08,.12,.1,.16,.1,.03,0,.07,0,.11-.02,.21-1.56,2.01-13.81,8.22-18,2.04-1.38,4.35-1.73,6.86-1.04,.59,.16,1.08,.29,1.47,.39-.58-.31-1.28-.67-1.96-1.03-6.35-3.29-12.63-6.74-13.5-9.65-.56-1.88-1.1-2.1-1.31-2.11h-.02c-.58,0-1.35,1.21-1.71,2.08-.13,.3-2.91,6.69-9.34,10.26Z"/></g><g><path d="M126.63,151.12c-2.04-9.35-1.49-18.51,1.1-26.34-1.34-1.05-2.65,2.12-2.65,2.12,0,0-3.24,7.6-10.81,10.86,11.89-1.09,7.57,13.04,12.52,18.78,.22,.37,.74,.41,1,.07,0,0,.03-.27,.11-.73-.49-1.55-.92-3.13-1.28-4.76Z" style="fill:#56703c;"/><path d="M127.32,157.26s-.04,0-.06,0c-.34-.02-.64-.21-.81-.5-1.83-2.11-2.42-5.39-2.99-8.56-.99-5.49-1.91-10.67-9.14-10.02l-2.54,.23,2.35-1.01c7.32-3.15,10.57-10.58,10.6-10.65,.09-.22,.95-2.22,2.13-2.54,.39-.1,.79-.02,1.14,.25l.23,.18-.09,.27c-2.68,8.09-3.06,17.12-1.09,26.12h0c.33,1.53,.76,3.12,1.27,4.72l.03,.09-.02,.09c-.07,.45-.11,.72-.11,.72v.11l-.08,.09c-.19,.25-.49,.39-.8,.39Zm-11.2-19.94c6.25,.3,7.21,5.6,8.13,10.73,.55,3.07,1.13,6.24,2.85,8.23,.09,.14,.17,.16,.21,.16,.03,0,.07,0,.11-.02,.02-.11,.04-.28,.08-.51-.5-1.59-.92-3.17-1.26-4.7-1.97-9.02-1.62-18.08,1.01-26.22-.08-.02-.14,0-.19,0-.6,.16-1.3,1.35-1.59,2.07-.13,.3-2.91,6.69-9.34,10.25Z"/></g><g style="opacity:.4;"><g><path d="M81.84,112.78c-3.5,4.22-.67,11.4,2.16,15.21,6.77,9.1,22.97,9.15,31.35,1.09,.74-.71,6.49-6.52,5.41-13.04-2.16-8.69-32.69-10.78-38.92-3.26Z" style="fill:#fff;"/><path d="M99.72,135.39c-.71,0-1.41-.03-2.12-.09-5.87-.49-10.94-3.06-13.92-7.06-2.88-3.88-5.84-11.26-2.15-15.71,4.13-4.99,18.38-5.86,28.58-3.52,6.37,1.46,10.29,3.93,11.04,6.94,1.13,6.81-4.83,12.77-5.52,13.43-3.99,3.84-9.82,6.01-15.92,6.01Zm-1.06-26.79c-7.2,0-14.01,1.43-16.51,4.45h0c-3.36,4.06-.45,11.18,2.17,14.71,2.84,3.81,7.7,6.27,13.33,6.74,6.53,.54,13.19-1.64,17.42-5.7,.65-.63,6.34-6.31,5.29-12.68-.65-2.63-4.46-4.94-10.43-6.31-3.47-.8-7.42-1.2-11.27-1.2Z" style="fill:#fff;"/></g><g><path d="M173.33,112.78c-6.23-7.52-36.76-5.43-38.92,3.26-1.08,6.52,4.66,12.32,5.41,13.04,8.39,8.06,24.58,8.01,31.35-1.09,2.83-3.81,5.66-10.99,2.16-15.21Z" style="fill:#fff;"/><path d="M155.45,135.39c-6.09,0-11.92-2.18-15.92-6.01-.68-.66-6.65-6.63-5.52-13.4,.76-3.04,4.68-5.51,11.05-6.97,10.2-2.34,24.45-1.47,28.58,3.52h0c3.69,4.45,.73,11.84-2.15,15.71-2.98,4-8.05,6.57-13.92,7.06-.71,.06-1.42,.09-2.12,.09Zm1.06-26.79c-3.85,0-7.8,.41-11.27,1.2-5.97,1.37-9.77,3.68-10.44,6.34-1.05,6.33,4.64,12.02,5.29,12.64,4.22,4.06,10.9,6.24,17.42,5.7,5.64-.47,10.5-2.93,13.33-6.74,2.63-3.53,5.54-10.64,2.17-14.71h0c-2.5-3.02-9.31-4.45-16.51-4.45Z" style="fill:#fff;"/></g></g><g style="opacity:.8;"><path d="M180.27,109.53c-30.27-6.52-39.86-.71-49.73,3.26v.02c-1.82,.46-3.63,.47-5.45,0v-.03c-9.88-3.97-19.46-9.78-49.73-3.26-.01,.66-.01,1.86,0,4.35,4.11,.83,2.6,11.69,9.7,17.81,3.61,3.11,8.19,3.61,9.76,3.92,0,0,5.59,1.09,10.81,0,12.61-2.63,18.96-17.28,19.46-18.47v-.04c1.82-.51,3.63-.51,5.45,.01v.03c.51,1.37,6.03,15.54,18.33,18.47,5.41,1.29,11.12,.17,11.94,0,1.85-.38,6.25-.89,9.76-3.92,7.1-6.12,5.59-16.99,9.7-17.81,.01-2.48,.01-3.68,0-4.35Zm-64.91,19.55c-8.39,8.06-24.58,8.01-31.35-1.09-2.83-3.81-5.66-10.99-2.16-15.21,6.23-7.52,36.76-5.43,38.92,3.26,1.08,6.52-4.66,12.32-5.41,13.04Zm55.81-1.09c-6.77,9.1-22.97,9.15-31.35,1.09-.74-.71-6.49-6.52-5.41-13.04,2.16-8.69,32.69-10.78,38.92-3.26,3.5,4.22,.67,11.4-2.16,15.21Z" style="fill:#e4e4e4;"/><path d="M154.51,136.51c-1.79,0-3.77-.15-5.71-.62-12.1-2.88-17.71-16.47-18.5-18.54-1.65-.45-3.32-.45-4.97,0-.86,2.03-7.2,15.96-19.64,18.55-5.23,1.09-10.87,.01-10.93,0-.17-.03-.36-.07-.59-.11-1.95-.34-6.01-1.04-9.31-3.88-3.91-3.37-5.24-8.1-6.31-11.91-.86-3.07-1.55-5.49-3.25-5.84l-.24-.05v-.25c-.01-2.45-.02-3.68,0-4.35v-.24l.24-.05c27.78-5.98,38.19-1.62,47.37,2.23,.85,.36,1.69,.71,2.53,1.05l.16,.07c1.66,.39,3.34,.38,5-.03l.07-.04c.84-.34,1.68-.69,2.53-1.05,9.19-3.85,19.6-8.21,47.37-2.23l.23,.05v.24c.02,.65,.02,1.82,0,4.35v.25l-.24,.05c-1.7,.34-2.39,2.77-3.25,5.84-1.07,3.8-2.4,8.54-6.31,11.91-3.18,2.74-7.09,3.46-9.19,3.85-.26,.05-.5,.09-.71,.13-.69,.14-3.24,.61-6.36,.61Zm-23.67-19.44c.67,1.79,6.17,15.39,18.1,18.23,5.19,1.24,10.75,.22,11.81,0,.21-.04,.45-.09,.72-.14,2.04-.38,5.85-1.08,8.9-3.71,3.77-3.25,5.08-7.89,6.12-11.61,.88-3.14,1.59-5.64,3.47-6.21,.01-2.09,.01-3.2,0-3.86-27.41-5.87-37.7-1.56-46.78,2.24-.8,.33-1.58,.66-2.37,.98v.03l-.21,.08c-1.85,.47-3.73,.48-5.6,.01l-.21-.05v-.06c-.79-.32-1.58-.65-2.37-.98-9.08-3.8-19.37-8.11-46.78-2.24,0,.68,0,1.83,0,3.86,1.88,.56,2.59,3.07,3.47,6.21,1.05,3.72,2.35,8.36,6.12,11.61,3.17,2.73,7.12,3.41,9.01,3.74,.23,.04,.44,.08,.61,.11,.06,.01,5.59,1.07,10.69,0,5.2-1.09,9.94-4.34,14.09-9.66,3.1-3.98,4.77-7.74,5.13-8.58v-.17l.22-.1c1.87-.53,3.76-.52,5.62,.01l.22,.06v.2Zm24.61,18.22c-6.07,0-11.87-2.17-15.85-5.99-.68-.65-6.61-6.58-5.5-13.31,.74-3,4.64-5.43,10.97-6.89,10.17-2.34,24.37-1.48,28.48,3.48,3.65,4.41,.71,11.74-2.15,15.59h0c-2.96,3.98-8,6.54-13.84,7.02-.71,.06-1.41,.09-2.12,.09Zm1.07-26.87c-3.57,0-7.43,.39-11.31,1.28-6.01,1.38-9.84,3.72-10.51,6.42-1.06,6.39,4.66,12.11,5.32,12.74,4.24,4.08,10.95,6.28,17.49,5.73,5.67-.47,10.55-2.94,13.41-6.78,2.75-3.7,5.6-10.7,2.17-14.83-2.19-2.65-8.68-4.56-16.57-4.56Zm14.64,19.57h0Zm-71.45,7.29c-.7,0-1.41-.03-2.12-.09-5.84-.49-10.89-3.05-13.84-7.02-2.86-3.85-5.8-11.18-2.15-15.59,4.11-4.96,18.31-5.82,28.48-3.48,6.33,1.45,10.22,3.89,10.97,6.86,1.12,6.75-4.81,12.68-5.49,13.33-3.97,3.82-9.78,5.99-15.85,5.99Zm-1.07-26.87c-7.89,0-14.38,1.91-16.57,4.56-3.42,4.13-.58,11.14,2.17,14.83,2.85,3.84,7.74,6.31,13.41,6.78,6.55,.55,13.25-1.65,17.49-5.73h0c.66-.63,6.38-6.35,5.32-12.77-.67-2.67-4.5-5.01-10.51-6.39-3.88-.89-7.74-1.28-11.31-1.28Z" style="fill:#fff;"/></g><path d="M129.79,170.55v36.84c.12,0,.24-.06,.33-.15l2.48-2.73h0l-2.81-33.95Z" style="fill:#444240;"/><path d="M129.79,170.55v36.84c-.12,0-.24-.06-.33-.15l-2.48-2.73h0l2.81-33.95Z" style="fill:#949492;"/><path d="M129.57,162.25l-3.42,5.98,3.58,1.65-.16-7.63Z" style="fill:#949492;"/><path d="M129.57,162.25l3.67,5.83-3.51,1.8-.16-7.63Z" style="fill:#444240;"/><path d="M129.66,166.87l-3.52,1.36q3.58,1.65,3.58,1.65l-.06-3.01Z" style="fill:#494844;"/><path d="M129.66,166.87l3.57,1.21q-3.51,1.8-3.51,1.8l-.06-3.01Z" style="fill:#272622;"/><path d="M129.74,170.41l.06,2.86,3.45-4.71-3.51,1.85Z" style="fill:#444240;"/><path d="M129.74,170.41l.06,2.86-3.64-4.56,3.58,1.7Z" style="fill:#949492;"/></g><g id="j"/><g id="k"/><g id="l"/><g id="m"><path d="M141.36,64.3c-.06,.02-.12,0-.17-.05-.06-.07-.05-.17,.01-.23,.95-1.8,3.12-3.62,4.6-3.91,1.83-.36,1.22,2.98-4.38,4.16-.02,.02-.04,.03-.07,.04Z" style="fill:#726948;"/><path d="M141.54,61.21s-.1,.04-.16,.02c-.07-.04-.11-.12-.07-.2,.16-1.85,1.34-4.15,2.48-4.93,1.41-.95,2.08,2.07-2.21,5.05-.01,.02-.02,.04-.04,.05Z" style="fill:#726948;"/><path d="M140.77,57.3s-.06,.05-.1,.04c-.06-.01-.09-.06-.08-.12-.23-1.28,.15-3.06,.78-3.79,.78-.91,1.79,1.02-.58,3.83,0,.02,0,.03-.02,.04Z" style="fill:#726948;"/><path d="M138.79,49.93c-.18,.94,.37,2.63,1.18,3.63,1.8,7.13,1.5,12.72-.95,16.61-.05,.08-.03,.18,.05,.23,.04,.03,.09,.03,.13,.02,.04-.01,.07-.03,.1-.07,2.52-4.01,2.81-9.76,.93-17.08,.49-3.4-1.23-4.48-1.44-3.33Z" style="fill:#726948;"/><path d="M140.13,68.8c-.06,.02-.12,0-.17-.05-.06-.07-.05-.17,.01-.23,.95-1.8,3.12-3.62,4.6-3.91,1.83-.36,1.22,2.98-4.38,4.16-.02,.02-.04,.03-.07,.04Z" style="fill:#726948;"/><path d="M139.98,68.61c.03,.05,.03,.12,0,.17-.05,.08-.15,.1-.23,.05-1.97-.45-4.3-2.08-4.96-3.44-.82-1.68,2.54-1.97,5.14,3.16,.02,.01,.04,.03,.05,.05Z" style="fill:#726948;"/><path d="M140.78,65.94c.02,.06,.01,.12-.03,.17-.06,.07-.16,.08-.23,.02-1.45-1.2-3.71-2.99-4.46-4.08-1.13-1.65,3.35-2.57,4.67,3.83,.02,.02,.03,.04,.04,.06Z" style="fill:#726948;"/><path d="M141.22,61.81s.01,.09-.02,.12c-.04,.05-.11,.05-.16,.01-1.02-.84-2.59-2.08-3.11-2.85-.79-1.15,2.34-1.79,3.26,2.67,.01,.01,.02,.03,.03,.04Z" style="fill:#726948;"/><path d="M141.06,57.65s.01,.09-.02,.12c-.04,.05-.11,.05-.16,.01-1.02-.84-2.59-2.08-3.11-2.85-.79-1.15,2.34-1.79,3.26,2.67,.01,.01,.02,.03,.03,.04Z" style="fill:#726948;"/><path d="M116.27,65.01c-.06,.02-.12,0-.17-.05-.06-.07-.05-.17,.01-.23,.95-1.8,3.12-3.62,4.6-3.91,1.83-.36,1.22,2.98-4.38,4.16-.02,.02-.04,.03-.07,.04Z" style="fill:#323347;"/><path d="M116.19,61.92s-.1,.04-.16,.02c-.07-.04-.11-.12-.07-.2,.16-1.85,1.34-4.15,2.48-4.93,1.41-.95,2.08,2.07-2.21,5.05-.01,.02-.02,.04-.04,.05Z" style="fill:#323347;"/><path d="M115.42,58s-.06,.05-.1,.04c-.06-.01-.09-.06-.08-.12-.23-1.28,.15-3.06,.78-3.79,.78-.91,1.79,1.02-.58,3.83,0,.02,0,.03-.02,.04Z" style="fill:#323347;"/><path d="M113.43,50.64c-.18,.94,.37,2.63,1.18,3.63,1.8,7.13,1.5,12.72-.95,16.61-.05,.08-.03,.18,.05,.23,.04,.03,.09,.03,.13,.02,.04-.01,.07-.03,.1-.07,2.52-4.01,2.81-9.76,.93-17.08,.49-3.4-1.23-4.48-1.44-3.33Z" style="fill:#323347;"/><path d="M114.77,69.51c-.06,.02-.12,0-.17-.05-.06-.07-.05-.17,.01-.23,.95-1.8,3.12-3.62,4.6-3.91,1.83-.36,1.22,2.98-4.38,4.16-.02,.02-.04,.03-.07,.04Z" style="fill:#323347;"/><path d="M114.63,69.31c.03,.05,.03,.12,0,.17-.05,.08-.15,.1-.23,.05-1.97-.45-4.3-2.08-4.96-3.44-.82-1.68,2.54-1.97,5.14,3.16,.02,.01,.04,.03,.05,.05Z" style="fill:#323347;"/><path d="M115.42,66.65c.02,.06,.01,.12-.03,.17-.06,.07-.16,.08-.23,.02-1.45-1.2-3.71-2.99-4.46-4.08-1.13-1.65,3.35-2.57,4.67,3.83,.02,.02,.03,.04,.04,.06Z" style="fill:#323347;"/><path d="M115.73,62.51s.01,.09-.02,.12c-.04,.05-.11,.05-.16,.01-1.02-.84-2.59-2.08-3.11-2.85-.79-1.15,2.34-1.79,3.26,2.67,.01,.01,.02,.03,.03,.04Z" style="fill:#323347;"/><path d="M115.97,58.35s.01,.09-.02,.12c-.04,.05-.11,.05-.16,.01-1.02-.84-2.59-2.08-3.11-2.85-.79-1.15,2.34-1.79,3.26,2.67,.01,.01,.02,.03,.03,.04Z" style="fill:#323347;"/></g><g id="n"/><g id="o"/><g id="p"/></svg>