<?xml version="1.0" encoding="UTF-8"?><svg xmlns="http://www.w3.org/2000/svg" viewBox="0 0 255 257"><g id="a"/><g id="b"/><g id="c"/><g id="d"/><g id="e"/><g id="f"/><g id="g"/><g id="h"><rect width="255" height="257" style="fill:#c5ffc2;"/></g><g id="i"><g><path d="M71.34,137.77h126.27c.06,0,.11,.05,.11,.11v118.2c0,.06-.05,.11-.11,.11H71.34c-.06,0-.11-.05-.11-.11v-118.2c0-.06,.05-.11,.11-.11Z" style="fill:#ddbc9c;"/><path d="M197.62,257H71.34c-.51,0-.92-.41-.92-.92v-118.2c0-.51,.41-.92,.92-.92h126.27c.51,0,.92,.41,.92,.92v118.2c0,.51-.41,.92-.92,.92Zm-125.57-1.63h124.87v-116.79H72.04v116.79Z"/></g><g><path d="M123.41,175.48c.35-1.06-2.53-.45-1.68-1.13,2.81-2.26,.56-5.08-.56-5.08-.94,0-3.18,.46-3.93,2.26-.79,1.89,.86,3.22,0,5.64-.47,1.33-1.49,2.36-1.68,2.26-.17-.09,.31-.93,.56-2.26,.54-2.87-.79-3.96,0-5.64,.73-1.56,2.38-1.66,2.24-2.26-1.68,.56-3.93,0-5.05,0s-1.68,2.26-1.4,1.97,.28-.85,1.12-.56c.84,.28,3.65-.28,2.53,.28-1.12,.56-1.68,2.26-1.68,2.82,0,1.13-1.68,0-2.24,1.69-.06,.18,1.4-.58,2.24,0,.34,.23,1,1.13,.56,1.13-1.68,0-1.77,1.47-1.68,1.69,.08,.2,1.39-.38,1.68,0,.54,.68-2.83,3.71-2.24,4.51,.21,.28,.88,.28,1.12,0,.27-.31-.17-.78,0-1.13,.35-.74,2.81-1.13,5.61,0,.99,.4,0-1.13,3.93-1.69,1.35-.19,0-2.82,.56-4.51Zm-2.24,3.38c-.91,.98-3.21,.6-3.37,0-.11-.43,.99-.58,1.68-1.69,1.31-2.11-.8-4.62,.56-6.2,.3-.35,.82-.71,1.12-.56,.51,.24,.02,1.64,0,3.95-.03,2.86,.69,3.76,0,4.51Z" style="fill:#aaa;"/><path d="M112.73,183.12s-.03,0-.05,0c-.26-.01-.47-.1-.58-.25-.35-.48,.39-1.47,1.17-2.52,.57-.77,1.29-1.73,1.07-1.99-.14-.17-.67-.06-1.02,0-.39,.08-.62,.13-.68-.04-.05-.14-.06-.67,.26-1.14,.22-.32,.66-.69,1.52-.69,.03,0,.04,0,.04,0,.06-.1-.35-.72-.66-.94-.54-.37-1.39-.14-1.84-.02-.26,.07-.35,.1-.42,.03l-.04-.04,.02-.08c.33-.98,1.03-1.08,1.55-1.14,.47-.06,.69-.11,.69-.52,0-.61,.59-2.33,1.74-2.91,.05-.03,.09-.05,.12-.07-.18-.01-.52,0-.82,.02-.67,.04-1.42,.08-1.82-.05-.56-.19-.68,.02-.83,.27-.06,.09-.11,.19-.19,.27-.08,.08-.15,.05-.17,.04-.06-.04-.11-.12-.02-.48,.16-.59,.68-1.7,1.52-1.7,.33,0,.75,.05,1.23,.1,1.16,.13,2.61,.3,3.79-.1l.11-.04,.02,.11c.07,.33-.25,.53-.67,.77-.5,.3-1.19,.7-1.59,1.55-.38,.81-.25,1.47-.08,2.32,.16,.82,.36,1.85,.09,3.3-.12,.67-.31,1.21-.44,1.61-.07,.22-.15,.45-.15,.54,.21-.07,1.09-.98,1.52-2.2,.44-1.23,.21-2.16,0-3.06-.2-.85-.39-1.65,0-2.59,.8-1.9,3.17-2.32,4.02-2.32,.6,0,1.48,.71,1.85,1.78,.25,.73,.43,2.15-1.23,3.48-.11,.09-.12,.12-.12,.13,.04,.04,.36,.08,.57,.1,.48,.05,1.03,.11,1.23,.42,.08,.12,.09,.27,.03,.44h0c-.23,.7-.12,1.59-.03,2.38,.13,1.07,.25,2.08-.62,2.2-2.41,.35-2.94,1.05-3.22,1.44-.18,.25-.32,.43-.76,.25-2.87-1.15-5.18-.69-5.48-.05-.06,.13-.02,.29,.03,.46,.06,.23,.13,.48-.05,.69-.16,.18-.43,.24-.65,.24Zm1.31-5.06c.2,0,.37,.04,.47,.17,.31,.39-.33,1.25-1.07,2.24-.64,.86-1.43,1.92-1.17,2.28,.07,.1,.23,.16,.43,.17,.22,.01,.44-.06,.54-.17,.1-.12,.07-.27,0-.5-.05-.19-.11-.41-.02-.6,.38-.79,2.86-1.21,5.74-.05,.3,.12,.35,.06,.52-.18,.3-.4,.86-1.16,3.35-1.52,.64-.09,.59-.81,.44-1.98-.1-.81-.21-1.72,.04-2.47h0c.04-.11,.03-.2-.01-.27-.14-.22-.66-.28-1.08-.32-.42-.05-.7-.08-.75-.25-.04-.13,.09-.25,.19-.33,1.56-1.26,1.4-2.58,1.17-3.26-.34-.97-1.15-1.64-1.66-1.64-.81,0-3.08,.39-3.84,2.19-.37,.88-.19,1.65,0,2.46,.21,.88,.45,1.89,0,3.17-.41,1.16-1.26,2.16-1.64,2.31-.07,.03-.13,.03-.18,0-.16-.08-.09-.3,.08-.78,.13-.39,.31-.93,.43-1.58,.26-1.41,.08-2.37-.09-3.22-.17-.84-.31-1.57,.1-2.44,.43-.91,1.14-1.33,1.67-1.64,.3-.18,.5-.3,.56-.43-1.19,.35-2.59,.19-3.73,.06-.48-.05-.89-.1-1.21-.1-.29,0-.56,.17-.81,.49-.29,.37-.47,.85-.53,1.13,.01-.02,.02-.03,.03-.05,.16-.27,.36-.6,1.07-.36,.36,.12,1.13,.08,1.74,.04,.81-.05,1.06-.05,1.11,.11,.03,.12-.09,.21-.31,.32-1.06,.53-1.63,2.17-1.63,2.73,0,.6-.44,.66-.87,.72-.49,.06-1.04,.14-1.33,.88,.05-.01,.1-.03,.15-.04,.49-.13,1.39-.38,2.01,.05,.26,.18,.83,.86,.74,1.16-.01,.05-.06,.15-.23,.15-.62,0-1.07,.2-1.35,.6-.25,.37-.27,.8-.24,.93,.07,.01,.3-.03,.46-.07,.25-.05,.52-.11,.74-.11Zm5.42,1.5c-.31,0-.61-.04-.88-.11-.49-.12-.81-.33-.88-.57-.07-.27,.19-.45,.52-.66,.35-.23,.82-.54,1.18-1.11,.64-1.03,.44-2.15,.24-3.24-.2-1.1-.38-2.15,.33-2.97,.29-.33,.85-.77,1.24-.59,.37,.17,.31,.78,.21,1.78-.06,.61-.14,1.37-.15,2.26-.01,1.21,.11,2.08,.2,2.71,.12,.87,.2,1.4-.23,1.87h0c-.42,.46-1.11,.64-1.78,.64Zm1.55-9.1c-.25,0-.63,.27-.89,.56-.65,.75-.47,1.75-.28,2.8,.2,1.13,.41,2.29-.27,3.39-.38,.61-.88,.93-1.24,1.17-.3,.2-.47,.31-.43,.44,.04,.16,.33,.33,.73,.43,.82,.2,1.93,.11,2.47-.47h0c.37-.4,.3-.83,.18-1.7-.09-.64-.22-1.52-.21-2.74,0-.9,.09-1.67,.15-2.28,.09-.88,.15-1.46-.09-1.57-.03-.02-.07-.02-.11-.02Z" style="fill:#828383;"/></g><g><path d="M129.86,173.65c0-.09-.06-.16-.15-.17-.47-.08-1.96-.4-2.66-1.1-.84,1.41-2.28,.91-2.24,1.13,.27,1.89,.28,3.59,.28,5.65,0,.27,.12,.27,.27,.29,1.5,.19,2.26,1.96,2.26,1.96,0,0,.5-1.51,2.22-1.92,.15-.03,.25-.17,.23-.32-.18-1.04-.2-4.73-.2-5.51Zm-1.96,5.21l-1.12-.56v-3.95l1.12,.56v3.95Z" style="fill:#aaa;"/><path d="M127.63,181.69l-.11-.24s-.75-1.71-2.18-1.9c-.17-.02-.36-.04-.36-.39,0-2.22-.02-3.81-.28-5.63,0-.04,0-.08,.03-.11,.06-.07,.16-.07,.35-.08,.46-.02,1.3-.05,1.88-1l.07-.11,.09,.09c.68,.69,2.17,1,2.61,1.08,.13,.02,.23,.13,.23,.27h0c0,.45,.01,4.42,.2,5.5,.03,.2-.1,.39-.3,.44-1.64,.38-2.14,1.83-2.15,1.85l-.08,.25Zm-2.71-8.14c.26,1.82,.27,3.41,.27,5.61,0,.17,.02,.17,.15,.19h.03c1.25,.16,1.98,1.33,2.24,1.81,.21-.44,.83-1.45,2.2-1.77,.1-.02,.17-.11,.15-.2-.19-1.09-.2-5.08-.2-5.53,0-.03-.03-.06-.06-.07-.56-.1-1.89-.4-2.62-1.05-.63,.95-1.53,.98-1.97,1-.06,0-.14,0-.18,.01Zm3.08,5.48l-1.32-.67v-4.17l1.32,.67v4.18Zm-1.12-.79l.92,.46v-3.72l-.92-.46v3.72Z" style="fill:#828383;"/></g><g><path d="M136.88,170.97c-1.12,0-1.12,1.13-.56,1.13-.75,.65-1.68,.56-3.37,0-.56,1.13-1.68,1.69-1.68,1.69v2.82c0-.56,1.12,.56,1.68,1.13,1-.46,3.93-4.51,4.49-5.08,.56-1.13-.33-1.69-.56-1.69Zm-3.37,5.08h-.56v-2.26l2.24,.56-1.68,1.69Z" style="fill:#aaa;"/><path d="M132.93,177.86l-.05-.05c-.86-.87-1.36-1.29-1.51-1.25,0,0,0,.02,0,.05h-.2v-2.88l.06-.03s1.1-.56,1.64-1.65l.04-.08,.08,.03c1.64,.55,2.47,.59,3.11,.14-.15-.08-.25-.25-.25-.47s.09-.4,.25-.55c.13-.12,.37-.26,.78-.26,.16,0,.48,.17,.67,.49,.16,.27,.29,.72-.02,1.35l-.02,.03c-.16,.16-.54,.64-1.01,1.24-1.17,1.49-2.78,3.53-3.51,3.86l-.06,.03Zm-1.55-1.5c.28,0,.79,.45,1.59,1.26,.72-.4,2.31-2.42,3.37-3.77,.47-.59,.84-1.06,1.01-1.24,.26-.54,.16-.92,.03-1.14-.17-.27-.43-.39-.5-.39-.27,0-.49,.07-.64,.21-.12,.11-.18,.25-.18,.4,0,.16,.08,.32,.27,.32h.27l-.21,.18c-.81,.7-1.82,.56-3.38,.05-.51,.96-1.4,1.5-1.63,1.63v2.5h0Zm2.18-.21h-.7v-2.49l2.54,.64-1.84,1.85Zm-.5-.2h.42l1.53-1.54-1.95-.49v2.02Z" style="fill:#828383;"/></g><g><g><path d="M137.58,176.55h0c0-.09,0-.07,0,0Z" style="fill:#aaa;"/><path d="M137.48,176.55h0v-.06s.01-.07,.05-.09l.05-.03,.05,.03s.05,.04,.05,.09h0v.06h-.2Z" style="fill:#828383;"/></g><g><path d="M137.58,176.55c.01,.56-1.13-.54-1.7-1.1-.99,.48-3.84,4.59-4.39,5.16-.54,1.14,.37,1.69,.59,1.68,1.12-.02,1.1-1.15,.54-1.14,.74-.66,1.67-.6,3.37-.06,.54-1.14,1.65-1.72,1.65-1.72,0,0-.05-2.42-.05-2.82Zm-3.88,2.33l1.65-1.72h.56l.04,2.24-2.26-.52Z" style="fill:#aaa;"/><path d="M132.07,182.4c-.16,0-.48-.16-.68-.48-.17-.26-.31-.71,0-1.35l.02-.03c.16-.17,.53-.65,.99-1.26,1.14-1.51,2.71-3.57,3.43-3.92l.06-.03,.05,.05c.88,.85,1.41,1.26,1.53,1.22,0,0,0-.02,0-.05h.2c0,.4,.05,2.82,.05,2.82v.06l-.05,.03s-1.09,.58-1.61,1.68l-.04,.08-.08-.03c-1.65-.52-2.48-.55-3.11-.08,.07,.04,.13,.1,.18,.17,.11,.18,.11,.44-.01,.65-.09,.17-.34,.46-.92,.47h0Zm-.51-1.72c-.25,.55-.14,.92,0,1.14,.17,.27,.44,.38,.51,.38h0c.48,0,.68-.23,.75-.36,.08-.15,.09-.33,.02-.45-.03-.06-.1-.12-.22-.12h-.28l.2-.18c.8-.72,1.81-.6,3.38-.11,.49-.97,1.37-1.53,1.6-1.66,0-.32-.04-1.84-.05-2.5h-.01c-.28,0-.8-.44-1.62-1.23-.71,.41-2.26,2.46-3.3,3.83-.46,.6-.82,1.08-.99,1.27Zm4.49-1.14l-2.56-.59,1.8-1.88h.7l.05,2.47Zm-2.16-.71l1.95,.45-.04-2.02h-.42l-1.5,1.57Z" style="fill:#828383;"/></g></g><g><path d="M143.61,170.97c-1.12,0-1.12,1.13-.56,1.13-.75,.65-1.68,.56-3.37,0-.56,1.13-1.68,1.69-1.68,1.69v2.82c0-.56,1.12,.56,1.68,1.13,1-.46,3.93-4.51,4.49-5.08,.56-1.13-.33-1.69-.56-1.69Zm-3.37,5.08h-.56v-2.26l2.24,.56-1.68,1.69Z" style="fill:#aaa;"/><path d="M139.66,177.86l-.05-.05c-.83-.83-1.33-1.25-1.49-1.25h-.02s0,.02,0,.05h-.2v-2.88l.06-.03s1.1-.56,1.64-1.65l.04-.08,.08,.03c1.64,.55,2.47,.59,3.11,.14-.15-.08-.25-.25-.25-.47s.09-.4,.25-.55c.13-.12,.37-.26,.78-.26,.16,0,.48,.17,.67,.49,.16,.27,.29,.72-.02,1.35l-.02,.03c-.16,.16-.54,.64-1.01,1.24-1.17,1.49-2.78,3.53-3.51,3.86l-.06,.03Zm-1.55-1.5c.28,0,.79,.45,1.59,1.26,.72-.4,2.31-2.42,3.37-3.77,.47-.59,.84-1.06,1.01-1.24,.26-.54,.16-.92,.03-1.14-.17-.27-.43-.39-.5-.39-.27,0-.49,.07-.64,.21-.12,.11-.18,.25-.18,.4,0,.16,.08,.32,.27,.32h.27l-.21,.18c-.81,.7-1.82,.56-3.38,.05-.51,.96-1.4,1.5-1.63,1.63v2.5h0Zm2.18-.21h-.7v-2.49l2.54,.64-1.84,1.85Zm-.5-.2h.42l1.53-1.54-1.95-.49v2.02Z" style="fill:#828383;"/></g><g><g><path d="M144.31,176.55h0c0-.09,0-.07,0,0Z" style="fill:#aaa;"/><path d="M144.21,176.55h0v-.06s.01-.07,.05-.09l.05-.03,.05,.03s.05,.04,.05,.09h0v.06h-.2Z" style="fill:#828383;"/></g><g><path d="M144.31,176.55c.01,.56-1.13-.54-1.7-1.1-.99,.48-3.84,4.59-4.39,5.16-.54,1.14,.37,1.69,.59,1.68,1.12-.02,1.1-1.15,.54-1.14,.74-.66,1.67-.6,3.37-.06,.54-1.14,1.65-1.72,1.65-1.72,0,0-.05-2.42-.05-2.82Zm-3.88,2.33l1.65-1.72h.56l.04,2.24-2.26-.52Z" style="fill:#aaa;"/><path d="M138.81,182.4c-.16,0-.48-.16-.68-.48-.17-.26-.31-.71,0-1.35l.02-.03c.16-.17,.52-.65,.99-1.26,1.15-1.51,2.72-3.58,3.44-3.92l.06-.03,.05,.05c.88,.85,1.4,1.26,1.53,1.22,0,0,0-.02,0-.05h.2c0,.4,.05,2.82,.05,2.82v.06l-.05,.03s-1.09,.58-1.61,1.68l-.04,.08-.08-.03c-1.65-.52-2.48-.55-3.11-.08,.07,.04,.13,.1,.18,.17,.11,.18,.11,.44-.01,.65-.09,.17-.34,.46-.92,.47h0Zm-.51-1.72c-.25,.55-.14,.92,0,1.14,.17,.27,.44,.38,.51,.38h0c.48,0,.68-.23,.75-.36,.08-.15,.09-.33,.02-.45-.03-.06-.11-.12-.22-.12h-.27l.2-.18c.8-.72,1.81-.6,3.38-.11,.49-.97,1.37-1.53,1.6-1.66,0-.32-.04-1.84-.05-2.5h-.01c-.28,0-.8-.44-1.61-1.23-.71,.41-2.26,2.46-3.3,3.83-.45,.6-.82,1.08-.99,1.26Zm4.49-1.14l-2.56-.59,1.8-1.88h.7l.05,2.47Zm-2.16-.71l1.96,.45-.04-2.02h-.42l-1.5,1.57Z" style="fill:#828383;"/></g></g><g><path d="M196.64,137.77h-47.52c.76,9.69,.43,21.47-2.73,34.4-4.12,16.87-11.47,29.33-16.85,36.96-5.49-7.09-15.43-21.85-19.51-43.26-2-10.52-2.1-20.07-1.38-28.1h-36.33c-.6,0-1.08,.49-1.08,1.09v116.24c0,.6,.48,1.09,1.08,1.09h43.6c3.89-3.02,6.54-6.14,7.21-9.4,1.25,3.47,3.89,6.56,7.41,9.4h66.11c.6,0,1.08-.49,1.08-1.09v-116.24c0-.6-.48-1.09-1.08-1.09Z" style="fill:#dd6853;"/><path d="M196.64,257h-66.39l-.22-.18c-3.16-2.55-5.4-5.12-6.79-7.78-1.13,2.55-3.39,5.12-6.83,7.79l-.22,.17h-43.88c-1.04,0-1.89-.85-1.89-1.9v-116.24c0-1.05,.85-1.9,1.89-1.9h37.21l-.08,.89c-.83,9.34-.37,18.72,1.37,27.87,3.62,19.03,12.02,33.24,18.68,42.04,7.55-10.94,12.97-22.97,16.1-35.78,2.71-11.09,3.62-22.58,2.71-34.14l-.07-.88h48.4c1.04,0,1.89,.85,1.89,1.9v116.24c0,1.05-.85,1.9-1.89,1.9Zm-65.82-1.63h65.82c.15,0,.27-.12,.27-.27v-116.24c0-.15-.12-.27-.27-.27h-46.65c.81,11.44-.14,22.8-2.82,33.78-3.26,13.37-8.98,25.9-16.98,37.24l-.63,.89-.67-.86c-6.87-8.86-15.86-23.62-19.66-43.61-1.72-9.01-2.21-18.24-1.47-27.44h-35.45c-.15,0-.27,.12-.27,.27v116.24c0,.15,.12,.27,.27,.27h43.33c3.93-3.09,6.12-5.96,6.69-8.76l.58-2.81,.97,2.7c1.1,3.04,3.37,5.94,6.94,8.87Z"/></g><path d="M123.72,219.69c-.17,0-.34-.05-.48-.16-.36-.27-.43-.78-.16-1.14,1.17-1.57,2.35-3.15,3.52-4.72,12.23-16.38,24.88-33.32,33.09-50.25,.2-.4,.68-.57,1.08-.38,.4,.2,.57,.68,.37,1.09-8.27,17.07-20.97,34.07-33.25,50.51-1.17,1.57-2.35,3.14-3.52,4.72-.16,.21-.4,.33-.65,.33Z"/><path d="M124.13,219.46c-.17,0-.34-.05-.49-.17-.35-.27-.42-.78-.15-1.14,1.19-1.56,2.38-3.12,3.58-4.68,12.43-16.23,25.29-33.01,33.7-49.84,.2-.4,.68-.56,1.09-.36,.4,.2,.56,.69,.36,1.09-8.48,16.96-21.38,33.81-33.86,50.1-1.19,1.56-2.39,3.12-3.58,4.67-.16,.21-.4,.32-.64,.32Z"/><path d="M160.97,164.26c-.2,0-.4-.08-.56-.23l-10.85-10.5c-.32-.31-.33-.83-.02-1.15,.31-.32,.82-.33,1.14-.02l10.85,10.5c.32,.31,.33,.83,.02,1.15-.16,.17-.37,.25-.58,.25Z"/><path d="M150.11,154.57c-.53,0-1.01-.35-1.17-.88-.18-.65,.19-1.32,.83-1.51l10.85-3.12c.64-.18,1.32,.19,1.5,.84,.18,.65-.19,1.32-.83,1.51l-10.85,3.12c-.11,.03-.22,.05-.33,.05Z"/><path d="M161.56,151.05c-.38,0-.72-.27-.79-.67-.73-4.05-2.27-8.15-4.56-12.21-.22-.39-.08-.89,.3-1.11,.39-.22,.88-.08,1.1,.31,2.38,4.21,3.98,8.49,4.74,12.72,.08,.44-.21,.87-.65,.95-.05,0-.1,.01-.15,.01Z"/><path d="M128.53,211.37c-.23,0-.46-.1-.62-.29-13.33-16.03-24.19-29.63-32.54-46.46-.2-.4-.04-.89,.36-1.09,.4-.2,.89-.04,1.08,.36,8.27,16.67,19.07,30.2,32.33,46.15,.29,.34,.24,.86-.1,1.14-.15,.13-.33,.19-.52,.19Z"/><path d="M96.1,164.66c-.22,0-.44-.09-.6-.27-.3-.33-.28-.85,.05-1.15l11.89-10.86c.33-.3,.84-.28,1.14,.05,.3,.33,.28,.85-.05,1.15l-11.89,10.86c-.15,.14-.35,.21-.54,.21Z"/><g><ellipse cx="128.53" cy="239.89" rx="1.08" ry="1.09" style="fill:#542e22;"/><path d="M128.53,241.79c-1.04,0-1.89-.85-1.89-1.9s.85-1.9,1.89-1.9,1.89,.85,1.89,1.9-.85,1.9-1.89,1.9Zm0-2.17c-.15,0-.27,.12-.27,.27s.12,.27,.27,.27,.27-.12,.27-.27-.12-.27-.27-.27Z"/></g><g><ellipse cx="128.53" cy="221.42" rx="1.08" ry="1.09" style="fill:#542e22;"/><path d="M128.53,223.32c-1.04,0-1.89-.85-1.89-1.9s.85-1.9,1.89-1.9,1.89,.85,1.89,1.9-.85,1.9-1.89,1.9Zm0-2.17c-.15,0-.27,.12-.27,.27s.12,.27,.27,.27,.27-.12,.27-.27-.12-.27-.27-.27Z"/></g><g><rect x="69.61" y="219.28" width="24.32" height="10.29" rx="1" ry="1"/><path d="M93.13,229.77h-22.71c-.56,0-1.01-.46-1.01-1.02v-8.67c0-.56,.45-1.02,1.01-1.02h22.71c.56,0,1.01,.46,1.01,1.02v8.67c0,.56-.45,1.02-1.01,1.02Zm-22.71-10.29c-.33,0-.61,.27-.61,.61v8.67c0,.34,.27,.61,.61,.61h22.71c.33,0,.61-.27,.61-.61v-8.67c0-.34-.27-.61-.61-.61h-22.71Z"/></g><g><rect x="70.25" y="218.64" width="23.04" height="10.29" rx="1" ry="1" style="fill:#dd6853;"/><path d="M92.49,229.13h-21.43c-.56,0-1.01-.46-1.01-1.02v-8.67c0-.56,.45-1.02,1.01-1.02h21.43c.56,0,1.01,.46,1.01,1.02v8.67c0,.56-.45,1.02-1.01,1.02Zm-21.43-10.29c-.33,0-.61,.27-.61,.61v8.67c0,.34,.27,.61,.61,.61h21.43c.33,0,.61-.27,.61-.61v-8.67c0-.34-.27-.61-.61-.61h-21.43Z"/></g><path d="M91.24,221.29h-10.81c-.22,0-.4-.18-.4-.41s.18-.41,.4-.41h10.81c.22,0,.4,.18,.4,.41s-.18,.41-.4,.41Z" style="fill:#fff; opacity:.23;"/><g><rect x="167.99" y="219.28" width="24.32" height="10.29" rx="1" ry="1"/><path d="M191.51,229.77h-22.71c-.56,0-1.01-.46-1.01-1.02v-8.67c0-.56,.45-1.02,1.01-1.02h22.71c.56,0,1.01,.46,1.01,1.02v8.67c0,.56-.45,1.02-1.01,1.02Zm-22.71-10.29c-.33,0-.61,.27-.61,.61v8.67c0,.34,.27,.61,.61,.61h22.71c.33,0,.61-.27,.61-.61v-8.67c0-.34-.27-.61-.61-.61h-22.71Z"/></g><g><rect x="168.63" y="218.64" width="23.04" height="10.29" rx="1" ry="1" style="fill:#dd6853;"/><path d="M190.87,229.13h-21.43c-.56,0-1.01-.46-1.01-1.02v-8.67c0-.56,.45-1.02,1.01-1.02h21.43c.56,0,1.01,.46,1.01,1.02v8.67c0,.56-.45,1.02-1.01,1.02Zm-21.43-10.29c-.33,0-.61,.27-.61,.61v8.67c0,.34,.27,.61,.61,.61h21.43c.33,0,.61-.27,.61-.61v-8.67c0-.34-.27-.61-.61-.61h-21.43Z"/></g><path d="M189.62,221.29h-10.81c-.22,0-.4-.18-.4-.41s.18-.41,.4-.41h10.81c.22,0,.4,.18,.4,.41s-.18,.41-.4,.41Z" style="fill:#fff; opacity:.23;"/><path d="M123.24,248.47h-.01c-.45,0-.8-.38-.8-.83l.43-28.57c0-.44,.37-.8,.81-.8h.01c.45,0,.8,.38,.8,.83l-.43,28.57c0,.44-.37,.8-.81,.8Z"/><g><g><path d="M125.29,159.32c10.81,0,28.3-11.95,48.65-11.95,4.45,0,8.79,.31,12.98,.87,.36,.05,.73,0,1.06-.16,10.37-4.91,17.31-13.85,17.31-24.07s-6.61-18.73-16.56-23.71c-.26-.13-.48-.32-.65-.55-10.01-13.72-29.05-22.99-50.89-22.99s-42.66,10.17-52.24,24.96c0,.01-.02,.02-.03,.03-11.51,6-19.08,16.17-19.08,27.7,0,7.14,2.91,13.76,7.85,19.18,.53,.58,1.37,.74,2.1,.46,4.64-1.81,9.66-2.8,14.91-2.8,13.59,0,23.78,13.04,34.6,13.04Z" style="fill:#ddbc9c;"/><path d="M125.29,160.14c-5.32,0-10.36-2.95-15.71-6.07-5.86-3.42-11.92-6.97-18.89-6.97-5.03,0-9.94,.92-14.62,2.75-1.07,.42-2.25,.16-2.99-.67-5.27-5.79-8.06-12.62-8.06-19.73,0-11.37,7.23-21.95,19.35-28.33,10.14-15.53,30.36-25.17,52.81-25.17,21.3,0,41.05,8.94,51.55,23.33,.09,.13,.22,.23,.36,.3,10.65,5.33,17.01,14.47,17.01,24.44s-6.65,19.53-17.78,24.8c-.47,.22-.99,.3-1.51,.23-4.25-.57-8.58-.87-12.87-.87-11.63,0-22.14,3.89-31.42,7.32-6.72,2.49-12.53,4.63-17.23,4.63Zm-34.6-14.66c7.4,0,13.65,3.65,19.7,7.19,5.15,3.01,10.01,5.85,14.89,5.85,4.41,0,10.09-2.1,16.67-4.53,8.94-3.31,20.07-7.42,31.98-7.42,4.36,0,8.77,.3,13.09,.88,.22,.03,.42,0,.61-.09,10.55-5,16.85-13.72,16.85-23.33s-6.02-17.93-16.11-22.98c-.37-.19-.7-.46-.95-.8-10.19-13.98-29.45-22.66-50.24-22.66-21.99,0-41.74,9.42-51.56,24.59l-.12,.18-.23,.13c-11.66,6.08-18.63,16.17-18.63,26.97,0,6.71,2.64,13.15,7.64,18.64,.3,.32,.77,.42,1.22,.25,4.86-1.9,9.98-2.86,15.2-2.86Z"/></g><path d="M125.29,160.41c-3.34-.49-6.05-.39-15.84-6.11-5.83-3.41-11.86-6.93-18.75-6.93-4.99,0-9.88,.92-14.52,2.73-1.17,.46-2.47,.17-3.29-.74-5.32-5.84-8.13-12.73-8.13-19.92,0-11.46,7.26-22.11,19.43-28.54,10.21-15.57,30.49-25.23,53-25.23s41.22,8.98,51.77,23.44l.27,.23c10.74,5.38,17.16,14.61,17.16,24.68s-6.7,19.73-17.93,25.05c-.32,.15-1.2,.19-1.67,.26-6.68,.98-11.59,1.23-12.94,1.31-9.96,.62-21.92,4.78-23.78,5.43-6.23,2.17-8.46,3.62-14.05,4.35-5.5,.72-9.7,.15-10.7,0Zm-34.6-15.21c7.47,0,13.76,3.67,19.84,7.22,5.12,2.99,9.95,5.81,14.76,5.81,4.37,0,10.02-2.09,16.58-4.51,8.96-3.31,20.11-7.44,32.07-7.44,4.37,0,8.79,.3,13.12,.88,.16,.02,.32,0,.46-.07,10.45-4.95,16.69-13.58,16.69-23.08s-5.96-17.73-15.95-22.73c-.42-.21-.78-.51-1.06-.89-10.15-13.91-29.31-22.54-50.02-22.54-21.9,0-41.57,9.38-51.33,24.47l-.16,.25-.29,.16c-11.57,6.03-18.48,16.03-18.48,26.73,0,6.64,2.62,13.02,7.57,18.45,.21,.24,.58,.3,.91,.18,4.89-1.91,10.04-2.88,15.31-2.88Z"/></g><path d="M158.81,143.2c-17.3-9.78-55.14-7.6-59.46,1.09-19.46-6.52-31.35-60.84,11.89-39.11,43.24,21.73-12.97,22.81,32.43-2.17,45.41-24.99,41.08,32.59,15.14,40.2Z" style="fill:#fae9d8;"/><g><path d="M151.24,114.96c0,3.44,5.41,8.69,9.73,8.69,3.89,0,9.5-5.26,10.6-8.69h-20.33Z" style="fill:#f8d452;"/><path d="M160.97,123.85c-3.83,0-9.93-4.86-9.93-8.89v-.2h20.82l-.09,.27c-1.17,3.65-6.95,8.83-10.8,8.83Zm-9.52-8.69c.21,3.28,5.29,8.28,9.52,8.28,3.1,0,8.84-4.23,10.32-8.28h-19.84Z"/></g><path d="M171.99,110.12c6.28-3.85-.96-4.94-6.99-4.84-6.11,.11-13.1,1.94-14.85,9.68h9.73c5.79,0,6.55-1.44,12.1-4.84Z" style="fill:#959595;"/><path d="M170.3,104.17c-3.08,.02-5.93,.62-8.36,1.33,1.03-.13,2.06-.2,3.07-.22,6.03-.1,13.26,.99,6.99,4.84-5.55,3.4-6.44,4.84-12.23,4.84h-2.35c7.88,0,12.36,.67,17.61-1.09,9.73-3.26,9.73-4.62,17.3-6.52,4.32-1.09-10.81-3.26-22.02-3.18Z" style="fill:#979747;"/><path d="M155.63,114.96c1.01,2.17,2.35,3.26,4.79,3.26s3.78-2.17,4.86-3.26h-9.66Z"/><g><path d="M107.27,115.93c-.39,.07-.87,.11-1.44,.11-1.7-.06-9.14,.69-13.06,.4-.63,3.2,3.42,7.2,5.5,7.2,5.63,1.39,6.49-2.17,9.73-6.52,.55-.73,.39-1.07-.72-1.2Z" style="fill:#f8d452;"/><path d="M100.49,124.16c-.67,0-1.42-.1-2.27-.31h0c-1.07,0-2.73-1.08-3.99-2.63-1.33-1.63-1.93-3.38-1.64-4.82l.03-.18h.18c2.51,.2,6.52-.05,9.44-.23,1.68-.1,3-.18,3.61-.16,.52,0,.99-.04,1.4-.11h.06c.69,.08,1.04,.24,1.16,.53,.14,.33-.09,.7-.3,.99-.61,.81-1.12,1.58-1.62,2.33-1.72,2.58-3.05,4.58-6.05,4.58Zm-7.55-7.5c-.18,1.28,.39,2.84,1.59,4.3,1.18,1.44,2.75,2.48,3.74,2.48,4.47,1.1,5.86-.96,7.94-4.09,.5-.75,1.02-1.53,1.63-2.35,.28-.37,.28-.53,.25-.59-.03-.07-.18-.21-.81-.28-.42,.07-.91,.11-1.45,.11-.6-.02-1.92,.06-3.58,.16-2.87,.18-6.77,.41-9.31,.25Z"/></g><path d="M97.22,116.47c.21,1.6,1.55,2.84,3.2,2.84,1.78,0,4.3-1.45,4.32-3.24-1.71,.07-4.7,.3-7.52,.4Z"/><path d="M97.43,114.69c-4.16-.1-8.69-3.03-8.74-4.92,0-.1,.03-.21,.05-.31,.3-1.16,2.38-2.16,4.88-2.74,.19-.12,.36-.24,.53-.35-.16,.11-.34,.23-.53,.35,2.22-.52,4.74-.7,6.59-.37,1.58,.29,3.27,1.14,4.76,2.22-1.62-1.81-5.44-3.83-9.96-3.64h.01s-.01,0-.02,0c-3.27-.26-20.51-.83-20.51-.83,5.87,2.32,11.24,4.51,7.95,7.52h0c-1.84,1.33-4.62,2.55-10.12,3.34-6.45,.93,12.97-2.17,18.38,1.09,2.16,1.09,13.04-.07,15.14,0,3.24,0,3.34-1.3,3.36-1.76-.55,1.52-6.65,.53-11.76,.4Zm-2.88-8.62s.03-.02,.05-.03c-.01,.01-.03,.02-.05,.03Z" style="fill:#979747;"/><path d="M109.24,114.03c.05,1.88-6.43,.79-11.82,.66-4.16-.1-8.69-3.03-8.74-4.92-.06-2.34,7.41-4.17,11.52-3.42,4.11,.74,8.97,5.34,9.03,7.68Z" style="fill:#959595;"/><path d="M137.56,135.24c-.26-.13-.57-.06-.76,.15l-10.14,11.31c.05,.2,.09,.4,.14,.6,.44,1.98,.9,4.02,1.93,5.57,.32,.47,1.04,.36,1.18-.19,.78-3.01,3.18-10.6,8.06-13.27,2.08-1.14,4.42-1.43,6.97-.86,.11,.02,.22,.05,.32,.07-.3-.13-.61-.26-.91-.38-2.36-.99-4.71-2.01-6.78-3.01Z"/><g><path d="M125.96,156.51c-4.95-5.74-.63-19.86-12.52-18.78,7.57-3.26,10.81-10.86,10.81-10.86,0,0,2.19-5.3,3.8,.07,1.61,5.37,25.39,14.06,13.5,10.8-11.89-3.26-14.59,18.84-14.59,18.84-.26,.34-.79,.31-1-.07Z" style="fill:#3c502b;"/><path d="M126.48,157.22s-.04,0-.07,0c-.32-.02-.61-.19-.79-.46-1.85-2.17-2.44-5.44-3.01-8.6-.99-5.49-1.91-10.67-9.14-10.02l-2.54,.23,2.35-1.01c7.32-3.15,10.57-10.58,10.6-10.65,.11-.27,1.16-2.62,2.52-2.58,.84,.04,1.51,.92,2.04,2.69,.84,2.82,8.81,6.94,13.09,9.16,3.53,1.83,3.91,2.05,3.71,2.57-.17,.43-.38,.52-3.8-.42-2.27-.62-4.35-.31-6.19,.93-6.18,4.17-7.87,17.44-7.89,17.57v.11l-.08,.09c-.19,.25-.49,.39-.8,.39Zm-11.2-19.94c6.25,.3,7.2,5.6,8.13,10.73,.55,3.07,1.13,6.24,2.85,8.23l.04,.06c.05,.08,.12,.1,.16,.1,.03,0,.07,0,.11-.02,.21-1.56,2.01-13.81,8.22-18,2.04-1.38,4.35-1.73,6.86-1.04,.6,.16,1.08,.29,1.47,.39-.58-.31-1.28-.67-1.96-1.03-6.35-3.29-12.63-6.74-13.5-9.65-.56-1.88-1.1-2.1-1.31-2.11-.56-.06-1.38,1.23-1.73,2.08-.13,.3-2.91,6.69-9.34,10.26Z"/></g><g><path d="M125.79,151.08c-2.04-9.35-1.49-18.51,1.1-26.34-1.34-1.05-2.65,2.12-2.65,2.12,0,0-3.24,7.6-10.81,10.86,11.89-1.09,7.57,13.04,12.52,18.78,.22,.37,.74,.41,1,.07,0,0,.03-.27,.11-.73-.49-1.55-.92-3.13-1.28-4.76Z" style="fill:#56703c;"/><path d="M126.48,157.22s-.04,0-.07,0c-.33-.02-.64-.21-.81-.5-1.83-2.11-2.42-5.39-2.99-8.56-.99-5.49-1.91-10.67-9.14-10.02l-2.54,.23,2.35-1.01c7.32-3.15,10.57-10.58,10.6-10.65,.09-.22,.95-2.22,2.13-2.54,.39-.1,.79-.02,1.14,.25l.23,.18-.09,.27c-2.68,8.09-3.06,17.12-1.09,26.12h0c.33,1.53,.76,3.12,1.27,4.72l.03,.09v.09c-.08,.45-.12,.72-.12,.72v.11l-.08,.09c-.19,.25-.49,.39-.8,.39Zm-11.2-19.94c6.25,.3,7.2,5.6,8.13,10.73,.55,3.07,1.13,6.24,2.85,8.23,.09,.14,.17,.16,.21,.16,.03,0,.07,0,.11-.02,.02-.11,.04-.28,.07-.51-.5-1.59-.92-3.17-1.26-4.7-1.97-9.02-1.62-18.08,1.01-26.22-.08-.02-.14,0-.19,0-.6,.16-1.3,1.35-1.59,2.07-.13,.3-2.91,6.69-9.34,10.25Z"/></g><path d="M156.92,126.67c-.97-.91-2.18-2.16-3.4-3.8-1.32-1.77-2.08-3.24-2.78-4.61-1.08-2.11-2.11-4.14-2.63-6.96-.44-2.39-.17-3.43,.13-4.1,.11-.26,.62-1.36,2.09-2.38,2.19-1.52,7.09-3.26,13.45-2.48,0,0,6.28,.77,13.64,6.07,.93,.67,1.98,1.57,2.53,3.02,.43,1.12,.39,2.14,.35,2.61-.13,1.4-.75,2.42-1.33,3.27-2.06,3.03-4.4,5.1-4.71,5.37-1.07,.93-3.37,2.81-6.71,4.48-2.04,1.02-3.09,1.53-4.49,1.62-2.84,.18-5.08-1.3-6.12-2.11Z" style="fill:#353535;"/><path d="M205.93,126.14s-.09,0-.13-.02c-31.94-8.19-62.6-23.32-91.1-44.96-.24-.18-.28-.52-.11-.76,.18-.24,.51-.29,.75-.11,28.4,21.56,58.92,36.62,90.73,44.78,.29,.07,.46,.37,.39,.66-.06,.24-.28,.41-.52,.41Z" style="fill:#353535;"/><path d="M171.29,108.44c.03-.08,5.44,1.51,5.9,4.66,.07,.51,.02,1.03,0,1.16-.21,1.72-1.29,2.83-1.97,3.49-2.47,2.41-8.85,6.98-8.85,6.98,0,0,1.23-1.69,3.93-4.66,.58-.64,1.37-1.59,2.95-3.49,1.39-1.67,1.98-2.43,1.97-3.49-.01-.97-.53-1.69-.98-2.33-1.31-1.84-2.97-2.28-2.95-2.33Z" style="fill:#515252;"/><path d="M81.51,115.48c0,1.09,.88,1.98,1.97,1.98,1.09,0,1.97-.89,1.97-1.98,0-1.09-.88-1.98-1.97-1.98-1.09,0-1.97,.89-1.97,1.98Zm.29,0c0-.93,.75-1.69,1.68-1.69,.93,0,1.68,.76,1.68,1.69s-.75,1.69-1.68,1.69-1.68-.76-1.68-1.69Z"/><ellipse cx="100.04" cy="116.8" rx="14.15" ry="14.22" style="fill:#aeadad; opacity:.5;"/><path d="M83.13,182.96c-.17,0-.3-.14-.3-.3V117c0-.17,.14-.3,.3-.3s.3,.14,.3,.3v65.65c0,.17-.14,.3-.3,.3Z"/><path d="M113.05,117.37c.4-.12,.22-4.57-2.42-8.27-2.25-3.15-5.59-4.76-5.84-4.45-.23,.27,2.09,1.96,4.59,5.71,2.72,4.08,3.33,7.11,3.67,7.01Z" style="fill:#fff; opacity:.6;"/><path d="M84.59,116.8c0-8.58,6.95-15.56,15.49-15.56,8.54,0,15.49,6.98,15.49,15.56,0,8.58-6.95,15.56-15.49,15.56-8.54,0-15.49-6.98-15.49-15.56Zm1.37,0c0,7.82,6.33,14.19,14.12,14.19,7.79,0,14.12-6.36,14.12-14.19,0-7.82-6.33-14.19-14.12-14.19-7.79,0-14.12,6.36-14.12,14.19Z"/><g><path d="M102.99,189.32c2.91,3.03,5.32,6.27,7.19,9.64,.28-2.89,.53-8.1-1.01-13.4-.53-1.81-1.3-3.77-3.13-5.18-1.31-1.01-2.66-1.36-3.75-1.57-5.95-1.15-12.01,.23-12.35,.31-.13,.03-.25,.06-.38,.09,4.94,2.61,9.51,6.03,13.43,10.11Z" style="fill:#8c3427;"/><path d="M58.26,237.17c-4.34-3-7.98-6.5-10.78-10.31-.07,1.43-.06,2.64-.05,3.62,.07,7.69,1.78,10.34,2.34,11.15,.6,.86,2.59,3.47,6.1,4.71,2.9,1.03,5.66,.7,9.85-.47,2.19-.61,4.22-1.3,6.05-1.99-4.76-1.57-9.34-3.83-13.51-6.71Z" style="fill:#8c3427;"/><path d="M98.16,194.01c-5.09-5.3-11.43-9.33-18.18-11.62-2.93,1.24-4.89,2.33-5.51,2.68-4.37,2.47-10.56,6.04-16.26,13.2-5.76,7.24-8,14.34-8.99,17.98,2.2,5.71,6.67,11.08,12.85,15.35,5.86,4.05,12.64,6.7,19.49,7.66,.1-.06,.19-.11,.25-.15,3.37-2,9.69-5.83,16.1-12.88,3.24-3.56,6.68-7.35,9.22-13.51,.19-.46,.37-.91,.53-1.35-1.07-5.96-4.37-12.02-9.51-17.36Z" style="fill:#8c3427;"/></g><path d="M49.76,241.64c.42,.61,1.53,2.07,3.36,3.32,2.3-.65,4.79-1.48,7.43-2.53,3.04-1.21,9.95-4.02,17.04-9.43,12.1-9.23,17.75-20.7,20.32-26.08,4.94-10.33,7.28-21.14,7.82-23.72,.2-.95,.37-1.84,.52-2.66-.07-.06-.13-.11-.2-.17-1.31-1.01-2.66-1.36-3.75-1.57-5.95-1.15-12.01,.23-12.35,.31-8.3,1.97-14.3,5.3-15.48,5.97-4.37,2.47-10.56,6.04-16.26,13.2-6.27,7.87-8.37,15.59-9.22,18.85-1.6,6.11-1.59,10.64-1.56,13.35,.07,7.69,1.78,10.34,2.34,11.15Z" style="fill:#b84231;"/><path d="M58.26,237.17c4.17,2.88,8.75,5.14,13.51,6.71,5.06-1.92,8.62-3.93,9.79-4.61-6.85-.97-13.63-3.61-19.49-7.66-6.18-4.27-10.65-9.64-12.85-15.35-.09,.32-.16,.61-.23,.88-1.02,3.91-1.39,7.18-1.51,9.73,2.81,3.81,6.45,7.31,10.78,10.31Z" style="fill:#d6dbdb;"/><path d="M79.98,182.4c6.75,2.29,13.09,6.32,18.18,11.62,5.14,5.35,8.44,11.41,9.51,17.36,1.63-4.43,2.05-8.17,2.44-11.68,.02-.22,.05-.47,.08-.73-1.87-3.36-4.28-6.61-7.19-9.64-3.92-4.08-8.5-7.51-13.43-10.11-3.76,.92-7.04,2.11-9.58,3.19Z" style="fill:#d6dbdb;"/><path d="M48.77,217.99c-.04,.15-.07,.31-.11,.46-.02,.07-.03,.14-.05,.21-.04,.16-.07,.32-.11,.48-.01,.05-.02,.1-.03,.15-.04,.21-.09,.41-.13,.62,0,.04-.02,.08-.02,.13-.03,.16-.06,.32-.09,.48-.01,.06-.02,.12-.03,.19-.03,.15-.05,.29-.08,.44,0,.05-.02,.11-.03,.16-.07,.39-.13,.78-.18,1.16l-.02,.12c-.02,.15-.04,.3-.06,.45l-.02,.13c-.02,.16-.04,.32-.06,.48v.06c-.05,.37-.09,.73-.12,1.08v.07c-.02,.16-.03,.31-.05,.47v.04c-.05,.52-.08,1.02-.1,1.5,2.81,3.81,6.45,7.31,10.78,10.31,1.96,1.35,4,2.56,6.12,3.63,2.15-.97,4.78-2.28,7.62-4-3.48-1.32-6.83-3.06-9.92-5.2-6.18-4.27-10.65-9.64-12.85-15.35h0c-.04,.16-.08,.31-.12,.46h0l-.05,.19c-.02,.08-.04,.16-.06,.23-.06,.22-.11,.44-.17,.66-.02,.07-.03,.13-.05,.2Z" style="fill:#fff;"/><path d="M102.99,189.32c-3.92-4.08-8.5-7.51-13.43-10.11h0c-2.12,.52-4.08,1.12-5.84,1.74h0c-.18,.06-.36,.13-.53,.19l-.08,.03c-.16,.06-.32,.12-.48,.17l-.12,.04c-.15,.05-.29,.11-.43,.16l-.14,.05c-.14,.05-.27,.1-.4,.16l-.15,.06c-.13,.05-.26,.1-.38,.15-.05,.02-.1,.04-.15,.06-.13,.05-.25,.1-.37,.15l-.12,.05c-.13,.05-.26,.11-.39,.16h0c6.75,2.29,13.09,6.32,18.18,11.62,1.25,1.3,2.39,2.64,3.42,4.02,.98-2.78,1.78-5.39,2.41-7.65-.32-.36-.65-.71-.99-1.06Z" style="fill:#fff;"/><path d="M104.48,179.39c-27.32,10.57-46.23,32.02-54.81,62.16,.02,.03,.03,.05,.04,.08h0c10.3-31.02,27.77-50.85,54.82-62.22-.02,0-.03-.01-.05-.02Z" style="fill:#75211d;"/><path d="M89.71,187.09c2.08-1.32,4.23-2.56,6.46-3.74-.08-.06-.15-.11-.23-.17-2.26,1.14-4.46,2.37-6.58,3.69,.12,.07,.24,.15,.36,.22Z" style="fill:#c2a2a1;"/><path d="M52.61,232.62c.1,.1,.21,.2,.31,.29,.92-2.26,1.88-4.46,2.89-6.59-.14-.14-.27-.29-.41-.43-1,2.18-1.93,4.43-2.8,6.73Z" style="fill:#c2a2a1;"/><g><path d="M83.07,197.87c-.58-3.47-5.74-6.89-8.56-6.42-.55,.09-.93,.62-.84,1.17s.62,.93,1.17,.84c.58-.1,1.52,.18,2.5,.7-.57,.47-1.13,.94-1.69,1.43-1.38-.81-2.79-1.32-3.77-1.33h0c-.56,0-1.01,.45-1.02,1.01,0,.56,.45,1.03,1.01,1.03,.46,0,1.25,.24,2.19,.72-.62,.58-1.24,1.17-1.84,1.78-1.11-.65-2.16-1.12-2.9-1.26-.55-.11-1.08,.26-1.19,.81-.1,.55,.26,1.09,.81,1.19,.44,.08,1.09,.36,1.81,.76-.48,.51-.96,1.03-1.43,1.55-.95-.61-1.81-1.09-2.39-1.31-.52-.2-1.11,.06-1.31,.59-.2,.53,.06,1.12,.58,1.32,.42,.16,1.05,.51,1.77,.96-.53,.62-1.05,1.25-1.56,1.89l-1.88-1.35c-.46-.33-1.09-.22-1.42,.24-.33,.46-.22,1.1,.24,1.42l1.8,1.29c-.45,.58-.89,1.18-1.32,1.78-.76-.56-1.39-1.09-1.72-1.52-.35-.44-.99-.52-1.43-.17-.44,.35-.52,.99-.17,1.43,.45,.57,1.22,1.25,2.14,1.92-.41,.6-.82,1.2-1.22,1.81-.73-.58-1.31-1.16-1.56-1.67-.25-.51-.86-.71-1.36-.47-.5,.25-.71,.86-.46,1.37,.4,.81,1.25,1.68,2.28,2.49-.45,.72-.9,1.45-1.33,2.19-.82-.68-1.39-1.38-1.57-1.97-.16-.54-.73-.85-1.27-.68-.54,.16-.84,.73-.68,1.27,.34,1.13,1.29,2.23,2.48,3.16v.02l.16,.1c1.93,1.46,4.41,2.46,5.97,2.46,.07,0,.14,0,.21,0,.56-.04,.98-.52,.95-1.09s-.52-.99-1.08-.95c-.41,.03-1.09-.11-1.93-.43,.42-.71,.85-1.41,1.28-2.09,1.2,.6,2.33,1.01,3.11,1.1,.04,0,.08,0,.12,0,.51,0,.95-.38,1.01-.91,.06-.56-.34-1.07-.89-1.13-.52-.06-1.34-.36-2.23-.8,.39-.59,.79-1.18,1.19-1.76,1.18,.67,2.28,1.19,2.98,1.4,.1,.03,.2,.04,.29,.04,.44,0,.84-.28,.97-.73,.16-.54-.14-1.11-.68-1.27-.53-.16-1.41-.58-2.38-1.13,.4-.55,.8-1.09,1.21-1.62l2.17,1.55c.18,.13,.38,.19,.59,.19,.32,0,.63-.15,.83-.43,.33-.46,.22-1.1-.24-1.42l-2.09-1.49c.52-.64,1.04-1.27,1.57-1.88,.93,.75,1.71,1.49,2.08,2.04,.2,.29,.52,.45,.84,.45,.19,0,.39-.06,.57-.17,.47-.31,.59-.95,.28-1.42-.47-.7-1.37-1.57-2.41-2.43,.49-.54,.99-1.08,1.5-1.6,.82,.71,1.46,1.43,1.7,2.02,.16,.4,.54,.64,.94,.64,.13,0,.25-.02,.38-.07,.52-.21,.77-.81,.56-1.33-.34-.86-1.15-1.81-2.15-2.7,.61-.59,1.22-1.17,1.84-1.74,.61,.64,1.01,1.27,1.13,1.79,.11,.48,.53,.8,.99,.8,.07,0,.15,0,.22-.02,.55-.12,.89-.67,.77-1.22-.2-.91-.79-1.84-1.58-2.68,.54-.46,1.08-.91,1.63-1.34,.42,.55,.69,1.1,.77,1.59,.08,.5,.51,.85,1,.85,.06,0,.11,0,.17-.01,.55-.09,.93-.62,.84-1.18Z" style="fill:#fff;"/><path d="M64.07,220.55c-1.59,0-4.12-1.04-6.03-2.48l-.25-.14,.02-.03c-.91-.72-2.05-1.84-2.45-3.16-.18-.59,.16-1.22,.75-1.4,.59-.18,1.21,.16,1.39,.75,.16,.54,.67,1.19,1.44,1.84,.4-.67,.81-1.35,1.23-2.01-1.1-.86-1.87-1.72-2.24-2.46-.27-.56-.04-1.23,.51-1.5,.55-.27,1.22-.04,1.5,.51,.22,.44,.71,.98,1.45,1.57,.36-.55,.73-1.1,1.1-1.64-.95-.71-1.67-1.36-2.08-1.88-.18-.24-.27-.53-.23-.83s.18-.56,.42-.75c.48-.38,1.19-.3,1.57,.19,.29,.37,.85,.87,1.62,1.44,.38-.53,.77-1.06,1.2-1.61l-1.72-1.23c-.5-.36-.62-1.06-.26-1.57,.36-.5,1.06-.62,1.56-.26l1.8,1.29c.45-.56,.92-1.13,1.43-1.73-.7-.44-1.27-.74-1.65-.89-.57-.22-.86-.87-.64-1.45,.22-.58,.87-.87,1.44-.64,.56,.22,1.39,.67,2.34,1.28,.43-.47,.86-.94,1.29-1.4-.68-.37-1.27-.61-1.67-.69-.61-.12-1-.7-.89-1.31,.06-.3,.22-.55,.47-.72,.25-.17,.55-.23,.84-.18,.72,.14,1.74,.58,2.87,1.24,.55-.55,1.12-1.09,1.68-1.62-.95-.47-1.66-.64-2.02-.65-.3,0-.58-.12-.79-.34s-.32-.5-.32-.8c0-.61,.51-1.11,1.12-1.11,.98,0,2.35,.48,3.77,1.3,.51-.45,1.03-.88,1.52-1.29-.92-.47-1.77-.7-2.3-.62-.3,.05-.59-.02-.83-.19-.24-.17-.4-.43-.45-.73-.1-.61,.31-1.19,.92-1.29,2.85-.49,8.09,2.99,8.67,6.5h0c.05,.3-.02,.59-.19,.84-.17,.24-.43,.41-.73,.45-.62,.11-1.19-.32-1.29-.92-.07-.44-.31-.94-.69-1.46-.49,.39-.98,.8-1.47,1.21,.83,.91,1.34,1.8,1.53,2.65,.07,.29,.01,.59-.15,.85-.16,.25-.41,.43-.7,.5-.08,.02-.16,.03-.24,.03-.52,0-.98-.37-1.09-.88-.1-.47-.47-1.06-1.03-1.67-.56,.51-1.12,1.04-1.69,1.59,1.06,.96,1.78,1.88,2.1,2.67,.23,.57-.05,1.23-.62,1.46-.14,.05-.27,.08-.42,.08-.46,0-.87-.28-1.04-.7-.21-.52-.76-1.18-1.6-1.92-.46,.48-.91,.96-1.36,1.45,.8,.66,1.82,1.58,2.35,2.38,.17,.25,.23,.55,.17,.84s-.23,.55-.47,.72c-.18,.13-.4,.19-.62,.19-.37,0-.72-.19-.93-.5-.32-.48-1.01-1.15-1.98-1.95-.48,.56-.96,1.14-1.43,1.72l2,1.43c.24,.17,.4,.43,.45,.73,.05,.3-.02,.59-.19,.84-.21,.3-.55,.47-.91,.47-.23,0-.46-.07-.65-.21l-2.09-1.49c-.37,.49-.73,.97-1.08,1.44,.95,.53,1.77,.91,2.26,1.06,.59,.18,.92,.81,.75,1.4-.14,.48-.57,.8-1.07,.8-.11,0-.22-.02-.32-.05-.67-.2-1.73-.7-2.92-1.37-.37,.53-.73,1.06-1.07,1.58,.88,.42,1.62,.68,2.09,.74,.3,.03,.56,.18,.75,.42,.19,.23,.27,.53,.24,.83-.07,.61-.6,1.06-1.24,.99-.75-.09-1.86-.47-3.06-1.07-.4,.63-.79,1.28-1.17,1.91,.71,.27,1.37,.42,1.77,.38,.61-.03,1.15,.43,1.19,1.05s-.43,1.15-1.04,1.19c-.07,0-.14,0-.22,0Zm-6-2.7l.09,.05c1.88,1.42,4.37,2.45,5.92,2.45,.07,0,.14,0,.21,0,.5-.03,.89-.47,.85-.98-.03-.5-.46-.89-.97-.86-.45,.03-1.18-.13-1.97-.44l-.11-.04,.06-.1c.41-.69,.84-1.4,1.28-2.1l.05-.08,.08,.04c1.21,.61,2.33,1.01,3.07,1.09,.03,0,.07,0,.1,0,.47,0,.86-.35,.91-.82,.03-.24-.04-.48-.19-.68s-.37-.31-.61-.34c-.52-.06-1.32-.35-2.26-.81l-.1-.05,.06-.1c.38-.58,.78-1.17,1.19-1.76l.05-.08,.08,.05c1.21,.68,2.29,1.19,2.96,1.4,.09,.03,.18,.04,.27,.04,.41,0,.76-.26,.87-.65,.15-.48-.13-1-.61-1.15-.52-.16-1.37-.56-2.4-1.13l-.1-.06,.07-.09c.38-.53,.79-1.07,1.21-1.62l.06-.08,.08,.06,2.17,1.55c.16,.11,.34,.17,.53,.17,.3,0,.58-.14,.75-.39,.14-.2,.2-.44,.16-.69-.04-.24-.17-.45-.37-.6l-2.18-1.55,.07-.08c.51-.64,1.04-1.27,1.57-1.89l.06-.07,.08,.06c.72,.58,1.67,1.41,2.1,2.06,.17,.25,.45,.41,.76,.41,.18,0,.36-.05,.51-.16,.2-.14,.34-.35,.39-.59,.05-.24,0-.49-.14-.69-.43-.64-1.25-1.47-2.39-2.41l-.08-.07,.07-.08c.49-.54,.99-1.08,1.5-1.6l.07-.07,.07,.06c.63,.55,1.44,1.35,1.73,2.06,.14,.35,.47,.58,.85,.58,.12,0,.23-.02,.34-.07,.47-.19,.69-.73,.51-1.2-.31-.78-1.05-1.7-2.13-2.66l-.08-.07,.08-.08c.62-.6,1.24-1.19,1.84-1.74l.07-.07,.07,.07c.64,.67,1.03,1.3,1.15,1.83,.09,.42,.47,.72,.89,.72,.07,0,.14,0,.2-.02,.24-.05,.44-.2,.57-.41,.13-.21,.17-.45,.12-.69-.19-.83-.72-1.74-1.56-2.64l-.07-.08,.08-.07c.54-.46,1.09-.91,1.63-1.35l.08-.07,.06,.08c.43,.58,.71,1.14,.79,1.64,.08,.49,.54,.84,1.05,.76,.24-.04,.45-.17,.59-.37,.14-.2,.2-.44,.16-.69h0c-.57-3.42-5.66-6.8-8.44-6.34-.24,.04-.45,.17-.59,.37s-.2,.44-.16,.69,.17,.45,.37,.6c.2,.14,.44,.2,.68,.16,.58-.1,1.54,.16,2.56,.71l.14,.07-.12,.1c-.55,.45-1.12,.93-1.69,1.43l-.05,.05-.06-.04c-1.39-.81-2.79-1.3-3.72-1.31-.51,0-.92,.41-.92,.91,0,.25,.09,.48,.26,.65,.17,.17,.4,.27,.64,.27,.52,0,1.36,.28,2.24,.73l.13,.07-.11,.1c-.62,.58-1.24,1.17-1.84,1.77l-.06,.05-.07-.04c-1.14-.67-2.16-1.11-2.87-1.25-.24-.05-.48,0-.69,.14-.2,.14-.34,.35-.38,.59-.09,.5,.23,.98,.73,1.07,.44,.08,1.08,.35,1.84,.77l.11,.06-.09,.1c-.48,.5-.96,1.02-1.43,1.55l-.06,.06-.07-.05c-.97-.62-1.81-1.08-2.38-1.3-.47-.18-1,.05-1.18,.53-.18,.47,.05,1.01,.52,1.19,.41,.16,1.03,.5,1.78,.97l.1,.06-.08,.09c-.56,.66-1.07,1.28-1.56,1.89l-.06,.07-1.96-1.4c-.41-.29-.98-.2-1.28,.22-.29,.41-.2,.99,.22,1.28l1.89,1.35-.06,.08c-.47,.62-.9,1.2-1.32,1.78l-.06,.08-.08-.06c-.84-.61-1.42-1.13-1.74-1.54-.15-.19-.37-.32-.61-.35-.24-.03-.48,.04-.67,.19-.19,.15-.31,.37-.34,.61s.04,.48,.19,.68c.41,.52,1.14,1.18,2.12,1.9l.08,.06-.06,.08c-.41,.59-.82,1.2-1.22,1.81l-.06,.09-.09-.07c-.8-.63-1.35-1.22-1.59-1.71-.22-.45-.77-.64-1.23-.42-.45,.22-.64,.78-.42,1.23,.36,.74,1.14,1.58,2.26,2.45l.07,.06-.05,.08c-.45,.72-.9,1.46-1.33,2.19l-.06,.1-.09-.08c-.85-.7-1.42-1.42-1.6-2.02-.07-.23-.23-.43-.44-.54-.21-.12-.46-.14-.7-.07-.48,.15-.76,.66-.61,1.15,.31,1.03,1.15,2.1,2.45,3.11l.06,.05h0Z" style="fill:#474748;"/></g><path d="M60.39,216.97s-.06,0-.08-.02c-.07-.05-.09-.14-.05-.22l1.09-1.73c.05-.07,.14-.09,.22-.05,.07,.05,.09,.14,.05,.22l-1.09,1.73s-.08,.07-.13,.07Z" style="fill:#75211d;"/><path d="M62.97,213.12s-.06,0-.09-.03c-.07-.05-.09-.15-.04-.22l.94-1.41c.05-.07,.14-.09,.22-.04,.07,.05,.09,.15,.04,.22l-.94,1.41s-.08,.07-.13,.07Z" style="fill:#75211d;"/><path d="M65.32,209.67s-.07-.01-.1-.03c-.07-.05-.08-.15-.02-.22l1.25-1.57c.05-.07,.15-.08,.22-.02,.07,.05,.08,.15,.02,.22l-1.25,1.57s-.08,.06-.12,.06Z" style="fill:#75211d;"/><path d="M67.98,206.37s-.07-.01-.1-.03c-.07-.05-.08-.15-.02-.22l1.25-1.57c.05-.07,.15-.08,.22-.02,.07,.05,.08,.15,.02,.22l-1.25,1.57s-.08,.06-.12,.06Z" style="fill:#75211d;"/><path d="M70.95,202.75s-.07-.01-.1-.04c-.07-.06-.07-.16-.01-.22l1.09-1.26c.06-.07,.16-.07,.22-.01,.07,.06,.07,.16,.01,.22l-1.09,1.26s-.07,.05-.12,.05Z" style="fill:#75211d;"/><path d="M73.92,199.77s-.08-.02-.11-.05c-.06-.06-.06-.16,0-.22l1.41-1.41c.06-.06,.16-.06,.22,0s.06,.16,0,.22l-1.41,1.41s-.07,.05-.11,.05Z" style="fill:#75211d;"/><path d="M77.04,196.47s-.09-.02-.12-.05c-.06-.06-.05-.16,.01-.22l1.41-1.26c.06-.06,.16-.05,.22,.01s.05,.16-.01,.22l-1.41,1.26s-.07,.04-.1,.04Z" style="fill:#75211d;"/></g><g id="j"/><g id="k"/><g id="l"/><g id="m"/><g id="n"/><g id="o"/><g id="p"/></svg>