<?xml version="1.0" encoding="UTF-8"?><svg xmlns="http://www.w3.org/2000/svg" viewBox="0 0 255 257"><g id="a"/><g id="b"/><g id="c"/><g id="d"/><g id="e"/><g id="f"/><g id="g"/><g id="h"><rect width="255" height="257" style="fill:#ffe888;"/></g><g id="i"><g><rect x="64.64" y="137.77" width="126.49" height="118.42" rx=".1" ry=".1" style="fill:#1a1b4f;"/><path d="M191.05,257H64.72c-.49,0-.89-.4-.89-.89v-118.25c0-.49,.4-.89,.89-.89h126.33c.49,0,.89,.4,.89,.89v118.25c0,.49-.4,.89-.89,.89Zm-125.6-1.63h124.87v-116.79H65.45v116.79Z"/></g><path d="M120.1,217.59l-19.57-66.07c-.49-1.65,.72-3.31,2.43-3.35l39.48-1.11c1.78-.05,3.08,1.65,2.58,3.35l-19.91,67.18c-.74,2.49-4.27,2.49-5.01,0Z" style="fill:#fff;"/><path d="M127.82,208.47c6.04-20.51,12.07-41.01,18.11-61.52,1.8-.44,3.6-.88,5.4-1.31" style="fill:#d2d2d2;"/><path d="M117.45,208.64c-6-20.52-12-41.04-18-61.55-1.8-.44-3.6-.88-5.4-1.33" style="fill:#d2d2d2;"/><g><g><path d="M119.07,157.86c10.81-.05,28.24-12.2,48.59-12.29,4.45-.02,8.79,.27,12.98,.82,.36,.05,.73,0,1.06-.17,10.35-5.01,17.25-14.06,17.21-24.38-.04-10.07-6.69-18.88-16.66-23.87-.26-.13-.48-.32-.66-.56-10.07-13.81-29.14-23.09-50.99-22.99-22.87,.1-42.61,10.46-52.12,25.44,0,.01-.02,.02-.03,.03-11.48,6.11-19.01,16.41-18.96,28.06,.03,7.21,2.97,13.88,7.93,19.34,.53,.59,1.37,.74,2.11,.45,4.63-1.85,9.65-2.87,14.9-2.9,13.59-.06,23.84,13.06,34.65,13.01Z" style="fill:#ddbc9c;"/><path d="M119.01,158.68c-5.29,0-10.33-2.94-15.67-6.06-5.85-3.42-11.9-6.95-18.82-6.95h-.09c-5.02,.02-9.94,.98-14.6,2.84-1.07,.43-2.25,.17-3-.66-5.3-5.82-8.11-12.7-8.14-19.88-.05-11.48,7.13-22.19,19.22-28.69,10.08-15.73,30.25-25.55,52.7-25.66,.11,0,.23,0,.34,0,21.17,0,40.81,8.92,51.31,23.33,.09,.13,.22,.24,.36,.31,10.67,5.34,17.07,14.53,17.11,24.6,.05,10.36-6.56,19.75-17.66,25.12-.47,.22-.99,.31-1.52,.24-4.25-.56-8.57-.83-12.87-.82-11.62,.05-22.12,4.03-31.38,7.53-6.71,2.54-12.51,4.73-17.21,4.75h-.06Zm-34.49-14.63c7.36,0,13.6,3.64,19.63,7.17,5.14,3,10,5.84,14.86,5.84h.06c4.41-.02,10.08-2.17,16.65-4.65,8.92-3.38,20.03-7.58,31.94-7.64,4.4-.04,8.77,.26,13.09,.83,.21,.03,.42,0,.6-.09,10.53-5.09,16.79-13.93,16.75-23.65-.04-9.44-6.1-18.09-16.21-23.15-.37-.19-.7-.46-.95-.8-10.2-13.99-29.34-22.66-50-22.66-.11,0-.22,0-.33,0-21.98,.1-41.69,9.7-51.44,25.07l-.11,.17-.21,.13c-11.67,6.21-18.59,16.43-18.54,27.35,.03,6.77,2.7,13.27,7.72,18.79,.29,.32,.77,.42,1.21,.25,4.85-1.94,9.97-2.93,15.19-2.95h.1Z"/></g><path d="M119.07,158.96c-3.34-.48-6.05-.36-15.87-6.1-5.85-3.41-11.89-6.94-18.78-6.91-4.99,.02-9.87,.97-14.51,2.82-1.17,.47-2.47,.18-3.29-.73-5.35-5.88-8.19-12.82-8.22-20.08-.05-11.57,7.16-22.36,19.3-28.91,10.14-15.77,30.37-25.62,52.88-25.72,21.38-.1,41.25,8.88,51.86,23.43l.27,.23c10.77,5.38,17.22,14.67,17.26,24.85,.05,10.47-6.61,19.96-17.82,25.38-.32,.16-1.2,.19-1.67,.27-6.67,1.02-11.58,1.29-12.93,1.38-9.95,.68-21.9,4.93-23.76,5.59-6.22,2.21-8.44,3.69-14.03,4.45-5.5,.75-9.7,.19-10.7,.05Zm-34.66-15.2c7.47-.03,13.77,3.65,19.87,7.21,5.13,3,9.98,5.83,14.78,5.8,4.36-.02,10.01-2.16,16.55-4.63,8.94-3.39,20.08-7.6,32.04-7.65,4.37-.02,8.79,.26,13.12,.83,.16,.02,.32,0,.46-.07,10.43-5.04,16.63-13.79,16.58-23.39-.04-9.32-6.04-17.88-16.05-22.89-.42-.21-.78-.52-1.06-.9-10.21-14-29.41-22.63-50.11-22.54-21.89,.1-41.52,9.65-51.22,24.94l-.16,.25-.29,.16c-11.54,6.14-18.41,16.27-18.36,27.07,.03,6.7,2.67,13.13,7.65,18.6,.22,.24,.58,.3,.91,.17,4.88-1.95,10.03-2.95,15.29-2.97Z"/></g><path d="M152.51,141.43c-17.34-9.8-55.16-7.43-59.45,1.36-19.49-6.5-31.62-61.3,11.72-39.55,43.33,21.75-12.87,23.1,32.42-2.34,45.29-25.44,41.22,32.73,15.31,40.52Z" style="fill:#fae9d8;"/><g><path d="M144.81,112.94c.02,3.47,5.44,8.75,9.77,8.73,3.89-.02,9.48-5.35,10.57-8.82l-20.33,.09Z" style="fill:#f8d452;"/><path d="M154.56,121.88c-2.03,0-4.5-1.16-6.61-3.11-2.05-1.89-3.33-4.12-3.33-5.82v-.2l20.81-.09-.08,.27c-1.15,3.69-6.91,8.95-10.76,8.97h-.02Zm-9.53-8.73c.1,1.57,1.31,3.58,3.2,5.32,2.05,1.89,4.42,3.02,6.36,3,3.1-.01,8.82-4.32,10.28-8.42l-19.84,.09Z"/></g><path d="M165.54,107.96c6.26-3.92-.98-4.99-7.01-4.86-6.11,.13-13.09,2.01-14.8,9.84l9.73-.04c5.79-.03,6.55-1.48,12.08-4.94Z" style="fill:#959595;"/><path d="M163.82,101.96c-3.08,.03-5.93,.66-8.36,1.38,1.03-.14,2.06-.21,3.07-.23,6.03-.13,13.26,.94,7.01,4.86-5.53,3.46-6.42,4.92-12.2,4.94h-2.35c7.88-.02,12.36,.63,17.6-1.17,9.71-3.33,9.71-4.71,17.27-6.66,4.32-1.12-10.82-3.24-22.03-3.12Z" style="fill:#979747;"/><path d="M149.21,112.92c1.02,2.19,2.36,3.28,4.81,3.27s3.77-2.21,4.85-3.31l-9.66,.04Z"/><g><path d="M100.86,114.13c-.39,.07-.87,.12-1.44,.12-1.7-.05-9.13,.74-13.06,.46-.62,3.24,3.45,7.26,5.53,7.25,5.63,1.38,6.48-2.22,9.7-6.63,.54-.74,.38-1.08-.72-1.21Z" style="fill:#f8d452;"/><path d="M94.08,122.46c-.66,0-1.4-.1-2.24-.3h-.02c-1.07,0-2.68-1.04-3.96-2.59-1.36-1.65-1.98-3.43-1.7-4.9l.03-.18h.18c2.51,.19,6.51-.08,9.43-.27,1.68-.11,3.01-.2,3.62-.18,.52,0,1-.04,1.4-.12h.06c.69,.08,1.03,.24,1.16,.53,.14,.33-.08,.71-.3,1-.6,.82-1.11,1.6-1.6,2.36-1.71,2.62-3.04,4.65-6.06,4.65Zm-2.2-.7c4.48,1.1,5.85-1,7.92-4.17,.5-.76,1.01-1.54,1.62-2.38,.28-.38,.28-.54,.25-.6-.03-.07-.18-.21-.81-.28-.42,.08-.91,.12-1.45,.12-.6-.02-1.92,.07-3.59,.18-2.86,.19-6.76,.45-9.3,.29-.18,1.31,.42,2.9,1.64,4.39,1.19,1.44,2.71,2.45,3.71,2.45h0Z"/></g><path d="M90.82,114.71c.21,1.61,1.57,2.86,3.21,2.85,1.78,0,4.29-1.48,4.31-3.29-1.71,.08-4.7,.33-7.52,.44Z"/><path d="M91.01,112.91c-4.16-.08-8.7-3.03-8.76-4.93,0-.11,.03-.21,.05-.31,.29-1.17,2.37-2.19,4.87-2.79,.19-.12,.36-.24,.52-.36-.16,.12-.34,.24-.52,.36,2.21-.53,4.74-.73,6.59-.4,1.58,.28,3.27,1.14,4.76,2.22-1.63-1.82-5.46-3.85-9.97-3.63h.01s-.01,0-.02,0c-3.27-.25-20.52-.74-20.52-.74,5.88,2.32,11.25,4.51,7.99,7.56h0c-1.83,1.36-4.61,2.6-10.1,3.42-6.44,.96,12.96-2.25,18.38,1.01,2.17,1.09,13.04-.13,15.13-.07,3.24-.01,3.34-1.33,3.35-1.79-.55,1.53-6.65,.56-11.76,.46Zm-2.92-8.69s.03-.02,.04-.03c-.01,.01-.03,.02-.04,.03Z" style="fill:#979747;"/><path d="M102.82,112.19c.06,1.9-6.43,.82-11.81,.72-4.16-.08-8.7-3.03-8.76-4.93-.07-2.36,7.39-4.24,11.5-3.51,4.12,.73,8.99,5.35,9.07,7.72Z" style="fill:#959595;"/><path d="M131.23,133.49c-.26-.13-.57-.06-.76,.16l-10.09,11.47c.05,.2,.09,.41,.14,.61,.45,2,.91,4.06,1.96,5.62,.32,.48,1.04,.36,1.18-.2,.77-3.04,3.14-10.72,8-13.44,2.07-1.16,4.41-1.46,6.96-.9,.11,.02,.22,.05,.32,.07-.3-.13-.61-.26-.91-.38-2.37-.99-4.72-2-6.79-3.01Z"/><g><path d="M119.72,155.02c-4.98-5.78-.71-20.06-12.6-18.91,7.55-3.33,10.76-11.02,10.76-11.02,0,0,2.16-5.36,3.8,.05,1.63,5.41,25.45,14.08,13.55,10.84-11.9-3.24-14.5,19.1-14.5,19.1-.26,.35-.79,.31-1.01-.06Z" style="fill:#3c502b;"/><path d="M120.24,155.73s-.04,0-.06,0c-.32-.02-.62-.19-.79-.47-1.86-2.18-2.46-5.48-3.05-8.67-1.02-5.54-1.98-10.78-9.18-10.08l-2.52,.24,2.32-1.02c7.32-3.22,10.52-10.73,10.55-10.8,.18-.44,1.12-2.62,2.45-2.62,.02,0,.04,0,.06,0,.84,.04,1.51,.92,2.05,2.71,.86,2.84,8.84,6.97,13.13,9.19,3.54,1.83,3.92,2.05,3.72,2.57-.17,.43-.38,.52-3.8-.41-2.26-.61-4.32-.3-6.15,.94-6.2,4.21-7.83,17.67-7.85,17.81v.11l-.08,.09c-.19,.25-.49,.4-.8,.4Zm-11.3-20.08c6.26,.27,7.24,5.62,8.19,10.8,.57,3.09,1.15,6.29,2.89,8.31l.04,.06c.05,.08,.12,.1,.16,.1,.02,0,.07,0,.11-.02,.2-1.57,1.95-14.01,8.18-18.24,2.03-1.38,4.32-1.73,6.81-1.05,.61,.17,1.1,.29,1.49,.39-.59-.32-1.3-.68-1.99-1.04-5.01-2.59-12.58-6.51-13.54-9.68-.57-1.89-1.11-2.12-1.32-2.13h-.02c-.58,0-1.35,1.25-1.7,2.11-.12,.3-2.89,6.78-9.31,10.4Z"/></g><g><path d="M119.53,149.54c-2.09-9.43-1.57-18.69,.99-26.6-1.34-1.05-2.64,2.15-2.64,2.15,0,0-3.21,7.69-10.76,11.02,11.89-1.15,7.62,13.13,12.6,18.91,.22,.38,.74,.41,1.01,.06,0,0,.03-.28,.1-.74-.5-1.56-.93-3.16-1.3-4.8Z" style="fill:#56703c;"/><path d="M120.24,155.73s-.04,0-.06,0c-.34-.02-.64-.21-.81-.5-1.83-2.12-2.44-5.43-3.03-8.63-1.02-5.54-1.98-10.78-9.18-10.08l-2.52,.24,2.32-1.02c7.32-3.22,10.52-10.73,10.55-10.8,.09-.23,.94-2.25,2.12-2.57,.39-.11,.79-.02,1.14,.25l.22,.18-.09,.27c-2.65,8.18-2.98,17.31-.98,26.39h0c.34,1.55,.78,3.15,1.29,4.76l.03,.09v.09c-.08,.46-.11,.73-.12,.73v.11l-.08,.09c-.19,.25-.49,.4-.8,.4Zm-11.3-20.08c6.26,.27,7.24,5.62,8.19,10.8,.57,3.09,1.15,6.29,2.89,8.31,.09,.14,.17,.16,.21,.16,.02,0,.07,0,.11-.03,.01-.11,.04-.29,.07-.52-.51-1.6-.94-3.2-1.28-4.74h0c-2.01-9.1-1.7-18.25,.89-26.49-.07-.01-.14,0-.19,0-.6,.16-1.29,1.37-1.58,2.09-.12,.3-2.89,6.78-9.31,10.4Z"/></g><path d="M123.09,168.58l-.58,37.2c.12,0,.24-.05,.33-.15l2.52-2.72h0l-2.27-34.33Z" style="fill:#444240;"/><path d="M123.09,168.58l-.58,37.2c-.12,0-.24-.06-.33-.16l-2.44-2.8h0l3.35-34.24Z" style="fill:#949492;"/><path d="M123,160.19l-3.52,5.98,3.55,1.72-.04-7.7Z" style="fill:#949492;"/><path d="M123,160.19l3.57,5.95-3.54,1.76-.04-7.7Z" style="fill:#444240;"/><path d="M123.02,164.86l-3.54,1.32q3.55,1.72,3.55,1.72v-3.04Z" style="fill:#494844;"/><path d="M123.02,164.86l3.55,1.28q-3.54,1.76-3.54,1.76v-3.04Z" style="fill:#272622;"/><path d="M123.04,168.43v2.89l3.54-4.7-3.54,1.81Z" style="fill:#444240;"/><path d="M123.04,168.43v2.89l-3.55-4.67,3.55,1.78Z" style="fill:#949492;"/></g><g id="j"><g style="opacity:.4;"><g><path d="M75.13,107.45c-3.5,4.22-.67,11.4,2.16,15.21,6.77,9.1,22.97,9.15,31.35,1.09,.74-.71,6.49-6.52,5.41-13.04-2.16-8.69-32.69-10.78-38.92-3.26Z" style="fill:#fff;"/><path d="M93.01,130.06c-.71,0-1.41-.03-2.12-.09-5.87-.49-10.94-3.06-13.92-7.06-2.88-3.88-5.84-11.26-2.15-15.71,4.13-4.99,18.38-5.86,28.58-3.52,6.37,1.46,10.29,3.93,11.04,6.94,1.13,6.81-4.83,12.77-5.52,13.43-3.99,3.84-9.82,6.01-15.92,6.01Zm-1.06-26.79c-7.2,0-14.01,1.43-16.51,4.45h0c-3.36,4.06-.45,11.18,2.17,14.71,2.84,3.81,7.7,6.27,13.33,6.74,6.53,.54,13.19-1.64,17.42-5.7,.65-.63,6.34-6.31,5.29-12.68-.65-2.63-4.46-4.94-10.43-6.31-3.47-.8-7.42-1.2-11.27-1.2Z" style="fill:#fff;"/></g><g><path d="M166.62,107.45c-6.23-7.52-36.76-5.43-38.92,3.26-1.08,6.52,4.66,12.32,5.41,13.04,8.39,8.06,24.58,8.01,31.35-1.09,2.83-3.81,5.66-10.99,2.16-15.21Z" style="fill:#fff;"/><path d="M148.74,130.06c-6.09,0-11.92-2.18-15.92-6.01-.68-.66-6.65-6.63-5.52-13.4,.76-3.04,4.68-5.51,11.05-6.97,10.2-2.34,24.45-1.47,28.58,3.52h0c3.69,4.45,.73,11.84-2.15,15.71-2.98,4-8.05,6.57-13.92,7.06-.71,.06-1.42,.09-2.12,.09Zm1.06-26.79c-3.85,0-7.8,.41-11.27,1.2-5.97,1.37-9.77,3.68-10.44,6.34-1.05,6.33,4.64,12.02,5.29,12.64,4.22,4.06,10.9,6.24,17.42,5.7,5.64-.47,10.5-2.93,13.33-6.74,2.63-3.53,5.54-10.64,2.17-14.71h0c-2.5-3.02-9.31-4.45-16.51-4.45Z" style="fill:#fff;"/></g></g><g style="opacity:.8;"><path d="M173.56,104.19c-30.27-6.52-39.86-.71-49.73,3.26v.02c-1.82,.46-3.63,.47-5.45,0v-.03c-9.88-3.97-19.46-9.78-49.73-3.26-.01,.66-.01,1.86,0,4.35,4.11,.83,2.6,11.69,9.7,17.81,3.61,3.11,8.19,3.61,9.76,3.92,0,0,5.59,1.09,10.81,0,12.61-2.63,18.96-17.28,19.46-18.47v-.04c1.82-.51,3.63-.51,5.45,.01v.03c.51,1.37,6.03,15.54,18.33,18.47,5.41,1.29,11.12,.17,11.94,0,1.85-.38,6.25-.89,9.76-3.92,7.1-6.12,5.59-16.99,9.7-17.81,.01-2.48,.01-3.68,0-4.35Zm-64.91,19.55c-8.39,8.06-24.58,8.01-31.35-1.09-2.83-3.81-5.66-10.99-2.16-15.21,6.23-7.52,36.76-5.43,38.92,3.26,1.08,6.52-4.66,12.32-5.41,13.04Zm55.81-1.09c-6.77,9.1-22.97,9.15-31.35,1.09-.74-.71-6.49-6.52-5.41-13.04,2.16-8.69,32.69-10.78,38.92-3.26,3.5,4.22,.67,11.4-2.16,15.21Z" style="fill:#e4e4e4;"/><path d="M147.8,131.18c-1.79,0-3.77-.15-5.71-.62-12.1-2.88-17.71-16.47-18.5-18.54-1.65-.45-3.32-.45-4.97,0-.86,2.03-7.2,15.96-19.64,18.55-5.23,1.09-10.87,.01-10.93,0-.17-.03-.36-.07-.59-.11-1.95-.34-6.01-1.04-9.31-3.88-3.91-3.37-5.24-8.1-6.31-11.91-.86-3.07-1.55-5.49-3.25-5.84l-.24-.05v-.25c-.01-2.45-.02-3.68,0-4.35v-.24l.24-.05c27.78-5.98,38.19-1.62,47.37,2.23,.85,.36,1.69,.71,2.53,1.05l.16,.07c1.66,.39,3.34,.38,5-.03l.07-.04c.84-.34,1.68-.69,2.53-1.05,9.19-3.85,19.6-8.21,47.37-2.23l.23,.05v.24c.02,.65,.02,1.82,0,4.35v.25l-.24,.05c-1.7,.34-2.39,2.77-3.25,5.84-1.07,3.8-2.4,8.54-6.31,11.91-3.18,2.74-7.09,3.46-9.19,3.85-.26,.05-.5,.09-.71,.13-.69,.14-3.24,.61-6.36,.61Zm-23.67-19.44c.67,1.79,6.17,15.39,18.1,18.23,5.19,1.24,10.75,.22,11.81,0,.21-.04,.45-.09,.72-.14,2.04-.38,5.85-1.08,8.9-3.71,3.77-3.25,5.08-7.89,6.12-11.61,.88-3.14,1.59-5.64,3.47-6.21,.01-2.09,.01-3.2,0-3.86-27.41-5.87-37.7-1.56-46.78,2.24-.8,.33-1.58,.66-2.37,.98v.03l-.21,.08c-1.85,.47-3.73,.48-5.6,.01l-.21-.05v-.06c-.79-.32-1.58-.65-2.37-.98-9.08-3.8-19.37-8.11-46.78-2.24,0,.68,0,1.83,0,3.86,1.88,.56,2.59,3.07,3.47,6.21,1.05,3.72,2.35,8.36,6.12,11.61,3.17,2.73,7.12,3.41,9.01,3.74,.23,.04,.44,.08,.61,.11,.06,.01,5.59,1.07,10.69,0,5.2-1.09,9.94-4.34,14.09-9.66,3.1-3.98,4.77-7.74,5.13-8.58v-.17l.22-.1c1.87-.53,3.76-.52,5.62,.01l.22,.06v.2Zm24.61,18.22c-6.07,0-11.87-2.17-15.85-5.99-.68-.65-6.61-6.58-5.5-13.31,.74-3,4.64-5.43,10.97-6.89,10.17-2.34,24.37-1.48,28.48,3.48,3.65,4.41,.71,11.74-2.15,15.59h0c-2.96,3.98-8,6.54-13.84,7.02-.71,.06-1.41,.09-2.12,.09Zm1.07-26.87c-3.57,0-7.43,.39-11.31,1.28-6.01,1.38-9.84,3.72-10.51,6.42-1.06,6.39,4.66,12.11,5.32,12.74,4.24,4.08,10.95,6.28,17.49,5.73,5.67-.47,10.55-2.94,13.41-6.78,2.75-3.7,5.6-10.7,2.17-14.83-2.19-2.65-8.68-4.56-16.57-4.56Zm14.64,19.57h0Zm-71.45,7.29c-.7,0-1.41-.03-2.12-.09-5.84-.49-10.89-3.05-13.84-7.02-2.86-3.85-5.8-11.18-2.15-15.59,4.11-4.96,18.31-5.82,28.48-3.48,6.33,1.45,10.22,3.89,10.97,6.86,1.12,6.75-4.81,12.68-5.49,13.33-3.97,3.82-9.78,5.99-15.85,5.99Zm-1.07-26.87c-7.89,0-14.38,1.91-16.57,4.56-3.42,4.13-.58,11.14,2.17,14.83,2.85,3.84,7.74,6.31,13.41,6.78,6.55,.55,13.25-1.65,17.49-5.73h0c.66-.63,6.38-6.35,5.32-12.77-.67-2.67-4.5-5.01-10.51-6.39-3.88-.89-7.74-1.28-11.31-1.28Z" style="fill:#fff;"/></g></g><g id="k"/><g id="l"/><g id="m"/><g id="n"/><g id="o"/><g id="p"/></svg>