<?xml version="1.0" encoding="UTF-8"?><svg xmlns="http://www.w3.org/2000/svg" viewBox="0 0 415.55 489.15"><g id="a"/><g id="b"/><g id="c"/><g id="d"/><g id="e"/><g id="f"/><g id="g"/><g id="h"><path d="M103.48,411.63h0l86.86-124.76h0l3.66-5.25,65-93.36c4.66,3.42,9.32,6.84,13.97,10.25,2.09-3.21,4.18-6.41,6.27-9.62,4.44,3.87,8.6,7.89,12.37,12.13,.08,.09,.15,.18,.23,.27,1.8,2.03,3.49,4.11,5.13,6.22,.34,.44,.68,.87,1,1.31,1.48,1.97,2.88,3.99,4.21,6.04,.77,1.19,1.52,2.4,2.25,3.62,.26,.44,.52,.87,.77,1.31,.75,1.29,1.46,2.6,2.15,3.93,.26,.49,.5,.98,.75,1.48,.66,1.32,1.3,2.65,1.91,4,.22,.5,.43,1.01,.65,1.51,.6,1.39,1.18,2.78,1.72,4.2,.15,.39,.27,.78,.42,1.17,1.9,5.22,3.43,10.65,4.51,16.32,1.81,9.45,2.47,19.52,1.84,30.3,3.34-.85,15.06-4.03,29.29-11.78l-5.68-7.92,21.41-2.12c13.54-9.98,27.45-24.11,37.68-44.14,4.22-8.26,7.18-16.43,9.32-24.38l-20.08-27.33,24.43-2.7c.63-25.89-6.46-45.39-8.18-49.88-4.14,3.52-12.3,9.8-23.87,14.96-1.43,.64-2.96,1.23-4.49,1.83-.91,.35-1.82,.7-2.77,1.04-1.29,.46-2.61,.89-3.97,1.3-1.49,.45-3.03,.86-4.61,1.26-1.07,.27-2.12,.55-3.23,.79-2.82,.6-5.72,1.12-8.77,1.48-2.36,.27-4.6,.37-6.83,.46-1.2,.05-2.37,.07-3.53,.08-1.68,0-3.33-.03-4.94-.1-.71-.03-1.45-.04-2.14-.09-.18-.01-.37-.02-.55-.04-1.72-.13-3.4-.29-5.01-.5-.19-.02-.38-.05-.57-.08-1.59-.21-3.13-.45-4.61-.71-.17-.03-.33-.06-.5-.1-1.48-.27-2.91-.57-4.26-.88-.05-.01-.1-.03-.16-.04-2.16-.51-4.1-1.05-5.91-1.6,3.04-4.66,6.08-9.33,9.12-13.99-4.2-2.34-8.41-4.69-12.61-7.03l6.76-9.71h0c-3.81-7.1-8.4-10.55-13.41-12.03-1.67-.49-3.39-.77-5.14-.89l-9.04,11.01c-4.58-2.56-9.17-5.11-13.75-7.67-1.88,2.13-3.76,4.27-5.64,6.4-3.35-4.11-6.49-8.29-9.25-12.61-.06-.1-.12-.2-.19-.31-1.45-2.29-2.8-4.61-4.08-6.96-.26-.48-.53-.96-.78-1.45-1.15-2.18-2.21-4.4-3.21-6.64-.58-1.3-1.12-2.6-1.64-3.92-.19-.47-.38-.95-.56-1.43-.53-1.39-1.03-2.79-1.5-4.2-.18-.53-.34-1.06-.51-1.59-.44-1.41-.87-2.82-1.25-4.25-.14-.52-.27-1.05-.4-1.58-.37-1.47-.73-2.94-1.03-4.43-.08-.4-.14-.81-.22-1.21-1.06-5.46-1.7-11.07-1.88-16.85-.29-9.61,.65-19.66,2.98-30.2-3.43,.31-15.5,1.6-30.78,7l4.35,8.71-21.47-1.29c-14.95,7.71-30.92,19.47-44.19,37.62-5.47,7.49-9.69,15.09-13.06,22.59l15.5,30.16-24.55-1.2c-4.72,25.46-.8,45.84,.19,50.55,4.64-2.82,13.7-7.73,25.94-10.99,1.51-.4,3.11-.75,4.71-1.09,.96-.21,1.92-.41,2.92-.59,1.34-.25,2.71-.46,4.11-.65,1.55-.21,3.14-.37,4.76-.51,1.1-.1,2.18-.21,3.31-.27,2.88-.15,5.83-.2,8.9-.07,2.37,.1,4.6,.36,6.82,.63,1.19,.14,2.35,.3,3.5,.48,1.66,.26,3.28,.55,4.85,.88,.7,.15,1.43,.27,2.12,.43,.17,.04,.34,.08,.51,.12,1.69,.4,3.31,.83,4.88,1.29,.18,.05,.36,.11,.54,.16,1.54,.46,3.03,.94,4.44,1.44,.16,.06,.31,.11,.46,.17,1.42,.51,2.79,1.02,4.07,1.55,.05,.02,.09,.04,.13,.06,1.8,.74,3.42,1.47,4.94,2.2-2.79,3.17-5.58,6.34-8.38,9.5,5.01,3.68,10.02,7.36,15.03,11.03-6.03,7.34-12.07,14.69-18.1,22.03h0c-.22,.27-.44,.54-.66,.8-5,6.08-10,12.17-15,18.25h0c-2.75,3.35-5.5,6.7-8.25,10.05h0c-4.35,5.29-8.69,10.58-13.04,15.87h0c-7.03,8.55-14.05,17.11-21.08,25.66h0c-4.26,5.18-8.52,10.37-12.78,15.55h0c-2.12,2.58-4.24,5.16-6.36,7.74-18.4,22.4-36.8,44.79-55.2,67.19h0c-4.64,5.64-9.27,11.29-13.91,16.93-11.05,13.46-22.11,26.91-33.16,40.37-12.14,14.78-24.28,29.56-36.43,44.34H0c6.11,8.52,13.17,15.81,21.36,21.63,2.05,1.46,4.17,2.82,6.36,4.09,4.38,2.54,9.06,4.7,14.06,6.44,2.5,.87,5.08,1.64,7.74,2.31l53.96-77.51Z" style="fill:#fff; opacity:.1;"/></g><g id="i"/><g id="j"/><g id="k"/><g id="l"/><g id="m"/><g id="n"/><g id="o"/><g id="p"/></svg>