<?xml version="1.0" encoding="UTF-8"?><svg xmlns="http://www.w3.org/2000/svg" viewBox="0 0 1407.02 279.29"><g id="a"/><g id="b"/><g id="c"/><g id="d"/><g id="e"/><g id="f"/><g id="g"><g style="opacity:.1;"><path d="M87.99,196.45l-31.57-118.49V206.34c0,7.1-1.68,12.43-5.04,15.99-3.36,3.55-7.81,5.33-13.37,5.33s-9.76-1.76-13.16-5.27c-3.4-3.51-5.1-8.86-5.1-16.05V59.18c0-8.12,2.24-13.59,6.72-16.43,4.48-2.83,10.52-4.25,18.14-4.25h12.36c7.43,0,12.83,.63,16.19,1.9,3.36,1.27,5.84,3.55,7.46,6.85,1.61,3.3,3.45,8.67,5.51,16.11l28.61,101.87,28.61-101.87c2.06-7.44,3.9-12.81,5.51-16.11,1.61-3.3,4.1-5.58,7.46-6.85,3.36-1.27,8.75-1.9,16.19-1.9h12.36c7.61,0,13.66,1.42,18.14,4.25,4.48,2.83,6.72,8.31,6.72,16.43V206.34c0,7.1-1.68,12.43-5.04,15.99-3.36,3.55-7.86,5.33-13.5,5.33-5.29,0-9.63-1.78-13.03-5.33-3.4-3.55-5.1-8.88-5.1-15.99V77.96l-31.57,118.49c-2.06,7.7-3.74,13.34-5.04,16.94-1.3,3.6-3.69,6.87-7.19,9.83-3.49,2.96-8.33,4.44-14.51,4.44-4.66,0-8.6-.95-11.82-2.85-3.22-1.9-5.73-4.33-7.52-7.29-1.79-2.96-3.2-6.24-4.23-9.83-1.03-3.59-2.08-7.34-3.16-11.23Z" style="fill:#fff;"/><path d="M380.44,67.55h-89.87v45.67h82.75c6.09,0,10.63,1.29,13.63,3.87,3,2.58,4.5,5.98,4.5,10.21s-1.48,7.68-4.43,10.34c-2.96,2.66-7.52,4-13.7,4h-82.75v52.9h92.96c6.27,0,10.99,1.38,14.17,4.12,3.18,2.75,4.77,6.41,4.77,10.97s-1.59,7.97-4.77,10.72c-3.18,2.75-7.9,4.12-14.17,4.12h-108.41c-8.69,0-14.93-1.82-18.74-5.46-3.81-3.64-5.71-9.51-5.71-17.63V61.59c0-5.41,.85-9.83,2.55-13.26,1.7-3.43,4.37-5.92,7.99-7.49,3.63-1.56,8.26-2.35,13.9-2.35h105.32c6.36,0,11.08,1.33,14.17,4,3.09,2.66,4.63,6.15,4.63,10.47s-1.54,7.93-4.63,10.59c-3.09,2.66-7.81,4-14.17,4Z" style="fill:#fff;"/><path d="M562.06,69.58h-43.52V204.69c0,7.78-1.84,13.55-5.51,17.32-3.67,3.76-8.42,5.65-14.24,5.65s-10.73-1.9-14.44-5.71c-3.72-3.81-5.57-9.56-5.57-17.25V69.58h-43.52c-6.81,0-11.87-1.42-15.18-4.25-3.31-2.83-4.97-6.58-4.97-11.23s1.72-8.63,5.17-11.42c3.45-2.79,8.44-4.19,14.98-4.19h126.81c6.9,0,12.02,1.44,15.38,4.31,3.36,2.88,5.04,6.64,5.04,11.29s-1.7,8.39-5.1,11.23c-3.4,2.83-8.51,4.25-15.31,4.25Z" style="fill:#fff;"/><path d="M714.79,203.43l-9.4-23.34h-80.06l-9.4,23.85c-3.67,9.31-6.81,15.58-9.4,18.84-2.6,3.25-6.85,4.88-12.76,4.88-5.02,0-9.45-1.73-13.3-5.2-3.85-3.47-5.78-7.4-5.78-11.8,0-2.54,.45-5.16,1.34-7.87,.89-2.71,2.37-6.47,4.43-11.29l50.38-120.78c1.43-3.47,3.16-7.63,5.17-12.5,2.02-4.86,4.16-8.9,6.45-12.12,2.28-3.21,5.28-5.81,9-7.8,3.72-1.99,8.31-2.98,13.77-2.98s10.19,1,13.9,2.98c3.71,1.99,6.72,4.55,9,7.68,2.28,3.13,4.21,6.49,5.78,10.08,1.56,3.6,3.56,8.4,5.98,14.4l51.45,120.02c4.03,9.13,6.04,15.78,6.04,19.92s-1.9,8.27-5.71,11.86c-3.81,3.59-8.4,5.39-13.77,5.39-3.14,0-5.82-.53-8.06-1.59-2.24-1.06-4.12-2.49-5.64-4.31-1.52-1.82-3.16-4.61-4.9-8.37-1.75-3.76-3.25-7.08-4.5-9.96Zm-78.99-51.63h58.84l-29.69-76.75-29.15,76.75Z" style="fill:#fff;"/><path d="M869.68,35.33c20.42,0,37.95,3.91,52.59,11.74,14.64,7.82,25.72,18.95,33.25,33.37,7.52,14.42,11.28,31.36,11.28,50.81,0,14.38-2.06,27.45-6.18,39.2-4.12,11.76-10.3,21.95-18.54,30.58-8.24,8.63-18.36,15.22-30.36,19.79-12,4.57-25.75,6.85-41.24,6.85s-29.2-2.35-41.38-7.04c-12.18-4.69-22.35-11.31-30.49-19.85-8.15-8.54-14.31-18.82-18.47-30.83-4.16-12.01-6.25-24.99-6.25-38.95s2.17-27.4,6.52-39.33c4.34-11.92,10.63-22.07,18.87-30.45,8.24-8.37,18.27-14.78,30.09-19.22,11.82-4.44,25.25-6.66,40.3-6.66Zm56.69,95.66c0-13.62-2.33-25.42-6.99-35.4-4.66-9.98-11.31-17.53-19.95-22.65-8.64-5.12-18.56-7.68-29.75-7.68-7.97,0-15.34,1.42-22.1,4.25-6.76,2.83-12.58,6.96-17.46,12.37-4.88,5.41-8.73,12.33-11.55,20.74-2.82,8.42-4.23,17.87-4.23,28.35s1.41,20.13,4.23,28.67c2.82,8.54,6.8,15.63,11.96,21.25,5.15,5.62,11.06,9.83,17.73,12.62,6.67,2.79,13.99,4.19,21.96,4.19,10.21,0,19.59-2.41,28.14-7.23,8.55-4.82,15.36-12.26,20.42-22.33,5.06-10.06,7.59-22.46,7.59-37.17Z" style="fill:#fff;"/><path d="M1143.72,195.18l-31.84-111.52-32.24,111.52c-2.51,8.46-4.5,14.53-5.98,18.21-1.48,3.68-4.05,6.98-7.72,9.9-3.67,2.92-8.55,4.38-14.64,4.38-4.93,0-8.98-.87-12.16-2.6-3.18-1.73-5.76-4.19-7.72-7.36-1.97-3.17-3.58-6.93-4.84-11.29-1.25-4.36-2.37-8.39-3.36-12.12l-32.78-125.22c-1.97-7.27-2.96-12.81-2.96-16.62,0-4.82,1.79-8.88,5.37-12.18,3.58-3.3,8.01-4.95,13.3-4.95,7.25,0,12.13,2.2,14.64,6.6,2.51,4.4,4.7,10.78,6.58,19.16l25.79,108.6,28.88-101.62c2.15-7.78,4.07-13.7,5.78-17.76,1.7-4.06,4.48-7.57,8.33-10.53,3.85-2.96,9.09-4.44,15.72-4.44s11.93,1.54,15.65,4.63c3.72,3.09,6.29,6.45,7.72,10.09,1.43,3.64,3.36,9.64,5.78,18.01l29.15,101.62,25.79-108.6c1.25-5.67,2.44-10.11,3.56-13.32,1.12-3.21,3.04-6.09,5.78-8.63,2.73-2.54,6.69-3.81,11.89-3.81s9.6,1.63,13.23,4.88c3.63,3.26,5.44,7.34,5.44,12.24,0,3.47-.99,9.01-2.96,16.62l-32.78,125.22c-2.24,8.46-4.1,14.65-5.58,18.59s-3.99,7.38-7.52,10.34c-3.54,2.96-8.53,4.44-14.98,4.44-6.09,0-10.97-1.44-14.64-4.31-3.67-2.87-6.23-6.11-7.66-9.71-1.43-3.59-3.45-9.75-6.04-18.46Z" style="fill:#fff;"/><path d="M1301.43,58.16V193.53h80.87c6.45,0,11.4,1.48,14.84,4.44,3.45,2.96,5.17,6.68,5.17,11.16s-1.7,8.27-5.1,11.1c-3.4,2.83-8.38,4.25-14.91,4.25h-96.32c-8.69,0-14.93-1.82-18.74-5.46-3.81-3.64-5.71-9.51-5.71-17.63V58.16c0-7.61,1.81-13.32,5.44-17.13s8.4-5.71,14.31-5.71,10.86,1.88,14.58,5.65c3.72,3.76,5.58,9.5,5.58,17.19Z" style="fill:#fff;"/></g></g><g id="h"/><g id="i"/><g id="j"/><g id="k"/><g id="l"/><g id="m"/><g id="n"/><g id="o"/><g id="p"/></svg>