<?xml version="1.0" encoding="UTF-8"?><svg xmlns="http://www.w3.org/2000/svg" viewBox="0 0 676.03 438.27"><g id="a"/><g id="b"/><g id="c"/><g id="d"/><g id="e"/><g id="f"/><g id="g"/><g id="h"><path d="M643.29,12.89l.06,.12c-1.25,1.45-2.51,2.89-3.76,4.34l-.02-.04-107.74,56.15-20.88-40.06h.01l-.17-.31-.37-.7h-.03l-3.46-6.04-14.84,8.48,.08,.14-2.47,36.48-.23,.12,7.02,13.47-6.76,3.52c-.52-1-1.05-2-1.57-3-1.5-2.87-4.99-4.05-7.93-2.71l-122.92,56.36c-3.14,1.44-4.45,5.2-2.89,8.29l3.18,6.27c-7.7,3.71-15.29,7.37-22.83,11,9.1-21.39-5.4-36.77-20.49-36.75-1.65,0-3.29,.35-4.81,1.01-38.32,16.41-76.63,32.82-114.95,49.23-3.49,1.5-6.11,4.51-7.1,8.18-3.57,13.21-7.14,26.43-10.71,39.64-1.41,5.21,.62,10.02,4.19,12.9C75.35,289.94,7.39,322.89,5.39,324.16c-3.96,2.51-4.91,5.75-4.91,5.75-.78,2.4-.64,5.11,.6,7.54l49.1,96.19c2.65,5.2,14.22,4.61,14.22,4.61l136.74-149.77c6.07-3.55,12.13-7.09,18.2-10.64l12.08,81.08c.81,5.46,5.89,9.22,11.35,8.41l4.23-.63c11.84-1.76,19.74-13.17,17.17-24.87-2.87-13.07-4.82-28.96-4.09-46.88l49.15-25.62c-.14,1.36-.07,2.76,.48,4.1,11.49,28.27,29.91,51.76,54.56,70.91,2.62,2.04,6.17,2.4,9.15,.95l34.45-16.84c5.55-2.71,6.57-10.19,1.95-14.3-21.91-19.51-39.68-40.94-50.03-65.83-.66-1.59-1.76-2.84-3.07-3.75l8.4-4.38c-6.52-11.97-13.04-23.94-19.57-35.91l-77.77,45.22c25.89-15.13,51.77-30.26,77.66-45.39,1.92-3.29,5.75-9.86,5.75-9.86,7.18-3.72,14.36-7.44,21.54-11.16-.19-.38-.39-.77-.58-1.15,1.81,2.35,5.05,3.19,7.73,1.67l118-66.83c2.86-1.62,3.92-5.21,2.39-8.12l-.44-.84,6.71-3.5,9.91,19.02,4.04-2.11h0l21.3-11.1v.02l7.2-3.75-11.51-22.09,107.71-56.14c2-.05,3.99-.09,5.99-.14l.09,.18,24.74-12.89-8-15.36-24.74,12.89ZM197.79,210.5c3.46-8.64,6.91-17.29,10.37-25.93,.96-2.4,3.07-4.49,5.72-5.66,29.07-12.9,58.13-25.81,87.2-38.71,1.15-.51,2.37-.84,3.58-.95,11.18-.99,20.93,8.11,12.35,22.62-1.01,1.71-2.61,3.19-4.53,4.17l-102.69,52.44c-7.33,3.74-14.72-1.17-12-7.98Zm95.87,40.03l5.5,9.63c1.4,2.44,.54,5.59-1.9,6.99l-18.15,10.37c-2.44,1.4-5.59,.54-6.98-1.9l-5.5-9.63c-1.4-2.45-.54-5.59,1.9-6.99l5.09-2.91c-1,4.23-.08,9.61,5.21,16.33,.95,1.2,5.14,1.33,3.89,.46-3.66-2.52-7.19-19.46-.98-20.1,.84-.09,1.06-.94,.94-1.87l4-2.29c2.44-1.4,5.59-.54,6.99,1.9Zm230.98-173.31l-18.16,9.46-8.57-16.44,2.07-30.56,3.92-2.24,20.73,39.78Zm13.43,25.76l-18.16,9.46-7.76-14.88,18.16-9.46,7.76,14.88Z" style="fill:#fff; opacity:.1;"/></g><g id="i"/><g id="j"/><g id="k"/><g id="l"/><g id="m"/><g id="n"/><g id="o"/><g id="p"/></svg>