<?xml version="1.0" encoding="UTF-8"?><svg xmlns="http://www.w3.org/2000/svg" viewBox="0 0 87.33 87.33"><g id="a"/><g id="b"/><g id="c"><circle cx="43.67" cy="43.67" r="43.67" style="fill:#a31e22;"/><path d="M44.08,37.68c3.26-.16,10.58-.28,14.1-5.41,2.01-2.93,1.98-6.29,1.97-7.05-.02-.87-.17-3.92-2.04-6.63-3.62-5.24-10.97-5.31-14.02-5.33-2.82-.03-11.11-.1-14.75,5.57-1.6,2.49-1.8,5.31-1.8,6.56,0,.9-.05,4.28,2,7.03,3.9,5.24,11.46,5.42,14.56,5.26Zm-.28-18.69c3.88,0,6.18,2.13,6.23,6.23,.11,4.1-2.34,6.23-6.23,6.23s-6.11-1.8-6.23-6.23c.11-4.1,2.41-6.39,6.23-6.23Z" style="fill:#fff;"/><path d="M57.9,39.32h-4.6c-.52,0-.96,.37-1.06,.87l-1.61,8.2c-.23,1.15-1.87,1.17-2.12,.02l-1.76-8.24c-.11-.5-.55-.86-1.06-.86h-3.73c-.51,0-.95,.36-1.06,.86l-1.79,8.38c-.24,1.14-1.88,1.14-2.12,0-.58-2.79-1.15-5.58-1.73-8.37-.1-.5-.55-.86-1.06-.86h-4.61c-.72,0-1.23,.68-1.04,1.37,1.71,6.11,3.42,12.22,5.13,18.33,.13,.47,.56,.79,1.04,.79h5.2c.51,0,.95-.35,1.06-.85l1.67-7.55c.25-1.14,1.87-1.13,2.11,0l1.59,7.53c.11,.5,.55,.86,1.06,.86h5.35c.48,0,.91-.32,1.04-.79,1.71-6.11,3.42-12.22,5.13-18.33,.19-.69-.33-1.37-1.04-1.37Z" style="fill:#fff;"/><path d="M42.18,62.11h-1.27c-.51,0-.92,.41-.92,.92v9.79c0,.69-.56,1.25-1.25,1.25h-2.25c-.69,0-1.25,.56-1.25,1.25v2.25c0,.51,.41,.92,.92,.92h5.76c.66,0,1.19-.53,1.19-1.19v-14.28c0-.51-.41-.92-.92-.92Z" style="fill:#fff;"/><path d="M51.35,74.07h-2.25c-.69,0-1.25-.56-1.25-1.25v-9.79c0-.51-.41-.92-.92-.92h-1.27c-.51,0-.92,.41-.92,.92v14.28c0,.66,.53,1.19,1.19,1.19h5.76c.51,0,.92-.41,.92-.92v-2.25c0-.69-.56-1.25-1.25-1.25Z" style="fill:#fff;"/><g><ellipse cx="44.22" cy="5.06" rx="1.41" ry=".85" style="fill:#1a4142;"/><path d="M44.21,6.03c-.86,0-1.53-.42-1.53-.97,0-.19,.08-.37,.23-.52,.28-.28,.76-.45,1.29-.45h0c.85,0,1.53,.42,1.53,.97h0c0,.19-.08,.37-.23,.52-.28,.28-.76,.45-1.29,.45h0Zm0-1.7h0c-.46,0-.89,.15-1.12,.38-.07,.08-.16,.2-.16,.35,0,.39,.59,.72,1.29,.72h0c.46,0,.89-.15,1.12-.38,.07-.08,.16-.2,.16-.35h0c0-.39-.59-.72-1.28-.72Z"/></g><g><path d="M27.22,19.35c0-1.28,.16-6.86,4.52-10.52,3.11-2.61,6.78-2.93,10.37-3.25,0,0,4.53-.4,8.45,.77,.09,.03,.18,.05,.18,.05,.56,.17,2.52,.79,4.24,2.02,.36,.26,3.27,2.41,4.26,6.09,.16,.6,.23,1.19,.37,2.37,.33,2.9,0,3.46-.33,3.73-.37,.31-.84,.33-1.05,.34-6.99,.33-13.55,1.56-20.25-.8-4.7-1.6-10.81-.93-10.79-.25,0,.04,.03,.08,.05,.11" style="fill:#1a4142;"/><path d="M47.19,21.7c-3.1,0-6.15-.33-9.27-1.42-4.11-1.4-9.5-1.05-10.52-.46-.1,.06-.11,.09-.11,.1l-.15,.2c-.06-.05-.09-.12-.09-.19,0-.1,.05-.18,.16-.26,.89-.65,6.41-1.1,10.8,.39,5.29,1.86,10.45,1.48,15.91,1.07,1.4-.1,2.85-.21,4.3-.28,.21,0,.64-.03,.98-.31,.32-.27,.6-.9,.29-3.62-.14-1.18-.2-1.77-.36-2.36-.95-3.54-3.68-5.64-4.21-6.03-.79-.56-2.15-1.37-4.2-2.01l-.18-.05c-3.86-1.15-8.36-.77-8.41-.77-3.55,.31-7.22,.63-10.3,3.22-4.02,3.38-4.47,8.42-4.47,10.43h-.24c0-2.04,.46-7.17,4.56-10.62,3.14-2.64,6.85-2.96,10.44-3.28,.05,0,4.59-.38,8.5,.78l.18,.05c2.08,.65,3.47,1.47,4.27,2.04,.55,.39,3.33,2.54,4.31,6.16,.16,.61,.23,1.2,.37,2.39,.34,2.97-.01,3.54-.37,3.84-.4,.34-.91,.36-1.13,.37-1.45,.07-2.89,.18-4.29,.28-2.29,.17-4.52,.34-6.74,.34Z"/></g><rect x="19.43" y="24.22" width="3.66" height=".12" transform="translate(-5.96 6.95) rotate(-16.31)"/><rect x="27.1" y="19.35" width=".24" height=".68" transform="translate(-.11 .15) rotate(-.32)"/><path d="M27.58,20.7c-.12-.35-.25-.89-.22-1.55,.02-.47,.11-.87,.21-1.17,.46-.13,1.15-.3,2-.41,3-.37,5.35,.36,6.45,.73,3.19,1.05,5.28,.66,9.16,.65-2.81,1.02-2,1.34-6.4,.91-3.96-.39-7.69,.72-11.19,.83Z" style="fill:#315c5b;"/><g><path d="M23.02,23.77c-.24,.15-3.43,2-4.22,1.71-.08-.03-.29-.14-.35-.34-.23-.79,2.29-2.11,2.8-2.38,.84-.44,5.3-2.7,5.97-3.07,.91-.5,1.76-.58,2.81-.69,.77-.08,1.35-.05,2.11,0,1.41,.08,2.48,.27,2.82,.33,1.67,.3,4.91,.93,5.29,1,.53,.1,2.75,.52,5.64,.66,1.36,.07,3.2,.16,5.63-.01,1.44-.1,2.74-.27,2.82,0,.05,.17-.46,.38-1.4,1.02-.74,.51-.81,.66-2.1,1.7-.77,.62-1.46,1.15-1.75,1.36-.82,.61-2.41,1.78-4.56,2.39-1.42,.4-2.83,.39-5.63,.35-.73,0-1.42-.05-2.16-.16-.32-.04-.65-.1-1.01-.17-1.01-.21-1.98-.59-3.88-1.35-1.41-.56-2.3-.95-4.23-1.68-.65-.25-3.73-1.18-4.58-.67Z" style="fill:#1a4142;"/><path d="M40.73,27.93c-.55,0-1.15,0-1.85-.02-.77,0-1.46-.06-2.18-.16-.34-.05-.68-.11-1.02-.18-1.02-.21-1.97-.59-3.86-1.34l-.04-.02c-.5-.2-.93-.37-1.37-.55-.79-.32-1.61-.66-2.86-1.13-.73-.28-3.7-1.15-4.47-.68-.04,.02-3.43,2.05-4.32,1.72-.06-.02-.35-.14-.43-.42-.17-.59,.79-1.44,2.86-2.52,.35-.18,1.32-.68,2.38-1.22,1.5-.76,3.19-1.63,3.58-1.84,.93-.51,1.82-.6,2.86-.7,.78-.08,1.38-.05,2.13,0,.96,.06,1.91,.17,2.83,.33,1,.18,2.72,.51,5.11,.97l.18,.03c.8,.15,2.95,.53,5.62,.66,1.35,.07,3.2,.16,5.62-.01,.27-.02,.54-.04,.8-.06,1.42-.12,2.06-.16,2.14,.14,.06,.2-.14,.32-.62,.62-.22,.14-.5,.31-.83,.53-.42,.29-.63,.47-.97,.76-.26,.22-.58,.5-1.13,.94-.8,.65-1.5,1.18-1.76,1.36-.85,.63-2.43,1.79-4.6,2.4-1.09,.31-2.15,.37-3.82,.37Zm-16.92-4.44c1.32,0,3.4,.66,3.83,.82,1.25,.47,2.07,.81,2.87,1.13,.44,.18,.87,.36,1.37,.55l.04,.02c1.88,.74,2.82,1.12,3.82,1.32,.33,.07,.67,.13,1,.17,.7,.1,1.39,.15,2.15,.16,2.79,.03,4.19,.05,5.6-.35,2.13-.6,3.69-1.75,4.52-2.37,.26-.19,.95-.71,1.75-1.36,.54-.44,.86-.71,1.12-.93,.35-.3,.55-.47,.99-.77,.34-.23,.61-.4,.84-.54,.25-.16,.49-.31,.52-.37-.11-.09-1.1-.01-1.89,.05-.26,.02-.53,.04-.8,.06-2.44,.17-4.29,.08-5.64,.01-2.69-.13-4.85-.51-5.66-.67l-.18-.03c-2.39-.46-4.11-.79-5.11-.97-.91-.16-1.86-.27-2.8-.33-.77-.05-1.33-.07-2.09,0-1.05,.1-1.88,.19-2.77,.67-.39,.21-2.09,1.08-3.59,1.85-1.06,.54-2.03,1.04-2.38,1.22-2.73,1.43-2.79,2.08-2.74,2.24,.05,.17,.27,.25,.28,.26,.66,.25,3.45-1.3,4.11-1.7h0c.2-.12,.5-.17,.85-.17Z"/></g><path d="M19.96,24.71s2.43-1.18,3.63-1.18c.03,0,.06,0,.09,0,.05,0,.09,.04,.09,.09,0,.05-.04,.08-.09,.08-.03,0-.06,0-.09,0-1.17,0-3.62,1.04-3.64,1.01Z"/><path d="M33.91,19.11h-.02c-.07-.01-.11-.08-.1-.14,.02-.12,.04-.19,.05-.25,.05-.18,.06-.23,.08-1.71,.02-1.85,2.83-10.28,6.92-11.38,.07-.02,.13,.02,.15,.09,.02,.07-.02,.13-.09,.15-3.82,1.03-6.72,9.19-6.74,11.15-.02,1.51-.03,1.56-.08,1.77-.01,.05-.03,.12-.05,.23-.01,.06-.06,.1-.12,.1Z"/><path d="M52.75,20.93h-.02c-.07-.01-.11-.08-.1-.14,1.26-7.08-.14-11.91-4.26-14.79-.06-.04-.07-.11-.03-.17,.04-.06,.12-.07,.17-.03,4.21,2.94,5.64,7.85,4.36,15.03-.01,.06-.06,.1-.12,.1Z"/><path d="M38.47,25.81c-4.38,.01-7.44-1.29-9.97-2.38-2-.85-3.72-1.59-5.54-1.45-.05,0-.1-.03-.1-.08s.03-.09,.09-.09c1.86-.14,3.61,.6,5.64,1.46,2.97,1.27,6.66,2.84,12.34,2.22,2.7-.37,6.09-3.76,6.14-3.74,.05,.02-3.35,3.53-6.11,3.91-.87,.09-1.7,.14-2.48,.14Z"/><path d="M37.37,23.67c-1.65,0-3.41-.31-5.06-1.04-1.96-.87-4.31-1.78-7.36-1.67-.04,0-.09-.03-.09-.08s.04-.09,.08-.09c3.1-.11,5.47,.81,7.44,1.68,5.79,2.61,10.91-.72,10.94-.68,.03,.04-3.52,1.87-5.95,1.88Z"/><path d="M56.05,11.47c.9,1.78,1.09,4.31,.04,4.98-.09,.06-.25,.17-.44,.14-1.1-.14-1.35-2.06-1.71-3.76-1.03-2.69-1.62-3.9-.33-3.95,.46-.02,1.69,1.12,2.43,2.59Z" style="fill:#315c5b;"/></g><g id="d"/><g id="e"/><g id="f"/><g id="g"/><g id="h"/><g id="i"/><g id="j"/><g id="k"/><g id="l"/><g id="m"/><g id="n"/><g id="o"/><g id="p"/></svg>