<?xml version="1.0" encoding="UTF-8"?><svg xmlns="http://www.w3.org/2000/svg" viewBox="0 0 24 24"><g id="a"/><g id="b"/><g id="c"><path d="M12,2C6.48,2,2,6.48,2,12s4.48,10,10,10,10-4.48,10-10S17.52,2,12,2ZM6.43,11.9l.05-.07,2.88-4.47c.04-.07,.14-.06,.17,.01,.48,1.07,.9,2.4,.7,3.23-.08,.34-.31,.8-.57,1.23-.03,.06-.07,.12-.11,.18-.02,.03-.05,.04-.08,.04h-2.96c-.08,0-.13-.09-.09-.15Zm12.7,1.63c-.22,.1-.98,.44-1.3,.88-.8,1.12-1.42,2.72-2.79,2.72h-5.73c-2.03,0-3.68-1.65-3.68-3.69v-.07c0-.05,.04-.1,.1-.1h3.19c.06,0,.11,.06,.1,.12-.02,.21,.02,.42,.11,.61,.19,.39,.58,.63,1.01,.63h1.58v-1.24h-1.56c-.08,0-.13-.09-.08-.16,.02-.03,.04-.05,.06-.08,.15-.21,.36-.54,.57-.91,.15-.25,.28-.52,.4-.79,.02-.05,.04-.1,.06-.15,.03-.09,.06-.16,.09-.25,.02-.07,.04-.14,.06-.2,.05-.23,.08-.47,.08-.72,0-.1,0-.2-.01-.3,0-.11-.02-.21-.03-.32,0-.09-.03-.19-.05-.29-.02-.14-.05-.29-.09-.43v-.05c-.04-.1-.06-.19-.09-.29-.09-.31-.19-.61-.3-.89-.04-.11-.09-.22-.13-.33-.07-.16-.14-.31-.2-.45-.03-.06-.06-.12-.09-.18-.03-.07-.06-.13-.09-.2-.02-.05-.05-.09-.07-.14l-.19-.36s.02-.1,.07-.09l1.21,.33h0l.16,.05,.18,.05,.06,.02v-.72c0-.35,.28-.63,.62-.63,.17,0,.33,.07,.44,.18,.11,.11,.18,.27,.18,.44v1.07l.13,.04s.02,0,.03,.01c.03,.02,.08,.06,.13,.1,.05,.04,.09,.08,.15,.13,.12,.09,.25,.21,.41,.35,.04,.04,.08,.07,.12,.11,.2,.18,.42,.4,.63,.64,.06,.07,.12,.13,.18,.2,.06,.07,.12,.14,.17,.21,.07,.1,.15,.19,.21,.3,.03,.05,.07,.1,.1,.15,.09,.13,.16,.26,.23,.4,.03,.06,.06,.13,.09,.2,.08,.18,.14,.36,.18,.55,.01,.04,.02,.08,.03,.12h0c.01,.06,.02,.12,.02,.18,.02,.19,0,.38-.03,.56-.02,.08-.04,.15-.07,.24-.03,.08-.05,.16-.09,.23-.07,.16-.15,.31-.24,.46-.03,.05-.07,.11-.1,.17-.04,.06-.08,.11-.12,.16-.05,.07-.1,.14-.16,.2-.05,.07-.1,.13-.15,.19-.08,.09-.15,.17-.22,.25-.05,.05-.09,.11-.14,.15-.05,.05-.1,.1-.14,.15-.08,.08-.14,.14-.19,.18l-.12,.11s-.04,.02-.07,.02h-.96v1.24h1.21c.27,0,.53-.1,.74-.27,.07-.06,.38-.33,.75-.74,.01-.01,.03-.02,.05-.03l3.35-.97c.06-.02,.12,.03,.13,.09v.71s-.03,.08-.06,.09Z"/></g><g id="d"/><g id="e"/><g id="f"/><g id="g"><circle cx="12" cy="12" r="12" style="fill:#fff; opacity:0;"/></g><g id="h"/><g id="i"/><g id="j"/><g id="k"/><g id="l"/><g id="m"/><g id="n"/><g id="o"/><g id="p"/></svg>