<?xml version="1.0" encoding="UTF-8"?><svg xmlns="http://www.w3.org/2000/svg" viewBox="0 0 41.54 41.54"><g id="a"/><g id="b"/><g id="c"><path d="M20.77,0C9.3,0,0,9.3,0,20.77s9.3,20.77,20.77,20.77,20.77-9.3,20.77-20.77S32.24,0,20.77,0ZM9.2,20.56l.1-.15,5.98-9.29c.08-.14,.29-.12,.36,.02,1,2.23,1.86,4.99,1.46,6.71-.17,.71-.64,1.67-1.17,2.56-.07,.13-.14,.25-.22,.38-.03,.05-.1,.09-.17,.09h-6.14c-.17,0-.26-.18-.18-.31Zm26.38,3.39c-.46,.2-2.04,.92-2.69,1.83-1.67,2.33-2.95,5.65-5.8,5.65H15.19c-4.22,0-7.63-3.43-7.63-7.67v-.14c0-.11,.09-.2,.2-.2h6.63c.13,0,.23,.12,.22,.25-.04,.44,.03,.88,.24,1.28,.4,.8,1.21,1.3,2.09,1.3h3.28v-2.57h-3.24c-.16,0-.26-.19-.17-.33,.03-.05,.07-.11,.12-.17,.31-.44,.75-1.11,1.18-1.89,.3-.52,.59-1.08,.82-1.64,.05-.1,.08-.21,.12-.31,.06-.18,.13-.34,.18-.51,.05-.14,.08-.29,.12-.43,.11-.48,.16-.98,.16-1.5,0-.21,0-.42-.03-.62,0-.22-.03-.45-.06-.67-.02-.19-.05-.39-.09-.59-.05-.3-.11-.59-.19-.89l-.02-.11c-.05-.2-.1-.4-.17-.6-.18-.64-.4-1.27-.62-1.85-.08-.23-.18-.46-.27-.68-.14-.34-.28-.64-.41-.93-.06-.13-.12-.25-.18-.37-.06-.14-.13-.28-.19-.41-.04-.1-.1-.19-.14-.29l-.4-.74c-.05-.1,.04-.22,.15-.19l2.51,.68h.01l.33,.09,.37,.1,.13,.04v-1.49c0-.72,.58-1.31,1.29-1.31,.36,0,.68,.14,.91,.38,.23,.23,.38,.56,.38,.92v2.22l.27,.07s.04,.02,.06,.03c.06,.05,.16,.12,.28,.21,.09,.08,.19,.17,.32,.26,.24,.19,.53,.45,.85,.73,.08,.07,.17,.15,.24,.22,.41,.38,.87,.83,1.3,1.32,.12,.14,.24,.28,.37,.43,.12,.15,.25,.3,.36,.45,.15,.2,.31,.4,.45,.61,.06,.1,.14,.21,.2,.31,.18,.27,.34,.55,.48,.83,.06,.13,.13,.27,.18,.41,.16,.37,.3,.75,.38,1.13,.02,.08,.04,.17,.05,.25v.02c.02,.11,.03,.23,.04,.36,.04,.39,.02,.78-.06,1.17-.03,.17-.08,.32-.14,.49-.05,.16-.11,.33-.18,.48-.14,.33-.31,.65-.5,.96-.06,.11-.14,.23-.21,.35-.08,.12-.17,.23-.24,.34-.1,.14-.21,.29-.33,.42-.1,.14-.2,.28-.32,.4-.16,.18-.31,.36-.46,.53-.09,.11-.19,.22-.3,.32-.1,.11-.2,.21-.3,.31-.16,.16-.29,.28-.4,.38l-.26,.24s-.09,.05-.14,.05h-2v2.57h2.51c.56,0,1.1-.2,1.53-.56,.15-.13,.8-.69,1.56-1.53,.02-.03,.05-.05,.09-.06l6.95-2.01c.13-.03,.26,.06,.27,.18v1.47c0,.08-.05,.16-.13,.19Z"/></g><g id="d"/><g id="e"/><g id="f"/><g id="g"/><g id="h"/><g id="i"/><g id="j"/><g id="k"/><g id="l"/><g id="m"/><g id="n"/><g id="o"/><g id="p"/></svg>