<?xml version="1.0" encoding="UTF-8"?><svg xmlns="http://www.w3.org/2000/svg" viewBox="0 0 205.16 414.4"><g id="a"/><g id="b"/><g id="c"/><g id="d"/><g id="e"/><g id="f"/><g id="g"/><g id="h"/><g id="i"/><g id="j"><path d="M200.71,367.05l-4.19,1.23-14.69-49.99-25.53,7.51c.39-.4,.83-.75,1.18-1.19,2.54-3.21,3.38-5.76,2.88-6.53-.45-.71-3.29-.25-5.57,.11-4.33,.69-9.71,1.56-14.15-1.3-4-2.57-5.81-8.31-7.2-22.75-1.28-13.41-1.92-20.14-2-30.61-.08-10.04-1.18-34.5-9.78-44.91l-.74-.9,.54-1.06c3.61-7.05,2.58-22.4-3.32-49.76-2.7-12.47-5.54-22.08-8.7-29.37l-.5-1.17,.97-.91c3.34-3.14,7.49-8.41,7.91-15.54,.03-.65,.26-6.52-2.99-11.72l-.32-.52,.07-.61c1.87-17.45-6.39-54.32-18.14-61.3-2.36-1.4-4.58-1.41-7-.02-6.12,3.52-13.09,6.88-20.7,10l-.96,.15c-2.96-.27-5.33-1.13-7.26-2.65-3.25-2.57-3.92-11.55-4.45-23.04l-.02-.78c.28-3.42,.1-7.01-.54-10.95-1.27-7.81-4.38-13.22-9.25-16.1C40.22-1.19,33.17,.21,31.55,.6h0s-.05,0-.07,.02c-.02,0-.06,.01-.07,.02h0c-1.57,.57-8.25,3.23-11.37,9.49-2.52,5.06-2.19,11.29,1,18.54,1.61,3.66,3.42,6.76,5.51,9.48l.41,.66c5.8,9.92,10.13,17.83,8.8,21.75-.79,2.32-2.31,4.34-4.65,6.17l-.89,.4c-8.08,1.53-15.76,2.5-22.81,2.87-2.78,.15-4.64,1.36-5.86,3.82-6.07,12.25,7.06,47.69,18.12,61.31l.39,.48v.61c.11,6.13,3.49,10.93,3.88,11.46,4.23,5.76,10.58,7.92,15.09,8.74l1.31,.23,.21,1.25c1.32,7.84,4.16,17.44,8.67,29.38,9.93,26.17,17.41,39.61,24.28,43.56l1.03,.6-.13,1.16c-1.55,13.41,10.83,34.53,16.22,43,5.63,8.83,8.75,14.82,14.97,26.77,6.69,12.87,8.29,18.68,6.34,23-2.17,4.81-7.16,7.02-11.17,8.79-2.11,.94-4.74,2.1-4.73,2.94,0,.92,2.1,2.6,5.97,3.91,.48,.16,.98,.2,1.47,.32l-27.13,7.98,14.69,49.99-2.69,.79c-.18,.05-.29,.24-.24,.41l4.02,13.66c.05,.17,.24,.27,.42,.21l26.11-7.68c1.29,.2,2.62,.2,3.96-.2l-.26-.89,82.56-24.28c.18-.05,.29-.24,.24-.41l-4.02-13.66c-.05-.17-.24-.27-.42-.21Z" style="fill:#fff; opacity:.1;"/></g><g id="k"/><g id="l"/><g id="m"/><g id="n"/><g id="o"/><g id="p"/></svg>