<?xml version="1.0" encoding="utf-8"?>
<!-- Generator: Adobe Illustrator 26.2.1, SVG Export Plug-In . SVG Version: 6.00 Build 0)  -->
<svg version="1.1" id="Layer_1" xmlns="http://www.w3.org/2000/svg" xmlns:xlink="http://www.w3.org/1999/xlink" x="0px" y="0px"
	 viewBox="0 0 1459.2 279.3" style="enable-background:new 0 0 1459.2 279.3;" xml:space="preserve">
<style type="text/css">
	.st0{fill:#1A1B4F;stroke:#000000;stroke-width:2;stroke-miterlimit:10;}
	.st1{fill:#FFFFFF;}
	.st2{fill:#D2D2D2;}
	.st3{fill:#DDBC9C;stroke:#000000;stroke-width:2;stroke-miterlimit:10;}
	.st4{fill:#FAE9D8;}
	.st5{fill:#F8D452;stroke:#000000;stroke-width:0.5;stroke-miterlimit:10;}
	.st6{fill:#979747;}
	.st7{fill:#959595;}
	.st8{fill:#3C502B;stroke:#000000;stroke-miterlimit:10;}
	.st9{fill:#56703C;stroke:#000000;stroke-miterlimit:10;}
	.st10{fill:#444240;}
	.st11{fill:#949492;}
	.st12{fill:#494844;}
	.st13{fill:#272622;}
	.st14{fill:#C95962;stroke:#000000;stroke-width:0.75;stroke-miterlimit:10;}
	.st15{fill:none;stroke:#000000;stroke-width:3;stroke-miterlimit:10;}
	.st16{fill:#DDBC9C;}
	.st17{fill:#F8D452;}
	.st18{fill:#3C502B;}
	.st19{fill:#56703C;}
	.st20{font-family:'ArialRoundedMTBold';}
	.st21{font-size:259.82px;}
	.st22{letter-spacing:-15.1;}
	.st23{letter-spacing:-1.9;}
	.st24{letter-spacing:1.9;}
	.st25{opacity:0.75;}
	.st26{fill:#242449;}
	.st27{opacity:0.1;}
	.st28{fill:none;}
</style>
<g id="a">
</g>
<g id="b">
</g>
<g id="c">
	<path class="st0" d="M1013.8,142.1c0-1.2,0-2.4,0-3.6l-112-0.7c0,0,0,0,0,0.1l-0.4,70.6c0.4,0.2,0.8,0.4,1.2,0.6
		c2.9,0.9,5.5,2.2,8,3.9c0.6,0,1.3-0.1,1.9-0.1c10.6,0,21.7,0,31.9,3.4c3.9,1.1,7.6,2.7,11,4.8c4.6-4,10.2-7,16.1-8.8
		c1.2-1.1,2.5-2.1,3.9-3c1.1-1,2.3-2,3.5-2.8c0.4-0.3,0.8-0.6,1.2-0.9c2.2-3.6,4.5-7.1,6.7-10.7c3.8-6.1,7.7-12,12.5-17.5
		c2.2-2.5,4.8-4.7,7.3-7c0.2-0.2,0.3-0.5,0.5-0.7c0.6-2.9,1.6-5.6,3-8.2c1.2-3.6,2.9-6.8,5.1-9.7
		C1014.3,148.6,1013.9,145.4,1013.8,142.1L1013.8,142.1z"/>
	<path class="st1" d="M1009.9,161.5c0.8-2.4,1.8-4.6,3.1-6.7l-58.5,1c-0.9,0-1.5,0.9-1.3,1.7l16,55.6c0.7-0.2,1.3-0.4,2-0.7
		c1.2-1.1,2.5-2.1,3.9-3c1.1-1,2.3-2,3.5-2.8c1.7-1.4,3.4-2.6,5.3-3.7c1.7-4.9,4.5-9.1,8.4-12.7c2.4-2.4,5.1-4.5,8-6.2
		c0.6-2,1.4-4,2.4-5.9c1-3,2.3-5.7,4.1-8.2C1007.6,166.9,1008.6,164.1,1009.9,161.5L1009.9,161.5z"/>
	<path class="st2" d="M969.4,213c-5.6-19.6-11.2-39.3-16.7-58.9l-8-2l22.5,61.7C967.9,213.5,968.6,213.3,969.4,213L969.4,213z"/>
	<g>
		<path class="st3" d="M1014.2,135.2c-4.5-7-6.6-15.4-7-23.7c0-1.2,0-2.4,0-3.6c-5.3-6.4-8.1-14.6-9.1-22.8
			c-2.5-1.6-4.9-3.5-7.1-5.5c-5.8-5.3-9.3-12.5-11-20.1c-2.3-2.5-4.2-5.4-5.6-8.5c-22.7,5.3-41.5,17.6-52.1,33.7c0,0,0,0,0,0
			c-17.1,8.8-28.4,23.7-28.5,40.8c-0.1,10.6,4.2,20.4,11.4,28.4c0.8,0.9,2,1.1,3.1,0.7c6.9-2.6,14.3-4.1,22.1-4
			c20.1,0.1,35.1,19.5,51,19.6c7.4,0,16.9-3.7,27.9-7.6c0.2-0.4,0.3-0.7,0.5-1.1c1.2-3.6,2.9-6.8,5.1-9.7c-0.7-3.2-1.1-6.4-1.3-9.7
			C1013.7,139.8,1013.8,137.5,1014.2,135.2L1014.2,135.2z"/>
		<path d="M981.5,168.6c-7.1,0-14.2-4.3-21.8-8.7c-9-5.3-18.2-10.8-29.3-10.9c-7.8-0.1-15.4,1.3-22.7,4.1c-0.5,0.2-1,0.1-1.3-0.3
			c-7.3-8.1-11.1-17.5-11-27.4c0.1-15.8,10.4-30.6,27.6-39.4l0.4-0.2l0.2-0.4c10.7-16.4,29.4-28.1,51.5-33.1c-0.5-1-1-2-1.4-3
			c-22.4,5.2-41.4,17.2-52.5,34c-18.1,9.4-28.9,25.1-29,42c-0.1,10.6,4,20.8,11.9,29.5c1.2,1.4,3.1,1.8,4.9,1.1
			c6.9-2.6,14.1-3.9,21.5-3.9c10.2,0.1,19.1,5.3,27.7,10.4c14.4,8.6,18.5,8.4,23.4,9.2c1.5,0.2,7.7,1.1,15.8,0.1
			c4-0.5,6.8-1.2,9.7-2.2c0.6-2.8,1.6-5.6,3-8.2c0.1-0.3,0.2-0.6,0.3-1c-1.4,0.5-2.8,1-4.2,1.5C996.4,165.6,988,168.6,981.5,168.6
			L981.5,168.6z"/>
	</g>
	<path class="st4" d="M1007.3,107.9c-3.7-4.4-6.2-9.7-7.7-15.3c-8.2,5.1-13.1,9.3-15.8,12.7c-3.5-3.9-10.3-9-22.6-15.3
		c-63.8-32.5-46.7,47.9-17.9,57.7c5.2-10.4,42.8-14.2,70.5-7.6c0-1.7,0.2-3.3,0.5-4.9c-4.5-7-6.6-15.4-7-23.7
		C1007.2,110.3,1007.2,109.1,1007.3,107.9L1007.3,107.9z"/>
	<path class="st5" d="M955.2,105.9c-0.6,0.1-1.3,0.2-2.1,0.2c-2.5-0.1-13.5,0.9-19.3,0.5c-1,4.7,5,10.7,8.1,10.7
		c8.3,2.1,9.6-3.2,14.5-9.6C957.1,106.6,956.9,106.1,955.2,105.9L955.2,105.9z"/>
	<path d="M940.3,106.6c0.3,2.4,2.3,4.2,4.7,4.2c2.6,0,6.4-2.1,6.4-4.8C948.9,106.2,944.5,106.5,940.3,106.6L940.3,106.6z"/>
	<path class="st6" d="M940.7,103.9c-6.2-0.2-12.8-4.6-12.9-7.3c0-0.2,0-0.3,0.1-0.5c0.5-1.7,3.5-3.2,7.2-4c0.3-0.2,0.5-0.3,0.8-0.5
		c-0.2,0.2-0.5,0.3-0.8,0.5c3.3-0.8,7-1,9.8-0.5c2.3,0.4,4.8,1.7,7,3.3c-2.4-2.7-8-5.7-14.7-5.5h0c0,0,0,0,0,0
		c-4.8-0.4-30.3-1.4-30.3-1.4c8.7,3.5,16.6,6.8,11.7,11.2l0,0c-2.7,2-6.9,3.7-15,4.9c-9.5,1.3,19.2-3.1,27.2,1.8
		c3.2,1.6,19.3,0,22.4,0.1c4.8,0,5-1.9,5-2.6C957.2,105.7,948.2,104.2,940.7,103.9L940.7,103.9z M936.5,91.2
		C936.5,91.2,936.5,91.1,936.5,91.2C936.5,91.1,936.5,91.2,936.5,91.2z"/>
	<path class="st7" d="M958.2,103.1c0.1,2.8-9.5,1.1-17.5,0.9c-6.2-0.2-12.8-4.6-12.9-7.3c-0.1-3.5,11-6.1,17.1-5
		S958.1,99.6,958.2,103.1z"/>
	<path d="M999.8,134.7c-0.4-0.2-0.8-0.1-1.1,0.2l-15.1,16.6c0.1,0.3,0.1,0.6,0.2,0.9c0.6,2.9,1.3,5.9,2.8,8.3
		c0.5,0.7,1.5,0.5,1.8-0.3c1.2-4.4,4.8-15.6,12-19.6c3.1-1.7,6.5-2.1,10.3-1.2c0.2,0,0.3,0.1,0.5,0.1c-0.4-0.2-0.9-0.4-1.3-0.6
		C1006.4,137.7,1002.9,136.2,999.8,134.7L999.8,134.7z"/>
	<path class="st8" d="M982.5,166.1c-7.3-8.5-0.8-29.4-18.3-27.9c11.2-4.8,16.1-16,16.1-16s3.3-7.8,5.6,0.1c2.3,8,37.4,21,19.9,16.1
		S984,166.2,984,166.2C983.6,166.7,982.8,166.6,982.5,166.1L982.5,166.1z"/>
	<path class="st9" d="M982.3,158c-2.9-13.9-2-27.4,1.9-38.9c-2-1.6-3.9,3.1-3.9,3.1s-4.9,11.2-16.1,16c17.6-1.5,11.1,19.4,18.3,27.9
		c0.3,0.6,1.1,0.6,1.5,0.1c0,0,0-0.4,0.2-1.1C983.4,162.8,982.8,160.4,982.3,158L982.3,158z"/>
	<path class="st10" d="M987.8,195.5l-0.5-9.6l-0.3,10.8C987.2,196.4,987.5,196,987.8,195.5L987.8,195.5z"/>
	<path class="st11" d="M987,196.8l0.3-10.8l-1.4,12.8C986.2,198.1,986.6,197.4,987,196.8z"/>
	<path class="st11" d="M987.3,173.7l-5.3,8.7l5.2,2.6L987.3,173.7L987.3,173.7z"/>
	<path class="st10" d="M987.3,173.7l5.2,8.8l-5.3,2.5L987.3,173.7z"/>
	<path class="st12" d="M987.2,180.5l-5.2,1.9c3.5,1.7,5.2,2.6,5.2,2.6L987.2,180.5L987.2,180.5z"/>
	<path class="st13" d="M987.2,180.5l5.2,1.9c-3.5,1.7-5.3,2.5-5.3,2.5L987.2,180.5L987.2,180.5z"/>
	<path class="st10" d="M987.2,185.8l0,4.2l5.3-6.8L987.2,185.8z"/>
	<path class="st11" d="M987.2,185.8l0,4.2l-5.2-6.9L987.2,185.8L987.2,185.8z"/>
</g>
<g id="d">
</g>
<g id="e">
</g>
<g id="f">
	<g>
		<path class="st14" d="M95.1,113.7c-2.7-2.5-4.8-6-6.2-9.8H6.5c0,0,0,0,0,0v121.9c0,0,0,0,0,0h77.4V219c0-2.2,1.5-3.5,3.2-3.8
			c0-2.3,0.1-4.5,0.4-6.9l-0.4,2.8c0.5-5.6,1.3-11.1,2.6-16.5c0.6-2.5,1.3-5,1.8-7.5c1.2-13.8,0.3-27.8,0.3-41.6
			c0-1.4,0.1-2.8,0.3-4.2c0.1-1.6,0.4-3.1,0.7-4.7c1.3-7,3-13.8,5.1-20.6C97,115.4,96,114.6,95.1,113.7z"/>
		<path class="st14" d="M83.8,225.1H7.3V104.8h81.9c-0.2-0.5-0.4-1.1-0.6-1.7h-82c-0.5,0-0.9,0.4-0.9,0.9v121.9
			c0,0.5,0.4,0.9,0.9,0.9h77.3V225.1z"/>
	</g>
	<path class="st15" d="M94.6,113.7c-2.7-2.5-4.8-6-6.2-9.8H6.2c0,0,0,0,0,0v121.9c0,0,0,0.1,0,0.1h77.6v-7c0-2,1.2-3.2,2.7-3.7
		c0-2.3,0.1-4.6,0.4-7.1l-0.4,2.8c0.5-5.6,1.3-11.1,2.6-16.5c0.6-2.5,1.3-5,1.8-7.5c1.2-13.8,0.3-27.8,0.3-41.6
		c0-1.4,0.1-2.8,0.3-4.2c0.1-1.6,0.4-3.1,0.7-4.7c1.3-7,3-13.8,5.2-20.6C96.4,115.4,95.5,114.6,94.6,113.7z"/>
	<path class="st1" d="M63.7,186.4L43.4,118c-0.5-1.7,0.7-3.3,2.4-3.3l40.9-1.2c1.8-0.1,3.1,1.7,2.6,3.3l-20.6,69.6
		C67.9,188.9,64.4,188.9,63.7,186.4L63.7,186.4z"/>
	<path class="st2" d="M95.1,113.7c-0.4-0.4-0.8-0.8-1.2-1.2c-1.2,0.3-2.4,0.6-3.7,0.9l-18.7,63.4L95.1,113.7
		C95.1,113.8,95.1,113.8,95.1,113.7L95.1,113.7z"/>
	<path class="st2" d="M60.8,177c-6.2-21.1-12.4-42.3-18.5-63.4c-1.9-0.5-3.7-0.9-5.6-1.4"/>
	<g>
		<g>
			<path class="st16" d="M95.1,113.7c-5.1-4.7-8-12.7-8-19.5C87,80.7,85,67.2,85,53.6c0-5,1.4-9.5,3.7-13.6
				c-4.6-0.8-9.4-1.3-14.3-1.3c-23.6,0.1-43.9,10.8-53.7,26.2c0,0,0,0,0,0C8.8,71.2,1.1,81.8,1.1,93.8c0,7.4,3.1,14.3,8.2,19.9
				c0.6,0.6,1.4,0.8,2.2,0.5c4.8-1.9,9.9-3,15.3-3c14-0.1,24.6,13.5,35.7,13.4c8,0,19.6-6.6,33.3-10.2
				C95.6,114.2,95.3,114,95.1,113.7L95.1,113.7z"/>
			<path d="M95.1,113.8c-5.6,1.5-10.8,3.5-15.4,5.2c-6.8,2.6-12.6,4.8-17.2,4.8h-0.1c-5,0-10-2.9-15.3-6c-6.2-3.6-12.7-7.4-20.2-7.4
				h-0.1c-5.4,0-10.6,1.1-15.7,3c-0.5,0.2-0.9,0.1-1.2-0.2c-5.2-5.7-7.9-12.4-8-19.4C1.9,82.6,9,72,21,65.6l0.2-0.1l0.1-0.2
				c10-15.8,30.4-25.7,53-25.8c0.1,0,0.2,0,0.3,0c4.6,0,9.1,0.4,13.5,1.2c0.3-0.5,0.6-1,0.9-1.5c-4.7-0.9-9.5-1.4-14.4-1.4
				c-0.1,0-0.2,0-0.3,0C51.2,37.9,30.5,48,20.1,64.2C7.6,70.9,0.2,82,0.3,93.8c0,7.4,2.9,14.5,8.4,20.5c0.8,0.8,2,1.1,3.1,0.7
				c4.8-1.9,9.9-2.9,15.1-2.9h0.1c7.1,0,13.4,3.6,19.4,7.2c5.5,3.2,10.7,6.2,16.2,6.2h0.1c4.8,0,10.8-2.3,17.7-4.9
				c5.1-1.9,10.6-4,16.3-5.5C96.1,114.6,95.6,114.2,95.1,113.8L95.1,113.8z"/>
		</g>
		<path d="M97.9,116.1c-1-0.7-1.9-1.5-2.8-2.3c-0.1-0.1-0.2-0.2-0.2-0.2c-5.5,1.5-10.7,3.5-15.3,5.2c-6.7,2.6-12.6,4.8-17.1,4.8
			c-5,0-9.9-2.9-15.2-6c-6.3-3.7-12.8-7.5-20.5-7.4c-5.4,0-10.7,1.1-15.8,3.1c-0.3,0.1-0.7,0.1-0.9-0.2c-5.1-5.6-7.8-12.3-7.9-19.2
			c0-11.1,7-21.6,18.9-27.9l0.3-0.2l0.2-0.3c10-15.8,30.2-25.6,52.8-25.7c4.7,0,9.3,0.4,13.7,1.2c0.4-0.7,0.8-1.4,1.2-2.1
			c-4.8-0.9-9.8-1.4-14.9-1.4c-23.2,0.1-44,10.2-54.5,26.5C7.4,70.8-0.1,81.9,0,93.8c0,7.5,3,14.6,8.5,20.7c0.9,0.9,2.2,1.2,3.4,0.8
			c4.8-1.9,9.8-2.9,15-2.9c7.1,0,13.3,3.6,19.4,7.1c10.1,5.9,12.9,5.8,16.3,6.3c1,0.2,5.4,0.7,11-0.1c5.8-0.8,8.1-2.3,14.5-4.6
			c1-0.3,4.6-1.6,9.3-2.9C97.5,117.5,97.7,116.8,97.9,116.1L97.9,116.1z"/>
	</g>
	<path class="st4" d="M87.1,94.3c0-10.2-1.2-20.3-1.8-30.5c-1.3,0.6-2.7,1.3-4.1,2.1c-9.9,5.5-15.1,9.8-17.5,13
		c-2.5-2.7-7.3-6.2-15.9-10.6c-44.7-22.4-32.2,34.1-12.1,40.8c3.8-7.9,33.8-10.8,53.3-4.7C87.7,101.1,87,97.5,87.1,94.3L87.1,94.3z"
		/>
	<g>
		<path class="st17" d="M43.8,79.6c-0.4,0.1-0.9,0.1-1.5,0.1c-1.8-0.1-9.4,0.8-13.5,0.5c-0.6,3.3,3.6,7.5,5.7,7.5
			c5.8,1.4,6.7-2.3,10-6.8C45.1,80,44.9,79.7,43.8,79.6z"/>
		<path d="M36.8,88.2c-0.7,0-1.4-0.1-2.3-0.3h0c-1.1,0-2.8-1.1-4.1-2.7c-1.4-1.7-2-3.5-1.8-5.1l0-0.2h0.2c2.6,0.2,6.7-0.1,9.7-0.3
			c1.7-0.1,3.1-0.2,3.7-0.2c0.5,0,1,0,1.4-0.1h0.1c0.7,0.1,1.1,0.2,1.2,0.5c0.2,0.3-0.1,0.7-0.3,1c-0.6,0.8-1.2,1.7-1.7,2.4
			C41.2,86.1,39.9,88.2,36.8,88.2L36.8,88.2z M34.5,87.4c4.6,1.1,6-1,8.2-4.3c0.5-0.8,1-1.6,1.7-2.4c0.3-0.4,0.3-0.6,0.3-0.6
			c0-0.1-0.2-0.2-0.8-0.3c-0.4,0.1-0.9,0.1-1.5,0.1c-0.6,0-2,0.1-3.7,0.2c-3,0.2-7,0.5-9.6,0.3c-0.2,1.3,0.4,3,1.7,4.5
			C31.9,86.4,33.5,87.4,34.5,87.4L34.5,87.4L34.5,87.4z"/>
	</g>
	<path d="M33.4,80.2c0.2,1.7,1.6,2.9,3.3,2.9c1.8,0,4.4-1.5,4.4-3.4C39.4,79.8,36.3,80.1,33.4,80.2z"/>
	<path class="st6" d="M33.6,78.3c-4.3-0.1-9-3.1-9-5.1c0-0.1,0-0.2,0-0.3c0.3-1.2,2.5-2.3,5-2.9c0.2-0.1,0.4-0.2,0.5-0.4
		c-0.2,0.1-0.4,0.2-0.5,0.4c2.3-0.6,4.9-0.8,6.8-0.4c1.6,0.3,3.4,1.2,4.9,2.3c-1.7-1.9-5.6-4-10.3-3.7h0c0,0,0,0,0,0
		c-3.4-0.2-21.1-0.8-21.1-0.8c6.1,2.4,11.6,4.7,8.2,7.8l0,0c-1.9,1.4-4.8,2.7-10.4,3.5c-6.6,1,13.4-2.3,18.9,1.1
		c2.2,1.1,13.4-0.1,15.6-0.1c3.3,0,3.4-1.4,3.5-1.8C45.1,79.4,38.9,78.4,33.6,78.3L33.6,78.3z M30.6,69.3
		C30.6,69.3,30.6,69.3,30.6,69.3C30.6,69.3,30.6,69.3,30.6,69.3z"/>
	<path class="st7" d="M45.8,77.6c0.1,2-6.6,0.8-12.2,0.7c-4.3-0.1-9-3.1-9-5.1c-0.1-2.4,7.6-4.4,11.9-3.6
		C40.7,70.4,45.7,75.1,45.8,77.6z"/>
	<path d="M75,99.5c-0.3-0.1-0.6-0.1-0.8,0.2l-10.4,11.8c0,0.2,0.1,0.4,0.1,0.6c0.5,2.1,0.9,4.2,2,5.8c0.3,0.5,1.1,0.4,1.2-0.2
		c0.8-3.1,3.2-11,8.2-13.8c2.1-1.2,4.6-1.5,7.2-0.9c0.1,0,0.2,0.1,0.3,0.1c-0.3-0.1-0.6-0.3-0.9-0.4C79.6,101.6,77.2,100.5,75,99.5
		L75,99.5z"/>
	<g>
		<path class="st18" d="M63.2,121.7c-5.1-5.9-0.7-20.7-13-19.5c7.8-3.4,11.1-11.4,11.1-11.4s2.2-5.5,3.9,0.1
			c1.7,5.6,26.2,14.5,14,11.2c-12.3-3.3-14.9,19.7-14.9,19.7C64,122.1,63.4,122.1,63.2,121.7z"/>
		<path d="M63.7,122.4C63.7,122.4,63.7,122.4,63.7,122.4c-0.4,0-0.7-0.2-0.9-0.5c-1.9-2.2-2.5-5.6-3.1-8.9c-1-5.7-2-11.1-9.5-10.4
			l-2.6,0.2l2.4-1.1c7.5-3.3,10.8-11.1,10.9-11.1c0.2-0.4,1.2-2.7,2.5-2.7c0,0,0,0,0.1,0c0.9,0,1.6,0.9,2.1,2.8
			c0.9,2.9,9.1,7.2,13.5,9.5c3.7,1.9,4,2.1,3.8,2.7c-0.2,0.4-0.4,0.5-3.9-0.4c-2.3-0.6-4.5-0.3-6.3,1c-6.4,4.3-8.1,18.2-8.1,18.3
			v0.1l-0.1,0.1C64.4,122.3,64.1,122.4,63.7,122.4L63.7,122.4z M52.1,101.7c6.5,0.3,7.5,5.8,8.4,11.1c0.6,3.2,1.2,6.5,3,8.6l0,0.1
			c0,0.1,0.1,0.1,0.2,0.1c0,0,0.1,0,0.1,0c0.2-1.6,2-14.4,8.4-18.8c2.1-1.4,4.4-1.8,7-1.1c0.6,0.2,1.1,0.3,1.5,0.4
			c-0.6-0.3-1.3-0.7-2.1-1.1c-5.2-2.7-13-6.7-13.9-10c-0.6-1.9-1.1-2.2-1.4-2.2h0c-0.6,0-1.4,1.3-1.8,2.2
			C61.5,91.3,58.7,98,52.1,101.7L52.1,101.7z"/>
	</g>
	<g>
		<path class="st19" d="M63,116.1c-2.2-9.7-1.6-19.3,1-27.4c-1.4-1.1-2.7,2.2-2.7,2.2s-3.3,7.9-11.1,11.4c12.2-1.2,7.9,13.5,13,19.5
			c0.2,0.4,0.8,0.4,1,0.1c0,0,0-0.3,0.1-0.8C63.8,119.4,63.4,117.7,63,116.1L63,116.1z"/>
		<path d="M63.7,122.4C63.7,122.4,63.7,122.4,63.7,122.4c-0.4,0-0.7-0.2-0.9-0.5c-1.9-2.2-2.5-5.6-3.1-8.9c-1-5.7-2-11.1-9.5-10.4
			l-2.6,0.2l2.4-1.1c7.5-3.3,10.8-11.1,10.9-11.1c0.1-0.2,1-2.3,2.2-2.7c0.4-0.1,0.8,0,1.2,0.3l0.2,0.2l-0.1,0.3
			c-2.7,8.4-3.1,17.8-1,27.2l0,0c0.3,1.6,0.8,3.2,1.3,4.9l0,0.1v0.1c-0.1,0.5-0.1,0.8-0.1,0.8v0.1l-0.1,0.1
			C64.4,122.3,64.1,122.4,63.7,122.4L63.7,122.4z M52.1,101.7c6.5,0.3,7.5,5.8,8.4,11.1c0.6,3.2,1.2,6.5,3,8.6
			c0.1,0.2,0.2,0.2,0.2,0.2c0,0,0.1,0,0.1,0c0-0.1,0-0.3,0.1-0.5c-0.5-1.7-1-3.3-1.3-4.9l0,0c-2.1-9.4-1.8-18.8,0.9-27.3
			c-0.1,0-0.1,0-0.2,0C62.7,89,62,90.3,61.7,91C61.5,91.3,58.7,98,52.1,101.7L52.1,101.7z"/>
	</g>
	<path class="st10" d="M66.7,135.7L66.1,174c0.1,0,0.2-0.1,0.3-0.1l2.6-2.8l0,0L66.7,135.7L66.7,135.7z"/>
	<path class="st11" d="M66.7,135.7L66.1,174c-0.1,0-0.2-0.1-0.3-0.2l-2.5-2.9l0,0C63.2,170.9,66.7,135.7,66.7,135.7z"/>
	<path class="st11" d="M66.6,127l-3.6,6.2l3.7,1.8L66.6,127z"/>
	<path class="st10" d="M66.6,127l3.7,6.1l-3.7,1.8L66.6,127L66.6,127z"/>
	<path class="st12" d="M66.6,131.8l-3.7,1.4c2.4,1.2,3.7,1.8,3.7,1.8L66.6,131.8L66.6,131.8z"/>
	<path class="st13" d="M66.6,131.8l3.7,1.3c-2.4,1.2-3.6,1.8-3.6,1.8S66.6,131.8,66.6,131.8z"/>
	<path class="st10" d="M66.6,135.5v3l3.7-4.9L66.6,135.5L66.6,135.5z"/>
	<path class="st11" d="M66.6,135.5v3l-3.7-4.8L66.6,135.5z"/>
</g>
<g id="g">
	<text transform="matrix(1.06 0 0 1 52.1597 224.4902)" class="st1 st20 st21">ME</text>
	<text transform="matrix(1.06 0 0 1 465.2734 224.4902)" class="st1 st20 st21 st22">T</text>
	<text transform="matrix(1.06 0 0 1 620.0654 224.4902)" class="st1 st20 st21 st23">A</text>
	<text transform="matrix(1.06 0 0 1 814.5117 224.4902)" class="st1 st20 st21 st24">O</text>
	<text transform="matrix(1.06 0 0 1 1035.999 224.4902)" class="st1 st20 st21">WL</text>
</g>
<g id="h">
</g>
<g id="i">
	<rect x="52.1" y="78.6" width="6.9" height="0.7"/>
	<path d="M72,78.6H69v0.7h3C72,79.1,72,78.8,72,78.6L72,78.6z"/>
	<path d="M59,88.2c-0.2,0-0.4-0.2-0.4-0.4v-8.8c0-0.2,0.2-0.4,0.4-0.4s0.4,0.2,0.4,0.4v8.8C59.4,88,59.2,88.2,59,88.2z"/>
	<path d="M69.2,88.2c-0.2,0-0.4-0.2-0.4-0.4v-8.8c0-0.2,0.2-0.4,0.4-0.4s0.4,0.2,0.4,0.4v8.8C69.6,88,69.4,88.2,69.2,88.2z"/>
	<path d="M59,88.2c-0.1,0-0.2,0-0.2-0.1c-0.2-0.1-0.2-0.3-0.1-0.5c0.1-0.1,2-2.6,5-2.8c1.9-0.1,3.9,0.8,5.6,2.8
		c0.2,0.2,0.1,0.4-0.1,0.5c-0.2,0.1-0.4,0.1-0.6-0.1c-1.6-1.7-3.3-2.6-5-2.5c-2.6,0.1-4.4,2.4-4.4,2.4C59.2,88.1,59.1,88.2,59,88.2
		L59,88.2z"/>
	<g class="st25">
		<ellipse class="st26" cx="35.3" cy="79.7" rx="16.7" ry="16.8"/>
		<path d="M35.3,96.6c-9.3,0-16.8-7.6-16.8-16.9S26,62.8,35.3,62.8s16.8,7.6,16.8,16.9S44.6,96.6,35.3,96.6z M35.3,63
			c-9.2,0-16.6,7.5-16.6,16.7s7.5,16.7,16.6,16.7s16.6-7.5,16.6-16.7S44.5,63,35.3,63z"/>
	</g>
	<path d="M18.6,79c-0.1,0-0.2-0.1-0.3-0.2l-5.6-6.7c-0.1-0.2-0.1-0.4,0.1-0.6c0.2-0.2,0.4-0.1,0.6,0.1l5.6,6.7
		c0.1,0.2,0.1,0.4,0,0.6C18.8,79,18.7,79,18.6,79z"/>
	<g class="st27">
		<line class="st28" x1="28.6" y1="82" x2="24.2" y2="75.3"/>
		<path d="M28.6,82.8c-0.3,0-0.5-0.1-0.7-0.4l-4.5-6.7c-0.3-0.4-0.1-0.9,0.2-1.2s0.9-0.2,1.2,0.2l4.5,6.7c0.3,0.4,0.1,0.9-0.2,1.2
			C28.9,82.8,28.8,82.8,28.6,82.8L28.6,82.8z"/>
	</g>
	<g class="st27">
		<line class="st28" x1="28.6" y1="89.8" x2="24.2" y2="83.1"/>
		<path d="M28.6,90.7c-0.3,0-0.5-0.1-0.7-0.4l-4.5-6.7c-0.3-0.4-0.1-0.9,0.2-1.2s0.9-0.2,1.2,0.2l4.5,6.7c0.3,0.4,0.1,0.9-0.2,1.2
			C28.9,90.6,28.8,90.7,28.6,90.7L28.6,90.7z"/>
	</g>
</g>
<g id="j">
</g>
<g id="k">
</g>
<g id="l">
</g>
<g id="m">
</g>
<g id="n">
</g>
<g id="o">
</g>
<g id="p">
</g>
</svg>
