<?xml version="1.0" encoding="UTF-8"?><svg id="a" xmlns="http://www.w3.org/2000/svg" viewBox="0 0 359.43 71"><path d="M22.48,49.94L14.41,19.82V52.46c0,1.81-.43,3.16-1.29,4.06-.86,.9-2,1.35-3.41,1.35s-2.49-.45-3.36-1.34c-.87-.89-1.3-2.25-1.3-4.08V15.04c0-2.06,.57-3.46,1.72-4.18,1.14-.72,2.69-1.08,4.63-1.08h3.16c1.9,0,3.28,.16,4.13,.48,.86,.32,1.49,.9,1.9,1.74s.88,2.2,1.41,4.1l7.31,25.9,7.31-25.9c.53-1.89,1-3.26,1.41-4.1,.41-.84,1.05-1.42,1.9-1.74,.86-.32,2.24-.48,4.14-.48h3.16c1.94,0,3.49,.36,4.63,1.08,1.14,.72,1.72,2.11,1.72,4.18V52.46c0,1.81-.43,3.16-1.29,4.06-.86,.9-2.01,1.35-3.45,1.35-1.35,0-2.46-.45-3.33-1.35-.87-.9-1.3-2.26-1.3-4.06V19.82l-8.06,30.12c-.53,1.96-.96,3.39-1.29,4.31-.33,.91-.94,1.75-1.84,2.5-.89,.75-2.13,1.13-3.71,1.13-1.19,0-2.2-.24-3.02-.73-.82-.48-1.46-1.1-1.92-1.85-.46-.75-.82-1.59-1.08-2.5-.26-.91-.53-1.86-.81-2.85Z" style="fill:#fff;"/><path d="M97.18,17.17h-22.96v11.61h21.14c1.56,0,2.72,.33,3.48,.98,.77,.66,1.15,1.52,1.15,2.6s-.38,1.95-1.13,2.63-1.92,1.02-3.5,1.02h-21.14v13.45h23.75c1.6,0,2.81,.35,3.62,1.05s1.22,1.63,1.22,2.79-.41,2.03-1.22,2.73c-.81,.7-2.02,1.05-3.62,1.05h-27.69c-2.22,0-3.81-.46-4.79-1.39-.97-.92-1.46-2.42-1.46-4.48V15.66c0-1.38,.22-2.5,.65-3.37,.43-.87,1.12-1.5,2.04-1.9,.93-.4,2.11-.6,3.55-.6h26.9c1.62,0,2.83,.34,3.62,1.02,.79,.68,1.18,1.56,1.18,2.66s-.39,2.02-1.18,2.69c-.79,.68-2,1.02-3.62,1.02Z" style="fill:#fff;"/><path d="M143.58,17.69h-11.12V52.04c0,1.98-.47,3.45-1.41,4.4-.94,.96-2.15,1.44-3.64,1.44s-2.74-.48-3.69-1.45-1.42-2.43-1.42-4.39V17.69h-11.12c-1.74,0-3.03-.36-3.88-1.08-.85-.72-1.27-1.67-1.27-2.85s.44-2.19,1.32-2.9c.88-.71,2.16-1.06,3.83-1.06h32.39c1.76,0,3.07,.37,3.93,1.1,.86,.73,1.29,1.69,1.29,2.87s-.44,2.13-1.3,2.85c-.87,.72-2.17,1.08-3.91,1.08Z" style="fill:#fff;"/><path d="M182.6,51.71l-2.4-5.93h-20.45l-2.4,6.06c-.94,2.37-1.74,3.96-2.4,4.79-.66,.83-1.75,1.24-3.26,1.24-1.28,0-2.41-.44-3.4-1.32-.98-.88-1.48-1.88-1.48-3,0-.65,.11-1.31,.34-2,.23-.69,.61-1.64,1.13-2.87l12.87-30.7c.37-.88,.81-1.94,1.32-3.18,.51-1.24,1.06-2.26,1.65-3.08,.58-.82,1.35-1.48,2.3-1.98,.95-.5,2.12-.76,3.52-.76s2.6,.25,3.55,.76c.95,.51,1.72,1.16,2.3,1.95,.58,.8,1.08,1.65,1.48,2.56,.4,.91,.91,2.13,1.53,3.66l13.14,30.51c1.03,2.32,1.54,4.01,1.54,5.06s-.49,2.1-1.46,3.02c-.97,.91-2.14,1.37-3.52,1.37-.8,0-1.49-.13-2.06-.4-.57-.27-1.05-.63-1.44-1.1-.39-.46-.81-1.17-1.25-2.13-.45-.96-.83-1.8-1.15-2.53Zm-20.18-13.13h15.03l-7.58-19.51-7.45,19.51Z" style="fill:#fff;"/><path d="M222.16,8.98c5.22,0,9.7,.99,13.44,2.98s6.57,4.82,8.49,8.48c1.92,3.67,2.88,7.97,2.88,12.92,0,3.66-.53,6.98-1.58,9.97-1.05,2.99-2.63,5.58-4.74,7.77-2.1,2.19-4.69,3.87-7.75,5.03-3.07,1.16-6.58,1.74-10.54,1.74s-7.46-.6-10.57-1.79c-3.11-1.19-5.71-2.88-7.79-5.05-2.08-2.17-3.66-4.78-4.72-7.84-1.06-3.05-1.6-6.35-1.6-9.9s.55-6.97,1.66-10c1.11-3.03,2.72-5.61,4.82-7.74,2.1-2.13,4.67-3.76,7.69-4.89s6.45-1.69,10.29-1.69Zm14.48,24.32c0-3.46-.6-6.46-1.79-9-1.19-2.54-2.89-4.46-5.1-5.76-2.21-1.3-4.74-1.95-7.6-1.95-2.04,0-3.92,.36-5.64,1.08-1.73,.72-3.21,1.77-4.46,3.14-1.25,1.38-2.23,3.13-2.95,5.27-.72,2.14-1.08,4.54-1.08,7.21s.36,5.12,1.08,7.29c.72,2.17,1.74,3.97,3.05,5.4,1.32,1.43,2.83,2.5,4.53,3.21,1.7,.71,3.57,1.06,5.61,1.06,2.61,0,5-.61,7.19-1.84,2.19-1.23,3.92-3.12,5.22-5.68,1.29-2.56,1.94-5.71,1.94-9.45Z" style="fill:#fff;"/><path d="M292.17,49.62l-8.13-28.35-8.24,28.35c-.64,2.15-1.15,3.69-1.53,4.63-.38,.94-1.04,1.77-1.97,2.52-.94,.74-2.19,1.11-3.74,1.11-1.26,0-2.29-.22-3.11-.66s-1.47-1.06-1.97-1.87c-.5-.81-.91-1.76-1.23-2.87s-.61-2.13-.86-3.08l-8.37-31.83c-.5-1.85-.75-3.26-.75-4.23,0-1.23,.46-2.26,1.37-3.1,.91-.84,2.05-1.26,3.4-1.26,1.85,0,3.1,.56,3.74,1.68,.64,1.12,1.2,2.74,1.68,4.87l6.59,27.61,7.38-25.83c.55-1.98,1.04-3.48,1.48-4.52,.43-1.03,1.14-1.92,2.13-2.68,.98-.75,2.32-1.13,4.02-1.13s3.05,.39,4,1.18c.95,.79,1.61,1.64,1.97,2.56,.37,.92,.86,2.45,1.48,4.58l7.45,25.83,6.59-27.61c.32-1.44,.62-2.57,.91-3.39,.29-.82,.78-1.55,1.48-2.19,.7-.65,1.71-.97,3.04-.97s2.45,.41,3.38,1.24c.93,.83,1.39,1.87,1.39,3.11,0,.88-.25,2.29-.76,4.23l-8.37,31.83c-.57,2.15-1.05,3.73-1.42,4.72-.38,1-1.02,1.88-1.92,2.63-.9,.75-2.18,1.13-3.83,1.13-1.56,0-2.8-.37-3.74-1.1-.94-.73-1.59-1.55-1.96-2.47-.37-.91-.88-2.48-1.54-4.69Z" style="fill:#fff;"/><path d="M332.46,14.79V49.2h20.66c1.65,0,2.91,.38,3.79,1.13,.88,.75,1.32,1.7,1.32,2.84s-.43,2.1-1.3,2.82c-.87,.72-2.14,1.08-3.81,1.08h-24.6c-2.22,0-3.82-.46-4.79-1.39-.97-.92-1.46-2.42-1.46-4.48V14.79c0-1.94,.46-3.39,1.39-4.35,.93-.97,2.15-1.45,3.66-1.45s2.77,.48,3.72,1.44c.95,.96,1.42,2.41,1.42,4.37Z" style="fill:#fff;"/></svg>