<?xml version="1.0" encoding="UTF-8"?><svg xmlns="http://www.w3.org/2000/svg" viewBox="0 0 2850.49 542.94"><g id="a"/><g id="b"/><g id="c"><path d="M1980.38,276.35c-.09-2.38-.05-4.73,.11-7.05l-218.87-1.3c-.06,0-.1,.04-.1,.1l-.81,137.32c.76,.36,1.51,.73,2.25,1.12,5.61,1.82,10.79,4.38,15.57,7.62,1.26-.07,2.52-.11,3.77-.11,20.75-.06,42.4-.08,62.26,6.62,7.69,2.16,14.81,5.28,21.38,9.34,8.96-7.74,19.92-13.61,31.49-17.05,2.37-2.11,4.9-4.07,7.62-5.83,2.19-2,4.5-3.81,6.9-5.46,.77-.63,1.56-1.24,2.35-1.85,4.34-6.97,8.74-13.89,13.05-20.87,7.38-11.96,15-23.39,24.46-33.98,4.36-4.88,9.46-9.13,14.3-13.57,.3-.47,.64-.92,.96-1.38,1.18-5.55,3.11-10.89,5.8-16.03,2.25-6.92,5.6-13.19,10-18.85-1.4-6.19-2.22-12.52-2.5-18.78Z" style="fill:#1a1b4f; stroke:#000; stroke-miterlimit:10; stroke-width:2px;"/><path d="M1972.88,313.98c1.51-4.65,3.53-8.99,6.02-13.07l-114.21,1.98c-1.72,.03-2.94,1.69-2.47,3.34l31.25,107.99c1.31-.46,2.64-.88,3.97-1.27,2.37-2.11,4.9-4.06,7.62-5.83,2.19-2,4.5-3.81,6.9-5.46,3.24-2.65,6.7-5.07,10.39-7.27,3.41-9.44,8.86-17.69,16.42-24.71,4.62-4.62,9.94-8.69,15.71-12.11,1.16-3.96,2.72-7.82,4.69-11.56,1.88-5.78,4.54-11.11,7.92-16.01,1.18-5.54,3.11-10.88,5.8-16.01Z" style="fill:#fff;"/><path d="M1893.66,414.15c-10.9-38.18-21.8-76.35-32.7-114.52l-15.57-3.93,43.89,119.96c1.45-.53,2.9-1.04,4.37-1.5Z" style="fill:#d2d2d2;"/><g><path d="M1981.25,262.88c-8.84-13.53-12.96-29.99-13.67-46.01-.09-2.39-.05-4.75,.11-7.07-10.4-12.45-15.87-28.37-17.75-44.41-4.89-3.14-9.54-6.74-13.92-10.75-11.32-10.39-18.14-24.31-21.57-39.04-4.47-4.96-8.11-10.53-11-16.48-44.4,10.22-81.08,34.15-101.7,65.45-.02,.03-.05,.06-.09,.08-33.36,17.05-55.4,46.15-55.6,79.31-.12,20.53,8.16,39.6,22.35,55.29,1.52,1.68,3.95,2.16,6.07,1.35,13.43-5.12,27.96-7.89,43.13-7.8,39.26,.23,68.49,37.89,99.73,38.07,14.4,.09,32.95-7.11,54.52-14.85,.33-.69,.67-1.37,1.03-2.05,2.25-6.92,5.6-13.19,10-18.85-1.4-6.19-2.22-12.52-2.5-18.78-.17-4.61,.12-9.1,.87-13.46Z" style="fill:#ddbc9c; stroke:#000; stroke-miterlimit:10; stroke-width:2px;"/><path d="M1917.35,327.76c-13.88-.08-27.8-8.28-42.53-16.96-17.5-10.32-35.6-20.98-57.19-21.11-15.2-.09-30.1,2.6-44.27,8.01-.96,.36-2.02,.16-2.63-.53-14.21-15.71-21.66-34.1-21.55-53.18,.18-30.77,20.33-59.39,53.86-76.53l.85-.46,.47-.71c20.99-31.86,57.48-54.68,100.54-64.34-1.01-1.88-1.95-3.8-2.81-5.77-43.72,10.14-80.83,33.52-102.53,66.03-35.28,18.28-56.43,48.79-56.63,81.73-.12,20.67,7.89,40.52,23.16,57.41,2.37,2.62,6.09,3.47,9.5,2.17,13.44-5.13,27.57-7.69,42-7.6,19.91,.12,37.27,10.35,54.06,20.24,28.19,16.61,36.03,16.37,45.67,17.83,2.88,.44,15.02,2.15,30.92,.18,7.74-.96,13.25-2.4,18.87-4.32,1.18-5.5,3.1-10.8,5.78-15.89,.21-.64,.45-1.25,.68-1.88-2.81,1-5.56,1.99-8.24,2.96-18.97,6.85-35.35,12.77-47.96,12.69Z"/></g><path d="M1967.68,209.81c-7.2-8.62-12.03-18.92-14.95-29.76-16.09,10-25.62,18.18-30.88,24.6-6.84-7.56-20.18-17.48-44.21-29.67-124.57-63.21-91.13,93.17-35.02,112.24,10.22-20.14,83.66-27.65,137.73-14.78,.06-3.24,.38-6.42,.91-9.53-8.85-13.53-12.97-30-13.69-46.03-.09-2.39-.05-4.75,.11-7.07Z" style="fill:#fae9d8;"/><path d="M1866.01,205.82c-1.14,.19-2.51,.31-4.17,.3-4.9-.2-26.41,1.82-37.75,.93-1.88,9.2,9.76,20.77,15.76,20.81,16.23,4.1,18.78-6.14,28.22-18.57,1.59-2.09,1.13-3.06-2.06-3.46Z" style="fill:#f8d452; stroke:#000; stroke-miterlimit:10; stroke-width:.5px;"/><path d="M1836.97,207.19c.57,4.6,4.44,8.19,9.2,8.21,5.15,.03,12.45-4.09,12.54-9.24-4.95,.18-13.59,.79-21.74,1.02Z"/><path d="M1837.58,202.07c-12.02-.36-25.05-8.87-25.17-14.29,0-.3,.08-.59,.16-.89,.88-3.33,6.92-6.17,14.14-7.8,.54-.35,1.05-.69,1.53-1.01-.47,.32-.98,.66-1.53,1.01,6.41-1.45,13.71-1.94,19.04-.95,4.56,.85,9.43,3.34,13.7,6.47-4.64-5.22-15.66-11.11-28.71-10.64,.01,0,.02,0,.03,0-.02,0-.03-.01-.06-.01-9.44-.8-59.25-2.73-59.25-2.73,16.92,6.78,32.38,13.17,22.85,21.76h0c-5.34,3.8-13.4,7.26-29.29,9.44-18.65,2.55,37.52-6.02,53.08,3.44,6.23,3.16,37.68,0,43.73,.26,9.37,.06,9.69-3.68,9.73-5.01-1.62,4.35-19.22,1.4-33.99,.96Zm-8.18-24.83s.09-.06,.13-.09c-.04,.03-.09,.06-.13,.09Z" style="fill:#979747;"/><path d="M1871.73,200.38c.12,5.42-18.6,2.15-34.15,1.69-12.02-.36-25.05-8.87-25.17-14.29-.15-6.73,21.47-11.85,33.34-9.64,11.87,2.21,25.83,15.51,25.97,22.25Z" style="fill:#959595;"/><path d="M1953.17,261.85c-.75-.37-1.63-.19-2.2,.43l-29.5,32.36c.13,.58,.26,1.16,.38,1.73,1.24,5.71,2.52,11.57,5.49,16.06,.9,1.36,2.99,1.04,3.42-.54,2.31-8.63,9.38-30.41,23.51-38.01,6.02-3.23,12.8-4.02,20.14-2.35,.32,.07,.63,.14,.92,.21-.86-.37-1.75-.75-2.63-1.12-6.81-2.9-13.58-5.85-19.54-8.76Z"/><path d="M1919.3,322.8c-14.21-16.59-1.47-57.12-35.85-54.2,21.92-9.24,31.42-31.05,31.42-31.05,0,0,6.41-15.2,10.97,.26,4.56,15.45,73.12,40.85,38.82,31.27-34.3-9.57-42.46,53.93-42.46,53.93-.77,.98-2.28,.87-2.9-.21Z" style="fill:#3c502b; stroke:#000; stroke-miterlimit:10;"/><path d="M1918.91,307.2c-5.75-26.92-3.99-53.25,3.64-75.7-3.85-3.03-7.68,6.05-7.68,6.05,0,0-9.5,21.81-31.42,31.05,34.38-2.92,21.64,37.61,35.85,54.2,.62,1.07,2.13,1.18,2.9,.21,0,0,.1-.79,.32-2.11-1.38-4.45-2.61-9.01-3.61-13.7Z" style="fill:#56703c; stroke:#000; stroke-miterlimit:10;"/><path d="M1929.68,380.14l-1.06-18.63-.55,21.05c.51-.82,1.06-1.62,1.61-2.42Z" style="fill:#444240;"/><path d="M1928.07,382.55l.55-21.05-2.72,24.82c.68-1.28,1.4-2.54,2.17-3.77Z" style="fill:#949492;"/><path d="M1928.61,337.64c-3.45,5.64-6.89,11.28-10.34,16.93l10.22,5.01,.12-21.94Z" style="fill:#949492;"/><path d="M1928.61,337.64c3.38,5.68,6.77,11.36,10.15,17.04l-10.27,4.9,.12-21.94Z" style="fill:#444240;"/><path d="M1928.54,350.92l-10.26,3.65q10.22,5.01,10.22,5.01l.05-8.65Z" style="fill:#494844;"/><path d="M1928.54,350.92l10.22,3.76q-10.27,4.9-10.27,4.9l.05-8.65Z" style="fill:#272622;"/><path d="M1928.49,361.09l-.04,8.23c3.44-4.43,6.88-8.86,10.32-13.28-3.42,1.69-6.85,3.37-10.27,5.06Z" style="fill:#444240;"/><path d="M1928.49,361.09l-.04,8.23c-3.39-4.46-6.78-8.93-10.17-13.39,3.41,1.72,6.81,3.45,10.22,5.17Z" style="fill:#949492;"/></g><g id="d"/><g id="e"/><g id="f"><g><path d="M172.49,436.7c-3.04-11.57-2.94-21.06-1.71-31.74l-.73,5.43c.92-10.78,2.54-21.53,5.16-32.03,1.21-4.85,2.46-9.68,3.45-14.57,2.43-26.73,.66-54.11,.64-80.83,0-2.76,.22-5.46,.64-8.09,.25-3.05,.67-6.12,1.27-9.21,2.61-13.51,5.94-26.87,10.06-39.99-1.9-1.39-3.75-2.91-5.56-4.57-5.35-4.91-9.48-11.75-12.15-19.07H12.66c-.06,0-.1,.04-.1,.1v237.02c0,.06,.04,.1,.1,.1H173.21c-.26-.84-.5-1.69-.72-2.55Z" style="fill:#c95962; stroke:#000; stroke-miterlimit:10; stroke-width:.75px;"/><path d="M172.75,437.62H14.19V203.66H174.17c-.43-1.07-.81-2.16-1.18-3.26H12.73c-.99,0-1.79,.8-1.79,1.79v236.89c0,.99,.8,1.79,1.79,1.79H173.74c-.36-1.07-.69-2.16-.99-3.26Z" style="fill:#c95962; stroke:#000; stroke-miterlimit:10; stroke-width:.75px;"/></g><path d="M171.49,436.7c-3.04-11.57-2.94-21.06-1.71-31.74l-.73,5.43c.92-10.78,2.54-21.53,5.16-32.03,1.21-4.85,2.46-9.68,3.45-14.57,2.43-26.73,.66-54.11,.64-80.83,0-2.76,.22-5.46,.64-8.09,.25-3.05,.67-6.12,1.27-9.21,2.61-13.51,5.94-26.87,10.06-39.99-1.9-1.39-3.75-2.91-5.56-4.57-5.32-4.89-9.43-11.68-12.11-18.96H12.17c-.06,0-.1,.04-.1,.1v237.02c0,.06,.04,.1,.1,.1H172.24c-.27-.88-.52-1.76-.76-2.66Z" style="fill:none; stroke:#000; stroke-miterlimit:10; stroke-width:3px;"/><path d="M126.74,370.46l-42.9-144.16c-.49-1.65,.71-3.31,2.43-3.36l86.55-2.42c1.78-.05,3.09,1.65,2.58,3.36l-43.64,146.58c-.74,2.49-4.27,2.49-5.01,0Z" style="fill:#fff;"/><path d="M185.72,221.1c-.82-.76-1.61-1.57-2.37-2.41-2.38,.58-4.76,1.15-7.14,1.73l-36.45,123.24,46.05-122.48s-.06-.05-.09-.08Z" style="fill:#d2d2d2;"/><path d="M118.86,344.01c-12.08-41.1-24.15-82.21-36.23-123.31-3.62-.88-7.25-1.77-10.87-2.65" style="fill:#d2d2d2;"/><g><g><path d="M185.72,221.1c-9.87-9.06-15.62-24.68-15.67-37.83-.09-26.44-4.02-52.69-4.11-79.13-.03-9.63,2.68-18.55,7.31-26.52-8.95-1.65-18.3-2.52-27.92-2.48-46.04,.21-85.78,20.95-104.93,50.97-.02,.02-.04,.04-.06,.06C17.22,138.41,2.07,159.05,2.18,182.38c.06,14.45,5.97,27.8,15.97,38.74,1.07,1.17,2.77,1.49,4.24,.91,9.32-3.7,19.42-5.76,29.99-5.8,27.35-.12,47.99,26.16,69.75,26.06,15.69-.07,38.33-12.74,65.09-19.88-.5-.43-1.01-.85-1.5-1.3Z" style="fill:#ddbc9c;"/><path d="M185.75,221.13c-10.92,2.97-21.08,6.8-30.12,10.2-13.21,4.98-24.63,9.28-33.51,9.32h-.11c-9.78,0-19.56-5.68-29.91-11.7-12.15-7.06-24.71-14.36-39.52-14.36h-.2c-10.52,.05-20.81,2.04-30.58,5.92-.89,.35-1.84,.16-2.44-.49-10.11-11.06-15.48-24.08-15.54-37.65-.1-21.87,13.85-42.35,37.33-54.78l.42-.26,.22-.34c19.63-30.78,59.31-50.02,103.56-50.21,.22,0,.45,0,.67,0,8.99,0,17.83,.82,26.37,2.38,.55-1.01,1.13-2,1.74-2.98-9.1-1.73-18.53-2.65-28.11-2.65-.23,0-.45,0-.68,0-45.19,.2-85.79,19.88-106.08,51.4C14.9,137.92,.45,159.38,.55,182.38c.06,14.39,5.73,28.17,16.4,39.83,1.51,1.66,3.88,2.18,6.04,1.32,9.39-3.73,19.28-5.64,29.4-5.69h.18c13.94,0,26.12,7.08,37.89,13.92,10.74,6.24,20.89,12.14,31.55,12.14h.13c9.47-.04,21.13-4.44,34.64-9.52,9.95-3.75,20.61-7.75,31.95-10.7-1-.82-2-1.66-2.97-2.56Z"/></g><path d="M191.27,225.67c-1.9-1.39-3.75-2.91-5.56-4.57-.15-.14-.29-.29-.44-.43-10.81,2.97-20.87,6.75-29.84,10.13-13.17,4.96-24.54,9.24-33.32,9.28-9.67,.04-19.43-5.63-29.75-11.63-12.27-7.13-24.95-14.5-40-14.44-10.59,.05-20.95,2.05-30.78,5.96-.67,.26-1.4,.12-1.84-.35-10.01-10.95-15.33-23.84-15.39-37.26-.09-21.65,13.74-41.93,36.97-54.24l.59-.33,.32-.5c19.52-30.62,59.03-49.76,103.11-49.96,9.12-.04,18.09,.77,26.77,2.34,.72-1.37,1.5-2.71,2.34-4.03-9.42-1.81-19.19-2.75-29.12-2.71-45.32,.2-86.05,19.93-106.46,51.53C14.42,137.59-.1,159.21,0,182.39c.06,14.54,5.79,28.45,16.55,40.22,1.67,1.83,4.27,2.4,6.63,1.46,9.33-3.71,19.15-5.61,29.21-5.65,13.87-.06,26.04,7.01,37.81,13.85,19.76,11.48,25.22,11.26,31.94,12.21,2.01,.29,10.48,1.4,21.54-.1,11.26-1.53,15.73-4.48,28.25-8.92,1.89-.67,8.97-3.18,18.08-5.67,.41-1.38,.83-2.75,1.26-4.13Z"/></g><path d="M170.05,183.28c-.07-19.8-2.29-39.5-3.44-59.25-2.58,1.24-5.24,2.61-7.99,4.16-19.27,10.77-29.41,19.15-34.25,25.24-4.82-5.27-14.19-12.15-31.01-20.55C6.12,89.31,30.54,199.09,69.76,212.1c7.5-15.32,66.03-20.9,104.13-9.2-2.47-6.45-3.82-13.32-3.84-19.63Z" style="fill:#fae9d8;"/><g><path d="M85.47,154.66c-.79,.15-1.74,.24-2.9,.24-3.41-.11-18.39,1.47-26.29,.93-1.25,6.49,6.95,14.55,11.13,14.53,11.34,2.77,13.04-4.45,19.53-13.27,1.09-1.48,.77-2.16-1.46-2.42Z" style="fill:#f8d452;"/><path d="M71.82,171.36c-1.33,0-2.82-.19-4.52-.61h-.03c-2.16,0-5.4-2.08-7.97-5.19-2.74-3.3-3.99-6.88-3.42-9.81l.07-.35,.36,.03c5.05,.35,13.1-.18,18.99-.57,3.38-.22,6.06-.4,7.29-.36,1.05,0,2-.08,2.82-.24h.12c1.38,.16,2.08,.48,2.33,1.06,.29,.67-.17,1.42-.59,2.01-1.21,1.65-2.24,3.21-3.23,4.72-3.45,5.26-6.11,9.31-12.21,9.31Zm-4.42-1.41c9.03,2.2,11.78-2,15.95-8.35,1-1.52,2.03-3.09,3.25-4.76,.56-.76,.56-1.08,.5-1.2-.06-.15-.36-.42-1.62-.57-.85,.15-1.83,.23-2.91,.24-1.2-.05-3.87,.14-7.22,.36-5.77,.38-13.61,.9-18.73,.59-.35,2.63,.84,5.81,3.31,8.79,2.4,2.89,5.47,4.91,7.46,4.91h.01Z"/></g><path d="M65.25,155.83c.43,3.23,3.15,5.73,6.47,5.71,3.59-.02,8.64-2.97,8.67-6.59-3.45,.16-9.46,.65-15.14,.88Z"/><path d="M65.64,152.23c-8.38-.17-17.52-6.06-17.64-9.87,0-.21,.05-.42,.1-.62,.59-2.35,4.78-4.39,9.8-5.59,.38-.25,.73-.49,1.06-.72-.33,.23-.68,.47-1.06,.72,4.46-1.07,9.54-1.47,13.26-.81,3.18,.56,6.59,2.28,9.59,4.45-3.27-3.64-10.99-7.71-20.08-7.27,0,0,.01,0,.02,0-.02,0-.02,0-.04,0-6.58-.49-41.3-1.49-41.3-1.49,11.84,4.65,22.66,9.03,16.08,15.14h0c-3.69,2.72-9.28,5.21-20.34,6.85-12.97,1.93,26.09-4.51,37,2.03,4.36,2.18,26.25-.27,30.46-.14,6.53-.03,6.72-2.66,6.74-3.59-1.1,3.07-13.38,1.12-23.67,.92Zm-5.88-17.41s.06-.05,.09-.07c-.03,.02-.06,.05-.09,.07Z" style="fill:#979747;"/><path d="M89.42,150.79c.12,3.81-12.94,1.65-23.78,1.44-8.38-.17-17.52-6.06-17.64-9.87-.15-4.74,14.87-8.5,23.16-7.03,8.29,1.47,18.1,10.73,18.25,15.46Z" style="fill:#959595;"/><path d="M146.6,193.45c-.53-.25-1.14-.12-1.53,.32l-20.32,22.98c.09,.41,.19,.81,.28,1.22,.91,4.01,1.84,8.13,3.94,11.26,.64,.95,2.09,.71,2.38-.4,1.55-6.09,6.32-21.47,16.11-26.92,4.17-2.32,8.89-2.92,14.02-1.8,.22,.05,.44,.1,.64,.14-.6-.25-1.22-.51-1.84-.77-4.77-1.99-9.5-4.01-13.68-6.02Z"/><g><path d="M123.44,236.58c-10.02-11.57-1.44-40.18-25.36-37.88,15.2-6.66,21.66-22.08,21.66-22.08,0,0,4.36-10.74,7.64,.1,3.29,10.84,51.24,28.21,27.27,21.72-23.97-6.49-29.19,38.25-29.19,38.25-.53,.69-1.58,.63-2.02-.12Z" style="fill:#3c502b;"/><path d="M124.49,238s-.08,0-.12,0c-.65-.04-1.24-.39-1.59-.93-3.74-4.36-4.96-10.97-6.14-17.36-2.05-11.1-3.99-21.6-18.49-20.19l-5.07,.49,4.67-2.04c14.73-6.46,21.17-21.49,21.24-21.64,.36-.88,2.26-5.24,4.93-5.24,.04,0,.07,0,.11,0,1.7,.08,3.05,1.85,4.13,5.42,1.73,5.69,17.8,13.97,26.44,18.42,7.12,3.67,7.89,4.11,7.49,5.15-.33,.86-.77,1.04-7.65-.82-4.54-1.23-8.7-.59-12.37,1.89-12.48,8.44-15.76,35.4-15.79,35.67l-.03,.22-.14,.18c-.39,.51-.99,.8-1.62,.8Zm-22.74-40.22c12.6,.55,14.58,11.25,16.49,21.63,1.14,6.2,2.32,12.61,5.81,16.64l.09,.12c.1,.17,.25,.2,.33,.2,.04,0,.14,0,.22-.05,.4-3.14,3.94-28.06,16.46-36.54,4.08-2.76,8.69-3.47,13.71-2.11,1.23,.33,2.21,.59,3.01,.78-1.18-.63-2.61-1.37-4.01-2.09-10.09-5.19-25.33-13.04-27.25-19.39-1.15-3.79-2.24-4.25-2.65-4.27-.01,0-.03,0-.04,0-1.16,0-2.73,2.52-3.43,4.24-.25,.6-5.81,13.58-18.74,20.84Z"/></g><g><path d="M123.06,225.61c-4.2-18.9-3.16-37.44,1.99-53.29-2.7-2.1-5.31,4.31-5.31,4.31,0,0-6.46,15.41-21.66,22.08,23.93-2.3,15.35,26.31,25.36,37.88,.44,.75,1.49,.82,2.02,.12,0,0,.07-.55,.21-1.49-1-3.12-1.88-6.32-2.61-9.61Z" style="fill:#56703c;"/><path d="M124.49,238s-.08,0-.12,0c-.68-.04-1.29-.42-1.63-1-3.69-4.24-4.91-10.88-6.1-17.29-2.05-11.1-3.99-21.6-18.49-20.19l-5.07,.49,4.67-2.04c14.73-6.46,21.17-21.49,21.24-21.64,.18-.45,1.89-4.51,4.27-5.15,.8-.21,1.58-.04,2.29,.51l.45,.35-.18,.54c-5.33,16.4-6.01,34.68-1.97,52.86h0c.69,3.11,1.56,6.32,2.59,9.54l.06,.18-.03,.19c-.14,.91-.2,1.46-.2,1.46l-.03,.22-.14,.18c-.39,.51-.99,.8-1.62,.8Zm-22.74-40.22c12.6,.55,14.58,11.25,16.49,21.63,1.14,6.2,2.32,12.61,5.81,16.64,.18,.28,.33,.32,.41,.32,.05,0,.14,0,.22-.05,.03-.23,.08-.58,.14-1.04-1.02-3.21-1.88-6.4-2.57-9.5h0c-4.05-18.23-3.43-36.56,1.8-53.06-.15-.03-.28-.01-.38,.02-1.21,.32-2.6,2.74-3.19,4.2-.25,.6-5.81,13.58-18.74,20.84Z"/></g><path d="M130.22,263.75l-1.18,74.51c.25,0,.49-.1,.67-.3l5.08-5.45h0l-4.57-68.77Z" style="fill:#444240;"/><path d="M130.22,263.75l-1.18,74.51c-.25-.01-.49-.12-.66-.32l-4.9-5.61h0l6.74-68.59Z" style="fill:#949492;"/><path d="M130.03,246.95c-2.36,3.99-4.72,7.99-7.08,11.98l7.16,3.45-.08-15.43Z" style="fill:#949492;"/><path d="M130.03,246.95c2.4,3.97,4.8,7.94,7.2,11.91l-7.12,3.52-.08-15.43Z" style="fill:#444240;"/><path d="M130.08,256.3l-7.12,2.64q7.15,3.45,7.15,3.45l-.03-6.09Z" style="fill:#494844;"/><path d="M130.08,256.3l7.15,2.57q-7.12,3.52-7.12,3.52l-.03-6.09Z" style="fill:#272622;"/><path d="M130.11,263.46l.03,5.79,7.09-9.42c-2.37,1.21-4.75,2.42-7.12,3.63Z" style="fill:#444240;"/><path d="M130.11,263.46l.03,5.79-7.18-9.35c2.39,1.19,4.77,2.38,7.16,3.56Z" style="fill:#949492;"/></g><g id="g"><g><path d="M273.78,381.89l-61.67-230.35v249.59c0,13.81-3.28,24.17-9.84,31.08-6.56,6.91-15.27,10.36-26.11,10.36s-19.07-3.42-25.72-10.24c-6.65-6.82-9.97-17.22-9.97-31.2V115.04c0-15.78,4.37-26.43,13.12-31.94,8.75-5.51,20.55-8.26,35.43-8.26h24.14c14.52,0,25.06,1.23,31.62,3.7s11.42,6.91,14.56,13.32c3.15,6.41,6.73,16.86,10.76,31.32l55.9,198.04,55.9-198.04c4.02-14.47,7.61-24.91,10.76-31.32,3.15-6.41,8-10.85,14.56-13.32s17.1-3.7,31.62-3.7h24.14c14.87,0,26.68,2.75,35.43,8.26,8.75,5.51,13.12,16.15,13.12,31.94V401.13c0,13.81-3.28,24.17-9.84,31.08-6.56,6.91-15.35,10.36-26.37,10.36-10.32,0-18.81-3.45-25.46-10.36-6.65-6.91-9.97-17.26-9.97-31.08V151.54l-61.67,230.35c-4.03,14.96-7.31,25.94-9.84,32.92-2.54,6.99-7.22,13.36-14.04,19.11-6.82,5.75-16.27,8.63-28.34,8.63-9.1,0-16.79-1.85-23.09-5.55-6.3-3.7-11.2-8.42-14.7-14.18-3.5-5.75-6.26-12.12-8.27-19.11-2.01-6.99-4.07-14.26-6.17-21.83Z" style="fill:#fff;"/><path d="M845.07,131.32h-175.56v88.79h161.65c11.9,0,20.77,2.51,26.64,7.52,5.86,5.02,8.79,11.63,8.79,19.85s-2.89,14.92-8.66,20.1c-5.77,5.18-14.7,7.77-26.77,7.77h-161.65v102.84h181.6c12.24,0,21.47,2.67,27.69,8.02,6.21,5.34,9.32,12.45,9.32,21.33s-3.11,15.5-9.32,20.84c-6.21,5.34-15.44,8.02-27.69,8.02h-211.77c-16.97,0-29.17-3.53-36.61-10.6-7.44-7.07-11.15-18.5-11.15-34.28V119.73c0-10.52,1.66-19.11,4.99-25.77,3.32-6.66,8.53-11.51,15.61-14.55,7.09-3.04,16.14-4.56,27.16-4.56h205.74c12.42,0,21.65,2.59,27.69,7.77s9.05,11.96,9.05,20.35-3.02,15.41-9.05,20.59c-6.04,5.18-15.27,7.77-27.69,7.77Z" style="fill:#fff;"/><path d="M1199.86,135.27h-85.02V397.93c0,15.13-3.59,26.35-10.76,33.66-7.18,7.31-16.45,10.98-27.82,10.98s-20.95-3.7-28.21-11.1c-7.26-7.4-10.89-18.58-10.89-33.54V135.27h-85.02c-13.3,0-23.18-2.75-29.65-8.26-6.47-5.51-9.71-12.78-9.71-21.83s3.37-16.77,10.1-22.2c6.73-5.43,16.49-8.14,29.26-8.14h247.73c13.47,0,23.49,2.8,30.05,8.39,6.56,5.59,9.84,12.91,9.84,21.95s-3.33,16.32-9.97,21.83c-6.65,5.51-16.62,8.26-29.92,8.26Z" style="fill:#fff;"/><path d="M1498.24,395.46l-18.37-45.38h-156.4l-18.37,46.37c-7.18,18.09-13.3,30.3-18.37,36.62-5.08,6.33-13.38,9.5-24.93,9.5-9.8,0-18.46-3.37-25.98-10.11-7.52-6.74-11.28-14.38-11.28-22.94,0-4.93,.87-10.03,2.62-15.29,1.75-5.26,4.63-12.58,8.66-21.95l98.41-234.79c2.8-6.74,6.17-14.84,10.1-24.29,3.94-9.45,8.14-17.3,12.6-23.55,4.46-6.25,10.32-11.3,17.58-15.17,7.26-3.86,16.22-5.8,26.9-5.8s19.9,1.93,27.16,5.8c7.26,3.87,13.12,8.84,17.58,14.92,4.46,6.08,8.22,12.62,11.28,19.61,3.06,6.99,6.95,16.32,11.68,27.99l100.51,233.31c7.87,17.76,11.81,30.67,11.81,38.72s-3.72,16.07-11.15,23.06c-7.44,6.99-16.4,10.48-26.9,10.48-6.13,0-11.38-1.03-15.75-3.08-4.38-2.06-8.05-4.85-11.02-8.39-2.98-3.53-6.17-8.96-9.58-16.28-3.41-7.31-6.34-13.77-8.79-19.36Zm-154.3-100.38h114.94l-58-149.21-56.95,149.21Z" style="fill:#fff;"/><path d="M1800.81,68.68c39.89,0,74.13,7.61,102.74,22.81,28.6,15.21,50.25,36.83,64.95,64.86,14.7,28.03,22.04,60.96,22.04,98.77,0,27.95-4.03,53.36-12.07,76.21-8.05,22.86-20.12,42.67-36.21,59.44-16.1,16.77-35.87,29.59-59.31,38.47-23.45,8.88-50.3,13.32-80.56,13.32s-57.04-4.56-80.83-13.69c-23.79-9.12-43.65-21.99-59.57-38.6-15.92-16.61-27.95-36.58-36.08-59.93-8.14-23.34-12.2-48.59-12.2-75.71s4.24-53.27,12.73-76.45c8.48-23.18,20.77-42.91,36.87-59.19,16.09-16.28,35.69-28.73,58.78-37.36,23.09-8.63,49.34-12.95,78.73-12.95Zm110.74,185.96c0-26.47-4.55-49.41-13.65-68.81-9.1-19.4-22.09-34.07-38.97-44.02-16.89-9.95-36.26-14.92-58.13-14.92-15.57,0-29.96,2.76-43.17,8.26-13.21,5.51-24.58,13.53-34.12,24.05-9.54,10.52-17.06,23.96-22.57,40.32-5.51,16.36-8.27,34.74-8.27,55.12s2.75,39.13,8.27,55.74c5.51,16.61,13.29,30.38,23.36,41.31,10.06,10.94,21.61,19.11,34.64,24.54,13.03,5.43,27.33,8.14,42.91,8.14,19.94,0,38.27-4.69,54.98-14.06,16.71-9.37,30-23.84,39.89-43.41,9.88-19.56,14.83-43.65,14.83-72.26Z" style="fill:#fff;"/><path d="M2336.15,379.43l-62.19-216.79-62.98,216.79c-4.9,16.44-8.79,28.24-11.68,35.39s-7.92,13.56-15.09,19.24c-7.17,5.67-16.71,8.51-28.6,8.51-9.62,0-17.54-1.69-23.75-5.06-6.21-3.37-11.24-8.14-15.09-14.3-3.85-6.17-7-13.48-9.45-21.95-2.45-8.47-4.64-16.32-6.56-23.55l-64.03-243.42c-3.85-14.14-5.77-24.91-5.77-32.31,0-9.37,3.5-17.26,10.5-23.68,7-6.41,15.66-9.62,25.98-9.62,14.17,0,23.7,4.28,28.6,12.82,4.9,8.55,9.18,20.96,12.86,37.24l50.38,211.11,56.42-197.55c4.2-15.12,7.96-26.64,11.28-34.53,3.32-7.89,8.75-14.71,16.27-20.47,7.52-5.75,17.75-8.63,30.7-8.63s23.31,3,30.57,9c7.26,6,12.29,12.54,15.09,19.61,2.8,7.07,6.56,18.74,11.28,35.02l56.95,197.55,50.38-211.11c2.45-11.01,4.76-19.65,6.95-25.9,2.19-6.25,5.95-11.84,11.28-16.77,5.33-4.93,13.08-7.4,23.22-7.4s18.76,3.17,25.85,9.5c7.09,6.33,10.63,14.27,10.63,23.8,0,6.74-1.93,17.51-5.77,32.31l-64.03,243.42c-4.38,16.44-8,28.49-10.89,36.13s-7.79,14.35-14.7,20.1c-6.91,5.75-16.66,8.63-29.26,8.63-11.9,0-21.43-2.8-28.6-8.39-7.17-5.59-12.16-11.88-14.96-18.87-2.8-6.99-6.74-18.95-11.81-35.88Z" style="fill:#fff;"/><path d="M2644.23,113.07V376.22h157.98c12.6,0,22.26,2.88,29,8.63,6.73,5.76,10.1,12.99,10.1,21.7s-3.33,16.07-9.97,21.58c-6.65,5.51-16.36,8.26-29.13,8.26h-188.16c-16.97,0-29.17-3.53-36.61-10.6-7.44-7.07-11.15-18.5-11.15-34.28V113.07c0-14.8,3.54-25.9,10.63-33.29,7.08-7.4,16.4-11.1,27.95-11.1s21.21,3.66,28.47,10.98c7.26,7.32,10.89,18.46,10.89,33.42Z" style="fill:#fff;"/></g></g><g id="h"/><g id="i"><rect x="101.76" y="152.77" width="13.44" height="1.43"/><path d="M140.73,152.77h-5.97v1.43h5.94c0-.48,0-.95,.03-1.43Z"/><path d="M115.21,171.41c-.45,0-.81-.32-.81-.72v-17.21c0-.4,.36-.72,.81-.72s.81,.32,.81,.72v17.21c0,.4-.36,.72-.81,.72Z"/><path d="M135.21,171.41c-.45,0-.81-.32-.81-.72v-17.21c0-.4,.36-.72,.81-.72s.81,.32,.81,.72v17.21c0,.4-.36,.72-.81,.72Z"/><path d="M115.21,171.41c-.16,0-.31-.04-.45-.12-.37-.22-.48-.66-.23-.99,.16-.21,3.96-5.13,9.84-5.41,3.79-.16,7.51,1.62,11.05,5.35,.29,.3,.24,.75-.1,1.01-.35,.25-.86,.21-1.15-.09-3.19-3.36-6.46-4.99-9.71-4.83-5.08,.24-8.54,4.73-8.57,4.77-.16,.21-.42,.32-.68,.32Z"/><g style="opacity:.75;"><circle cx="68.95" cy="155.01" r="32.65" style="fill:#242449;"/><path d="M68.95,187.86c-18.11,0-32.85-14.74-32.85-32.85s14.74-32.85,32.85-32.85,32.85,14.74,32.85,32.85-14.74,32.85-32.85,32.85Zm0-65.29c-17.89,0-32.44,14.55-32.44,32.44s14.55,32.44,32.44,32.44,32.44-14.55,32.44-32.44-14.55-32.44-32.44-32.44Z"/></g><path d="M36.31,153.64c-.23,0-.46-.1-.62-.29l-10.88-13.06c-.29-.35-.24-.86,.1-1.15,.34-.29,.86-.24,1.15,.1l10.88,13.06c.29,.35,.24,.86-.1,1.15-.15,.13-.34,.19-.52,.19Z"/><g style="opacity:.1;"><line x1="55.9" y1="159.36" x2="47.19" y2="146.3" style="fill:#575757;"/><path d="M55.9,160.99c-.53,0-1.04-.25-1.36-.73l-8.71-13.06c-.5-.75-.3-1.76,.45-2.26,.75-.5,1.76-.3,2.26,.45l8.71,13.06c.5,.75,.3,1.76-.45,2.26-.28,.18-.59,.27-.9,.27Z"/></g><g style="opacity:.1;"><line x1="55.9" y1="174.59" x2="47.19" y2="161.54" style="fill:#575757;"/><path d="M55.9,176.22c-.53,0-1.04-.25-1.36-.73l-8.71-13.06c-.5-.75-.3-1.76,.45-2.26s1.76-.3,2.26,.45l8.71,13.06c.5,.75,.3,1.76-.45,2.26-.28,.18-.59,.27-.9,.27Z"/></g></g><g id="j"/><g id="k"/><g id="l"/><g id="m"/><g id="n"/><g id="o"/><g id="p"/></svg>